<svg xmlns="http://www.w3.org/2000/svg" width="570" height="570" viewBox="0 0 570 570">
    <g id="Group_110" data-name="Group 110" transform="translate(-305 -1030)">
      <g id="Group_30" data-name="Group 30" transform="translate(305 1030)">
        <rect id="Rectangle_1" data-name="Rectangle 1" width="570" height="570" fill="none"/>
      </g>
      <g id="BISHOP" transform="translate(406.443 1088.95)">
        <path id="Path_4279" data-name="Path 4279" d="M134.408,54.962C54.582,149.023,40.117,191.61,93.63,302.712c1.924,5.194,2.885,16.158-9.233,25.775-28.237,7-56.321,5.347-78.287,53.282-15.965,34.816,2.308,63.284,20.389,47.7C9.187,456.21,63.93,452.209,73.433,443.707c6.078-5.463,12.311-21.543,36.932-14.234s54.628,2.5,69.439-15.388c38.278,37.893,81.48-12.234,101.177,13.849,24.236,32.123,52.7,24.429,58.283,20.389,11.926-8.656,2.462-13.926,0-24.814,13.157,12.311,37.393,14.35,23.852-35.97-19.235-71.555-63.669-53.666-82.712-58.86-10.195-2.77-7.156-19.12-4.77-25.852C354.267,161.526,284.52,102.9,257.9,57.655,272.133,34.188,239.817,1.681,217.5,17.069c-15-13.465-34.97-23.7-60.783-11.734C138.063,13.991,117.1,40.536,134.408,54.962Z" transform="translate(0.012 -0.043)" fill="#fbf6ee"/>
        <g id="Group_109" data-name="Group 109" transform="translate(30.031 26.984)">
          <path id="Path_4280" data-name="Path 4280" d="M376.408,432.506a52.4,52.4,0,0,0-11.041-18.966c-7.733-8.348-17.581-12.888-29.315-13.542-25.544-1.385-35.854,3.193-44.126,6.848-2.231,1-4.347,1.923-6.578,2.693-1.5.5-2.962,1.039-4.386,1.5-11.118,3.886-19.928,6.925-26.045,3.232a7.475,7.475,0,0,1,.923-.077,125.591,125.591,0,0,0,19.774-3.578c6.194-1.731,11.772-4.116,15.85-7.386a19.026,19.026,0,0,0,7.155-10.772,20.909,20.909,0,0,0-.731-10.926,34.05,34.05,0,0,0-4.5-8.848A24.371,24.371,0,0,0,289,367.721a2.794,2.794,0,0,1-.846-1.231,12.892,12.892,0,0,1-.769-2.424,45.2,45.2,0,0,1-.923-6.732c-.346-4.886-.231-9.925-.192-11.849v-.346a2.285,2.285,0,0,1,.846-1.847,3.412,3.412,0,0,1,1.385-.654,4.477,4.477,0,0,0,3.962-1.808,6.175,6.175,0,0,0,.769-4.078,23.749,23.749,0,0,0-2.616-7.925c21.582-34.431,26.622-63.361,24.737-86.6-1.885-23.39-10.733-40.894-16.5-52.32a87.305,87.305,0,0,1-4.309-9.233c-1.5-4.078-5.232-10.156-10.041-17.081-4.847-6.963-10.887-14.85-17-22.582-12.272-15.465-25.044-30.353-29.892-36.008-1-1.154-1.654-1.924-1.885-2.231l-.577-.692a26.741,26.741,0,0,1-2.424-3.155,4.161,4.161,0,0,1-.423-.808,4.316,4.316,0,0,0,.5-.192c2.039-.769,6.694-2.5,8.848-7,1.308-2.731.962-6.194,0-9.233a16.832,16.832,0,0,0-4.424-7.386A19.3,19.3,0,0,0,230.182,71a19.786,19.786,0,0,0-7.771-.654,16.283,16.283,0,0,0-7.386,3.116c-2.539,2-4.77,5.117-5.963,10a9.331,9.331,0,0,0,.231,5.578,9.976,9.976,0,0,0,2.77,3.924,24.318,24.318,0,0,0,7.194,3.962c.692.269,1.116.462,1.385.577a3.688,3.688,0,0,1-.346.962,35.128,35.128,0,0,1-1.923,3.193c-.5.731-1,1.5-1.346,2.116-8.117,6.655-30.507,30.776-61.9,79.711-16,24.929-16.311,55.128-10.349,82.6a212.367,212.367,0,0,0,27.391,66.323,19.561,19.561,0,0,0-3.385,4.809,5.4,5.4,0,0,0-.423,4,4.128,4.128,0,0,0,2.193,2.347,7.139,7.139,0,0,0,2.27.616,12.05,12.05,0,0,1,1.039,4.424,44.128,44.128,0,0,1-.038,7.117,97,97,0,0,1-2.039,13.08,10.428,10.428,0,0,0-3.924,2.539,23.765,23.765,0,0,0-3.77,4.924,32.594,32.594,0,0,0-4.27,11.695c-.5,3.77,1.193,7.617,3.886,11a35.685,35.685,0,0,0,10.656,8.771,37.9,37.9,0,0,0,9.733,3.039c4.116.846,8.964,1.577,13.888,2.193,2.77.346,5.578.616,8.271.885a32.2,32.2,0,0,1-12.234,3.232c-8.694.385-17.427.577-28.545-1.577a38.011,38.011,0,0,1-8.579-2.885c-6.309-2.731-13.465-5.809-36.124-4.54A41.846,41.846,0,0,0,91.5,421.58a52.283,52.283,0,0,0-11,18.889c-.308.539-3.078,8.387-2.308,9.194.385.385,2.077-.885,6.117-4.116,3.155-2.539,6.732-5.386,8.771-6.271-1.385,5.617-4.039,20.7-2.154,22.852a.672.672,0,0,0,.539.269h.077c2.039-.192,8.079-6.232,14.465-12.58a167.779,167.779,0,0,1,12.541-11.81c3.385-2.654,10.464-3.885,19.928-3.5A94.635,94.635,0,0,1,164.09,439.2a47.153,47.153,0,0,0,22.967,1.731,53.888,53.888,0,0,0,20.2-7.656c.616-.423,1.308-.846,2-1.308,4.886-3.155,11.195-7.232,16.119-11.195,3.732,5.078,7.81,9.772,11.272,12,5,3.27,14.465,4.655,26.66,3.924a118.24,118.24,0,0,0,29.391-5.463,94.635,94.635,0,0,1,25.621-4.732c9.464-.385,16.581.846,19.928,3.5,3.693,2.924,10.156,10.579,16.427,17.966,6.848,8.079,13.272,15.734,15.157,15.927h.038a.487.487,0,0,0,.346-.154c1.539-1.77-3.039-19.235-5.463-28.622-.385-1.539-.769-2.885-1-3.847,2.039.885,5.617,3.77,8.771,6.309,4.078,3.232,5.771,4.539,6.155,4.155C379.524,440.931,376.716,433.044,376.408,432.506ZM229.182,169.1Zm-7.963,0Zm-.115,51.858h1.039l.115-50.82h5.963L229.951,221l1.039-.038h0l-1.039.038.038,1h33.623l-.846,6.232H230.182l.038,1.077,1.039-.038h0l-1.039.038,2.385,70.132H221.988l.154-70.17h0v-1.039H190.98L189.211,222h32.931v-1.039Zm64.13,148.65Zm-83.058-17.273a66.927,66.927,0,0,1,.115,10.81,17.473,17.473,0,0,1-.962,4.655c-.5,1.154-.962,1.423-1.308,1.423-1.924,0-3.462-1.27-4.54-3.693a20.707,20.707,0,0,1-1.154-9.5,4.514,4.514,0,0,1,1.077-2.77,4.08,4.08,0,0,1,2.116-1.154A9.5,9.5,0,0,1,202.175,352.333Zm61.014-7.079c4.232-.154,7.848-.269,10.772-.115,2.962.154,4.963.577,6.078,1.346l.154.115c.077.154.192.346.308.615l.115.346c-.154-.077-.346-.154-.577-.269a10.383,10.383,0,0,0-4.078-1.154,4.322,4.322,0,0,0-2.077.462,3.793,3.793,0,0,0-1.577,1.539,11.754,11.754,0,0,0-1.116,5.848c0,.731,0,1.269-.038,1.654v.192a2.133,2.133,0,0,0-.654.115,3.525,3.525,0,0,0-1.154.654,1.122,1.122,0,0,1-.077-.346c-.077-.423-.192-.885-.308-1.462a22.8,22.8,0,0,0-1.27-4.732,4.559,4.559,0,0,0-3.77-3.116,68.518,68.518,0,0,0-7.925-.038h0a37.635,37.635,0,0,1-4.116.038c-1.116-.077-3.962.077-7.079.231a35.044,35.044,0,0,0,7.194-1.577C255.957,345.524,259.766,345.37,263.19,345.255ZM228.3,344.87a24.11,24.11,0,0,0,8.156,1.193c2.462.038,4.193.077,5.771,1.116l.308.192.269-.039,1.077,1.423c1.27,1.654,2.462,4.424,3.655,9.041-.038,3.308-2.231,6.617-5.924,9.156a22.245,22.245,0,0,1-4.347,2.308,13.274,13.274,0,0,0,1.077-1,18.935,18.935,0,0,0,4.655-11,5.735,5.735,0,0,0-1.385-4.54,10.465,10.465,0,0,0-4.193-2.731,29.7,29.7,0,0,0-10.349-1.654v.039h0v-.039h-.077a23.573,23.573,0,0,0-9.618.885,9.18,9.18,0,0,0-4,2.539,6.334,6.334,0,0,0-1.423,4.655c.308,4.847,1.77,9.31,4.232,12.387.231.308.5.577.731.846a19.424,19.424,0,0,1-3.539-1.423c-3.616-1.847-5.694-4.5-5.694-7.81,0-3.385,2.424-7.271,6.386-10.387A24.156,24.156,0,0,1,228.3,344.87Zm40.471,12.157Zm.731.115Zm-13.542-9.271Zm3.578,17.543c-1.039,2.424-2.578,3.693-4.54,3.693-.346,0-.808-.231-1.308-1.423a17.472,17.472,0,0,1-.962-4.655,66.981,66.981,0,0,1,.115-10.81,9.979,9.979,0,0,1,4.655-.269,4.08,4.08,0,0,1,2.116,1.154,4.514,4.514,0,0,1,1.077,2.77A19.82,19.82,0,0,1,259.535,365.413Zm-7.617-13.926Zm4.039-3.616h0v-.039h0Zm-7.425,9.81Zm-3.847-9.541-.077-1.039h0l.077,1.039Zm41.471,21.351Zm0,0ZM176.977,345.409a6.657,6.657,0,0,1,3.193-.846c1.5-.077,3.308,0,5.578.115a79.592,79.592,0,0,0,19.543-.885c.231.038.423.077.616.115.308.039.654.039,1,.077.423.039.808.039,1.116.077a2.954,2.954,0,0,1-.462.654,3.281,3.281,0,0,1-2.308,1.077,37.638,37.638,0,0,1-4.116-.039l-.038,1.039h0l.038-1.039h0a68.533,68.533,0,0,0-7.925.039,4.754,4.754,0,0,0-3.655,2.116,14.449,14.449,0,0,0-1.5,3.155,7.116,7.116,0,0,1-.346.885,2.034,2.034,0,0,0-1.462-.616,1.368,1.368,0,0,0-.385.077,9.393,9.393,0,0,0-1.077-4.386,4.031,4.031,0,0,0-1.577-1.539,4.322,4.322,0,0,0-2.077-.462,10.19,10.19,0,0,0-4.078,1.193c-.231.115-.423.192-.577.269l.115-.346a1.835,1.835,0,0,1,.308-.616l.077-.115-.577-.846h0Zm57.052,33.854c-7.348.077-25.929-.308-41.279-2.731-9.695-1.5-14.85-2.578-17.389-3.578-1.308-.539-1.577-.923-1.616-1.077-.038-.115-.038-.346.308-1a1.489,1.489,0,0,1,.462-.115,4.884,4.884,0,0,1,2.154.385,15.4,15.4,0,0,0,6.886,1.193,3.257,3.257,0,0,0,.923-.308c.269-.154.5-.346.769-.5.462-.385.962-.846,1.423-1.27.269-.269.539-.5.731-.692v.385c.038,1.154,0,2.962,1.731,3.962a2.423,2.423,0,0,0,.346.154c.077.038.192.038.269.077.192.038.462.077.731.154.577.115,1.346.231,2.347.346,1.924.269,4.616.577,7.809.885,6.386.616,14.888,1.308,23.775,1.693,8.848.423,18.081.539,25.929.115a91.835,91.835,0,0,0,10.5-1.116,23.037,23.037,0,0,0,7.309-2.308l.346-.192.115-.385a25.112,25.112,0,0,1,1.116-2.924c0-.038.038-.038.038-.077a2.216,2.216,0,0,0,.154.269,18.644,18.644,0,0,0,1.346,2.193,4.2,4.2,0,0,0,.923.923,1.858,1.858,0,0,0,1.539.269,6.92,6.92,0,0,0,.923-.385c.385-.154.885-.385,1.423-.654,1.731-.769,4.116-1.847,6.117-2.616a15.584,15.584,0,0,1,2.5-.769,1.888,1.888,0,0,1,.423-.038,4.045,4.045,0,0,0,.269.423h0a2.212,2.212,0,0,1,.154.269v.038a.836.836,0,0,1-.192.115c-1.308.693-22.313,11.08-51.166,8.848l-.077,1.039h0Z" transform="translate(-78.051 -70.185)" fill="#724335"/>
          <path id="Path_4281" data-name="Path 4281" d="M483.577,873.6H483.5v1.039Z" transform="translate(-327.522 -564.522)" fill="#724335"/>
          <path id="Path_4282" data-name="Path 4282" d="M522.715,98.29c-.808,2.077-1.885,4.27-2.347,4.27-.654,0-3.424,2.039-8.579,7.656l-.077.077.077.077c25.16,26.468,45.7,54.282,59.322,80.442,12.195,23.39,18.389,44.51,17.35,59.514l.193.038c12.888-54.436-24.852-121.028-55.9-151.151.115-.038.192-.077.308-.115,4.77-1.808,7.771-4.5,8.964-7.963A11.845,11.845,0,0,0,540.8,81.44c-4.347-5.617-9.079-8.5-14.08-8.54H526.6c-5.424,0-10.041,3.385-12.58,6.578-2.616,4.693-3.116,8.733-1.5,12.08C514.444,95.521,519.022,97.636,522.715,98.29Z" transform="translate(-344.808 -71.855)" fill="#724335"/>
        </g>
      </g>
    </g>
  </svg>  