<svg width="200" height="200" fill="none" viewbox="0 0 200 200">
    <g id="Group_110" data-name="Group 110" transform="translate(-305 -1030)">
        <g id="BISHOP" transform="translate(340.606 1050.641)">
            <path id="Path_4279" data-name="Path 4279"
                d="M47.153,19.313c-28.009,33-33.085,47.946-14.308,86.93.675,1.822,1.012,5.669-3.24,9.044-9.908,2.457-19.762,1.876-27.469,18.7-5.6,12.216.81,22.2,7.154,16.738-6.074,9.381,13.134,7.978,16.468,4.994,2.133-1.917,4.319-7.559,12.958-4.994s19.168.877,24.365-5.4c13.431,13.3,28.59-4.292,35.5,4.859,8.5,11.271,18.493,8.571,20.45,7.154,4.185-3.037.864-4.886,0-8.706,4.616,4.32,13.12,5.035,8.369-12.621-6.749-25.107-22.34-18.83-29.022-20.653-3.577-.972-2.511-6.709-1.674-9.071C124.3,56.7,99.824,36.132,90.483,20.258,95.477,12.024,84.138.618,76.309,6.017,71.045,1.293,64.039-2.3,54.982,1.9,48.435,4.937,41.079,14.251,47.153,19.313Z"
                transform="translate(0)" fill="#fbf6ee" />
            <g id="Group_109" data-name="Group 109" transform="translate(10.525 9.511)">
                <path id="Path_4280" data-name="Path 4280"
                    d="M182.737,197.315a18.384,18.384,0,0,0-3.874-6.655,14.647,14.647,0,0,0-10.286-4.751c-8.963-.486-12.581,1.12-15.483,2.4-.783.351-1.525.675-2.308.945-.526.175-1.039.364-1.539.526-3.9,1.363-6.992,2.43-9.138,1.134a2.624,2.624,0,0,1,.324-.027,44.068,44.068,0,0,0,6.938-1.255,15.732,15.732,0,0,0,5.561-2.592,6.676,6.676,0,0,0,2.511-3.78,7.336,7.336,0,0,0-.256-3.834,11.947,11.947,0,0,0-1.579-3.1,8.551,8.551,0,0,0-1.539-1.741.98.98,0,0,1-.3-.432,4.524,4.524,0,0,1-.27-.85,15.861,15.861,0,0,1-.324-2.362c-.121-1.714-.081-3.483-.067-4.158v-.121a.8.8,0,0,1,.3-.648,1.2,1.2,0,0,1,.486-.229,1.571,1.571,0,0,0,1.39-.634,2.167,2.167,0,0,0,.27-1.431,8.333,8.333,0,0,0-.918-2.781c7.573-12.081,9.341-22.232,8.679-30.385-.661-8.207-3.766-14.349-5.791-18.358a30.634,30.634,0,0,1-1.512-3.24,31.875,31.875,0,0,0-3.523-5.993c-1.7-2.443-3.82-5.21-5.966-7.924-4.306-5.426-8.787-10.65-10.488-12.635-.351-.4-.58-.675-.661-.783l-.2-.243a9.383,9.383,0,0,1-.85-1.107,1.46,1.46,0,0,1-.148-.283,1.515,1.515,0,0,0,.175-.067,5.28,5.28,0,0,0,3.1-2.457,4.54,4.54,0,0,0,0-3.24,5.906,5.906,0,0,0-1.552-2.592,6.773,6.773,0,0,0-2.47-1.161,6.942,6.942,0,0,0-2.727-.229,5.713,5.713,0,0,0-2.592,1.093,6.119,6.119,0,0,0-2.092,3.51A3.274,3.274,0,0,0,124.1,76.8a3.5,3.5,0,0,0,.972,1.377,8.533,8.533,0,0,0,2.524,1.39c.243.094.391.162.486.2a1.294,1.294,0,0,1-.122.337,12.328,12.328,0,0,1-.675,1.12c-.175.256-.351.526-.472.742-2.848,2.335-10.7,10.8-21.719,27.969-5.615,8.747-5.723,19.343-3.631,28.981a74.515,74.515,0,0,0,9.611,23.271,6.863,6.863,0,0,0-1.188,1.687,1.9,1.9,0,0,0-.148,1.4,1.448,1.448,0,0,0,.769.823,2.5,2.5,0,0,0,.8.216,4.228,4.228,0,0,1,.364,1.552,15.484,15.484,0,0,1-.014,2.5,34.034,34.034,0,0,1-.715,4.589,3.659,3.659,0,0,0-1.377.891,8.338,8.338,0,0,0-1.323,1.728,11.437,11.437,0,0,0-1.5,4.1,5.27,5.27,0,0,0,1.363,3.861,12.521,12.521,0,0,0,3.739,3.078,13.3,13.3,0,0,0,3.415,1.066c1.444.3,3.145.553,4.873.769.972.122,1.957.216,2.9.31a11.3,11.3,0,0,1-4.292,1.134,39.785,39.785,0,0,1-10.016-.553,13.338,13.338,0,0,1-3.01-1.012c-2.214-.958-4.724-2.038-12.675-1.593a14.683,14.683,0,0,0-10.272,4.738,18.345,18.345,0,0,0-3.861,6.628c-.108.189-1.08,2.943-.81,3.226.135.135.729-.31,2.146-1.444a19.233,19.233,0,0,1,3.078-2.2c-.486,1.971-1.417,7.262-.756,8.018a.236.236,0,0,0,.189.094h.027c.715-.067,2.835-2.187,5.075-4.414a58.867,58.867,0,0,1,4.4-4.144c1.188-.931,3.672-1.363,6.992-1.228a33.205,33.205,0,0,1,8.99,1.647,16.545,16.545,0,0,0,8.059.607,18.908,18.908,0,0,0,7.087-2.686c.216-.148.459-.3.7-.459,1.714-1.107,3.928-2.538,5.656-3.928a18.02,18.02,0,0,0,3.955,4.212c1.755,1.147,5.075,1.633,9.354,1.377a41.488,41.488,0,0,0,10.313-1.917,33.206,33.206,0,0,1,8.99-1.66c3.321-.135,5.818.3,6.992,1.228a61.068,61.068,0,0,1,5.764,6.3c2.4,2.835,4.657,5.521,5.318,5.588h.013a.171.171,0,0,0,.121-.054c.54-.621-1.066-6.749-1.917-10.043-.135-.54-.27-1.012-.351-1.35a19.46,19.46,0,0,1,3.078,2.214c1.431,1.134,2.025,1.593,2.16,1.458C183.831,200.271,182.845,197.5,182.737,197.315Zm-51.658-92.424Zm-2.794,0Zm-.041,18.2h.364l.04-17.831h2.092l.607,17.845.364-.014h0l-.364.014.014.351h11.8l-.3,2.187H131.43l.014.378.364-.014h0l-.364.014.837,24.608h-3.726L128.609,126h0v-.364H117.675l-.621-2.187h11.555v-.364Zm22.5,52.158ZM121.6,169.184a23.482,23.482,0,0,1,.04,3.793,6.131,6.131,0,0,1-.337,1.633c-.175.4-.337.5-.459.5-.675,0-1.215-.445-1.593-1.3a7.265,7.265,0,0,1-.4-3.334,1.584,1.584,0,0,1,.378-.972,1.431,1.431,0,0,1,.742-.4A3.332,3.332,0,0,1,121.6,169.184Zm21.408-2.484c1.485-.054,2.754-.094,3.78-.04a4.419,4.419,0,0,1,2.133.472l.054.04c.027.054.067.121.108.216l.04.121c-.054-.027-.121-.054-.2-.094a3.643,3.643,0,0,0-1.431-.4,1.517,1.517,0,0,0-.729.162,1.331,1.331,0,0,0-.553.54,4.124,4.124,0,0,0-.391,2.052c0,.256,0,.445-.013.58v.067a.748.748,0,0,0-.229.041,1.237,1.237,0,0,0-.4.229.394.394,0,0,1-.027-.121c-.027-.148-.067-.31-.108-.513a8,8,0,0,0-.445-1.66,1.6,1.6,0,0,0-1.323-1.093,24.044,24.044,0,0,0-2.781-.013h0a13.2,13.2,0,0,1-1.444.013c-.391-.027-1.39.027-2.484.081a12.3,12.3,0,0,0,2.524-.553C140.474,166.8,141.81,166.741,143.012,166.7Zm-12.243-.135a8.459,8.459,0,0,0,2.862.418,3.564,3.564,0,0,1,2.025.391l.108.067.094-.014.378.5a9.086,9.086,0,0,1,1.282,3.172,4.189,4.189,0,0,1-2.079,3.213,7.805,7.805,0,0,1-1.525.81,4.658,4.658,0,0,0,.378-.351,6.644,6.644,0,0,0,1.633-3.861,2.012,2.012,0,0,0-.486-1.593,3.672,3.672,0,0,0-1.471-.958,10.421,10.421,0,0,0-3.631-.58v.014h0v-.014h-.027a8.271,8.271,0,0,0-3.375.31,3.221,3.221,0,0,0-1.4.891,2.222,2.222,0,0,0-.5,1.633,7.825,7.825,0,0,0,1.485,4.346c.081.108.175.2.256.3a6.816,6.816,0,0,1-1.242-.5,3.123,3.123,0,0,1-2-2.74,5.118,5.118,0,0,1,2.241-3.645A8.476,8.476,0,0,1,130.769,166.566Zm14.2,4.266Zm.256.04Zm-4.751-3.253Zm1.255,6.155a1.774,1.774,0,0,1-1.593,1.3c-.121,0-.283-.081-.459-.5a6.13,6.13,0,0,1-.337-1.633,23.5,23.5,0,0,1,.04-3.793,3.5,3.5,0,0,1,1.633-.094,1.432,1.432,0,0,1,.742.4,1.584,1.584,0,0,1,.378.972A6.954,6.954,0,0,1,141.729,173.774Zm-2.673-4.886Zm1.417-1.269h0V167.6h0Zm-2.605,3.442Zm-1.35-3.348-.027-.364h0l.027.364ZM151.07,175.2Zm0,0Zm-38.309-8.45a2.336,2.336,0,0,1,1.12-.3c.526-.027,1.161,0,1.957.041a27.927,27.927,0,0,0,6.857-.31c.081.013.148.027.216.04.108.014.229.014.351.027.148.014.283.014.391.027a1.036,1.036,0,0,1-.162.229,1.151,1.151,0,0,1-.81.378,13.2,13.2,0,0,1-1.444-.014l-.013.364h0l.013-.364h0a24.052,24.052,0,0,0-2.781.014,1.668,1.668,0,0,0-1.282.742,5.07,5.07,0,0,0-.526,1.107,2.5,2.5,0,0,1-.121.31.714.714,0,0,0-.513-.216.479.479,0,0,0-.135.027,3.3,3.3,0,0,0-.378-1.539,1.414,1.414,0,0,0-.553-.54,1.517,1.517,0,0,0-.729-.162,3.576,3.576,0,0,0-1.431.418c-.081.04-.148.067-.2.094l.04-.121a.644.644,0,0,1,.108-.216l.027-.041-.2-.3h0Zm20.018,11.879a99.685,99.685,0,0,1-14.484-.958,35.3,35.3,0,0,1-6.1-1.255c-.459-.189-.553-.324-.567-.378s-.013-.122.108-.351a.522.522,0,0,1,.162-.04,1.714,1.714,0,0,1,.756.135,5.4,5.4,0,0,0,2.416.418,1.143,1.143,0,0,0,.324-.108c.094-.054.175-.121.27-.175.162-.135.337-.3.5-.445.094-.095.189-.175.256-.243v.135a1.452,1.452,0,0,0,.607,1.39.852.852,0,0,0,.121.054c.027.013.067.013.094.027.067.013.162.027.256.054.2.04.472.081.823.121.675.094,1.62.2,2.74.31,2.241.216,5.224.459,8.342.594s6.344.189,9.1.04a32.222,32.222,0,0,0,3.685-.391,8.083,8.083,0,0,0,2.565-.81l.122-.067.04-.135a8.811,8.811,0,0,1,.391-1.026c0-.013.014-.013.014-.027a.777.777,0,0,0,.054.094,6.543,6.543,0,0,0,.472.769,1.473,1.473,0,0,0,.324.324.652.652,0,0,0,.54.094,2.425,2.425,0,0,0,.324-.135c.135-.054.31-.135.5-.229.607-.27,1.444-.648,2.146-.918a5.469,5.469,0,0,1,.877-.27.663.663,0,0,1,.148-.013,1.419,1.419,0,0,0,.094.148h0a.777.777,0,0,1,.054.094v.014a.294.294,0,0,1-.067.04,36.135,36.135,0,0,1-17.953,3.1l-.027.364h0Z"
                    transform="translate(-78.051 -70.185)" fill="#724335" />
                <path id="Path_4281" data-name="Path 4281" d="M483.527,873.6H483.5v.364Z"
                    transform="translate(-428.771 -765.152)" fill="#724335" />
                <path id="Path_4282" data-name="Path 4282"
                    d="M515.5,81.809c-.283.729-.661,1.5-.823,1.5-.229,0-1.2.715-3.01,2.686l-.027.027.027.027c8.828,9.287,16.036,19.046,20.815,28.225,4.279,8.207,6.452,15.618,6.088,20.882l.068.013c4.522-19.1-8.72-42.466-19.613-53.035.04-.013.067-.027.108-.04a4.851,4.851,0,0,0,3.145-2.794,4.156,4.156,0,0,0-.432-3.4c-1.525-1.971-3.186-2.983-4.94-3h-.041a5.915,5.915,0,0,0-4.414,2.308c-.918,1.647-1.093,3.064-.526,4.239A4.917,4.917,0,0,0,515.5,81.809Z"
                    transform="translate(-453.073 -72.533)" fill="#724335" />
            </g>
        </g>
    </g>
</svg>