<svg xmlns="http://www.w3.org/2000/svg" width="570" height="570" viewBox="0 0 570 570">
    <g id="Group_106" data-name="Group 106" transform="translate(-705 -1030)">
      <g id="Group_15" data-name="Group 15" transform="translate(705 1030)">
        <g id="Group_20" data-name="Group 20" transform="translate(0 0)">
          <rect id="Rectangle_1" data-name="Rectangle 1" width="570" height="570" fill="none"/>
        </g>
      </g>
      <g id="KING" transform="translate(746.108 1074.547)">
        <path id="Path_4270" data-name="Path 4270" d="M486.759,208.67c-19.774-69.289-86.809-84.238-120.425-78.9-13.644-9.689-35-18.588-58.334-22.147-23.1-3.52,0-11.865,2.966-11.865s10.283,3.559,10.085-26.893c-.158-24.362-22.068-28.475-33.023-27.486-1.9-34.526-30.1-41.922-44.136-41.328-14.04-.593-42.238,6.842-44.136,41.328C188.8,40.39,166.89,44.5,166.732,68.865c-.2,30.452,7.119,26.893,10.085,26.893s26.063,8.345,2.966,11.865c-23.334,3.559-44.69,12.458-58.334,22.147-33.616-5.339-100.651,9.61-120.425,78.9C-3.209,243.947,3.356,321.62,63.312,350.254c-6.8,26.221-13.17,81.628,15.622,93.335,32.865,13.367,83.329,37.571,164.957,37.334,81.628.237,132.092-24.006,164.957-37.334,28.791-11.706,22.424-67.114,15.622-93.335C484.425,321.62,490.951,243.947,486.759,208.67Z" transform="translate(0.009 -0.019)" fill="#fbf6ee"/>
        <g id="Group_105" data-name="Group 105" transform="translate(34.028 28.848)">
          <path id="Path_4271" data-name="Path 4271" d="M251.8,837.719h0l.079-.119Z" transform="translate(-186.241 -535.196)" fill="#724335"/>
          <path id="Path_4272" data-name="Path 4272" d="M470.787,215.628c-22.029-17.8-55.566-19.933-81.905-10.4h0l.04.119h0l-.04-.119c-1.068.514-2.057,1.068-2.966,1.582q-.475-1.364-.949-2.61l-.119.04h0l.119-.04v-.04h0c-20.17-20.051-40.419-25.627-57.543-24.481-1.028.079-2.057.158-3.045.277a30.5,30.5,0,0,0-5.339-25.272,38.355,38.355,0,0,0-15.9-12.3c-.158-2.729-.4-7.079-.435-11.35a71.25,71.25,0,0,1,.435-10.915,2.531,2.531,0,0,1,1.9-1.819,14.694,14.694,0,0,1,4.271-.791,101.19,101.19,0,0,1,11.825.277c2.887.158,5.576.356,7.633.316a11.6,11.6,0,0,0,2.571-.237,3.392,3.392,0,0,0,.831-.277,1.03,1.03,0,0,0,.475-.435,7.352,7.352,0,0,0,.593-3.2,17.192,17.192,0,0,0-.554-4.311c-.791-3.006-2.373-6.13-4.864-7.949a6.343,6.343,0,0,0-2.729-.949,20.107,20.107,0,0,0-3.836-.079c-2.808.158-6.011.672-8.938,1.147a64.188,64.188,0,0,1-6.723.87,5.325,5.325,0,0,1-1.938-.158.92.92,0,0,1-.435-.277.518.518,0,0,1-.079-.435,29.758,29.758,0,0,0-.04-5.339c-.158-2.452-.4-5.458-.712-8.424s-.712-5.932-1.068-8.345a36.521,36.521,0,0,0-1.028-5.1,2.758,2.758,0,0,0-2.254-1.5,12.979,12.979,0,0,0-3.718,0,26.976,26.976,0,0,0-3.638.712c-.514.119-.989.277-1.345.4a3.807,3.807,0,0,0-.751.316,4.694,4.694,0,0,0-1.622,1.424,11.612,11.612,0,0,0-1.582,3.915,24.9,24.9,0,0,0-.4,5.537c0,2.373.119,5.1.237,7.672a74.6,74.6,0,0,1,.119,8.7,1.281,1.281,0,0,1-.554.791,5.751,5.751,0,0,1-1.463.633,24.99,24.99,0,0,1-5.023.712c-4.034.277-9.215.237-13.763.158-4.192-.04-7.91-.119-9.808.119a3.3,3.3,0,0,0-2.61,1.9,9.309,9.309,0,0,0-.831,3.836,31.1,31.1,0,0,0,1.226,8.543l.039.079h.079c4.667-.119,11.825-.2,18.074,0,3.124.119,6.051.277,8.305.554a19.262,19.262,0,0,1,2.848.475,4.737,4.737,0,0,1,1.542.593,2.7,2.7,0,0,1,.672,1.226,13.511,13.511,0,0,1,.4,2.175,45.478,45.478,0,0,1,.119,6.288c-.158,4.706-.712,10.045-1.187,13.526-10.757,4.785-16.175,10.045-19.181,17.125a15.61,15.61,0,0,0-.83,5.7,51.365,51.365,0,0,0,.672,7.475,118.382,118.382,0,0,0,2.887,13.051c-39.9-10.995-71.939,8.068-84.99,21.514-24.56-6.011-53.074-2.531-72.611,13.209-22.068,17.8-32.588,51.294-13.011,104.329h0l.119-.04h0l-.119.04c2.531,6.407,9.215,14.87,18.825,23.729a195.253,195.253,0,0,0,36.424,25.983l.04-.119h0l-.04.119a9.572,9.572,0,0,0,4.232.672l-.119.593-.04.158h.158c.316-.04.712.2,1.068,1.028a13.013,13.013,0,0,1,.791,4.232c.277,4.153-.119,11.153-1.977,22.464-2.333,14.158-4.113,26.5-4.9,35.91a82.97,82.97,0,0,0-.316,11.746,21.137,21.137,0,0,0,.554,3.994,6.781,6.781,0,0,0,1.107,2.571,4.87,4.87,0,0,0,.633.593c.316.237.712.514,1.186.87A40.8,40.8,0,0,0,158,462.688a131.124,131.124,0,0,0,14.593,6.684c12.576,5.023,30.887,10.718,54.617,14.752C274.666,492.152,343.8,493.3,432.465,468.3h0a4.557,4.557,0,0,0,2.333-1.424,3.89,3.89,0,0,0,.751-3.638c1.226-15.582,2.689-39.232,3.124-59.521.2-10.124.158-19.458-.316-26.458a64.41,64.41,0,0,0-1.028-8.661,18.023,18.023,0,0,0-.791-2.729c-.119-.237-.2-.435-.316-.633a186.648,186.648,0,0,0,28.831-21.554c9.61-8.819,16.294-17.283,18.825-23.729l-.119-.04h0l.119.04C503.375,266.923,492.855,233.465,470.787,215.628ZM123.195,298.6Zm333.711-5.932-13.17,8.384c-8.78,2.413-10.6,8.543-10.4,11.35,0,3.362,1.028,9.531,1.938,15.108.4,2.333.751,4.588,1.028,6.526a36.685,36.685,0,0,1,.475,4.469,10.689,10.689,0,0,1-2.215,5.576,18.278,18.278,0,0,1-7.158,5.932c-6.6,3.124-17.085,3.6-32.588-4.232-2.729-3.994-3.757-9.413-.949-15.661,2.847-6.288,9.61-13.486,22.5-21.04h0l-.079-.079h0l.079.079c9.413-8.622,10.915-20.051,8.859-31.955-2.017-11.944-7.633-24.4-12.458-35.238-3.243-7.237-6.13-13.684-7.435-18.786a16.01,16.01,0,0,1-.593-6.446,5.014,5.014,0,0,1,2.689-3.836,52.032,52.032,0,0,1,32.667,8.859c11.43,7.831,21.356,21.633,23.887,45.006h0c.04.4.079.87.119,1.384C464.578,273.8,465.369,284.878,456.906,292.669Zm-165.194,141.7c-7.277.633-26.656-2.017-46.114-17.718a229.362,229.362,0,0,1,23.057-13.565,91.036,91.036,0,0,1,12.1-5.141A24.962,24.962,0,0,1,285.7,396.8a8.675,8.675,0,0,1,3.718.158,197.222,197.222,0,0,1,23.017,8.9,100.223,100.223,0,0,1,11.074,5.814,25.7,25.7,0,0,1,3.6,2.689,5.231,5.231,0,0,1,1.621,2.294,2.143,2.143,0,0,1-.751,1.819,13.7,13.7,0,0,1-2.768,2.215,65.9,65.9,0,0,1-9.808,4.944C307.689,429.033,298.118,432.315,291.711,434.372ZM146.726,318.217Zm-2.848,21.673c.277-1.9.633-4.153,1.028-6.525.949-5.616,1.938-11.746,1.938-15.108h0c.2-2.808-1.621-8.938-10.4-11.35l-13.17-8.384c-8.5-7.791-7.672-18.9-7.237-24.6.04-.514.079-.949.079-1.384,2.531-23.373,12.458-37.215,23.887-45.006a51.974,51.974,0,0,1,32.667-8.859,5.014,5.014,0,0,1,2.689,3.836,15.333,15.333,0,0,1-.593,6.446c-1.305,5.062-4.192,11.548-7.435,18.786-4.825,10.8-10.441,23.294-12.458,35.238s-.514,23.334,8.859,31.955l.079-.079h0l-.079.079h0c12.893,7.554,19.656,14.752,22.5,21.04,2.847,6.249,1.819,11.667-.949,15.661-15.5,7.831-25.983,7.356-32.588,4.232a17.682,17.682,0,0,1-7.158-5.932,11.047,11.047,0,0,1-2.215-5.576C143.4,343.37,143.6,341.788,143.879,339.89ZM116,272.5Zm145.736,82.459Zm17.56-165.985Zm27.17-11.192a26.732,26.732,0,0,1,1.424,4.35,10.568,10.568,0,0,1,.277,1.859,65.71,65.71,0,0,0-16.215,9.017,16.132,16.132,0,0,1-3.006-.158,25.832,25.832,0,0,1-9.571-3.955,20.5,20.5,0,0,1-.237-7,13.042,13.042,0,0,1,3.678-7.831,16.014,16.014,0,0,1,8.978-4.232,13.514,13.514,0,0,1,6.051.356c.2.079.4.158.633.237a12.8,12.8,0,0,1,7.989,7.356Zm79.295,238.834ZM198.337,430.931c-1.226,2.966-3.915,5.576-9.531,6.565a42.987,42.987,0,0,0-11.627,3.994,20.848,20.848,0,0,1-4.39,1.74,4.7,4.7,0,0,1-3.718-.633c-1.819-1.107-2.966-3.559-3.678-6.209a29.21,29.21,0,0,1-.91-7.2,27.181,27.181,0,0,1,3.4-10.164c2.057-3.441,5.062-6.209,9.413-6.367a36.8,36.8,0,0,1,14.949,2.373,16.17,16.17,0,0,1,4.944,2.927,5.217,5.217,0,0,1,1.977,3.6v.316h0C199.4,424.564,199.6,427.925,198.337,430.931Zm186.788-3.8a.754.754,0,0,1-.316-.277.953.953,0,0,1,0-.593c.079-.277.237-.672.435-1.226.158-.435.356-.989.593-1.621a9.035,9.035,0,0,0,.119-6.328,1.221,1.221,0,0,1-.079-.316c0-.04-.04-.079-.04-.119a47.977,47.977,0,0,1,10.718-7.91c4.311-2.215,8.819-3.322,12.181-1.305,1.582.949,3.322,1.9,5.1,2.887,3.915,2.136,7.87,4.311,10.441,6.526a8.007,8.007,0,0,1,2.531,3.283,3.127,3.127,0,0,1-.712,3.2c-.831.989-1.542,1.938-2.215,2.848a19.723,19.723,0,0,1-4.944,5.26c-1.977,1.266-4.627,1.977-8.661,1.74a30.73,30.73,0,0,1-11.588-3.006c-2.057-.91-3.678-1.621-5.458-1.345a18.394,18.394,0,0,0-2.175.435,2.9,2.9,0,0,1-.87.158,1.493,1.493,0,0,1-.712-.2,11.9,11.9,0,0,1-1.305-.633,5.942,5.942,0,0,0-.712-.356c-.672-.316-1.186-.554-1.621-.751l-.039.119h0l.039-.119C385.56,427.332,385.323,427.253,385.125,427.134ZM407.47,212.7Zm-63.08-1.424h0l-.079.079h0c6.209,4.667,10.994,8.226,14.672,12.5,3.678,4.232,6.328,9.136,8.226,16.452,4.192,16.017,1.028,31.6-3.6,39.034a131.871,131.871,0,0,1-8.028,11.034c-1.5,1.938-2.927,3.757-4.113,5.418a29.744,29.744,0,0,0-2.689,4.271l.119.04h0l-.119-.04h0a13.166,13.166,0,0,0,3.638,14.079c.554.514,1.107.989,1.661,1.463,2.848,2.492,5.26,4.588,6.921,7a14.728,14.728,0,0,1,2.65,8.859,29.53,29.53,0,0,1-3.52,13.6c-2.412,4.429-6.09,8.187-11.232,9.689-10.322,3.006-18.548,2.847-32.865,0-4.192-8.384-7.949-29.859,10.2-48.843l-.079-.079h0l.079.079h0c3.441-3.718,8.226-13.842,0-24.441-.316-.435-.633-.831-.949-1.266-9.887-12.774-19.656-25.43-22.859-43.7-2.65-15.068,1.9-24.916,4.469-27.921a38.648,38.648,0,0,1,14.791-4.746c6.169-.672,13.011.277,18.944,4.746,1.305.989,2.531,1.9,3.717,2.808h0l.04-.119Zm-73.521-2.689ZM233.259,211.4l.079.079h0c1.186-.91,2.412-1.819,3.718-2.808,5.893-4.469,12.774-5.418,18.944-4.746a39.1,39.1,0,0,1,14.791,4.746c2.571,3.045,7.079,12.853,4.469,27.921-3.2,18.271-12.972,30.927-22.859,43.7-.2.237-.356.475-.554.672-.158.2-.277.356-.435.554-8.186,10.6-3.4,20.723,0,24.441h0l.079-.079h0l-.079.079c18.153,18.983,14.356,40.458,10.2,48.842-14.356,2.848-22.582,2.966-32.865,0-5.141-1.5-8.819-5.26-11.232-9.689a29.53,29.53,0,0,1-3.52-13.6,14.468,14.468,0,0,1,2.65-8.859c1.661-2.412,4.073-4.509,6.921-7,.514-.475,1.068-.949,1.661-1.463a13.23,13.23,0,0,0,3.638-14.079h0l-.119.039h0l.119-.039a27.715,27.715,0,0,0-2.689-4.271c-1.187-1.661-2.61-3.48-4.113-5.418a131.855,131.855,0,0,1-8.028-11.034c-4.627-7.475-7.791-23.017-3.6-39.034,1.9-7.316,4.548-12.221,8.226-16.452,3.718-4.232,8.463-7.831,14.673-12.5Zm-60.588,7.119ZM302.983,142.5Zm-19.5,1.028Zm148.9,324.694Z" transform="translate(-86.032 -72.961)" fill="#724335"/>
          <path id="Path_4273" data-name="Path 4273" d="M1091.679,697.439h0l-.079-.039Z" transform="translate(-693.912 -450.443)" fill="#724335"/>
        </g>
      </g>
    </g>
  </svg>  