<svg xmlns="http://www.w3.org/2000/svg" width="570" height="570" viewBox="0 0 570 570">
    <g id="Group_112" data-name="Group 112" transform="translate(-105 -1030)">
      <g id="Group_32" data-name="Group 32" transform="translate(105 1030)">
        <rect id="Rectangle_2" data-name="Rectangle 2" width="570" height="570" fill="none"/>
      </g>
      <g id="KNIGHT" transform="translate(171.14 1097.102)">
        <path id="Path_4283" data-name="Path 4283" d="M70.3,141.711c15.416-24.9,36.878-56.773,45.276-71.143C109.605,46.12,126.85,25.628,133.121,18.8c6.42-6.98,17.17-30.869,28.069-11.086,2.613,4.7,16.311,24.15,25.755,32.959,1.717-3.4-1.157-14.93,5.151-23.665,14.3-19.895,31.578-4.367,59.871,0S293.1,40.67,309.448,49.218,327.664,82.1,346.364,95.427c19.409,13.848,24.374,50.614,28.368,62.708,4.031,12.318,11.086,31.5,16.8,42.925,8.4,16.8-3.1,27.285,3.7,43.3s-17.506,46.284-6.495,55.242c13.848,11.272-10.339,51.435-4.292,55.616s-.933,64.947-19.6,73.719c-30.981,14.557-43.41-4.255-68.306,0-26.128,4.479-116.158,2.389-191,6.868-17.058,1.008-27.621-24.448-14.184-61.588,3.471-9.593,9.7-25.008,21.276-40.125,5.487-7.167,14.968-23.142,20.6-35.945a7.612,7.612,0,0,1-1.008.858c-18.1,13.437-28.33,26.427-47.031,29.711-20.753,3.621-42.552-3.023-49.084-5.823-6.831-2.911-8.062-9.369-23.515-25.942-15.042-16.088-15.565-71.069-6.943-83.8S51.377,172.281,70.3,141.711Z" transform="translate(-0.026 -0.035)" fill="#fbf6ee"/>
        <g id="Group_111" data-name="Group 111" transform="translate(28.861 24.646)">
          <path id="Path_4284" data-name="Path 4284" d="M415.093,318.251l-.075-.112h0l.075.112h0l.037-.075c2.464-12.691,3.471-19.783,3.7-24.411a23.839,23.839,0,0,0-1.157-9.406c-.112-.336-.187-.672-.3-1.045a10.739,10.739,0,0,0-3.546-4.778,46.586,46.586,0,0,0-6.42-4.628,98.922,98.922,0,0,0-11.795-6.159,10.608,10.608,0,0,1-4.74-4.292,10.721,10.721,0,0,1-1.642-5.263,4.255,4.255,0,0,1,2.426-3.546c1.344-.709,2.874-.709,3.77.411a7.5,7.5,0,0,0,2.165,1.605c1.008.6,2.314,1.232,3.7,1.9,2.837,1.306,6.2,2.725,9.108,3.919,1.754.709,3.322,1.381,4.516,1.9a2.7,2.7,0,0,0,1.717.261,1.961,1.961,0,0,0,1.194-.859,7.786,7.786,0,0,0,.933-3.994,39.4,39.4,0,0,0-1.418-10.787,7.917,7.917,0,0,0-2.016-3.658,8.269,8.269,0,0,0-3.546-2.016c-2.874-.858-6.868-.858-12.094-.485a40.415,40.415,0,0,1-5.45.112,5.449,5.449,0,0,1-2.837-.821,3.484,3.484,0,0,1-1.269-2.053,26.607,26.607,0,0,1-.6-3.658c-.075-.709-.187-1.53-.336-2.389a5.586,5.586,0,0,1,.336-3.658,2.512,2.512,0,0,1,2.128-1.194,11.92,11.92,0,0,1,3.546.448c1.344.336,2.837.821,4.367,1.306,1.045.336,2.09.672,3.173,1.008,3.658,1.082,5.786.672,7.092-.56,1.307-1.194,1.754-3.21,2.128-5.151a4.693,4.693,0,0,0-1.792-4.367,22.137,22.137,0,0,0-4.33-2.837,11.4,11.4,0,0,1-1.195-.672,1.891,1.891,0,0,1-.672-.747,6.856,6.856,0,0,1-.523-1.269,31,31,0,0,1-.859-3.546,29.84,29.84,0,0,0-1.456-5.45c-.672-1.605-1.6-2.8-3.061-3.061a5.955,5.955,0,0,0-3.359.56,21.342,21.342,0,0,0-3.434,2.053c-2.8,1.829-5.972,3.957-10.265,3.957a5.953,5.953,0,0,1-4.554-2.128,13.808,13.808,0,0,1-2.687-4.964,43.22,43.22,0,0,1-1.792-9.779c0-.187-.037-.336-.037-.448a1.424,1.424,0,0,1,.411-1.008,5.575,5.575,0,0,1,1.269-1.157,15.042,15.042,0,0,1,4.106-2.016,10.15,10.15,0,0,1,4.479-.523,3.294,3.294,0,0,1,2.837,2.128,15.266,15.266,0,0,0,2.687,4.292,25.079,25.079,0,0,0,4.143,3.845,11.005,11.005,0,0,0,3.994,2.053,2.467,2.467,0,0,0,1.493-.112,1.61,1.61,0,0,0,.821-1.157,12.994,12.994,0,0,0-.523-5.9,30.389,30.389,0,0,0-1.978-4.89l-.112.075h0l.112-.075v-.037h-.037c-2.389-1.344-7.017-6.271-6.383-15.378.224-2.911-.933-6.681-2.874-10.713a82.153,82.153,0,0,0-7.5-12.355,91.347,91.347,0,0,0-8.7-10.414,34.62,34.62,0,0,0-3.733-3.359,8.154,8.154,0,0,0-2.8-1.53,16.16,16.16,0,0,0-15.117,4.554c-1.978,1.978-4.927,2.538-7.838,2.464a25.489,25.489,0,0,1-7.54-1.53,5.934,5.934,0,0,1-2.538-2.2,16.191,16.191,0,0,1-2.016-4.106c-1.045-3.135-1.306-6.831,0-9.7a3.015,3.015,0,0,1,1.68-1.642,5.327,5.327,0,0,1,2.613-.224,34.382,34.382,0,0,1,6.98,2.016c1.717.635,3.471,1.232,5.114,1.68a10.925,10.925,0,0,0,4.4.411,3.579,3.579,0,0,0,2.949-2.352,7.7,7.7,0,0,0,.037-4.33,17.99,17.99,0,0,0-5.076-8.772c-2.09-1.829-4.7-1.978-7.167-2.128a15,15,0,0,1-4.069-.634,4.6,4.6,0,0,1-2.8-2.687c-2.389-5.487-6.607-9.369-11.086-9.369a2.313,2.313,0,0,0-1.978.933,5.005,5.005,0,0,0-.859,2.314,31.482,31.482,0,0,0,.112,6.457c.112,1.306.224,2.538.224,3.546a3.035,3.035,0,0,1-1.045,2.352,6.64,6.64,0,0,1-2.687,1.232,32.587,32.587,0,0,1-7.129.485h-.9a2.743,2.743,0,0,1-2.464-1.6,15.251,15.251,0,0,1-1.232-3.621,22.107,22.107,0,0,0-.933-3.023,3.658,3.658,0,0,0-1.642-1.978,2.964,2.964,0,0,0-1.754-.112,12.686,12.686,0,0,0-2.426.672c-1.792.635-3.919,1.642-6.009,2.613-1.978.933-3.919,1.829-5.562,2.426a10.077,10.077,0,0,1-2.165.6,2.3,2.3,0,0,1-1.381-.075c-.3-.149-.448-.523-.411-1.194a8.789,8.789,0,0,1,.6-2.5,23.288,23.288,0,0,1,4.106-6.681c3.882-4.516,9.779-8.249,16.573-5.823a31.653,31.653,0,0,0,12.989,2.09c3.173-.3,5.188-1.269,6.084-2.128l.075-.075-.037-.075-.112.075h0l.112-.075c-2.5-4.143-6.719-7.167-11.87-9.331a67.579,67.579,0,0,0-17.357-4.292,167.675,167.675,0,0,0-30.085-.6c-.411-1.68-.821-3.247-1.344-4.778-1.232-3.807-3.135-8.249-6.905-8.51-4.7-.336-7.577,5.636-11.982,14.706-2.463,5.114-5.3,10.9-8.436,15.229-2.613,3.583-4.479,8.66-5.823,14.445C226,102.507,217,91.16,206.516,78.507c-2.949-3.546-5.487-6.607-6.681-8.4l-1.418-2.053L196.4,69.549c-5.748,4.218-8.921,13.96-9.443,29a131.078,131.078,0,0,0,2.2,28.629c.747-.448,1.493-.9,2.24-1.306s1.493-.858,2.24-1.269c2.016-1.12,4.106-2.165,6.2-3.173,6.905-3.247,16.386-6.831,24.6-6.831.821,0,1.642.037,2.426.112a5.57,5.57,0,0,0,.784.075c.112,0,.224.037.373.037l-.635,4.143-.037.3-.187,1.344v.112c-.112,0-.224-.037-.3-.037h-.112a10.178,10.178,0,0,0-1.53-.112c-5.9-.224-13.7,2.128-21.388,5.6a106.782,106.782,0,0,0-17.581,10.078,140.131,140.131,0,0,0-31.391,37.625c-14.93,26.2-41.469,60.767-53.637,75.622-9.555,4.74-26.389,20.828-23.553,48.86,3.583,35.5,9.667,37.7,24.374,39.64a26.683,26.683,0,0,1,3.583.747,12.841,12.841,0,0,0,.411-1.53c.112-.485.224-1.008.3-1.53,1.082-5.935,1.493-14.594,3.471-16.871,3.733-4.292,17.357-16.871,22.022-21.089,5.786-5.263,10.265-11.982,14-9.555s-5.226,8.249-8.212,10.675c-1.866,1.53-3.546,3.733-5.786,5.972-2.053,2.053-16.05,14.184-16.61,17.543a132.266,132.266,0,0,0-1.754,15.677v1.68a10.991,10.991,0,0,0,.187,1.754c6.719,2.426,13.624,4.778,20.679,3.023,8.174-2.053,14.893-9.443,20.455-22.657,4.927-2.65,40.611-22.1,50.726-37.326a13.128,13.128,0,0,0,.261-3.658c-.037-.56-.112-1.12-.187-1.68-1.12-6.793-5.935-14.333-9.07-18.14-.485.261-1.792.3-3.4-1.493-1.978-2.24,4.106-1.68,6.084-1.68s4.778,8.7,7.017,11.5c1.194,1.493,3.061,6.42,4.554,10.787.187.6.373,1.157.56,1.717q.28.9.56,1.68c7.689,1.344,19.969,3.285,23.665,2.464l.149-.037a44.867,44.867,0,0,0,6.98-2.837q.56-1.232,1.12-2.352a30.128,30.128,0,0,1,1.456-2.65c2.053-3.434,4.516-6.2,7.54-7.54a19.681,19.681,0,0,0,5.561-3.807,39.951,39.951,0,0,0,6.532-8.66c3.4-5.935,5.711-12.355,7.316-16.013,1.008-1.568,2.389-3.957,3.882-6.532,2.053-3.621,4.33-7.577,6.084-10.19,2.09-3.1,3.4-4.255,2.8-.56-1.493,9-6.271,26.613-7.8,30.122,22.881.149,32.1-4.479,21.836.485-5.487,2.65-25.046,15.826-13.475,16.983,16.759,1.68,19.372,4.4,18.551,7.727-5.86,1.045-17.58,3.621-17.767,5.711-.187,2.65,8.622,18.252,5.524,18.439s-18.962-20.268-16.8-14.3,5.786,28.48,1.717,28.7c-.9-.821-15.975-24-19.633-38.782-.075-.3-.149-.6-.224-.858a12.574,12.574,0,0,0,.56-2.5c.672-5.674-11.758,17.58-19.895,24.113-.336.411-.635.784-.933,1.157-1.008,1.269-1.9,2.352-2.613,3.247-36.206,33.257-67.709,103.8-79.318,136.5l-.747,2.128,184.091-2.687h1.12l.336-1.082c19.223-58.938,28.405-113.172,30.607-133.59v-.224c-2.165-44.269-10.675-79.8-25.979-108.544-12.765-24-30.085-43.559-56.064-63.491-5.524-4.218-13.176-10.078-24.672-13.549.56-2.837.97-5.674,1.269-8.473l.037.523h0v.112h.112c11.123,1.68,21.761,7.316,33.332,17.394s24.075,24.523,38.931,43.783c34.713,64.238,36.542,110.746,34.638,151.693-.672,14.744-5.188,39.3-10.451,62.222-5.226,22.955-11.16,44.269-14.669,52.518l-.037.112.112.037.037-.112h0l-.037.112c5.748,2.128,16.871,3.322,27.994,3.4a137.054,137.054,0,0,0,16.05-.747,47.294,47.294,0,0,0,12.131-2.65,7,7,0,0,0,3.247-3.247,20.783,20.783,0,0,0,1.941-5.972,85.564,85.564,0,0,0,1.045-17.506c-.3-13.288-2.2-28.592-3.471-38.931-.373-2.911-.672-5.412-.9-7.353,11.683-8.137,12.616-22.134,10.339-28.7-1.792-5.151-5.263-5.9-6.943-5.6-.709-2.874.261-5.935,1.792-8.585A28.116,28.116,0,0,1,415.093,318.251ZM258.66,119.117c-.075.523-.149,1.045-.261,1.605-.075.523-.187,1.045-.261,1.568a144.547,144.547,0,0,1-5.412,20.94c-.56,1.642-1.157,3.285-1.754,4.927l-.261.672-.635.336c-.187.112-.485.224-.858.411a23.088,23.088,0,0,1-8.772,2.277h-.224a9.025,9.025,0,0,1-2.837-.448,5.945,5.945,0,0,1-3.135-2.389,4.789,4.789,0,0,1-.411-.746l-.224-.448.037-.485c.3-3.658,1.344-16.088,2.949-26.5.075-.56.187-1.082.261-1.605.075-.56.187-1.082.261-1.6,1.008-5.674,2.2-10.339,3.546-11.907h0a39.967,39.967,0,0,0,5.45-9.07c.56-1.157,1.045-2.165,1.493-2.949.448-.747,1.232-2.5,2.016-4.18,2.464-5.45,3.135-6.905,4.927-6.719a2.016,2.016,0,0,1,1.754,1.642c0,.037.112.3.187.523a57.853,57.853,0,0,1,3.061,15.677A87.485,87.485,0,0,1,258.66,119.117ZM102.526,298.991a7.211,7.211,0,0,1-6.905-2.576,4.576,4.576,0,0,1-.97-4.7c1.493-3.509,9.294-13.624,13.811-16.087a9.407,9.407,0,0,1,4.069-1.418,1.632,1.632,0,0,1,1.082.336c.448.373.523,1.045.224,1.9-1.68,1.754-4.89,6.308-5.076,10.9C108.535,292.5,107.639,297.946,102.526,298.991Zm258.93-133.739.261-.224h-.373a57,57,0,0,1-13.363-.97A11.413,11.413,0,0,1,343.2,162a2.907,2.907,0,0,1-.933-1.53,3,3,0,0,1,.373-1.941c1.9-3.733,4.33-6.159,7.54-6.868,3.247-.746,7.353.187,12.654,3.247,5.3,3.023,8.174,5.9,9.779,8.622a14.273,14.273,0,0,1,1.829,7.614,4.724,4.724,0,0,1-1.456,3.21,8.539,8.539,0,0,1-3.509,2.128,7,7,0,0,1-8.025-2.2,7.483,7.483,0,0,1-1.754-5.674A5.815,5.815,0,0,1,361.456,165.252Zm14.3,237.916c.485-3.023,2.165-5.524,5.263-6.233l-.037-.112h0v-.112a16.634,16.634,0,0,1-8.249-1.866,5.674,5.674,0,0,1-2.613-2.986,7.13,7.13,0,0,1,.336-4.89c1.941-5.039,4.852-8.025,7.913-9.331a9.286,9.286,0,0,1,8.846.784,31.083,31.083,0,0,1,8.4,8.1,11.826,11.826,0,0,1,2.09,5.188,6.5,6.5,0,0,1-1.568,5c-.672.821-1.418,1.754-2.24,2.725h0a102.454,102.454,0,0,1-9.331,10.526,13.853,13.853,0,0,1-4.218,2.911,2.844,2.844,0,0,1-1.642.149,1.978,1.978,0,0,1-1.232-.933A13.19,13.19,0,0,1,375.751,403.168Zm14.594-95.816h0v-.037h0a23.974,23.974,0,0,0-1.12-6.308,9.521,9.521,0,0,0-1.493-2.874,4.078,4.078,0,0,0-2.352-1.53,2.472,2.472,0,0,1-2.016-1.9,4.061,4.061,0,0,1,.672-3.173c1.418-2.053,4.815-3.583,10.675-1.568,5.823,2.016,8.958,7.54,10.451,12.915a35.381,35.381,0,0,1,1.232,7.391,20.636,20.636,0,0,1-.037,2.687,4.623,4.623,0,0,1-.3,1.493,14.955,14.955,0,0,0-.485,1.418h0a16.65,16.65,0,0,1-3.733,7.2c-2.352,2.5-6.233,4.666-12.84,5a16.453,16.453,0,0,1-8.734-1.53,8.447,8.447,0,0,1-3.957-4.255,8.545,8.545,0,0,1-.523-4.74,4.133,4.133,0,0,1,1.605-2.911,15.131,15.131,0,0,1,3.845-1.194,21.865,21.865,0,0,0,5.375-1.68A7.263,7.263,0,0,0,390.346,307.352Zm.187,45.65c-.784-.746-1.53-1.381-2.165-1.941-1.829-1.6-3.1-2.687-3.621-4.143-.56-1.418-.373-3.21.709-6.159a9.495,9.495,0,0,1,6.159-3.994c3.023-.56,6.943.224,11.646,4.031,2.949,2.352,3.882,4.591,3.658,6.495-.261,1.941-1.717,3.583-3.733,4.852a16.207,16.207,0,0,1-6.905,2.239C393.929,354.569,391.764,354.159,390.533,353ZM264.856,91.422c.448-.075.9-.187,1.418-.3a153.37,153.37,0,0,1,15.453-2.687,19.624,19.624,0,0,1,6.01.037,1.808,1.808,0,0,1,1.269.747c.187.336.149.746-.224,1.381-.821,1.381-2.5,2.426-4.7,3.21a36.374,36.374,0,0,1-7.5,1.642,73.91,73.91,0,0,1-11.5.485C265.08,94.408,264.968,92.915,264.856,91.422ZM209.987,196.457a8.938,8.938,0,0,1-5.785,5.076c-7.876,2.762-9.182,2.5-10.339,2.314-.075,0-.112-.037-.187-.037a43.613,43.613,0,0,1-9.219,2.538,32.439,32.439,0,0,1-8.66,2.09,6.221,6.221,0,0,0-3.173,1.082c-1.232,1.381-2.575,2.911-3.919,4.516-.373.411-.709.821-1.082,1.269-.709,1.12-1.344,2.277-1.9,3.322-.485.858-.933,1.642-1.306,2.314-2.314,3.807-5.226,7.913-9.07,9.891a2.986,2.986,0,0,1-1.418.373,2.4,2.4,0,0,1-1.306-.373c-1.941-1.194-2.762-4.89-2.762-6.159,0-1.568,6.271-5.039,8.4-6.159,2.24-2.389,4.554-5.076,6.719-7.614a27.925,27.925,0,0,0,4.106-9.481c.112-2.463.859-7.988,2.65-11.2,2.314-4.106,10.824-4.106,17.655-4.106h13.288a18.2,18.2,0,0,0,1.978-.411c5.076-1.232,5.338-4.442,5.338-4.442l4.852-.373c.485,2.613-.6,6.607-4.33,11.048A9.274,9.274,0,0,1,209.987,196.457Z" transform="translate(-77.349 -66.064)" fill="#724335"/>
          <path id="Path_4285" data-name="Path 4285" d="M890.8,951.912l.037.149-.037-.261Z" transform="translate(-587.172 -621.191)" fill="#724335"/>
        </g>
      </g>
    </g>
  </svg>  