<svg width="200" height="200" fill="none" viewbox="0 0 200 200">
    <g id="Group_112" data-name="Group 112" transform="translate(-105 -1030)">
        <g id="KNIGHT" transform="translate(128.181 1053.509)">
            <path id="Path_4283" data-name="Path 4283"
                d="M24.684,49.746c5.409-8.736,12.94-19.92,15.886-24.963-2.1-8.578,3.955-15.769,6.156-18.165,2.253-2.449,6.025-10.831,9.849-3.89a70.614,70.614,0,0,0,9.037,11.564c.6-1.192-.406-5.239,1.807-8.3,5.016-6.981,11.08-1.532,21.007,0s14.433,8.3,20.169,11.3,6.391,11.538,12.953,16.214c6.81,4.859,8.552,17.759,9.954,22A131.561,131.561,0,0,0,137.4,70.57c2.947,5.894-1.087,9.574,1.3,15.192s-6.142,16.24-2.279,19.383c4.859,3.955-3.628,18.047-1.506,19.514s-.327,22.788-6.876,25.866c-10.87,5.108-15.232-1.493-23.967,0-9.168,1.572-40.757.838-67.016,2.41-5.985.354-9.692-8.578-4.977-21.61a52.041,52.041,0,0,1,7.465-14.079,74.671,74.671,0,0,0,7.229-12.612,2.672,2.672,0,0,1-.354.3c-6.352,4.715-9.94,9.273-16.5,10.425-7.282,1.27-14.93-1.061-17.222-2.043-2.4-1.022-2.829-3.287-8.251-9.1C-.842,98.571-1.025,79.279,2,74.813S18.044,60.472,24.684,49.746Z"
                transform="translate(0 0)" fill="#fbf6ee" />
            <g id="Group_111" data-name="Group 111" transform="translate(10.153 8.683)">
                <path id="Path_4284" data-name="Path 4284"
                    d="M195.856,154.551l-.026-.039h0l.026.039h0l.013-.026a66.329,66.329,0,0,0,1.3-8.565,8.365,8.365,0,0,0-.406-3.3c-.039-.118-.065-.236-.1-.367a3.768,3.768,0,0,0-1.244-1.676,16.347,16.347,0,0,0-2.253-1.624,34.712,34.712,0,0,0-4.139-2.161,3.722,3.722,0,0,1-1.663-1.506,3.762,3.762,0,0,1-.576-1.847,1.493,1.493,0,0,1,.851-1.244,1.022,1.022,0,0,1,1.323.144,2.631,2.631,0,0,0,.76.563c.354.21.812.432,1.3.668,1,.458,2.174.956,3.2,1.375.616.249,1.166.485,1.585.668a.949.949,0,0,0,.6.092.688.688,0,0,0,.419-.3,2.732,2.732,0,0,0,.327-1.4,13.825,13.825,0,0,0-.5-3.785,2.778,2.778,0,0,0-.707-1.283,2.9,2.9,0,0,0-1.244-.707,12.759,12.759,0,0,0-4.243-.17,14.181,14.181,0,0,1-1.912.039,1.912,1.912,0,0,1-1-.288,1.222,1.222,0,0,1-.445-.72,9.338,9.338,0,0,1-.21-1.283c-.026-.249-.066-.537-.118-.838a1.96,1.96,0,0,1,.118-1.283.881.881,0,0,1,.747-.419,4.182,4.182,0,0,1,1.244.157c.471.118,1,.288,1.532.458.367.118.733.236,1.113.354,1.283.38,2.03.236,2.488-.2a3.235,3.235,0,0,0,.747-1.807,1.647,1.647,0,0,0-.629-1.532,7.767,7.767,0,0,0-1.519-1,4,4,0,0,1-.419-.236.663.663,0,0,1-.236-.262,2.4,2.4,0,0,1-.183-.445,10.874,10.874,0,0,1-.3-1.244,10.47,10.47,0,0,0-.511-1.912,1.55,1.55,0,0,0-1.074-1.074,2.089,2.089,0,0,0-1.179.2,7.489,7.489,0,0,0-1.2.72,6.441,6.441,0,0,1-3.6,1.388,2.089,2.089,0,0,1-1.6-.747,4.844,4.844,0,0,1-.943-1.742,15.165,15.165,0,0,1-.629-3.431c0-.065-.013-.118-.013-.157a.5.5,0,0,1,.144-.354,1.956,1.956,0,0,1,.445-.406,5.278,5.278,0,0,1,1.441-.707,3.561,3.561,0,0,1,1.572-.183,1.156,1.156,0,0,1,1,.747,5.357,5.357,0,0,0,.943,1.506,8.8,8.8,0,0,0,1.454,1.349,3.862,3.862,0,0,0,1.4.72.866.866,0,0,0,.524-.039.565.565,0,0,0,.288-.406,4.56,4.56,0,0,0-.183-2.069,10.663,10.663,0,0,0-.694-1.716l-.039.026h0l.039-.026v-.013h-.013c-.838-.471-2.462-2.2-2.24-5.4a8.012,8.012,0,0,0-1.008-3.759,28.825,28.825,0,0,0-2.632-4.335,32.052,32.052,0,0,0-3.052-3.654,12.147,12.147,0,0,0-1.31-1.179,2.861,2.861,0,0,0-.982-.537,5.67,5.67,0,0,0-5.3,1.6,3.673,3.673,0,0,1-2.75.864,8.943,8.943,0,0,1-2.646-.537,2.082,2.082,0,0,1-.891-.773,5.681,5.681,0,0,1-.707-1.441,4.837,4.837,0,0,1,0-3.405,1.058,1.058,0,0,1,.589-.576,1.869,1.869,0,0,1,.917-.079,12.064,12.064,0,0,1,2.449.707c.6.223,1.218.432,1.794.589a3.833,3.833,0,0,0,1.545.144,1.256,1.256,0,0,0,1.035-.825,2.7,2.7,0,0,0,.013-1.519,6.312,6.312,0,0,0-1.781-3.078,3.921,3.921,0,0,0-2.515-.747,5.262,5.262,0,0,1-1.428-.223,1.613,1.613,0,0,1-.982-.943c-.838-1.925-2.318-3.287-3.89-3.287a.812.812,0,0,0-.694.327,1.756,1.756,0,0,0-.3.812,11.047,11.047,0,0,0,.039,2.266c.039.458.079.891.079,1.244a1.065,1.065,0,0,1-.367.825,2.33,2.33,0,0,1-.943.432,11.434,11.434,0,0,1-2.5.17h-.314a.963.963,0,0,1-.864-.563,5.351,5.351,0,0,1-.432-1.27,7.758,7.758,0,0,0-.327-1.061,1.283,1.283,0,0,0-.576-.694,1.04,1.04,0,0,0-.616-.039,4.452,4.452,0,0,0-.851.236c-.629.223-1.375.576-2.109.917-.694.327-1.375.642-1.951.851a3.536,3.536,0,0,1-.76.21.808.808,0,0,1-.485-.026c-.1-.052-.157-.183-.144-.419a3.083,3.083,0,0,1,.21-.877,8.171,8.171,0,0,1,1.441-2.344c1.362-1.585,3.431-2.894,5.815-2.043a11.106,11.106,0,0,0,4.558.733,3.691,3.691,0,0,0,2.135-.747l.026-.026-.013-.026-.039.026h0l.039-.026a8.546,8.546,0,0,0-4.165-3.274,23.712,23.712,0,0,0-6.09-1.506,58.834,58.834,0,0,0-10.556-.21c-.144-.589-.288-1.139-.471-1.676-.432-1.336-1.1-2.894-2.423-2.986-1.65-.118-2.659,1.978-4.2,5.16a36.69,36.69,0,0,1-2.96,5.343,14.235,14.235,0,0,0-2.043,5.068c-.891-2.79-4.047-6.771-7.727-11.211-1.035-1.244-1.925-2.318-2.344-2.947l-.5-.72-.707.524c-2.017,1.48-3.13,4.9-3.313,10.176a45.993,45.993,0,0,0,.773,10.045c.262-.157.524-.314.786-.458s.524-.3.786-.445c.707-.393,1.441-.76,2.174-1.113,2.423-1.139,5.75-2.4,8.631-2.4.288,0,.576.013.851.039a1.954,1.954,0,0,0,.275.026c.039,0,.079.013.131.013l-.223,1.454-.013.1-.065.471v.039c-.039,0-.079-.013-.1-.013h-.039a3.572,3.572,0,0,0-.537-.039,18.375,18.375,0,0,0-7.5,1.965,37.468,37.468,0,0,0-6.169,3.536,49.169,49.169,0,0,0-11.014,13.2c-5.239,9.194-14.551,21.322-18.82,26.534-3.353,1.663-9.259,7.308-8.264,17.144,1.257,12.455,3.392,13.228,8.552,13.909a9.363,9.363,0,0,1,1.257.262,4.506,4.506,0,0,0,.144-.537c.039-.17.079-.354.1-.537.38-2.082.524-5.121,1.218-5.92,1.31-1.506,6.09-5.92,7.727-7.4,2.03-1.847,3.6-4.2,4.911-3.353s-1.834,2.894-2.881,3.746c-.655.537-1.244,1.31-2.03,2.1-.72.72-5.632,4.977-5.828,6.156a46.406,46.406,0,0,0-.616,5.5v.589a3.856,3.856,0,0,0,.065.616c2.357.851,4.78,1.676,7.256,1.061,2.868-.72,5.226-3.313,7.177-7.95,1.729-.93,14.249-7.753,17.8-13.1a4.606,4.606,0,0,0,.092-1.283c-.013-.2-.039-.393-.065-.589a15.473,15.473,0,0,0-3.183-6.365c-.17.092-.629.1-1.192-.524-.694-.786,1.441-.589,2.135-.589s1.676,3.052,2.462,4.034a18.491,18.491,0,0,1,1.6,3.785c.065.21.131.406.2.6s.131.406.2.589c2.7.471,7.007,1.153,8.3.864l.052-.013a15.743,15.743,0,0,0,2.449-1q.2-.432.393-.825a10.569,10.569,0,0,1,.511-.93,6.269,6.269,0,0,1,2.646-2.646,6.906,6.906,0,0,0,1.951-1.336,14.018,14.018,0,0,0,2.292-3.038,52.323,52.323,0,0,0,2.567-5.619c.354-.55.838-1.388,1.362-2.292.72-1.27,1.519-2.659,2.135-3.575.733-1.087,1.192-1.493.982-.2a79,79,0,0,1-2.737,10.569c8.028.052,11.263-1.572,7.662.17-1.925.93-8.788,5.553-4.728,5.959,5.88.589,6.8,1.545,6.509,2.711-2.056.367-6.169,1.27-6.234,2-.065.93,3.025,6.4,1.938,6.47s-6.653-7.112-5.894-5.016,2.03,9.993.6,10.071c-.314-.288-5.605-8.421-6.889-13.608-.026-.1-.052-.21-.079-.3a4.411,4.411,0,0,0,.2-.877c.236-1.991-4.126,6.169-6.981,8.461-.118.144-.223.275-.327.406-.354.445-.668.825-.917,1.139-12.7,11.669-23.758,36.422-27.831,47.9l-.262.747,64.593-.943h.393l.118-.38c6.745-20.68,9.967-39.71,10.739-46.874v-.079c-.76-15.533-3.746-28-9.115-38.086-4.479-8.421-10.556-15.284-19.671-22.278a26.055,26.055,0,0,0-8.657-4.754c.2-1,.341-1.991.445-2.973l.013.183h0v.039h.039c3.9.589,7.635,2.567,11.7,6.1s8.447,8.6,13.66,15.363c12.18,22.54,12.822,38.858,12.154,53.226-.236,5.173-1.82,13.791-3.667,21.832s-3.916,15.533-5.147,18.427l-.013.039.039.013.013-.039h0l-.013.039c2.017.747,5.92,1.166,9.823,1.192a48.089,48.089,0,0,0,5.632-.262,16.6,16.6,0,0,0,4.256-.93,2.455,2.455,0,0,0,1.139-1.139,7.292,7.292,0,0,0,.681-2.1,30.022,30.022,0,0,0,.367-6.142c-.1-4.662-.773-10.032-1.218-13.66-.131-1.022-.236-1.9-.314-2.58a9.3,9.3,0,0,0,3.628-10.071c-.629-1.807-1.847-2.069-2.436-1.965a4.165,4.165,0,0,1,.629-3.012A9.865,9.865,0,0,1,195.856,154.551ZM140.967,84.679c-.026.183-.052.367-.092.563s-.065.367-.092.55a50.718,50.718,0,0,1-1.9,7.347c-.2.576-.406,1.153-.616,1.729l-.092.236-.223.118c-.065.039-.17.079-.3.144a8.1,8.1,0,0,1-3.078.8H134.5a3.166,3.166,0,0,1-1-.157,2.086,2.086,0,0,1-1.1-.838,1.681,1.681,0,0,1-.144-.262l-.079-.157.013-.17c.1-1.283.471-5.645,1.035-9.3.026-.2.065-.38.092-.563s.066-.38.092-.563a11.545,11.545,0,0,1,1.244-4.178h0a14.023,14.023,0,0,0,1.912-3.183c.2-.406.367-.76.524-1.035s.432-.877.707-1.467c.864-1.912,1.1-2.423,1.729-2.357a.707.707,0,0,1,.616.576c0,.013.039.1.065.183a20.3,20.3,0,0,1,1.074,5.5A30.7,30.7,0,0,1,140.967,84.679ZM86.183,147.793a2.53,2.53,0,0,1-2.423-.9,1.606,1.606,0,0,1-.341-1.65c.524-1.231,3.261-4.78,4.846-5.645a3.3,3.3,0,0,1,1.428-.5.573.573,0,0,1,.38.118c.157.131.183.367.079.668a6.7,6.7,0,0,0-1.781,3.824C88.291,145.514,87.977,147.426,86.183,147.793Zm90.853-46.926.092-.079H177a20,20,0,0,1-4.689-.341,4,4,0,0,1-1.676-.72,1.02,1.02,0,0,1-.327-.537,1.054,1.054,0,0,1,.131-.681,4.089,4.089,0,0,1,2.646-2.41c1.139-.262,2.58.065,4.44,1.139a8.849,8.849,0,0,1,3.431,3.025,5.008,5.008,0,0,1,.642,2.672,1.658,1.658,0,0,1-.511,1.126,3,3,0,0,1-1.231.747,2.457,2.457,0,0,1-2.816-.773,2.626,2.626,0,0,1-.616-1.991A2.04,2.04,0,0,1,177.035,100.867Zm5.016,83.479a2.46,2.46,0,0,1,1.847-2.187l-.013-.039h0v-.039a5.836,5.836,0,0,1-2.894-.655,1.991,1.991,0,0,1-.917-1.048,2.5,2.5,0,0,1,.118-1.716,5.489,5.489,0,0,1,2.777-3.274,3.258,3.258,0,0,1,3.1.275,10.906,10.906,0,0,1,2.947,2.842,4.149,4.149,0,0,1,.733,1.82,2.28,2.28,0,0,1-.55,1.755c-.236.288-.5.616-.786.956h0a35.953,35.953,0,0,1-3.274,3.693,4.861,4.861,0,0,1-1.48,1.022,1,1,0,0,1-.576.052.694.694,0,0,1-.432-.327A4.628,4.628,0,0,1,182.052,184.346Zm5.121-33.62h0v-.013h0a8.412,8.412,0,0,0-.393-2.213,3.34,3.34,0,0,0-.524-1.008,1.431,1.431,0,0,0-.825-.537.867.867,0,0,1-.707-.668,1.425,1.425,0,0,1,.236-1.113c.5-.72,1.69-1.257,3.746-.55a6.252,6.252,0,0,1,3.667,4.532,12.414,12.414,0,0,1,.432,2.593,7.242,7.242,0,0,1-.013.943,1.622,1.622,0,0,1-.1.524,5.249,5.249,0,0,0-.17.5h0a5.842,5.842,0,0,1-1.31,2.528A6.3,6.3,0,0,1,186.7,158a5.773,5.773,0,0,1-3.065-.537,2.964,2.964,0,0,1-1.388-1.493,3,3,0,0,1-.183-1.663,1.45,1.45,0,0,1,.563-1.022,5.309,5.309,0,0,1,1.349-.419,7.672,7.672,0,0,0,1.886-.589A2.548,2.548,0,0,0,187.172,150.726Zm.065,16.017c-.275-.262-.537-.485-.76-.681a3.989,3.989,0,0,1-1.27-1.454,3.059,3.059,0,0,1,.249-2.161,3.331,3.331,0,0,1,2.161-1.4,5.049,5.049,0,0,1,4.086,1.414,2.636,2.636,0,0,1,1.283,2.279,2.544,2.544,0,0,1-1.31,1.7,5.687,5.687,0,0,1-2.423.786A2.687,2.687,0,0,1,187.238,166.744Zm-44.1-91.783c.157-.026.314-.065.5-.1a53.812,53.812,0,0,1,5.422-.943,6.886,6.886,0,0,1,2.109.013.634.634,0,0,1,.445.262c.065.118.052.262-.079.485a3.034,3.034,0,0,1-1.65,1.126,12.763,12.763,0,0,1-2.632.576,25.934,25.934,0,0,1-4.034.17C143.219,76.009,143.18,75.485,143.141,74.961Zm-19.252,36.854a3.136,3.136,0,0,1-2.03,1.781c-2.763.969-3.222.877-3.628.812-.026,0-.039-.013-.065-.013a15.3,15.3,0,0,1-3.235.891,11.382,11.382,0,0,1-3.038.733,2.183,2.183,0,0,0-1.113.38c-.432.485-.9,1.022-1.375,1.585-.131.144-.249.288-.38.445-.249.393-.471.8-.668,1.166-.17.3-.327.576-.458.812a9.064,9.064,0,0,1-3.183,3.471,1.048,1.048,0,0,1-.5.131.842.842,0,0,1-.458-.131,3.059,3.059,0,0,1-.969-2.161c0-.55,2.2-1.768,2.947-2.161.786-.838,1.6-1.781,2.357-2.672a9.8,9.8,0,0,0,1.441-3.327,10.63,10.63,0,0,1,.93-3.929c.812-1.441,3.8-1.441,6.195-1.441h4.662a6.386,6.386,0,0,0,.694-.144c1.781-.432,1.873-1.559,1.873-1.559l1.7-.131c.17.917-.21,2.318-1.519,3.877A3.254,3.254,0,0,1,123.889,111.816Z"
                    transform="translate(-77.349 -66.064)" fill="#724335" />
                <path id="Path_4285" data-name="Path 4285" d="M890.8,951.839l.013.052-.013-.092Z"
                    transform="translate(-784.264 -835.797)" fill="#724335" />
            </g>
        </g>
    </g>
</svg>