<svg width="200" height="200" fill="none" viewbox="0 0 200 200">
    <g id="Group_104" data-name="Group 104" transform="translate(-705 -830)">
        <g id="PAWN" transform="translate(767.938 861.035)">
            <path id="Path_2698" data-name="Path 2698"
                d="M60.47,109.842c17.966-20.664.691-41.073-9.8-53.22,7.122,7.6,18.618,2.609,20.536-3.683,1.292-4.233.972-9.079-16.3-25.127,1.023-1.074,2.123-5.588,2.353-7.353C57.158,6.061,44.128.9,37.261.051V0c-.064.013-.128.013-.192.026C37.005.013,36.941.013,36.877,0V.051C30,.9,16.955,6.061,16.865,20.46c.23,1.765,1.33,6.279,2.353,7.353C1.942,43.86,1.623,48.707,2.914,52.939c1.918,6.291,13.414,11.278,20.536,3.683-10.486,12.148-27.774,32.556-9.8,53.22C9.142,111.019-.257,114.7.05,124.164c.384,11.713,17.314,14.705,37.019,13.529,19.692,1.176,36.623-1.816,37.006-13.529C74.382,114.7,64.983,111.019,60.47,109.842Z"
                transform="translate(0)" fill="#fbf6ee" />
            <path id="Path_2699" data-name="Path 2699"
                d="M130.674,191.2h0c-2.008-3.414-5.844-6.394-11.393-8.862a66.39,66.39,0,0,0-10.639-3.555c-.332-.09-.6-.153-.754-.192-.806-.23-1.24-.473-1.33-.754-.077-.23.1-.46.269-.691l.051-.077a1.951,1.951,0,0,1,.933-.652c.141-.064.294-.128.473-.217s.448-.217.754-.371c.614-.294,1.394-.665,1.995-.985l.166-.09a12.974,12.974,0,0,0,2.839-1.918l.473-.473c6.125-6.01,7.979-7.826,8.606-17.7.511-8.082-10.677-23.17-16.662-30.024a6.309,6.309,0,0,1-.537-6.816c2.724-5.435,4.45-5.486,5.716-5.524,1.419-.038,3.107.384,7.928,2.711,4.616,2.238,5.639,1.419,6.176.985a.975.975,0,0,1,.141-.1c.038-.026.064-.051.1-.077a3.176,3.176,0,0,0,1.586-2.839c.051-1.291-4.591-4.386-9.5-7.66-2.557-1.7-5.192-3.465-7.34-5.077-4.3-3.222-5.307-5.4-5.268-6.368a9.078,9.078,0,1,0-4.245.013c.038.985-1,3.146-5.268,6.355-2.135,1.611-4.782,3.376-7.34,5.077-4.91,3.274-9.552,6.381-9.5,7.66a3.2,3.2,0,0,0,1.586,2.839.71.71,0,0,1,.1.077c.038.026.09.064.141.1.55.435,1.56,1.253,6.176-.985,4.821-2.327,6.509-2.749,7.928-2.711,1.266.038,2.992.09,5.716,5.524a6.307,6.307,0,0,1-.537,6.816C94.244,131.5,83.055,146.6,83.566,154.68c.627,9.872,2.468,11.688,8.606,17.7l.486.473a13.152,13.152,0,0,0,2.839,1.918l.166.09c.614.32,1.381.691,1.995.985.307.153.575.281.754.371s.332.153.473.217a1.893,1.893,0,0,1,.933.652l.051.077c.166.217.345.448.269.691-.09.281-.524.524-1.33.754-.166.051-.422.115-.754.192a66.388,66.388,0,0,0-10.639,3.555c-5.55,2.468-9.386,5.447-11.393,8.849v.013a.834.834,0,0,0,.179.767c.921,1.125,5.243,1.688,13.094,1.688q5.754,0,14.053-.4h0q8.305.4,14.053.4c7.851,0,12.173-.563,13.094-1.688A.859.859,0,0,0,130.674,191.2Z"
                transform="translate(-66.241 -66.282)" fill="#724335" />
        </g>
    </g>
</svg>