<svg xmlns="http://www.w3.org/2000/svg" width="570" height="570" viewBox="0 0 570 570">
    <g id="Group_120" data-name="Group 120" transform="translate(-705 -830)">
      <g id="Group_104" data-name="Group 104" transform="translate(705 830)">
        <g id="Group_37" data-name="Group 37">
          <rect id="Rectangle_4" data-name="Rectangle 4" width="570" height="570" fill="none"/>
        </g>
        <g id="PAWN" transform="translate(179.493 88.449)">
          <path id="Path_2698" data-name="Path 2698" d="M172.259,313.05c51.2-58.893,1.968-117.057-27.916-151.678,20.3,21.647,53.062,7.434,58.528-10.5,3.681-12.063,2.77-25.875-46.466-71.612,2.916-3.061,6.05-15.926,6.706-20.955-.292-41.035-37.428-55.759-57-58.164V0c-.182.036-.364.036-.547.073-.182-.036-.364-.036-.547-.073V.146C85.414,2.551,48.242,17.274,47.987,58.31c.656,5.029,3.79,17.894,6.706,20.955C5.457,125,4.546,138.814,8.227,150.876c5.467,17.93,38.229,32.143,58.528,10.5C36.872,195.994-12.4,254.158,38.84,313.05,25.975,316.4-.811,326.9.064,353.867c1.093,33.382,49.345,41.91,105.5,38.557,56.123,3.353,104.374-5.175,105.468-38.557C211.91,326.9,185.124,316.4,172.259,313.05Z" transform="translate(-0.043)" fill="#fbf6ee"/>
          <path id="Path_2699" data-name="Path 2699" d="M231.83,404.32h0c-5.722-9.73-16.655-18.222-32.471-25.255a189.206,189.206,0,0,0-30.321-10.131c-.948-.255-1.713-.437-2.15-.547-2.3-.656-3.535-1.348-3.79-2.15-.219-.656.292-1.312.765-1.968l.146-.219a5.561,5.561,0,0,1,2.66-1.859c.4-.182.838-.365,1.348-.62s1.276-.62,2.15-1.057c1.749-.838,3.972-1.9,5.685-2.806l.474-.255a36.976,36.976,0,0,0,8.091-5.466l1.348-1.348c17.456-17.128,22.741-22.3,24.527-50.438,1.458-23.032-30.43-66.036-47.486-85.57a17.981,17.981,0,0,1-1.531-19.424c7.762-15.489,12.682-15.634,16.29-15.744,4.045-.109,8.856,1.093,22.6,7.726,13.156,6.378,16.072,4.045,17.6,2.806a2.777,2.777,0,0,1,.4-.292c.109-.073.182-.146.292-.219,1.6-1.093,4.337-2.915,4.519-8.091.146-3.681-13.083-12.5-27.078-21.83-7.289-4.847-14.8-9.876-20.919-14.468-12.245-9.184-15.124-15.379-15.015-18.149a25.872,25.872,0,1,0-12.1.036c.109,2.806-2.843,8.965-15.015,18.112-6.086,4.592-13.63,9.621-20.919,14.468-13.994,9.33-27.223,18.185-27.078,21.83.219,5.175,2.915,7,4.519,8.091a2.026,2.026,0,0,1,.292.219c.109.073.255.182.4.292,1.567,1.239,4.446,3.571,17.6-2.806,13.739-6.633,18.55-7.835,22.6-7.726,3.608.109,8.528.255,16.29,15.744a17.976,17.976,0,0,1-1.531,19.424C128,234.165,96.114,277.2,97.572,300.237c1.786,28.134,7.034,33.309,24.527,50.438l1.385,1.348a37.483,37.483,0,0,0,8.09,5.466l.474.255c1.749.911,3.936,1.968,5.685,2.806.875.437,1.64.8,2.15,1.057s.948.437,1.348.62a5.4,5.4,0,0,1,2.66,1.859l.146.219c.474.62.984,1.275.765,1.968-.255.8-1.494,1.494-3.79,2.15-.474.146-1.2.328-2.15.547A189.2,189.2,0,0,0,108.541,379.1c-15.817,7.034-26.75,15.525-32.471,25.219v.036a2.378,2.378,0,0,0,.51,2.187c2.624,3.207,14.942,4.811,37.318,4.811q16.4,0,40.051-1.13h0q23.67,1.148,40.051,1.13c22.376,0,34.694-1.6,37.318-4.811A2.449,2.449,0,0,0,231.83,404.32Z" transform="translate(-48.316 -48.303)" fill="#724335"/>
        </g>
      </g>
    </g>
  </svg>
  