<svg width="200" height="200" fill="none" viewbox="0 0 200 200">
    <g id="Group_108" data-name="Group 108" transform="translate(-505 -1030)">
        <g id="QUEEN" transform="translate(524.006 1056.475)">
            <path id="Path_4274" data-name="Path 4274"
                d="M157.545,56.749a14.809,14.809,0,1,0-21.456-20.389,16.883,16.883,0,1,0-31.2-.987,4.905,4.905,0,0,1-4.417,1.588c-2.789-.56-2.8-7.219-4.163-10.728a17.547,17.547,0,1,0-30.5,0,26.919,26.919,0,0,0-1.067,4.19c-.614,3.069-1.241,6.165-3.109,6.538a4.833,4.833,0,0,1-4.3-1.468,16.877,16.877,0,1,0-32.518-6.338,16.737,16.737,0,0,0,1.428,6.792A14.813,14.813,0,1,0,5.8,57.123C9.514,78.286,12.489,90.7,14.224,97.94c1.321,5.524,1.921,8.046,1.588,9.14-.427,1.414-.827,2.535-1.174,3.523-1.188,3.3-1.775,4.924-.694,10.688.173.934.294,1.815.414,2.669a22.923,22.923,0,0,0,2.388,8.273c3.616,7.045,12.876,15.759,64.315,14.731,51.439,1.041,60.7-7.686,64.315-14.731,2.268-4.4,2.108-7.205,2.8-10.942,1.4-7.472,0-8.006-1.868-14.211-.814-2.709,4.136-6.872,11.409-50.238ZM32.224,55.909a14.8,14.8,0,0,1-4.817-2.735,14.8,14.8,0,0,0,2.215-7.806,14.55,14.55,0,0,0-1.148-5.711,16.632,16.632,0,0,0,2.789,2.775c.187,1.228.4,2.455.6,3.643C32.785,51.666,33.572,56.349,32.224,55.909Zm97.674,0c-1.588.507-.213-6.1.881-12.943a17.106,17.106,0,0,0,2.775-2.6,14.856,14.856,0,0,0,.387,12.476A10.769,10.769,0,0,1,129.9,55.909Z"
                fill="#fbf6ee" />
            <g id="Group_107" data-name="Group 107" transform="translate(9.34 8.94)">
                <ellipse id="Ellipse_1" data-name="Ellipse 1" cx="7.646" cy="7.686" rx="7.646"
                    ry="7.686"
                    transform="translate(64.022)" fill="#724335" />
                <ellipse id="Ellipse_2" data-name="Ellipse 2" cx="5.524" cy="5.564" rx="5.524"
                    ry="5.564"
                    transform="translate(0 31.624)" fill="#724335" />
                <ellipse id="Ellipse_3" data-name="Ellipse 3" cx="5.524" cy="5.564" rx="5.524"
                    ry="5.564"
                    transform="translate(132.366 31.624)" fill="#724335" />
                <ellipse id="Ellipse_4" data-name="Ellipse 4" cx="6.418" cy="6.458" rx="6.418"
                    ry="6.458"
                    transform="translate(104.879 13.063)" fill="#724335" />
                <ellipse id="Ellipse_5" data-name="Ellipse 5" cx="6.418" cy="6.458" rx="6.418"
                    ry="6.458"
                    transform="translate(25.779 13.063)" fill="#724335" />
                <path id="Path_4275" data-name="Path 4275" d="M862.94,500.2l-.04.013h0Z"
                    transform="translate(-757.1 -442.396)" fill="#724335" />
                <path id="Path_4276" data-name="Path 4276"
                    d="M256.361,251.472a5.16,5.16,0,0,0-3.309-.44.49.49,0,0,0-.2.107,1.658,1.658,0,0,0-.254.214,8.031,8.031,0,0,0-.667.734c-.52.614-1.161,1.481-1.895,2.535-1.481,2.082-3.322,4.857-5.231,7.739l.04.027h0l-.04-.027h0l.04.027h0l-.04-.027c-2.3,3.456-4.684,7.045-6.645,9.754-.974,1.348-1.855,2.482-2.549,3.269a7.918,7.918,0,0,1-.907.894,1.7,1.7,0,0,1-.334.213.6.6,0,0,1-.227.053.324.324,0,0,1-.2-.147,1.887,1.887,0,0,1-.2-.374,7.932,7.932,0,0,1-.32-1.4,45.893,45.893,0,0,1-.387-4.87c-.16-4-.16-9.287-.147-14.518,0-4.8.013-9.567-.12-13.263-.067-1.841-.16-3.416-.294-4.6a11.424,11.424,0,0,0-.254-1.454,5.037,5.037,0,0,0-.16-.48.857.857,0,0,0-.187-.294,5.039,5.039,0,0,0-3.509-1.881c-1.334.027-2.855.934-4.724,3.309a30.36,30.36,0,0,0-2.989,5.684c-1.121,2.549-2.335,5.591-3.549,8.633-1.481,3.723-2.976,7.432-4.283,10.234a30.1,30.1,0,0,1-1.8,3.4,5.386,5.386,0,0,1-.761.974,1.14,1.14,0,0,1-.627.374A2.348,2.348,0,0,1,207,264.389a21.728,21.728,0,0,1-1.214-5.111,2.067,2.067,0,0,0-.053-.28c-.027-.12-.04-.24-.067-.36-.107-.587-.24-1.428-.414-2.455h0c-.694-4.176-1.908-11.5-3.256-18.094-.667-3.3-1.374-6.418-2.068-8.86-.347-1.228-.681-2.282-1.014-3.122a5.98,5.98,0,0,0-.961-1.761h0a2.749,2.749,0,0,0-1.014-.627,7.339,7.339,0,0,0-1.361-.414,11.236,11.236,0,0,0-1.254-.213c-.173-.013-.32-.027-.44-.027h-.16c-.04,0-.067.013-.093.013a.52.52,0,0,0-.214-.013,1.886,1.886,0,0,0-.334.053,5.746,5.746,0,0,0-.894.294,5.24,5.24,0,0,0-1.8,1.161h0a4.776,4.776,0,0,0-.774,1.281A21.041,21.041,0,0,0,188.79,228c-.56,1.681-1.148,3.83-1.735,6.191-1.174,4.737-2.335,10.395-3.3,15.051-.761,3.683-1.388,6.752-1.8,8.246-.32,1.174-.574,2.282-.8,3.3h0l.04.013h0l-.04-.013h0a19.773,19.773,0,0,1-1.228,4.2,2.842,2.842,0,0,1-.907,1.108,2,2,0,0,1-1.348.294,1.027,1.027,0,0,1-.587-.347,4.989,4.989,0,0,1-.681-.934,24.829,24.829,0,0,1-1.548-3.269c-1.107-2.7-2.322-6.285-3.563-9.927-1.081-3.189-2.188-6.418-3.229-9.14a26.853,26.853,0,0,0-2.909-6.018c-1.868-2.375-3.389-3.282-4.724-3.309a5.013,5.013,0,0,0-3.509,1.881,1.013,1.013,0,0,0-.187.294,5.04,5.04,0,0,0-.16.48,14.437,14.437,0,0,0-.254,1.454c-.147,1.174-.24,2.762-.294,4.6-.12,3.683-.12,8.446-.12,13.263,0,5.231.013,10.515-.147,14.5a45.889,45.889,0,0,1-.387,4.87,7.927,7.927,0,0,1-.32,1.4,1.2,1.2,0,0,1-.2.374.287.287,0,0,1-.427.093,2.209,2.209,0,0,1-.334-.213,6.971,6.971,0,0,1-.894-.894,40.706,40.706,0,0,1-2.535-3.269c-1.948-2.709-4.337-6.3-6.632-9.754-1.908-2.869-3.749-5.644-5.231-7.726-.734-1.041-1.374-1.908-1.895-2.522a8.033,8.033,0,0,0-.667-.734,1.656,1.656,0,0,0-.254-.213.743.743,0,0,0-.2-.107,5.16,5.16,0,0,0-3.309.44,3.293,3.293,0,0,0-1.881,3.082c0,6.578,2.335,13.784,5.124,22.39,1.908,5.871,4.016,12.4,5.751,19.828-.04.013-.08.013-.12.027l-.053.013.027.04.04-.013h0l-.04.013q.16.34.32.64v.013l.013.04h.013c.454.947.827,1.735,1.081,2.362.133.32.227.587.294.8a1.882,1.882,0,0,1,.093.494,9.447,9.447,0,0,1-1.014,3.936,5.186,5.186,0,0,0-.6,1.908,1.274,1.274,0,0,1-.24.654,8.015,8.015,0,0,1-.547.734,8.671,8.671,0,0,0-.614.814,1.6,1.6,0,0,0-.294.827,1.025,1.025,0,0,0,.374.814,3.791,3.791,0,0,0,1.361.734c3.029,1.067,3.79,3.056,3.79,3.923a13.417,13.417,0,0,0-2.015,2.095,10.088,10.088,0,0,0-1.8,3.416,1.774,1.774,0,0,0,1.094,2.348,5.886,5.886,0,0,0,2.7.267l-.08.16-.027.04.053.013c35.08,7.512,61.313,8.246,97.247-.107l.053-.013-.027-.04-.04.013h0l.04-.013c-.013-.027-.027-.04-.027-.053a5.726,5.726,0,0,0,2.7-.267,1.925,1.925,0,0,0,1-.827,1.98,1.98,0,0,0,.093-1.521,9.859,9.859,0,0,0-1.8-3.416,12.835,12.835,0,0,0-2.015-2.095c.013-.867.774-2.869,3.79-3.923a3.791,3.791,0,0,0,1.361-.734,1.1,1.1,0,0,0,.374-.814,1.824,1.824,0,0,0-.294-.827,6.85,6.85,0,0,0-.614-.814,8.026,8.026,0,0,1-.547-.734,1.317,1.317,0,0,1-.24-.654,5.843,5.843,0,0,0-.307-1.615,10.943,10.943,0,0,1-.52-3.443,2.409,2.409,0,0,1,.133-.654c.093-.294.227-.667.387-1.094.347-.867.841-2,1.441-3.323l-.04-.013h0l.013-.04c-.04-.013-.067-.013-.107-.027,1.841-7.152,3.816-13.29,5.578-18.761h0c2.989-9.314,5.351-16.666,5.351-23.658A3.334,3.334,0,0,0,256.361,251.472Zm-62.727-28.408Zm48.823,100.689Zm-4.6-7.712-.027-.04a2.677,2.677,0,0,1-2.535.093c-1.134-.534-4.016-2.308-5.311-3.136l-.027.04h0l.027-.04h0a2.055,2.055,0,0,1-.454-.347,1.188,1.188,0,0,1-.307-.467.583.583,0,0,1,.067-.507,1.577,1.577,0,0,1,.681-.534c1.454-.694,4.4-2.6,5.7-3.456h0l-.027-.027h0l.027.027.173-.173a1.492,1.492,0,0,1,.827-.547,4.319,4.319,0,0,1,2.028.214c.227.067.44.12.614.173h0v-.04h0l-.013.04h0l.013-.04v.013l-.013.027h0l.013-.04h0l-.013.04c.36.093.614.173.814.24a1.159,1.159,0,0,1,.427.24,2.2,2.2,0,0,1,.44.867h0c.04.107.093.24.147.374v.013l.013.013.027-.04h0l-.027.04a.181.181,0,0,1,.093.173.7.7,0,0,1-.067.294,3.4,3.4,0,0,1-.56.8,8.533,8.533,0,0,1-1.935,1.615,1.065,1.065,0,0,0-.507.854,4.439,4.439,0,0,0,.093,1.161,4.785,4.785,0,0,1,.093,1.2,1.012,1.012,0,0,1-.547.854h0l.053.027Zm-5.044-27.247a92.574,92.574,0,0,1,7.085-9.167c1.321-1.508,2.589-2.882,3.656-3.883a15.306,15.306,0,0,1,1.414-1.214,2.678,2.678,0,0,1,.961-.507,1.187,1.187,0,0,1,1.067.254,1.9,1.9,0,0,1,.48,1.067,14.112,14.112,0,0,1-.053,3.5,15.336,15.336,0,0,1-.841,3.056c-.467,1.334-1.081,2.882-1.735,4.443-1.308,3.122-2.762,6.231-3.469,7.486a5.6,5.6,0,0,1-7.579,2.188,4.063,4.063,0,0,1-2.175-3.256,6.569,6.569,0,0,1,1.188-3.963h0l-.027-.013h0Zm6.525,18.481Zm0,0h0v0Zm1.708,1.374-.027.013h0l.027-.013Zm-.013,0Zm-.013,0Zm.027,0Zm-.013,0Zm.013,0ZM213.2,281.762h0l.04.013h0c1.4-4.283,3.8-10.528,6.165-15.852,1.188-2.655,2.362-5.084,3.416-6.912a19.725,19.725,0,0,1,1.454-2.255,3.631,3.631,0,0,1,1.148-1.094,1.68,1.68,0,0,1,1.308-.133,1.577,1.577,0,0,1,.787.841,6.837,6.837,0,0,1,.467,1.588c.12.627.213,1.334.307,2.082h0c.08.654.173,1.334.294,2.028a75.786,75.786,0,0,1,.24,11.115,65.694,65.694,0,0,1-1.067,11.4,11.488,11.488,0,0,1-3.843,5.764,7.234,7.234,0,0,1-6.525,1.628,6.158,6.158,0,0,1-4.39-3.976,9.708,9.708,0,0,1,.213-6.218l-.013-.013Zm.294,25.673a2.187,2.187,0,0,1-.04-1.615,3.146,3.146,0,0,1,1.014-1.308,5.914,5.914,0,0,1,3.549-1.188,8.541,8.541,0,0,1,3.162,1.454,3.323,3.323,0,0,1,1.348,2.682,4.534,4.534,0,0,1-9.033,0v-.027Zm11.462,1.695a.483.483,0,0,1-.013-.334.716.716,0,0,1,.214-.28,1.281,1.281,0,0,1,.774-.254,1.85,1.85,0,0,1,.694.32.74.74,0,0,1,.294.574.979.979,0,0,1-1.948,0l-.013-.027ZM207.978,306.5a.418.418,0,0,1-.013-.334.643.643,0,0,1,.227-.28,1.393,1.393,0,0,1,.8-.254,1.881,1.881,0,0,1,.721.32.715.715,0,0,1,.307.574,1.024,1.024,0,0,1-2.028,0l-.013-.027Zm-49.264,6.472c-1.294.827-4.15,2.6-5.271,3.136a2.622,2.622,0,0,1-2.509-.093l-.027.04h0l.027-.027h0a1.059,1.059,0,0,1-.547-.854,4.741,4.741,0,0,1,.093-1.2,5.042,5.042,0,0,0,.093-1.161,1.051,1.051,0,0,0-.494-.854,9.151,9.151,0,0,1-1.921-1.615,3.4,3.4,0,0,1-.56-.8.7.7,0,0,1-.067-.294.208.208,0,0,1,.093-.173l-.027-.04h0l.027.04.013-.013v-.013c.053-.147.107-.267.147-.387a2.2,2.2,0,0,1,.44-.867,1.092,1.092,0,0,1,.414-.24c.2-.067.454-.147.8-.24l-.013-.04h0l.013.04h0c.173-.053.374-.107.614-.173a3.935,3.935,0,0,1,2.015-.214,1.526,1.526,0,0,1,.814.547h0a2.119,2.119,0,0,0,.173.173h0l.027-.04h0l-.027.04a62.372,62.372,0,0,0,5.671,3.456,1.435,1.435,0,0,1,.667.534.583.583,0,0,1,.067.507,1.366,1.366,0,0,1-.294.467,2.68,2.68,0,0,1-.454.36h0l.027.027h0Zm-9.287-5.684h0v-.013h0v.013h0v0Zm-.013-.013Zm3.483.173Zm0,0Zm2.789-18.681h0l-.04.027h0a6.381,6.381,0,0,1,1.188,3.95A4.063,4.063,0,0,1,154.658,296a5.6,5.6,0,0,1-7.579-2.188c-.707-1.254-2.162-4.363-3.469-7.486-.654-1.561-1.268-3.122-1.735-4.443a15.335,15.335,0,0,1-.841-3.056,14.793,14.793,0,0,1-.053-3.5,1.94,1.94,0,0,1,.48-1.067,1.187,1.187,0,0,1,1.067-.254,2.679,2.679,0,0,1,.961.507,15.3,15.3,0,0,1,1.414,1.214c1.067,1,2.335,2.375,3.656,3.883a92.576,92.576,0,0,1,7.085,9.167l.04-.013Zm6.351-28.635h.04c.093-.707.187-1.374.307-1.961a6.688,6.688,0,0,1,.44-1.494,1.5,1.5,0,0,1,.734-.8,1.522,1.522,0,0,1,1.2.12,3.259,3.259,0,0,1,1.054,1.014,18.041,18.041,0,0,1,1.321,2.108c.947,1.708,2.028,3.976,3.1,6.458,2.148,4.964,4.31,10.808,5.578,14.811h0a9.317,9.317,0,0,1,.147,5.831,5.879,5.879,0,0,1-4.083,3.763,6.519,6.519,0,0,1-6-1.468,10.491,10.491,0,0,1-3.509-5.377,62.463,62.463,0,0,1-.894-10.675,73.634,73.634,0,0,1,.307-10.421c.107-.641.2-1.281.28-1.895h0l-.013-.013Zm4.617,47.3a2.187,2.187,0,0,1-.04-1.615,3.146,3.146,0,0,1,1.014-1.308,5.914,5.914,0,0,1,3.549-1.188,8.542,8.542,0,0,1,3.162,1.454,3.323,3.323,0,0,1,1.348,2.682,4.527,4.527,0,0,1-9.02,0l-.013-.027Zm4.51-4.163Zm-8.353,5.951Zm-1.027.894.04-.013a.447.447,0,0,1-.013-.32.786.786,0,0,1,.213-.267,1.484,1.484,0,0,1,.774-.254,1.833,1.833,0,0,1,.694.307.689.689,0,0,1,.294.547.983.983,0,0,1-1.948,0v-.027l-.053.027Zm16.439-3.363.04-.013a.418.418,0,0,1-.013-.334.642.642,0,0,1,.227-.28,1.392,1.392,0,0,1,.8-.254,1.881,1.881,0,0,1,.721.32.715.715,0,0,1,.307.574,1.024,1.024,0,0,1-2.028,0v-.027l-.053.013Zm1.054-.934Zm24.232,2.669c-1.855,1.188-5.978,3.776-7.592,4.55a3.849,3.849,0,0,1-3.643-.133h0c-2.068-1.148-6.672-3.723-8.54-4.83a2.094,2.094,0,0,1-.867-.841,1.088,1.088,0,0,1-.053-.814,2.565,2.565,0,0,1,1.067-1.241,33.357,33.357,0,0,0,7.459-4.417,3.112,3.112,0,0,1,2.5-1.041,2.739,2.739,0,0,1,1.4.907h0a1.21,1.21,0,0,1,.12.133h0l.027-.027h0l-.027.027a93.25,93.25,0,0,0,8.153,5.017,2.267,2.267,0,0,1,.974.774.923.923,0,0,1,.107.761,1.66,1.66,0,0,1-.44.68,2.746,2.746,0,0,1-.64.494Zm-7.085-57.7c.294.627.574,1.348.867,2.108.254.667.534,1.361.827,2.055a80.552,80.552,0,0,1,3.109,11.6c1.027,4.9,1.841,9.887,1.8,12.223a12.232,12.232,0,0,1-2.589,6.979,7.81,7.81,0,0,1-6.5,3.3c-5.311-.267-9.194-5.377-8.753-10.274h0c0-5.191,1.361-12.169,3.029-18.094a70.724,70.724,0,0,1,2.615-7.726,23.963,23.963,0,0,1,1.241-2.589,4.6,4.6,0,0,1,1.054-1.374,1.869,1.869,0,0,1,1.361-.467,1.678,1.678,0,0,1,1.054.694A9.333,9.333,0,0,1,196.423,250.792Zm-51.012,64.916ZM252.865,278.2Zm-47.623-22.043Zm-7.326-31.824ZM252.865,278.2Z"
                    transform="translate(-122.514 -202.235)" fill="#724335" />
                <path id="Path_4277" data-name="Path 4277"
                    d="M1006.14,777.253l.013-.053h-.04l-.013.04Z"
                    transform="translate(-881.193 -682.435)" fill="#724335" />
                <path id="Path_4278" data-name="Path 4278" d="M986.4,517.5h0l.04.027Z"
                    transform="translate(-864.121 -457.388)" fill="#724335" />
            </g>
        </g>
    </g>
</svg>