<svg xmlns="http://www.w3.org/2000/svg" width="570" height="570" viewBox="0 0 570 570">
    <g id="Group_108" data-name="Group 108" transform="translate(-505 -1030)">
        <g id="Group_11" data-name="Group 11" transform="translate(505 1030)">
            <rect id="Rectangle_1" data-name="Rectangle 1" width="570" height="570"
                transform="translate(0 0)" fill="none" />
        </g>
        <g id="QUEEN" transform="translate(559.167 1105.455)">
            <path id="Path_4274" data-name="Path 4274"
                d="M449,161.736a42.205,42.205,0,1,0-61.15-58.108,48.117,48.117,0,1,0-88.911-2.814c-3.537,3.347-7.682,5.514-12.587,4.525-7.948-1.6-7.986-20.574-11.865-30.575a50.008,50.008,0,1,0-86.934,0,76.72,76.72,0,0,0-3.042,11.941c-1.749,8.747-3.537,17.569-8.861,18.634-4.754.951-8.785-1.027-12.245-4.183A48.1,48.1,0,1,0,70.733,83.093,47.7,47.7,0,0,0,74.8,102.449,42.216,42.216,0,1,0,16.542,162.8c10.572,60.313,19.052,95.68,24,116.33,3.765,15.744,5.476,22.931,4.525,26.05-1.217,4.031-2.358,7.225-3.347,10.04-3.385,9.393-5.058,14.033-1.977,30.461.494,2.662.837,5.172,1.179,7.606,1.027,7.339,1.977,14.147,6.807,23.578,10.306,20.079,36.7,44.912,183.3,41.984,146.6,2.966,172.992-21.9,183.3-41.984,6.465-12.549,6.008-20.535,7.986-31.183,3.993-21.3,0-22.817-5.324-40.5C414.665,297.46,428.773,285.6,449.5,162Zm-357.165-2.4a42.184,42.184,0,0,1-13.728-7.8A42.168,42.168,0,0,0,84.424,129.3a41.467,41.467,0,0,0-3.27-16.276,47.4,47.4,0,0,0,7.948,7.91c.532,3.5,1.141,7,1.711,10.382C93.436,147.247,95.68,160.6,91.839,159.34Zm278.37,0c-4.525,1.445-.608-17.379,2.51-36.888a48.752,48.752,0,0,0,7.91-7.416,42.338,42.338,0,0,0,1.1,35.557C377.739,154.891,373.86,158.161,370.209,159.34Z"
                fill="#fbf6ee" />
            <g id="Group_107" data-name="Group 107" transform="translate(26.62 25.479)">
                <ellipse id="Ellipse_1" data-name="Ellipse 1" cx="21.79" cy="21.905" rx="21.79"
                    ry="21.905" transform="translate(182.462)" fill="#724335" />
                <ellipse id="Ellipse_2" data-name="Ellipse 2" cx="15.744" cy="15.858" rx="15.744"
                    ry="15.858" transform="translate(0 90.128)" fill="#724335" />
                <ellipse id="Ellipse_3" data-name="Ellipse 3" cx="15.744" cy="15.858" rx="15.744"
                    ry="15.858" transform="translate(377.244 90.128)" fill="#724335" />
                <ellipse id="Ellipse_4" data-name="Ellipse 4" cx="18.292" cy="18.406" rx="18.292"
                    ry="18.406" transform="translate(298.905 37.23)" fill="#724335" />
                <ellipse id="Ellipse_5" data-name="Ellipse 5" cx="18.292" cy="18.406" rx="18.292"
                    ry="18.406" transform="translate(73.471 37.23)" fill="#724335" />
                <path id="Path_4275" data-name="Path 4275" d="M863.014,500.2l-.114.038h0Z"
                    transform="translate(-561.371 -335.46)" fill="#724335" />
                <path id="Path_4276" data-name="Path 4276"
                    d="M489.02,304.037a14.705,14.705,0,0,0-9.431-1.255,1.4,1.4,0,0,0-.571.3,4.728,4.728,0,0,0-.723.608,22.9,22.9,0,0,0-1.9,2.092c-1.483,1.749-3.308,4.221-5.4,7.225-4.221,5.933-9.469,13.843-14.907,22.057l.114.076h0l-.114-.076h0l.114.076h0l-.114-.076c-6.541,9.849-13.348,20.079-18.938,27.8-2.776,3.841-5.286,7.073-7.263,9.317a22.564,22.564,0,0,1-2.586,2.548,4.854,4.854,0,0,1-.951.608,1.707,1.707,0,0,1-.647.152.924.924,0,0,1-.57-.418,5.375,5.375,0,0,1-.57-1.065,22.608,22.608,0,0,1-.913-3.993,130.809,130.809,0,0,1-1.1-13.88c-.456-11.409-.456-26.468-.418-41.375,0-13.69.038-27.266-.342-37.8-.19-5.248-.456-9.735-.837-13.12a32.566,32.566,0,0,0-.723-4.145,14.337,14.337,0,0,0-.456-1.369,2.442,2.442,0,0,0-.532-.837c-3-3.042-6.237-5.438-10-5.362-3.8.076-8.138,2.662-13.462,9.431-2.4,3.042-5.324,8.937-8.518,16.2s-6.655,15.934-10.116,24.6c-4.221,10.61-8.48,21.182-12.207,29.168a85.783,85.783,0,0,1-5.134,9.7,15.35,15.35,0,0,1-2.168,2.776,3.248,3.248,0,0,1-1.787,1.065,6.692,6.692,0,0,1-7.492-4.221c-1.521-3.156-2.358-8.062-3.461-14.565a5.89,5.89,0,0,0-.152-.8c-.076-.342-.114-.685-.19-1.027-.3-1.673-.685-4.069-1.179-7h0c-1.977-11.9-5.438-32.781-9.279-51.567-1.9-9.393-3.917-18.292-5.895-25.251-.989-3.5-1.939-6.5-2.89-8.9a17.044,17.044,0,0,0-2.738-5.02h0a7.834,7.834,0,0,0-2.89-1.787,20.91,20.91,0,0,0-3.879-1.179,32.025,32.025,0,0,0-3.575-.608c-.494-.038-.913-.076-1.255-.076h-.456c-.114,0-.19.038-.266.038a1.482,1.482,0,0,0-.608-.038,5.375,5.375,0,0,0-.951.152,16.38,16.38,0,0,0-2.548.837,14.934,14.934,0,0,0-5.134,3.309h0a13.61,13.61,0,0,0-2.206,3.651,59.964,59.964,0,0,0-2.358,6.123c-1.6,4.792-3.27,10.914-4.944,17.645-3.346,13.5-6.655,29.624-9.393,42.9-2.168,10.5-3.955,19.242-5.134,23.5-.913,3.347-1.635,6.5-2.282,9.393h0l.114.038h0l-.114-.038h0c-1.141,5.02-2.054,9.165-3.5,11.979a8.1,8.1,0,0,1-2.586,3.156,5.686,5.686,0,0,1-3.841.837,2.927,2.927,0,0,1-1.673-.989,14.218,14.218,0,0,1-1.939-2.662,70.763,70.763,0,0,1-4.411-9.317c-3.156-7.682-6.617-17.912-10.154-28.293-3.08-9.089-6.237-18.292-9.2-26.05-2.966-7.72-5.818-13.995-8.29-17.151-5.324-6.769-9.659-9.355-13.462-9.431s-7,2.32-10,5.362a2.886,2.886,0,0,0-.532.837,14.364,14.364,0,0,0-.456,1.369,41.146,41.146,0,0,0-.723,4.145c-.418,3.346-.685,7.872-.837,13.12-.342,10.5-.342,24.072-.342,37.8,0,14.907.038,29.967-.418,41.337a130.768,130.768,0,0,1-1.1,13.88,22.593,22.593,0,0,1-.913,3.993,3.426,3.426,0,0,1-.57,1.065.819.819,0,0,1-1.217.266,6.293,6.293,0,0,1-.951-.608,19.865,19.865,0,0,1-2.548-2.548,116,116,0,0,1-7.225-9.317c-5.552-7.72-12.359-17.949-18.9-27.8-5.438-8.176-10.686-16.086-14.907-22.019-2.092-2.966-3.917-5.438-5.4-7.187a22.89,22.89,0,0,0-1.9-2.092,4.722,4.722,0,0,0-.723-.608,2.117,2.117,0,0,0-.57-.3,14.706,14.706,0,0,0-9.431,1.255,9.386,9.386,0,0,0-5.362,8.785c0,18.748,6.655,39.284,14.6,63.812,5.438,16.733,11.447,35.329,16.39,56.51-.114.038-.228.038-.342.076l-.152.038.076.114.114-.038h0l-.114.038q.456.97.913,1.825v.038l.038.114h.038c1.293,2.7,2.358,4.944,3.08,6.731.38.913.646,1.673.837,2.282a5.363,5.363,0,0,1,.266,1.407c0,4.64-1.6,8.252-2.89,11.219-.913,2.054-1.711,3.841-1.711,5.438a3.629,3.629,0,0,1-.685,1.863,22.844,22.844,0,0,1-1.559,2.092,24.717,24.717,0,0,0-1.749,2.32,4.555,4.555,0,0,0-.837,2.358,2.922,2.922,0,0,0,1.065,2.32,10.8,10.8,0,0,0,3.879,2.092c8.633,3.042,10.8,8.709,10.8,11.18a38.238,38.238,0,0,0-5.742,5.97,28.751,28.751,0,0,0-5.134,9.735,5.056,5.056,0,0,0,3.118,6.693,16.775,16.775,0,0,0,7.682.761l-.228.456-.076.114.152.038c99.977,21.41,174.742,23.5,277.153-.3l.152-.038-.076-.114-.114.038h0l.114-.038c-.038-.076-.076-.114-.076-.152a16.32,16.32,0,0,0,7.682-.761,5.487,5.487,0,0,0,2.852-2.358,5.642,5.642,0,0,0,.266-4.335,28.1,28.1,0,0,0-5.134-9.735,36.578,36.578,0,0,0-5.742-5.97c.038-2.472,2.206-8.176,10.8-11.18a10.8,10.8,0,0,0,3.879-2.092,3.125,3.125,0,0,0,1.065-2.32,5.2,5.2,0,0,0-.837-2.358,19.52,19.52,0,0,0-1.749-2.32,22.879,22.879,0,0,1-1.559-2.092,3.752,3.752,0,0,1-.685-1.863,16.651,16.651,0,0,0-.875-4.6,31.188,31.188,0,0,1-1.483-9.811,6.865,6.865,0,0,1,.38-1.863c.266-.837.646-1.9,1.1-3.118.989-2.472,2.4-5.7,4.107-9.469l-.114-.038h0l.038-.114c-.114-.038-.19-.038-.3-.076,5.248-20.383,10.876-37.877,15.9-53.468h0c8.518-26.544,15.249-47.5,15.249-67.425A9.5,9.5,0,0,0,489.02,304.037ZM310.247,223.074ZM449.394,510.039Zm-13.12-21.981-.076-.114a7.63,7.63,0,0,1-7.225.266c-3.232-1.521-11.447-6.579-15.135-8.937l-.076.114h0l.076-.114h0a5.858,5.858,0,0,1-1.293-.989,3.386,3.386,0,0,1-.875-1.331,1.663,1.663,0,0,1,.19-1.445,4.493,4.493,0,0,1,1.939-1.521c4.145-1.978,12.549-7.416,16.238-9.849h0l-.076-.076h0l.076.076.494-.494a4.253,4.253,0,0,1,2.358-1.559c1.141-.266,2.89-.19,5.78.609.646.19,1.255.342,1.749.494h0v-.114h0l-.038.114h0l.038-.114v.038l-.038.076h0l.038-.114h0l-.038.114c1.027.266,1.749.494,2.32.684a3.3,3.3,0,0,1,1.217.685,6.261,6.261,0,0,1,1.255,2.472h0c.114.3.266.685.418,1.065v.038l.038.038.076-.114h0l-.076.114a.516.516,0,0,1,.266.494,1.986,1.986,0,0,1-.19.837,9.692,9.692,0,0,1-1.6,2.282,24.318,24.318,0,0,1-5.514,4.6,3.037,3.037,0,0,0-1.445,2.434,12.652,12.652,0,0,0,.266,3.309,13.636,13.636,0,0,1,.266,3.423,2.884,2.884,0,0,1-1.559,2.434h0l.152.076ZM421.9,410.4a263.829,263.829,0,0,1,20.193-26.126c3.765-4.3,7.378-8.214,10.42-11.066a43.618,43.618,0,0,1,4.031-3.46,7.632,7.632,0,0,1,2.738-1.445,3.383,3.383,0,0,1,3.042.723,5.4,5.4,0,0,1,1.369,3.042c.494,2.662.19,6.313-.152,9.964a43.706,43.706,0,0,1-2.4,8.709c-1.331,3.8-3.08,8.214-4.944,12.664-3.727,8.9-7.872,17.759-9.887,21.334-4.031,7.111-13.576,10.838-21.6,6.237a11.579,11.579,0,0,1-6.2-9.279A18.72,18.72,0,0,1,421.9,410.4h0l-.076-.038h0Zm18.6,52.67Zm0,0h0v0Zm4.868,3.917-.076.038h0l.076-.038Zm-.038,0Zm-.038,0Zm.076,0Zm-.038,0Zm.038,0ZM366,390.362h0l.114.038h0c3.993-12.207,10.838-30,17.569-45.178,3.385-7.568,6.731-14.489,9.735-19.7a56.208,56.208,0,0,1,4.145-6.427,10.347,10.347,0,0,1,3.27-3.118,4.788,4.788,0,0,1,3.727-.38,4.493,4.493,0,0,1,2.244,2.4,19.484,19.484,0,0,1,1.331,4.525c.342,1.787.608,3.8.875,5.932h0c.228,1.863.494,3.8.837,5.78.913,5.4,1.1,18.482.685,31.678s-1.445,26.506-3.042,32.477a32.741,32.741,0,0,1-10.952,16.428c-5.324,4.259-11.941,6.541-18.6,4.64-6.693-1.9-10.686-6.085-12.511-11.332s-1.483-11.561.608-17.722l-.038-.038Zm.837,73.167a6.234,6.234,0,0,1-.114-4.6,8.965,8.965,0,0,1,2.89-3.727,16.855,16.855,0,0,1,10.116-3.385,24.341,24.341,0,0,1,9.013,4.145,9.472,9.472,0,0,1,3.841,7.644c0,6.5-5.742,11.789-12.854,11.789s-12.892-5.286-12.892-11.789v-.076Zm32.667,4.83a1.378,1.378,0,0,1-.038-.951,2.04,2.04,0,0,1,.608-.8,3.65,3.65,0,0,1,2.206-.723,5.272,5.272,0,0,1,1.977.913,2.108,2.108,0,0,1,.837,1.635,2.79,2.79,0,0,1-5.552,0l-.038-.076Zm-48.372-7.492a1.192,1.192,0,0,1-.038-.951,1.831,1.831,0,0,1,.646-.8,3.969,3.969,0,0,1,2.282-.723,5.362,5.362,0,0,1,2.053.913,2.038,2.038,0,0,1,.875,1.635,2.919,2.919,0,0,1-5.78,0l-.038-.076Zm-140.4,18.444c-3.689,2.358-11.827,7.415-15.021,8.937a7.472,7.472,0,0,1-7.149-.266l-.076.114h0l.076-.076h0A3.017,3.017,0,0,1,187,485.586a13.51,13.51,0,0,1,.266-3.423,14.37,14.37,0,0,0,.266-3.308,3,3,0,0,0-1.407-2.434,26.08,26.08,0,0,1-5.476-4.6,9.691,9.691,0,0,1-1.6-2.282,1.986,1.986,0,0,1-.19-.837.594.594,0,0,1,.266-.494l-.076-.114h0l.076.114.038-.038v-.038c.152-.418.3-.761.418-1.1a6.264,6.264,0,0,1,1.255-2.472,3.112,3.112,0,0,1,1.179-.685c.57-.19,1.293-.418,2.282-.684l-.038-.114h0l.038.114h0c.494-.152,1.065-.3,1.749-.494,2.89-.837,4.6-.913,5.742-.609a4.35,4.35,0,0,1,2.32,1.559h0a6.035,6.035,0,0,0,.494.494h0l.076-.114h0l-.076.114c3.689,2.472,12.055,7.91,16.162,9.85a4.09,4.09,0,0,1,1.9,1.521,1.663,1.663,0,0,1,.19,1.445,3.892,3.892,0,0,1-.837,1.331,7.638,7.638,0,0,1-1.293,1.027h0l.076.076h0Zm-26.468-16.2h0v-.038h0v.038h0v0Zm-.038-.038Zm9.925.494Zm0,0Zm7.948-53.24h0l-.114.076h0a18.185,18.185,0,0,1,3.384,11.256,11.579,11.579,0,0,1-6.2,9.279c-8.024,4.6-17.531.875-21.6-6.237-2.016-3.575-6.161-12.435-9.887-21.334-1.863-4.449-3.613-8.9-4.944-12.664a43.7,43.7,0,0,1-2.4-8.708c-.342-3.651-.608-7.3-.152-9.964a5.529,5.529,0,0,1,1.369-3.042,3.384,3.384,0,0,1,3.042-.723,7.634,7.634,0,0,1,2.738,1.445,43.614,43.614,0,0,1,4.031,3.461c3.042,2.852,6.655,6.769,10.42,11.066a263.832,263.832,0,0,1,20.193,26.126l.114-.038Zm18.1-81.609h.114c.266-2.016.532-3.917.875-5.59a19.058,19.058,0,0,1,1.255-4.259,4.286,4.286,0,0,1,2.092-2.282,4.338,4.338,0,0,1,3.423.342,9.288,9.288,0,0,1,3,2.89,51.416,51.416,0,0,1,3.765,6.009c2.7,4.868,5.78,11.333,8.823,18.406,6.123,14.147,12.283,30.8,15.9,42.212h0c1.863,5.78,2.13,11.675.418,16.618-1.711,4.906-5.438,8.861-11.637,10.724-6.161,1.825-12.245-.228-17.113-4.183a29.9,29.9,0,0,1-10-15.325c-1.407-5.59-2.282-18.064-2.548-30.423-.266-12.4,0-24.643.875-29.7.3-1.826.57-3.651.8-5.4h0l-.038-.038ZM233.353,463.53a6.234,6.234,0,0,1-.114-4.6,8.965,8.965,0,0,1,2.89-3.727,16.855,16.855,0,0,1,10.116-3.385,24.342,24.342,0,0,1,9.013,4.145,9.472,9.472,0,0,1,3.841,7.644c0,6.5-5.742,11.789-12.854,11.789s-12.854-5.286-12.854-11.789l-.038-.076Zm12.854-11.865ZM222.4,468.625Zm-2.928,2.548.114-.038a1.274,1.274,0,0,1-.038-.913,2.239,2.239,0,0,1,.608-.76,4.23,4.23,0,0,1,2.206-.723,5.225,5.225,0,0,1,1.978.875,1.964,1.964,0,0,1,.837,1.559,2.8,2.8,0,0,1-5.552,0V471.1l-.152.076Zm46.851-9.583.114-.038a1.192,1.192,0,0,1-.038-.951,1.831,1.831,0,0,1,.646-.8,3.969,3.969,0,0,1,2.282-.723,5.361,5.361,0,0,1,2.053.913,2.038,2.038,0,0,1,.875,1.635,2.919,2.919,0,0,1-5.78,0v-.076l-.152.038Zm3-2.662Zm69.06,7.606C333.1,469.918,321.352,477.3,316.75,479.5a10.968,10.968,0,0,1-10.382-.38h0c-5.894-3.271-19.014-10.61-24.338-13.766a5.967,5.967,0,0,1-2.472-2.4,3.1,3.1,0,0,1-.152-2.32,7.309,7.309,0,0,1,3.042-3.537c4.3-1.825,14.565-6.883,21.258-12.588,3.156-2.7,5.4-3.27,7.111-2.966a7.8,7.8,0,0,1,3.993,2.586h0a3.44,3.44,0,0,1,.342.38h0l.076-.076h0l-.076.076c5.286,3.575,17.341,11.447,23.236,14.3a6.461,6.461,0,0,1,2.776,2.206,2.631,2.631,0,0,1,.3,2.168,4.73,4.73,0,0,1-1.255,1.939,7.827,7.827,0,0,1-1.825,1.407ZM318.2,302.1c.837,1.787,1.635,3.841,2.472,6.008.723,1.9,1.521,3.879,2.358,5.857,2.358,5.476,5.932,19.09,8.861,33.047s5.248,28.179,5.134,34.834a34.862,34.862,0,0,1-7.378,19.889c-4.563,5.78-10.952,9.773-18.52,9.393-15.135-.761-26.2-15.326-24.947-29.282h0c0-14.793,3.879-34.682,8.633-51.567a201.56,201.56,0,0,1,7.454-22.019,68.3,68.3,0,0,1,3.537-7.378,13.108,13.108,0,0,1,3-3.917,5.326,5.326,0,0,1,3.879-1.331,4.782,4.782,0,0,1,3,1.977A26.6,26.6,0,0,1,318.2,302.1ZM172.812,487.107Zm306.245-106.9ZM343.332,317.385Zm-20.878-90.7Zm156.6,153.522Z"
                    transform="translate(-107.555 -163.712)" fill="#724335" />
                <path id="Path_4277" data-name="Path 4277"
                    d="M1006.214,777.352l.038-.152h-.114l-.038.114Z"
                    transform="translate(-650.114 -507.12)" fill="#724335" />
                <path id="Path_4278" data-name="Path 4278" d="M986.4,517.5h0l.114.076Z"
                    transform="translate(-637.905 -346.181)" fill="#724335" />
            </g>
        </g>
    </g>
</svg>  