<svg xmlns="http://www.w3.org/2000/svg" width="570" height="570" viewBox="0 0 570 570">
    <g id="Group_120" data-name="Group 120" transform="translate(-105 -830)">
      <g id="Group_35" data-name="Group 35" transform="translate(105 830)">
        <rect id="Rectangle_3" data-name="Rectangle 3" width="570" height="570" fill="none"/>
      </g>
      <g id="ROOK" transform="translate(221.13 893.575)">
        <path id="Path_4286" data-name="Path 4286" d="M169.263.012c-12.676-.569-46.491,3.492-54.651,7.4-6.072,2.922-9.222,9.905-12.145,16.471-3,6.717-5.807,13.017-11.386,13.89-4.137.645-8.311-3.226-13.359-7.932-6.793-6.338-15.181-14.08-27.06-14.08-20.684,0-35.068,11.424-42.506,25.048-8.919,16.319-9.033,76.929.835,85.316a91.647,91.647,0,0,0,9.26,6.49c11.12,7.135,24.821,15.94,24.821,32.335v1.48c0,25.618,0,117.233-7.59,121.484-7.78,4.327-19.431,32.639-24.1,46.681-2.808,8.463-4.061,17.534-5.275,26.377-1.063,7.818-2.125,15.409-4.213,22.2-4.744,15.56-.607,35.827,15.94,46.681.607.38,1.177.8,1.746,1.177C32.408,439.647,37.114,442.8,169.225,442.8c131.617.228,136.171-2.846,148.847-11.348.607-.417,1.252-.835,1.9-1.252,16.547-10.854,20.722-31.083,16.016-46.643-2.049-6.793-3.112-14.422-4.175-22.2-1.214-8.843-2.429-17.913-5.237-26.377-4.668-14.042-16.281-42.392-24.024-46.719-7.59-4.251-7.439-95.9-7.4-121.484v-1.48c.038-16.357,13.739-25.162,24.858-32.3a82.376,82.376,0,0,0,9.26-6.452c9.867-8.349,9.867-68.959.987-85.316C322.816,27.6,308.508,16.142,287.786,16.1c-11.879-.038-20.266,7.742-27.06,14.042-5.048,4.668-9.26,8.577-13.4,7.894-5.579-.911-8.387-7.173-11.386-13.928-2.922-6.566-6.034-13.549-12.107-16.471-8.16-3.985-41.861-8.084-54.575-7.552Z" transform="translate(-0.056 0.041)" fill="#fbf6ee" fill-rule="evenodd"/>
        <g id="Group_113" data-name="Group 113" transform="translate(30.226 34.438)">
          <path id="Path_4287" data-name="Path 4287" d="M772.614,234.19l-.114-.076.038-.114-.038.114Z" transform="translate(-509.569 -179.615)" fill="#724335"/>
          <path id="Path_4288" data-name="Path 4288" d="M110.076,234l.038.114-.114.076.114-.076Z" transform="translate(-98.501 -179.615)" fill="#724335"/>
          <path id="Path_4289" data-name="Path 4289" d="M339.063,166.338c2.808-2.011,5.427-4.023,7.818-6.034,7.515-6.186,11.158-15.674,11.158-25.39V112.826a36.151,36.151,0,0,0-1.1-10.247c-.987-3.074-2.808-5.579-6.148-6.6-3.112-.949-6.869-1.86-10.7-2.657-7.97-1.67-15.219,4.63-15.219,12.79,0,9.45-9.943,16.509-19.2,14.536a324.839,324.839,0,0,0-40.647-5.883c-6.49-.493-11.841-5.769-11.841-12.258a11.791,11.791,0,0,0-11.8-11.8H196.706A12.115,12.115,0,0,0,184.6,102.807c0,6.68-5.5,12.069-12.145,12.524a336.037,336.037,0,0,0-40.3,5.427c-9.26,1.86-19.242-5.237-19.242-14.687a12.8,12.8,0,0,0-15.219-12.79c-3.833.8-7.59,1.708-10.7,2.657-3.378,1.025-5.2,3.53-6.148,6.6a34.834,34.834,0,0,0-1.1,10.247v22.088c0,9.716,3.643,19.2,11.158,25.39,2.391,1.973,5.048,4.023,7.818,6.034,13.625,9.754,24.9,24.517,24.9,41.216V344.181c0,13.4-7.439,25.39-17.648,34.119a54.547,54.547,0,0,0-7.1,7.135c-1.86,2.353-3.112,4.63-3.34,6.642a92.182,92.182,0,0,0-.531,9.64c-.152,10.93-4.251,21.367-10.627,30.248a41.65,41.65,0,0,0-3.34,5.351A10.133,10.133,0,0,0,79.7,441.6a23.866,23.866,0,0,0,23.872,23.872h49.072a2.493,2.493,0,0,1-.493.114H287.79c-.152-.038-.3-.076-.417-.114h46.795A23.866,23.866,0,0,0,358.039,441.6a10.133,10.133,0,0,0-1.328-4.289,47.629,47.629,0,0,0-3.34-5.351c-6.376-8.881-10.475-19.318-10.627-30.248a92.769,92.769,0,0,0-.531-9.64c-.228-2.049-1.48-4.289-3.34-6.642a52.274,52.274,0,0,0-7.1-7.135c-10.171-8.729-17.648-20.722-17.648-34.119V207.554C314.2,190.817,325.439,176.054,339.063,166.338Zm.949,257.655c11.158,8.691,12.524,15.56,13.4,20.115q.114.626.228,1.139l.038.152h-.152c-139.739-3.226-218.489-1.9-252.152-1.328-7.059.114-12.183.228-15.333.228h-.19l.076-.19c5.048-10.019,11.12-20.418,17.724-21.633l236.364,1.518Zm-6.072-23.682c-119.586-3.757-189.076-1.4-218.755-.417-6.983.228-12.069.417-15.029.417H100l.076-.152c4.1-11.082,20.494-21.519,26.3-23H309.347c8.843,1.973,15.446,5.807,19.735,11.31a25.641,25.641,0,0,1,5.01,11.727l.038.152ZM110.669,375.188h0c98.979-23.834,182.89-9.943,212.493,0h0C293.559,365.244,209.647,351.354,110.669,375.188Zm204.485-11.462c-5.2-.493-10.4-.949-15.56-1.328a19.075,19.075,0,0,1-15.636-11.006,15.1,15.1,0,0,1-3.264,4.478,16.578,16.578,0,0,1-11.613,4.592,6.138,6.138,0,0,1-.835-.038c-11.575-.531-23.378-.873-34.992-.987a17.588,17.588,0,0,1-15.674-9.981,17.522,17.522,0,0,1-6.3,7.211,17.891,17.891,0,0,1-9.412,2.922c-11.613.266-23.378.721-34.954,1.4-.342,0-.721.038-1.063.038a16.364,16.364,0,0,1-11.386-4.44,16.176,16.176,0,0,1-3.264-4.44,20.016,20.016,0,0,1-6.262,7.628,18.662,18.662,0,0,1-9.336,3.567c-5.2.455-10.4.987-15.636,1.518.721-1.1,1.442-2.315,2.2-3.643a.132.132,0,0,1-.038.076c4.4-.455,8.8-.873,13.207-1.29,7.818-.721,14.232-7.514,14.27-15.181h0l.114-15.408a12.232,12.232,0,0,0-12.372-12.638,6.94,6.94,0,0,0-1.252.076c-2.846.266-5.731.531-8.577.835.038-1.708.076-3.53.114-5.389a13.3,13.3,0,0,0,6.414.949c11.537-1.063,23.264-1.936,34.84-2.581a15.032,15.032,0,0,0,9.943-4.63,14.551,14.551,0,0,0,4.175-10.019l.076-15.409a13,13,0,0,0-4.023-9.6,12.828,12.828,0,0,0-8.919-3.53h-.531a2.874,2.874,0,0,0-.569.038,2.871,2.871,0,0,1-.569.038c-10.816.607-21.784,1.442-32.6,2.391-.38.038-.8.076-1.214.114h0a15.516,15.516,0,0,0-6.6,2.353v-5.086c2.125-.228,4.213-.417,6.338-.607h.228c.266-.038.569-.038.835-.076.152,0,.3-.038.455-.038s.3-.038.455-.038a15.41,15.41,0,0,0,9.943-4.972,15.064,15.064,0,0,0,4.175-10.171l.114-15.409a12.382,12.382,0,0,0-3.985-9.45,12.036,12.036,0,0,0-8.311-3.188c-.417,0-.8,0-1.214.038-2.922.266-5.883.531-8.843.835,0-1.974.038-3.8.038-5.579A12.807,12.807,0,0,0,135,219.812c11.423-1.063,23.037-1.9,34.5-2.543a15.065,15.065,0,0,0,9.867-4.592,14.686,14.686,0,0,0,4.137-10.019l.076-15.408a13.173,13.173,0,0,0-4.023-9.678,12.5,12.5,0,0,0-8.767-3.492,5.088,5.088,0,0,0-.759.038c-11.348.645-22.885,1.48-34.233,2.5a15.4,15.4,0,0,0-9.64,4.82h0c-.531-1.063-1.177-2.163-1.974-3.492h0a3.788,3.788,0,0,1,.3.531,18.433,18.433,0,0,1,11.006-5.161c11.386-1.025,22.923-1.9,34.308-2.543a15.975,15.975,0,0,1,15.409,9.07,17.6,17.6,0,0,1,15.446-10.285c11.386-.266,23-.342,34.422-.19a17.432,17.432,0,0,1,15.446,10.133,16.239,16.239,0,0,1,15.484-9.26c11.424.493,23,1.214,34.384,2.163A18.168,18.168,0,0,1,312,178.027l.455-1.025c-.607,1.328-1.214,2.884-1.822,4.63,0-.038.038-.114.038-.152a15.291,15.291,0,0,0-10.589-5.807c-11.348-.911-22.885-1.632-34.271-2.125a12.824,12.824,0,0,0-9.564,3.567,13.3,13.3,0,0,0-4.1,9.716l.038,15.408a14.652,14.652,0,0,0,13.928,14.422c11.5.493,23.113,1.252,34.574,2.163a13.044,13.044,0,0,0,7.363-1.518c.038-1.822.038-3.605.076-5.275.114-9.3.19-15.788.19-17.762v0c0,9.184-1.746,117.158-.569,144.1-.228-4.934-.342-12.6-.38-21.86l-8.084-.683a12.583,12.583,0,0,0-13.776,12.752l.076,15.408c.038,7.628,6.414,14.346,14.27,14.991,4.592.342,9.222.759,13.852,1.177a2.606,2.606,0,0,0-.114-.3c.531,1.328,1.063,2.657,1.67,3.985Q315.211,363.84,315.154,363.726Zm-1.29-189.494c-.114.19-.228.417-.342.645.114-.228.228-.455.342-.645Zm-5.541,170.176h0c0-.038,0-.038-.038-.076.038,0,.038.038.038.076Zm1.328,3.947c-.114-.341-.228-.683-.3-.987C309.461,347.672,309.537,348.014,309.651,348.355Zm.873,2.733c-.19-.569-.341-1.1-.493-1.632-.114-.342-.228-.721-.342-1.025C309.954,349.228,310.22,350.1,310.523,351.088ZM121.94,174.232c.114.19.19.342.3.531a3.792,3.792,0,0,1-.3-.531Zm4.668,8.349h0c0,.038,0,.038.038.038A.037.037,0,0,0,126.609,182.582Zm-2.884-5.237c.114.19.228.417.342.607A3.4,3.4,0,0,0,123.724,177.344Zm0-.038c-.114-.228-.266-.418-.38-.645C123.459,176.851,123.572,177.079,123.724,177.306Zm-.493-.8a4.861,4.861,0,0,1-.417-.759C122.965,176.016,123.117,176.282,123.231,176.509Zm-.493-.873c-.152-.266-.3-.531-.493-.835C122.434,175.105,122.586,175.371,122.737,175.636ZM307.9,340.841c0-.152-.038-.342-.038-.493A2.164,2.164,0,0,0,307.9,340.841Zm-.038-.645a1.558,1.558,0,0,0-.038-.417A1.42,1.42,0,0,0,307.867,340.2Zm-.038-.569a1.85,1.85,0,0,0-.038-.455C307.791,339.361,307.829,339.513,307.829,339.627Zm-.038-.569a2.508,2.508,0,0,0-.038-.531A2.692,2.692,0,0,1,307.791,339.057ZM297.013,156.964c-19.963-2.581-59.888-5.769-80-5.769H216.9c-20.077,0-60,3.188-80,5.769-19.2,4.782-29.64,4.744-35.675,2.391s-7.59-6.945-8.957-11.12c-.342-1.025-.683-2.049-1.063-2.96l-.038-.114.114-.038C139.55,131.271,188.85,128.69,216.9,128.69h.114c28.046,0,77.346,2.581,125.621,16.433l.114.038-.038.114c-.38.949-.721,1.936-1.063,2.96-1.4,4.175-2.922,8.8-8.957,11.12C326.691,161.708,316.216,161.784,297.013,156.964Z" transform="translate(-79.7 -90.7)" fill="#724335"/>
          <path id="Path_4290" data-name="Path 4290" d="M321.452,474.251h1.9a14.377,14.377,0,0,0,9.867-4.25,13.893,13.893,0,0,0,4.1-9.83l.038-15.409a13.623,13.623,0,0,0-4.1-9.829,13.367,13.367,0,0,0-9.374-3.833h-.3c-11.424.266-23.037.721-34.422,1.366a15.239,15.239,0,0,0-14.042,14.915L275,462.79a12.567,12.567,0,0,0,3.871,9.374,12.8,12.8,0,0,0,9.792,3.454h.3a3.274,3.274,0,0,0,.607-.038,2.881,2.881,0,0,0,.569-.038h.417c10.209-.645,20.57-1.063,30.893-1.291Z" transform="translate(-200.879 -301.912)" fill="#724335"/>
          <path id="Path_4291" data-name="Path 4291" d="M322.174,677h-.3c-11.537.266-23.264.721-34.764,1.366a15.316,15.316,0,0,0-14.194,14.915L272.8,708.69a12.4,12.4,0,0,0,3.871,9.3,13.173,13.173,0,0,0,9.943,3.492c11.613-.683,23.416-1.139,35.068-1.4A14.358,14.358,0,0,0,335.8,706l.038-15.409a13.451,13.451,0,0,0-4.1-9.754A13.816,13.816,0,0,0,322.174,677Z" transform="translate(-199.514 -454.488)" fill="#724335"/>
          <path id="Path_4292" data-name="Path 4292" d="M589.629,599.668c-.038-11.917.038-25.883.152-40a14.93,14.93,0,0,0-6.6-2.277c-.152,0-.3-.038-.493-.038s-.3-.038-.494-.038c-10.892-.873-21.936-1.556-32.866-2.049a2.505,2.505,0,0,1-.531-.038,2.5,2.5,0,0,1-.531-.038A13.1,13.1,0,0,0,534.6,568.472l.038,15.408a14.731,14.731,0,0,0,14.08,14.422c11.575.493,23.34,1.252,34.878,2.163A12.836,12.836,0,0,0,589.629,599.668Z" transform="translate(-361.956 -378.902)" fill="#724335"/>
          <path id="Path_4293" data-name="Path 4293" d="M427.4,675.3h-.3c.19.114.38.265.569.38Z" transform="translate(-295.255 -453.433)" fill="#724335"/>
          <path id="Path_4294" data-name="Path 4294" d="M409.468,595.989A13.806,13.806,0,0,0,419.45,592a13.246,13.246,0,0,0,3.947-9.564l-.038-15.409a14.212,14.212,0,0,0-13.815-14.156h-.835c-3.643-.038-7.325-.076-11.006-.076-7.363,0-14.763.076-22.088.266a8.6,8.6,0,0,0-.987.038,14.492,14.492,0,0,0-13.852,14.346l-.076,15.409a13.213,13.213,0,0,0,3.909,9.526,13.588,13.588,0,0,0,9.943,3.833C386.128,595.913,397.855,595.837,409.468,595.989Z" transform="translate(-254.055 -377.424)" fill="#724335"/>
          <path id="Path_4295" data-name="Path 4295" d="M451.975,434.446a13.831,13.831,0,0,0-4.137,9.905L447.8,459.76a14,14,0,0,0,13.89,13.89h1.9c10.285.114,20.646.417,30.931.873h.152c.3,0,.607.038.911.038a1.847,1.847,0,0,1,.455.038h0a1.855,1.855,0,0,1,.456.038,12.876,12.876,0,0,0,13.738-13.017l-.076-15.409a14.943,14.943,0,0,0-14-14.725c-11.423-.531-23.037-.873-34.5-.987A13.54,13.54,0,0,0,451.975,434.446Z" transform="translate(-308.099 -301.538)" fill="#724335"/>
          <path id="Path_4296" data-name="Path 4296" d="M634.932,481.165c.152,0,.342.038.493.038h0c.152,0,.342.038.494.038h.038c.228,0,.493.038.721.038h.114c2.125.152,4.25.342,6.414.531.114-15.37.3-30.551.456-43.075l-9.336-.8a12.582,12.582,0,0,0-9.6,3.264,12.774,12.774,0,0,0-4.023,9.526l.076,15.409A15.589,15.589,0,0,0,634.932,481.165Z" transform="translate(-415.38 -306.131)" fill="#724335"/>
          <path id="Path_4297" data-name="Path 4297" d="M375.6,350.241c11.462-.266,23.113-.342,34.574-.19a13.824,13.824,0,0,0,9.83-3.909,13.366,13.366,0,0,0,3.985-9.6l-.038-15.409a14.112,14.112,0,0,0-13.815-14.156c-3.909-.038-7.818-.076-11.727-.076-7.552,0-15.1.076-22.581.266a14.415,14.415,0,0,0-13.852,14.346L361.9,336.92a13.148,13.148,0,0,0,3.909,9.564A13.387,13.387,0,0,0,375.6,350.241Z" transform="translate(-254.798 -224.848)" fill="#724335"/>
          <path id="Path_4298" data-name="Path 4298" d="M496.244,677.487c-11.537-.531-23.227-.873-34.8-.987h-.152a13.864,13.864,0,0,0-13.853,13.814l-.038,15.409a14.078,14.078,0,0,0,14.042,13.891c11.651.114,23.454.455,35.105.987a13.312,13.312,0,0,0,10.019-3.644,12.806,12.806,0,0,0,3.909-9.374l-.076-15.409A15.015,15.015,0,0,0,496.244,677.487Z" transform="translate(-307.851 -454.178)" fill="#724335"/>
        </g>
      </g>
    </g>
  </svg>  