<svg width="200" height="200" fill="none" viewbox="0 0 200 200">
    <g id="ROOK" transform="translate(40.691 22.348)">
        <path id="Path_4286" data-name="Path 4286"
            d="M59.427-.023c-4.448-.2-16.313,1.225-19.176,2.6C38.121,3.6,37.015,6.05,35.99,8.353,34.938,10.71,33.953,12.921,32,13.227c-1.451.226-2.916-1.132-4.687-2.783C24.924,8.22,21.981,5.5,17.813,5.5A16.574,16.574,0,0,0,2.9,14.293c-3.129,5.726-3.169,26.992.293,29.935a32.156,32.156,0,0,0,3.249,2.277c3.9,2.5,8.709,5.593,8.709,11.346v.519c0,8.989,0,41.135-2.663,42.626-2.73,1.518-6.818,11.452-8.456,16.379A51.789,51.789,0,0,0,2.18,126.63,49.908,49.908,0,0,1,.7,134.42C-.963,139.88.488,146.991,6.294,150.8c.213.133.413.28.613.413,4.5,3.023,6.152,4.128,52.507,4.128,46.181.08,47.779-1,52.227-3.982.213-.146.439-.293.666-.439,5.806-3.809,7.271-10.906,5.62-16.366a51.849,51.849,0,0,1-1.465-7.79,51.764,51.764,0,0,0-1.838-9.255c-1.638-4.927-5.713-14.874-8.429-16.393-2.663-1.491-2.61-33.651-2.6-42.626v-.519c.013-5.739,4.821-8.829,8.722-11.332a28.9,28.9,0,0,0,3.249-2.264c3.462-2.93,3.462-24.2.346-29.935a16.581,16.581,0,0,0-14.9-8.815C96.846,5.61,93.9,8.34,91.52,10.551c-1.771,1.638-3.249,3.01-4.7,2.77C84.861,13,83.876,10.8,82.824,8.433c-1.025-2.3-2.117-4.754-4.248-5.779C75.713,1.256,63.888-.182,59.427,0Z"
            transform="translate(0 0)" fill="#fbf6ee" fill-rule="evenodd" />
        <g id="Group_113" data-name="Group 113" transform="translate(10.662 12.042)">
            <path id="Path_4287" data-name="Path 4287"
                d="M772.54,234.067l-.04-.027.013-.04-.013.04Z"
                transform="translate(-680.244 -214.918)" fill="#724335" />
            <path id="Path_4288" data-name="Path 4288" d="M110.027,234l.013.04-.04.027.04-.027Z"
                transform="translate(-105.965 -214.918)" fill="#724335" />
            <path id="Path_4289" data-name="Path 4289"
                d="M170.7,117.24c.985-.706,1.9-1.412,2.743-2.117a11.385,11.385,0,0,0,3.915-8.909v-7.75a12.685,12.685,0,0,0-.386-3.6,3.258,3.258,0,0,0-2.157-2.317c-1.092-.333-2.41-.653-3.755-.932a4.485,4.485,0,0,0-5.34,4.488c0,3.316-3.489,5.793-6.738,5.1a113.98,113.98,0,0,0-14.262-2.064,4.427,4.427,0,0,1-4.155-4.3,4.137,4.137,0,0,0-4.141-4.141H120.755a4.251,4.251,0,0,0-4.248,4.248,4.51,4.51,0,0,1-4.261,4.394,117.909,117.909,0,0,0-14.142,1.9c-3.249.652-6.751-1.838-6.751-5.153a4.493,4.493,0,0,0-5.34-4.488c-1.345.28-2.663.6-3.755.932A3.208,3.208,0,0,0,80.1,94.855a12.222,12.222,0,0,0-.386,3.6v7.75a11.385,11.385,0,0,0,3.915,8.909c.839.692,1.771,1.412,2.743,2.117,4.781,3.422,8.736,8.6,8.736,14.462v47.953c0,4.7-2.61,8.909-6.192,11.971a19.139,19.139,0,0,0-2.49,2.5,4.988,4.988,0,0,0-1.172,2.33,32.344,32.344,0,0,0-.186,3.382,18.78,18.78,0,0,1-3.729,10.613,14.616,14.616,0,0,0-1.172,1.878,3.556,3.556,0,0,0-.466,1.5,8.374,8.374,0,0,0,8.376,8.376h17.218a.875.875,0,0,1-.173.04h47.593c-.053-.013-.107-.027-.146-.04h16.419a8.374,8.374,0,0,0,8.376-8.376,3.556,3.556,0,0,0-.466-1.5,16.712,16.712,0,0,0-1.172-1.878A18.78,18.78,0,0,1,172,199.828a32.552,32.552,0,0,0-.186-3.382,4.929,4.929,0,0,0-1.172-2.33,18.342,18.342,0,0,0-2.49-2.5c-3.569-3.063-6.192-7.271-6.192-11.971V131.7C161.982,125.829,165.924,120.649,170.7,117.24Zm.333,90.405c3.915,3.049,4.394,5.46,4.7,7.058q.04.22.08.4l.013.053h-.053c-49.031-1.132-76.663-.666-88.475-.466-2.477.04-4.275.08-5.38.08h-.067l.027-.067c1.771-3.516,3.9-7.164,6.219-7.59l82.935.533Zm-2.131-8.309c-41.96-1.318-66.343-.493-76.756-.146-2.45.08-4.235.146-5.273.146h-.053l.027-.053c1.438-3.888,7.191-7.55,9.228-8.07h64.2a11.655,11.655,0,0,1,6.925,3.968,9,9,0,0,1,1.758,4.115l.013.053ZM90.566,190.52h0c34.729-8.363,64.172-3.489,74.559,0h0C154.738,187.031,125.3,182.157,90.566,190.52Zm71.749-4.022c-1.824-.173-3.649-.333-5.46-.466a6.693,6.693,0,0,1-5.486-3.862,5.3,5.3,0,0,1-1.145,1.571,5.817,5.817,0,0,1-4.075,1.611,2.155,2.155,0,0,1-.293-.013c-4.062-.186-8.2-.306-12.278-.346a6.171,6.171,0,0,1-5.5-3.5,6.148,6.148,0,0,1-2.211,2.53,6.278,6.278,0,0,1-3.3,1.025c-4.075.093-8.2.253-12.264.493-.12,0-.253.013-.373.013A5.742,5.742,0,0,1,105.933,184a5.676,5.676,0,0,1-1.145-1.558,7.023,7.023,0,0,1-2.2,2.677,6.548,6.548,0,0,1-3.276,1.252c-1.824.16-3.649.346-5.486.533.253-.386.506-.812.772-1.278a.046.046,0,0,1-.013.027c1.545-.16,3.089-.306,4.634-.453a5.555,5.555,0,0,0,5.007-5.327h0l.04-5.406a4.292,4.292,0,0,0-4.341-4.434,2.436,2.436,0,0,0-.439.027c-1,.093-2.011.186-3.01.293.013-.6.027-1.238.04-1.891a4.666,4.666,0,0,0,2.25.333c4.048-.373,8.163-.679,12.225-.906a5.274,5.274,0,0,0,3.489-1.625,5.106,5.106,0,0,0,1.465-3.516l.027-5.406a4.562,4.562,0,0,0-1.412-3.369,4.5,4.5,0,0,0-3.129-1.238h-.186a1.009,1.009,0,0,0-.2.013,1.007,1.007,0,0,1-.2.013c-3.8.213-7.644.506-11.439.839l-.426.04h0a5.444,5.444,0,0,0-2.317.826v-1.784c.746-.08,1.478-.146,2.224-.213h.08c.093-.013.2-.013.293-.027.053,0,.107-.013.16-.013s.107-.013.16-.013a5.407,5.407,0,0,0,3.489-1.744,5.286,5.286,0,0,0,1.465-3.569l.04-5.406a4.345,4.345,0,0,0-1.4-3.316,4.223,4.223,0,0,0-2.916-1.119c-.146,0-.28,0-.426.013-1.025.093-2.064.186-3.1.293,0-.692.013-1.332.013-1.958a4.494,4.494,0,0,0,2.357.4c4.008-.373,8.083-.666,12.1-.892a5.286,5.286,0,0,0,3.462-1.611,5.153,5.153,0,0,0,1.451-3.516l.027-5.406a4.622,4.622,0,0,0-1.412-3.4,4.385,4.385,0,0,0-3.076-1.225,1.785,1.785,0,0,0-.266.013c-3.982.226-8.03.519-12.011.879A5.4,5.4,0,0,0,96,122.54h0c-.186-.373-.413-.759-.692-1.225h0a1.329,1.329,0,0,1,.107.186,6.468,6.468,0,0,1,3.862-1.811c3.995-.36,8.043-.666,12.038-.892a5.605,5.605,0,0,1,5.406,3.183,6.175,6.175,0,0,1,5.42-3.609c3.995-.093,8.07-.12,12.078-.067a6.117,6.117,0,0,1,5.42,3.555,5.7,5.7,0,0,1,5.433-3.249c4.008.173,8.07.426,12.065.759a6.374,6.374,0,0,1,4.075,1.971l.16-.36c-.213.466-.426,1.012-.639,1.625,0-.013.013-.04.013-.053a5.365,5.365,0,0,0-3.715-2.037c-3.982-.32-8.03-.573-12.025-.746a4.5,4.5,0,0,0-3.356,1.252,4.668,4.668,0,0,0-1.438,3.409l.013,5.406a5.141,5.141,0,0,0,4.887,5.06c4.035.173,8.11.439,12.131.759a4.577,4.577,0,0,0,2.583-.533c.013-.639.013-1.265.027-1.851.04-3.263.067-5.54.067-6.232v0c0,3.223-.613,41.108-.2,50.563-.08-1.731-.12-4.421-.133-7.67l-2.836-.24a4.415,4.415,0,0,0-4.834,4.474l.027,5.406a5.471,5.471,0,0,0,5.007,5.26c1.611.12,3.236.266,4.861.413a.915.915,0,0,0-.04-.107c.186.466.373.932.586,1.4Q162.335,186.539,162.315,186.5Zm-.453-66.489c-.04.067-.08.146-.12.226.04-.08.08-.16.12-.226Zm-1.944,59.711h0c0-.013,0-.013-.013-.027.013,0,.013.013.013.027Zm.466,1.385c-.04-.12-.08-.24-.107-.346C160.318,180.866,160.344,180.986,160.384,181.105Zm.306.959c-.067-.2-.12-.386-.173-.573-.04-.12-.08-.253-.12-.36C160.491,181.412,160.584,181.718,160.691,182.064ZM94.521,120.01c.04.067.067.12.107.186a1.331,1.331,0,0,1-.107-.186Zm1.638,2.93h0c0,.013,0,.013.013.013A.013.013,0,0,0,96.159,122.939ZM95.147,121.1c.04.067.08.146.12.213A1.191,1.191,0,0,0,95.147,121.1Zm0-.013c-.04-.08-.093-.146-.133-.226C95.054,120.928,95.094,121.008,95.147,121.088Zm-.173-.28a1.707,1.707,0,0,1-.146-.266C94.881,120.635,94.934,120.729,94.974,120.809ZM94.8,120.5c-.053-.093-.107-.186-.173-.293C94.694,120.316,94.748,120.409,94.8,120.5Zm64.971,57.967c0-.053-.013-.12-.013-.173A.759.759,0,0,0,159.772,178.469Zm-.013-.226a.546.546,0,0,0-.013-.146A.5.5,0,0,0,159.759,178.242Zm-.013-.2a.649.649,0,0,0-.013-.16C159.732,177.949,159.745,178,159.745,178.043Zm-.013-.2a.88.88,0,0,0-.013-.186A.944.944,0,0,1,159.732,177.843Zm-3.782-63.892c-7-.906-21.013-2.024-28.071-2.024h-.04c-7.044,0-21.053,1.119-28.071,2.024-6.738,1.678-10.4,1.665-12.517.839s-2.663-2.437-3.143-3.9c-.12-.36-.24-.719-.373-1.039l-.013-.04.04-.013c16.939-4.861,34.237-5.766,44.077-5.766h.04c9.841,0,27.139.906,44.077,5.766l.04.013-.013.04c-.133.333-.253.679-.373,1.039-.493,1.465-1.025,3.089-3.143,3.9S162.688,115.642,155.95,113.951Z"
                transform="translate(-79.7 -90.7)" fill="#724335" />
            <path id="Path_4290" data-name="Path 4290"
                d="M291.3,446.241h.666a5.045,5.045,0,0,0,3.462-1.491,4.875,4.875,0,0,0,1.438-3.449l.013-5.406a4.78,4.78,0,0,0-1.438-3.449,4.69,4.69,0,0,0-3.289-1.345h-.107c-4.008.093-8.083.253-12.078.479a5.347,5.347,0,0,0-4.927,5.233l-.04,5.406a4.41,4.41,0,0,0,1.358,3.289,4.491,4.491,0,0,0,3.436,1.212h.107a1.146,1.146,0,0,0,.213-.013,1.011,1.011,0,0,0,.2-.013h.146c3.582-.226,7.218-.373,10.84-.453Z"
                transform="translate(-248.991 -385.771)" fill="#724335" />
            <path id="Path_4291" data-name="Path 4291"
                d="M290.123,677h-.107c-4.048.093-8.163.253-12.2.479a5.374,5.374,0,0,0-4.98,5.233l-.04,5.406a4.351,4.351,0,0,0,1.358,3.263,4.622,4.622,0,0,0,3.489,1.225c4.075-.24,8.216-.4,12.3-.493a5.038,5.038,0,0,0,4.954-4.94l.013-5.406a4.72,4.72,0,0,0-1.438-3.422A4.848,4.848,0,0,0,290.123,677Z"
                transform="translate(-247.084 -598.926)" fill="#724335" />
            <path id="Path_4292" data-name="Path 4292"
                d="M553.907,570.791c-.013-4.181.013-9.082.053-14.036a5.239,5.239,0,0,0-2.317-.8c-.053,0-.107-.013-.173-.013s-.107-.013-.173-.013c-3.822-.306-7.7-.546-11.532-.719a.88.88,0,0,1-.186-.013.88.88,0,0,1-.186-.013,4.6,4.6,0,0,0-4.794,4.661l.013,5.406a5.169,5.169,0,0,0,4.94,5.06c4.062.173,8.19.439,12.238.759A4.5,4.5,0,0,0,553.907,570.791Z"
                transform="translate(-474.022 -493.329)" fill="#724335" />
            <path id="Path_4293" data-name="Path 4293"
                d="M427.207,675.3H427.1c.067.04.133.093.2.133Z"
                transform="translate(-380.839 -597.452)" fill="#724335" />
            <path id="Path_4294" data-name="Path 4294"
                d="M377.812,567.954a4.844,4.844,0,0,0,3.5-1.4A4.648,4.648,0,0,0,382.7,563.2l-.013-5.406a4.987,4.987,0,0,0-4.847-4.967h-.293c-1.278-.013-2.57-.027-3.862-.027-2.583,0-5.18.027-7.75.093a3.013,3.013,0,0,0-.346.013,5.085,5.085,0,0,0-4.861,5.034l-.027,5.406a4.636,4.636,0,0,0,1.372,3.342,4.768,4.768,0,0,0,3.489,1.345C369.622,567.927,373.737,567.9,377.812,567.954Z"
                transform="translate(-323.281 -491.265)" fill="#724335" />
            <path id="Path_4295" data-name="Path 4295"
                d="M449.265,431.883a4.853,4.853,0,0,0-1.452,3.476l-.013,5.407a4.911,4.911,0,0,0,4.874,4.874h.666c3.609.04,7.244.146,10.853.306h.053c.107,0,.213.013.32.013a.648.648,0,0,1,.16.013h0a.651.651,0,0,1,.16.013,4.518,4.518,0,0,0,4.821-4.568l-.027-5.406a5.243,5.243,0,0,0-4.914-5.167c-4.008-.186-8.083-.306-12.1-.346A4.751,4.751,0,0,0,449.265,431.883Z"
                transform="translate(-398.782 -385.249)" fill="#724335" />
            <path id="Path_4296" data-name="Path 4296"
                d="M625.694,453.081c.053,0,.12.013.173.013h0c.053,0,.12.013.173.013h.013c.08,0,.173.013.253.013h.04c.746.053,1.491.12,2.25.186.04-5.393.107-10.72.16-15.114l-3.276-.28a4.415,4.415,0,0,0-3.369,1.145A4.482,4.482,0,0,0,620.7,442.4l.027,5.406A5.47,5.47,0,0,0,625.694,453.081Z"
                transform="translate(-548.658 -391.666)" fill="#724335" />
            <path id="Path_4297" data-name="Path 4297"
                d="M366.706,322.107c4.022-.093,8.11-.12,12.131-.067a4.85,4.85,0,0,0,3.449-1.372,4.69,4.69,0,0,0,1.4-3.369l-.013-5.406a4.952,4.952,0,0,0-4.847-4.967c-1.372-.013-2.743-.027-4.115-.027-2.65,0-5.3.027-7.923.093a5.058,5.058,0,0,0-4.861,5.034l-.027,5.406a4.613,4.613,0,0,0,1.372,3.356A4.7,4.7,0,0,0,366.706,322.107Z"
                transform="translate(-324.319 -278.11)" fill="#724335" />
            <path id="Path_4298" data-name="Path 4298"
                d="M464.538,676.846c-4.048-.186-8.15-.306-12.211-.346h-.053a4.864,4.864,0,0,0-4.861,4.847l-.013,5.407a4.939,4.939,0,0,0,4.927,4.874c4.088.04,8.23.16,12.318.346a4.671,4.671,0,0,0,3.516-1.278,4.493,4.493,0,0,0,1.372-3.289L469.505,682A5.268,5.268,0,0,0,464.538,676.846Z"
                transform="translate(-398.435 -598.492)" fill="#724335" />
        </g>
    </g>
</svg>