<svg xmlns="http://www.w3.org/2000/svg" width="570" height="570" viewBox="0 0 570 570">
    <g id="Group_30" data-name="Group 30" transform="translate(-305 -1030)">
        <rect id="Rectangle_1" data-name="Rectangle 1" width="570" height="570"
            transform="translate(305 1030)" fill="none" />
        <g id="Group_29" data-name="Group 29" transform="translate(407.6 1112.65)">
            <path id="Path_1019" data-name="Path 1019"
                d="M190.449,6.911c19.985-13.3,41.3,0,50.629,0,3.108,0,11.99,2.128,22.648,10.639,13.323,10.639,17.32,27.928,19.985,43.887S295.7,92.025,295.7,100s11.991,22.608,11.991,37.237-5.329,21.279-5.329,29.258,5.329,5.32,5.329,19.949S301.032,211.717,295.7,219.7s-13.323,34.578-11.991,42.557-7.994,14.629-9.327,18.618,7.994,10.639,9.327,15.959c1.066,4.255,8.438,9.752,11.991,11.969-2.221,5.32-7.994,16.226-13.323,17.288-6.662,1.33-29.311,13.3-10.659,13.3,14.922,0,49.742-2.66,65.284-3.99,53.293-7.981,61.287,25.266,73.278,33.247,9.6,6.383-.442,15.959-6.66,19.949-5.773,4.433-18.919,14.364-25.315,18.619-7.994,5.317-15.988-5.321-26.645-15.959s-25.315-11.971-37.307-11.971-37.305,5.321-61.287,9.311-30.643-6.651-38.638-14.628-4-11.971-9.326,5.317-45.3,9.311-59.955,11.971-50.629-5.321-69.281-2.66-29.312,13.3-37.306,22.609-23.981-5.321-29.311-9.311-9.326-11.968-7.994-27.927,11.991-18.619,13.323-23.939,26.647-18.619,61.287-18.619h51.961c-6.662,0-5.329-19.949,0-31.918s9.326-18.619,0-26.6-26.646-97.084-27.978-127.671,59.955-93.094,66.616-99.743S170.465,20.21,190.449,6.911Z"
                transform="translate(-1 -1)" fill="#f8f5f1" stroke="#f8f5f1" stroke-width="1" />
            <path id="Path_1020" data-name="Path 1020"
                d="M106.074,13.2c19.195-12.754,27.993-5.314,29.992,0,1.92,2.906-.8,9.871-2.4,12.99l-1.2-1.181a94.054,94.054,0,0,0,2.4-9.447c0-.945-1.6-2.755-2.4-3.543a31.21,31.21,0,0,0-4.8-.59h-6c-1.8,0-.6,2.952-1.8,3.543s-2.4.59-3,4.133c-.48,2.834,2.6,5.117,4.2,5.9,2.2,0,7.318.236,10.2,1.181s1.6,6.3.6,8.857h-10.2c.2.787-.12,3.425-3,7.676-3.6,5.314-3,0-9.6,4.724-5.279,3.779-9.4,11.022-10.8,14.171-7.2,3.543-16.8,20.076-23.994,30.7s-7.2,20.666-11.4,21.847c-3.359.945-5.4,10.235-6,14.761-1.8,8.857-6,16.533-6,17.714s-2.436,24.469,0,36.018c2.449,11.611,4.049,17.29,5.973,24.119l.026.09c1.616,5.735,5.4,16.533,6,19.485s10.8,15.942,14.4,19.485c3.42,3.366,0,13.58-3,14.761s-7.2-2.362-7.2-7.086c0-3.779-5.6-15.352-9-20.666-6-11.809-12.6-38.38-15.6-44.284-2.79-5.493-5.979-20.237-5.979-28.307-.8-6.489,2.983-18.691,3.207-21.088.435-4.662,3.871-10.772,7.215-19.465,3.261-8.477.8-3.244,8.017-14.6A219.728,219.728,0,0,0,66.176,85.639,48.114,48.114,0,0,1,76.682,74.015l11.4-14.761c3.6-10.628,18-17.714,22.794-21.847,3.839-3.307,4.8-6.5,4.8-7.676C109.434,29.258,106.674,18.512,106.074,13.2Z"
                transform="translate(77.892 10.49)" stroke="#000" stroke-width="3" />
            <path id="Path_1021" data-name="Path 1021"
                d="M78.961,33.5,65.684,16.9l1.155-1.778c4.618,0,30.4,29.838,43.295,45.646,7.5,7.114,32.327,54.539,35.213,64.616s.577,38.533-1.155,47.425c-1.385,7.114-17.9,39.323-25.977,54.539-.962-1.581-2.886-5.1-2.886-6.521,0-1.778,13.854-32.012,23.668-58.1s-3.464-36.162-3.464-41.5-8.082-16.006-10.391-20.748-12.7-27.269-16.741-33.2C105.169,62.545,87.428,42.784,78.961,33.5Z"
                transform="translate(143.149 30.466)" stroke="#000" stroke-width="3" />
            <path id="Path_1022" data-name="Path 1022"
                d="M61.833,11.811l2.563,9.4L75.506,24.63a74.377,74.377,0,0,1,2.563-12.818c1.709-5.127-4.273,0-7.691-3.418C67.644,5.659,63.542,9.533,61.833,11.811Z"
                transform="translate(134.568 13.38)" />
            <path id="Path_1023" data-name="Path 1023"
                d="M137.872,59.917c0-1.709-30.764-2.564-31.618-2.564L83.181,49.662,94.291,34.28l28.2-19.655,26.491,30.764,26.491,29.054,27.345,54.691-.855,29.054L195.981,178.7l-21.364,44.436-17.945-2.563-33.327-1.709-29.909,2.563L66.945,231.68,51.563,199.207,39.6,156.48l7.691-51.273L77.2,52.226,103.69,62.48v48.709l-35.036,5.982v21.363h38.454V188.1h28.2V140.244l35.891-3.418-1.709-22.218-34.182-5.982C136.163,92.959,137.872,61.284,137.872,59.917Z"
                transform="translate(85.02 29.365)" />
            <path id="Path_1024" data-name="Path 1024"
                d="M61.833,11.811l2.563,9.4L75.506,24.63a74.377,74.377,0,0,1,2.563-12.818c1.709-5.127-4.273,0-7.691-3.418C67.644,5.659,63.542,9.533,61.833,11.811Z"
                transform="translate(134.568 13.38)" fill="none" stroke="#000" stroke-width="1" />
            <path id="Path_1025" data-name="Path 1025"
                d="M137.872,59.917c0-1.709-30.764-2.564-31.618-2.564L83.181,49.662,94.291,34.28l28.2-19.655,26.491,30.764,26.491,29.054,27.345,54.691-.855,29.054L195.981,178.7l-21.364,44.436-17.945-2.563-33.327-1.709-29.909,2.563L66.945,231.68,51.563,199.207,39.6,156.48l7.691-51.273L77.2,52.226,103.69,62.48v48.709l-35.036,5.982v21.363h38.454V188.1h28.2V140.244l35.891-3.418-1.709-22.218-34.182-5.982C136.163,92.959,137.872,61.284,137.872,59.917Z"
                transform="translate(85.02 29.365)" fill="none" stroke="#000" stroke-width="1" />
            <path id="Path_1026" data-name="Path 1026"
                d="M78.827,38.974c-3.782,4.255-7.485,4.531-8.864,4.137l13,15.365-1.773-5.91V45.474c.591-2.167,2.955-6.5,7.682-6.5,5.047,0,6.646,3.018,8.478,6.475.313.591.632,1.194.977,1.8a123.729,123.729,0,0,0,8.2,11.559c.844,1.107,1.669,2.189,2.439,3.214a9.586,9.586,0,0,0,2.388,4.32c.949,2.076,1.9,4.473,2.806,6.779,1.1,2.781,2.144,5.429,3.079,7.221,7.091,7.091,10.44,20.683,11.228,26.593a118.237,118.237,0,0,1,6.876,14.2c.107.726.234,1.472.363,2.228a31.772,31.772,0,0,1,.685,7.744,18.293,18.293,0,0,1-.833,3.609l2.955,11.819c.466-1.026-.091-3.268-.756-5.947-.74-2.977-1.614-6.494-1.365-9.481a20.052,20.052,0,0,0-.833-9.392q-.1-.286-.215-.579c-.354-2.393-.494-4.578.215-6.265-1.892-.9-2.852-3.888-3.769-6.74-.3-.926-.591-1.837-.91-2.66-2.97-7.652-12.181-29.049-13.64-31.618a31.7,31.7,0,0,0-4.745-6.246c-.4-.435-.784-.848-1.14-1.258a24.681,24.681,0,0,0-2.388-4.32,53.471,53.471,0,0,0-6.133-10.267c-3.752-5.369-7.8-11.159-9.232-18.69,0-1.182.473-3.546,2.364-3.546,1.908,0,3.046-3.853,4.036-7.2.236-.8.464-1.57.691-2.253,1.182-3.546-3.546-10.046-7.091-12.41s-8.864-.591-10.637,0S74.69,12.381,74.1,16.517s2.955,9.455,7.091,13c3.551,3.044,2.747,3.91-.541,7.458C80.107,37.562,79.5,38.22,78.827,38.974ZM84.144,17.7c.985-1.182,3.546-3.428,5.91-2.955a3.713,3.713,0,0,1,3.245,2.81,7.3,7.3,0,0,0,.3.736c.591,1.182,1.773,5.319.591,6.5a9.472,9.472,0,0,0-1.142,1.627c-.848,1.385-1.784,2.913-3,2.51-1.418-.473-4.531-1.379-5.91-1.773l-2.364-5.909Z"
                transform="translate(152.685 11.164)" fill-rule="evenodd" />
            <path id="Path_1027" data-name="Path 1027"
                d="M79.617,46.453l1.33-4.656L65.631,37.42l10.29,12.161Zm8.864-4.137L84.862,39.1h0Zm4.137,19.5-3.7,3.128,8.336-4.52Zm-1.773-5.91H86v.711l.2.681Zm0-7.091-4.672-1.274L86,48.168v.648Zm16.16-.025,4.279-2.267h0Zm.977,1.8-4.2,2.4h0Zm8.2,11.559-3.85,2.937h0Zm7.633,14.313-4.5,1.779h0Zm3.079,7.221-4.294,2.24.344.659.525.526Zm11.228,26.593-4.8.64.126.939.47.823Zm7.24,16.423,4.774-.813h0Zm-.148,11.352-4.551-1.655-.506,1.392.359,1.437Zm2.955,11.819-4.7,1.175,3.365,13.461,5.742-12.632Zm-.756-5.947,4.7-1.168h0Zm-2.2-18.874,4.551-1.655h0Zm0-6.844,4.464,1.877,1.789-4.256-4.165-1.991Zm-3.769-6.74,4.61-1.483h0Zm-.91-2.66,4.515-1.752h0Zm-13.64-31.618-4.211,2.393Zm-4.745-6.246-3.557,3.286h0ZM112.488,55.1l3.97-2.774Zm-9.232-18.69H98.413v.457l.086.449Zm6.4-10.748-4.645-1.372h0Zm.691-2.253,4.594,1.532h0ZM103.256,11l2.686-4.029h0ZM92.618,11,94.15,15.59h0ZM83.754,19.86l4.794.685Zm7.091,13-3.152,3.677h0ZM90.3,40.319l-3.552-3.292h0Zm9.4-22.232-.95,4.749h0ZM93.8,21.042l-3.72-3.1-.166.2-.143.215Zm9.154-.145L98.409,22.57h0Zm.3.736,4.332-2.166h0Zm.591,6.5-3.424-3.424h0ZM102.7,29.76l4.13,2.529h0Zm-8.9.736-4.5,1.8.882,2.205,2.284.652Zm-2.364-5.909L87.406,21.9l-1.413,2.12.946,2.365ZM78.287,51.109c3.552,1.015,9.085-.255,13.814-5.576L84.862,39.1c-2.835,3.189-4.708,2.471-3.914,2.7Zm18.028,7.58-13-15.365-7.394,6.256,13,15.365ZM86.207,57.3l1.773,5.909,9.277-2.783-1.773-5.909ZM86,48.817v7.091h9.686V48.817ZM98.528,37.474a12.04,12.04,0,0,0-8.943,3.988,15.134,15.134,0,0,0-3.411,6.082l9.344,2.548a5.51,5.51,0,0,1,1.169-2.044,2.376,2.376,0,0,1,1.841-.888Zm12.757,9.051a21.435,21.435,0,0,0-3.992-5.792,12.259,12.259,0,0,0-8.766-3.259v9.686a2.671,2.671,0,0,1,2.124.623,13.049,13.049,0,0,1,2.075,3.277Zm.9,1.662c-.3-.525-.585-1.061-.9-1.662l-8.559,4.534c.307.58.662,1.252,1.052,1.934Zm7.844,11.025a120.368,120.368,0,0,1-7.844-11.025l-8.409,4.806a127.305,127.305,0,0,0,8.553,12.094Zm2.463,3.246c-.784-1.044-1.621-2.142-2.463-3.246l-7.7,5.875c.847,1.11,1.659,2.176,2.415,3.183Zm2.171,4.051a4.869,4.869,0,0,1-1.323-2.218L113.9,66.437a14.374,14.374,0,0,0,3.454,6.422Zm3.654,8.175c-.9-2.276-1.894-4.8-2.907-7.014L116.6,71.7c.886,1.937,1.784,4.208,2.706,6.543Zm2.868,6.759c-.789-1.513-1.73-3.878-2.868-6.759l-9.009,3.557c1.059,2.681,2.209,5.611,3.289,7.682Zm11.735,28.193a70.553,70.553,0,0,0-3.5-13.865c-1.921-5.3-4.83-11.236-9.106-15.513l-6.849,6.849c2.815,2.815,5.127,7.216,6.85,11.967a60.951,60.951,0,0,1,3,11.842Zm6.6,13.119a122.839,122.839,0,0,0-7.2-14.881l-8.41,4.805a113.569,113.569,0,0,1,6.553,13.509Zm.609,3.131c-.131-.766-.248-1.458-.346-2.122l-9.582,1.416c.117.788.253,1.586.38,2.333Zm.737,8.959a36.17,36.17,0,0,0-.737-8.959l-9.548,1.627a27.585,27.585,0,0,1,.633,6.528Zm-1.108,4.861a23.071,23.071,0,0,0,1.081-4.609l-9.6-1.309a13.641,13.641,0,0,1-.586,2.608Zm3.1,8.989-2.955-11.819-9.4,2.349,2.955,11.819Zm-10.154-3.6c.349,1.406.6,2.414.721,3.192.028.176.046.313.055.415s.01.15.01.15,0-.023,0-.06.009-.1.022-.173a3.074,3.074,0,0,1,.237-.749l8.817,4.008a7.25,7.25,0,0,0,.606-2.953,13.2,13.2,0,0,0-.187-2.171c-.2-1.269-.568-2.721-.884-3.994Zm-1.491-11.051c-.328,3.94.806,8.291,1.491,11.051l9.4-2.336c-.794-3.195-1.408-5.878-1.239-7.911Zm-.559-7.335a15.243,15.243,0,0,1,.586,7.083l9.6,1.309a24.882,24.882,0,0,0-1.081-11.7Zm-.192-.517q.1.263.192.517l9.1-3.31q-.116-.319-.238-.64Zm.279-9.859c-1.291,3.072-.887,6.516-.541,8.85l9.582-1.416c-.363-2.453-.238-3.378-.111-3.68Zm-3.915-3.381a36.637,36.637,0,0,0,1.774,4.736,10.081,10.081,0,0,0,4.517,4.891l4.176-8.739a1.445,1.445,0,0,1,.4.264,3.593,3.593,0,0,1-.381-.652,28.225,28.225,0,0,1-1.264-3.465Zm-.814-2.39c.258.664.507,1.433.814,2.39l9.221-2.965c-.287-.894-.625-1.949-1.006-2.93ZM122.683,79.58c.561.987,3.09,6.636,6.017,13.427,2.854,6.622,5.869,13.814,7.319,17.551l9.029-3.5c-1.52-3.916-4.6-11.248-7.454-17.88C134.809,82.711,132,76.377,131.1,74.8Zm-4.092-5.352a26.986,26.986,0,0,1,4.092,5.352L131.1,74.8a36.387,36.387,0,0,0-5.4-7.139Zm-1.239-1.369c.414.476.847.946,1.239,1.369l7.115-6.572c-.412-.446-.742-.8-1.04-1.148Zm-2.606-4.59A20.446,20.446,0,0,1,116.6,71.7l8.808-4.028a29.207,29.207,0,0,0-2.918-5.212Zm-6.228-10.4c2.507,3.588,4.458,6.422,5.606,9.292l8.993-3.6c-1.64-4.1-4.3-7.872-6.659-11.242ZM98.5,37.313c1.655,8.691,6.331,15.278,10.019,20.558l7.94-5.548c-3.815-5.46-7.231-10.451-8.444-16.822Zm7.121-9.295a6.892,6.892,0,0,0-6.257,4.077,10.277,10.277,0,0,0-.95,4.312H108.1a1.1,1.1,0,0,1,.018-.146c.017-.09.026-.075-.022.026a2.3,2.3,0,0,1-.678.793,2.992,2.992,0,0,1-1.8.625Zm-.608-3.732a32.914,32.914,0,0,1-1.415,4.177c-.23.492-.323.548-.2.418a3.11,3.11,0,0,1,2.224-.863V37.7a6.614,6.614,0,0,0,4.817-2.172,11.254,11.254,0,0,0,1.932-2.963A41.007,41.007,0,0,0,114.3,27.03Zm.742-2.412c-.259.777-.511,1.633-.742,2.412L114.3,27.03c.242-.82.445-1.505.641-2.093Zm-5.184-6.849a15.556,15.556,0,0,1,3.9,4.3,9.843,9.843,0,0,1,1.118,2.329c.191.657.029.634.167.221l9.188,3.063a10.068,10.068,0,0,0-.054-5.984,19.354,19.354,0,0,0-2.206-4.762,24.986,24.986,0,0,0-6.739-7.225Zm-6.419.565a17.947,17.947,0,0,1,3.657-.889,4.355,4.355,0,0,1,2.762.324l5.373-8.059a13.739,13.739,0,0,0-9.2-1.892A27.39,27.39,0,0,0,91.087,6.4Zm-5.6,4.955a2.882,2.882,0,0,1,.491-.862A11.645,11.645,0,0,1,90.871,17.8a19.021,19.021,0,0,1,2.241-1.625c.767-.474,1.129-.61,1.038-.58L91.087,6.4a23.117,23.117,0,0,0-6.472,4,21.22,21.22,0,0,0-3.376,3.541,11.744,11.744,0,0,0-2.278,5.232ZM94,29.184a20.479,20.479,0,0,1-4.282-5.034,6.4,6.4,0,0,1-1.167-3.606l-9.588-1.37c-.516,3.612.8,7.117,2.379,9.839a30.144,30.144,0,0,0,6.355,7.524Zm-.141,14.427c.765-.826,1.61-1.73,2.26-2.576a8.652,8.652,0,0,0,1.8-3.863,6.986,6.986,0,0,0-1.157-5.029A14.817,14.817,0,0,0,94,29.184l-6.3,7.354c.374.321.63.561.8.739s.211.244.183.2a2.167,2.167,0,0,1-.263-.63,2.993,2.993,0,0,1-.058-1.22,2.265,2.265,0,0,1,.207-.672c.028-.053.009,0-.131.177s-.335.415-.63.744-.634.7-1.053,1.148ZM92.1,45.533c.632-.711,1.211-1.335,1.755-1.923l-7.1-6.584c-.541.584-1.183,1.276-1.891,2.072Zm8.557-32.2A9.74,9.74,0,0,0,93.7,14.817a15.385,15.385,0,0,0-3.624,3.125l7.441,6.2a5.115,5.115,0,0,1,.5-.508,5.463,5.463,0,0,1,.748-.564,2,2,0,0,1,.447-.22,1.16,1.16,0,0,1-.458-.015Zm6.84,5.885A9.347,9.347,0,0,0,105.653,16a8.934,8.934,0,0,0-4.994-2.661l-1.9,9.5c.231.046.257.08.165.032a1.385,1.385,0,0,1-.194-.126,1.807,1.807,0,0,1-.23-.212,1.512,1.512,0,0,1-.23-.321c0-.007.006.011.03.072s.056.145.109.29Zm.088.244c.024.048.028.063.009.016-.009-.022-.021-.052-.037-.1l-.06-.163L98.409,22.57a11.817,11.817,0,0,0,.514,1.228Zm-.316,12.091a6.908,6.908,0,0,0,1.892-4.383,12.833,12.833,0,0,0-.17-3.088,18.011,18.011,0,0,0-1.406-4.62L98.923,23.8c-.023-.046,0-.014.046.12s.1.285.163.482a10.333,10.333,0,0,1,.306,1.279c.035.208.055.382.064.52a1.794,1.794,0,0,1,.005.2,1.08,1.08,0,0,1,.017-.112,2.176,2.176,0,0,1,.086-.314,3.378,3.378,0,0,1,.81-1.26Zm-.436.732c.21-.343.342-.557.457-.728.052-.077.08-.114.087-.122a1.482,1.482,0,0,1-.109.118l-6.849-6.849a13.692,13.692,0,0,0-1.847,2.523Zm-8.657,4.575a6.361,6.361,0,0,0,6.635-1.8,15.74,15.74,0,0,0,2.022-2.775l-8.26-5.058c-.224.365-.38.619-.528.836s-.206.273-.173.24a2.628,2.628,0,0,1,.9-.564,3.577,3.577,0,0,1,1.177-.248,3.622,3.622,0,0,1,1.287.18Zm-5.708-1.711c1.4.4,4.408,1.277,5.708,1.711l3.063-9.189c-1.536-.512-4.753-1.447-6.111-1.835Zm-5.53-8.767L89.3,32.3,98.3,28.7l-2.364-5.91Zm2.831-8.031L87.406,21.9l8.059,5.373,2.364-3.546Z"
                transform="translate(143.03 7.822)" />
            <path id="Path_1028" data-name="Path 1028"
                d="M79.676,77.269c-12.531.448-25.7,6.908-30.725,10.082v7.282L61.6,85.671l18.074-2.8h43.979c22.652,0,31.93,7.842,33.737,11.763,6.266-.9,2.611-8.215,0-11.763-23.134-3.585-42.172-5.228-48.8-5.6Z"
                transform="translate(105.86 168.967)" stroke="#000" stroke-width="3" />
            <path id="Path_1029" data-name="Path 1029"
                d="M54.047,110.98c3.73-2.839,1.554-13.408,0-18.338l8.741,1.775V114.53c0,5.324-4.662,7.1-7.576,9.465s-2.331,10.648-1.166,13.606,8.741,8.282,18.065,10.649c7.459,1.892,24.281,1.576,31.468,1.772,10.683,0,33.449-1.417,39.043-2.366a23.961,23.961,0,0,0,10.489-4.139c3.5-1.577,10.956-4.969,12.82-5.916,2.331-1.183,3.5-6.507,3.5-10.648s-4.079-5.324-8.158-5.324-6.41-.591-11.072,0-2.913-2.958-7.575-4.141-2.914-8.281,0-10.648,6.993,1.775,9.906,2.958,4.662,4.141,6.41,4.732,4.662-1.775,4.662-5.324c0-2.84.777-11.634,0-15.38-.583-3.352,0-10.056-2.331-13.014-1.954-2.479,4.856,3.944,6.41,7.69v12.423c0,1.42,2.719,6.113,4.079,8.282,2.8.473,5.05,10.056,5.827,14.789,8.158,1.775,7.77,3.746,8.158,7.1-2.331,6.507-7.576,5.324-8.158,6.507a25.571,25.571,0,0,1-8.158,8.282c-4.662,2.957-26.806,7.69-34.964,7.69H91.343c-9.906,0-25.057-2.957-36.13-7.1s-12.237-13.606-12.237-19.521S49.386,114.53,54.047,110.98Z"
                transform="translate(92.543 175.626)" stroke="#000" stroke-width="3" />
            <path id="Path_1030" data-name="Path 1030"
                d="M106.331,122.182c-.4.588,2.311,16.673-1.186,14.244-5.928-4.119-40.9-12.479-46.239-14.244-4.283-1.417,6.521-7.06,9.485-8.237,2.371-.941,10.275-.392,15.413,0l23.507-2.3c2.371-1.569,14.527-11.884,11.109-17.091-2.906-4.426-24.841,2.873-28.1,4.684C83.384,103.1,69.1,83.5,77.4,81.735s28.131-5.9,29.909-.855c2.979,8.457,5.251-1.443,9.4-.855,3.32.471,9.578,18.623,14.518,19.211v3.53l-5.215,5.354c1.586,3.489,4.911,8.238,2.66,9.355-2.846,1.412-30.445-.588-30.643,0,.79,1.177,2.727,3.295,4.15,2.354a2.329,2.329,0,0,1,2.964,0Z"
                transform="translate(125.836 171.62)" stroke="#000" stroke-width="3" />
            <path id="Path_1031" data-name="Path 1031"
                d="M51.468,118.551C50,114.306,61.805,109.8,66.711,110.387L71,109.208c1.022-.59,27.337-4.625,28.318-6.04,1.227-1.769,8.546-14.594-6.836-13.673-2.717.163-15.919-5.524-23.073-1.709-12.818,6.836-17.2,27.935-19.655,27.345s-2.694-17.621-.855-18.8,7.319-9.34,8.546-11.109c.981-1.415,14.229-6.571,17.091-5.982,4.7-.393,15.843,8.862,19.768,9.333,4.906.59,20.664,7.833,17.832,9.467-3.066,1.769-10.978,4.682-12.818,7.63-2.02,3.237-18.506,1.768-19.119,2.358a21.254,21.254,0,0,1-7.359,2.358c-1.84,0-3.68,4.716-4.906,7.074s0,2.948-1.227,4.127S53.307,123.856,51.468,118.551Z"
                transform="translate(103.061 173.258)" stroke="#000" stroke-width="3" />
            <path id="Path_1032" data-name="Path 1032"
                d="M53.813,92.35c-.686-.474,3.144-.989,5.144-1.186,1.143-.2,3.6-.356,4.287.593s-1.429,1.186-2.572,1.186C58.672,92.943,54.5,92.825,53.813,92.35Z"
                transform="translate(116.514 199.597)" stroke="#000" stroke-width="3" />
            <path id="Path_1033" data-name="Path 1033"
                d="M195.253,104.529c-.981,4.346-10.173,27.084-14.882,27.559a18.612,18.612,0,0,0-6.088,2.021c-3.771,3.041-7.122,4.788-9.039,4.927l10.77-.139a16.911,16.911,0,0,0,9.944-4.9c1.2-1.8,2.651-3.929,4.444-6.438,2.017-4.11,3.045-8.339,3.994-10.858l3.423-10.467.559-3.206v1.5l-.559,1.708-2.568,14.741c-1.85,2.447-3.453,4.633-4.849,6.583A24.014,24.014,0,0,1,185.96,134c-6.175,9.308-5.568,10.141-9.944,11.416-22.365,6.518-40.609,4.743-62.974-.591-3.436-.82-6.474-4.149-14.714-4.149H63.016c-3.3,0-11.575,3.952-15.3,5.333-2.158,1.579-7.063,4.978-9.417,5.924-2.942,1.185-6.474,5.928-10.005,9.482s-10.594,5.333-11.771,4.739c-.942-.475-4.316-9.679,0-14.222,2.747-1.976,1.771,0-6.7,0-1.092,0-1.95.006-2.614.019-5.724.09,2.879.5,0,0l-.1-.019c-2.825-.475,39.253-3.609,24.577-3.609a46.926,46.926,0,0,1,4.878-7.994c-3.543-1.472-6.9-5.1-7.962-5.579h-.3c.053-.071.156-.068.3,0,8.015.023,9.444.943,10.462,3.154,2.558-1.737,4.466-.565,6.554.5,3.179-1.879,5.242-3.658,8.989-3.658,4.238,0,6.021-2.735,9.552-.956,4.666-2.35,16.255-1.556,32.118.762,6.312.523,11.994,1.308,16.209,1.843a30.84,30.84,0,0,1,11.364.92,98.377,98.377,0,0,1,12.793,2.079l17.951-.229c3.547-.074,7.152-.136,10.657-.136,3.212-1.695,6.233-3.551,9.039-4.927,7.036-5.676,15.534-15.858,18.906-28.514Z"
                transform="translate(8.338 226.377)" stroke="#000" stroke-width="1" />
            <path id="Path_1034" data-name="Path 1034"
                d="M95.446,142.649c-14.287-2.383-24.407-12.911-27.383-19.668l-2.977-4.171c.476-19.549,3.373-17.679,4.762-14.3-2.381,6.554,4.167,18.474,5.953,21.453s7.143,7.748,16.073,12.517,26.788,2.383,33.336,2.383,20.24-2.383,23.216-2.383,7.739-2.383,14.287-2.383H198.43c19.645,2.98,23.216,11.322,25,12.514s2.383-1.785,2.977-5.96c.478-3.335,5.359-1.789,7.739-.594a11.292,11.292,0,0,0,1.191-4.174c0-1.785-7.141-5.96-9.524-6.554s-12.5-6.557-17.263-8.346-43.457-2.383-47.028-1.785c-2.858.475-9.922,1.588-13.1,2.98-15.478,3.574-40.48-1.195-48.219-2.98s-15.477-10.134-20.24-14.9c-3.81-3.816,4.365-3.577,8.929-2.983,5.953,13.708,16.668,11.923,23.812,13.708a91.54,91.54,0,0,0,29.169,1.789c7.62-.952,18.851-1.588,22.621-2.98,9.524-3.338,36.113-.2,49.408,1.191a63.822,63.822,0,0,1,13.1,4.769c21.431,13.111,26.193,21.457,28.572,25.628s12.2,10.131,9.224,10.728c-2.379.478-21.725-11.125-22.319-12.517-5.953,0-5.953,0-9.524,2.98h0c-3.574,2.98,16.049,15.3,19.026,18.28,2.379,2.386-14.464-3.777-19.026-2.783-18.1-18.118-35.323-22.648-41.67-22.648-9.049-3.338-28.377-1.391-36.909,0C130.568,146.824,105.963,144.438,95.446,142.649Z"
                transform="translate(141.816 224.901)" stroke="#000" stroke-width="1" />
            <path id="Path_1035" data-name="Path 1035"
                d="M51.775,38.984l24.782-18.8,6.836,24.782L63.739,57.784Z"
                transform="translate(112.154 41.752)" stroke="#000" stroke-width="1" />
            <path id="Path_1036" data-name="Path 1036"
                d="M123.2,100.588C119.788,70.366,91.645,31.6,78,16L90.792,38.173l14.5,26.28,13.645,27.1c1.422,12.045,4.264,34.985,4.264,30.386Z"
                transform="translate(170.595 32.428)" stroke="#000" stroke-width="1" />
            <path id="Path_1037" data-name="Path 1037"
                d="M83.134,9,84.8,23.3l-1.661,8.412,5.813,7.571,8.3,10.936,8.3,18.507L118.011,90.6c3.321,8.693,10.131,26.583,10.795,28.6s-3.044,8.132-4.982,9.254C112.53,91.441,87.01,57.511,75.661,46.856l-.83-10.936,4.152-10.936L74,14.047Z"
                transform="translate(161.681 16.828)" stroke="#000" stroke-width="1" />
            <path id="Path_1038" data-name="Path 1038"
                d="M53.641,120.091C31.113,123.478,11.827,141.825,5,150.574l14.507-1.692,7.68,6.773,19.627-16.091,37.548-5.078,51.2,6.773,45.228,1.695C193.079,136.179,196.72,122.629,197,116.7l1.707-12.7h-7.68c-20.48,25.405-34.987,22.018-46.081,23.71-8.875,1.356-40.676-4.517-55.468-7.619C74.121,116.866,62.175,118.806,53.641,120.091Z"
                transform="translate(7.914 228.537)" stroke="#000" stroke-width="1" />
            <path id="Path_1039" data-name="Path 1039"
                d="M72.871,126.788,66,105.547,79.741,103l10.306,7.645,22.329,7.648,29.2,1.7,22.329-4.249h24.046l25.767,4.249,22.328,11.894,4.294,9.347-12.023,3.4-4.294,6.8-16.317-10.2-28.343-5.1-32.634,5.1H107.223l-17.176-1.7Z"
                transform="translate(143.853 226.308)" stroke="#000" stroke-width="1" />
            <path id="Path_1040" data-name="Path 1040"
                d="M68.3,96.522c-5.947,2.818-12.939,1.174-15.692,0L46,101.805l6.607,14.088,39.643,6.163,39.643-3.522,12.388-8.8,8.259-7.924V96.522h-25.6L112.072,93H83.165C79.862,93,75.732,93,68.3,96.522Z"
                transform="translate(99.283 204.023)" stroke="#000" stroke-width="1" />
        </g>
    </g>
</svg>  