<svg xmlns="http://www.w3.org/2000/svg" width="570" height="570" viewBox="0 0 570 570">
    <g id="Group_17" data-name="Group 17" transform="translate(-1252 -1630)">
        <g id="Group_15" data-name="Group 15" transform="translate(1252 1630)">
            <g id="Group_20" data-name="Group 20" transform="translate(0 0)">
                <rect id="Rectangle_1" data-name="Rectangle 1" width="570" height="570" fill="none" />
                <g id="Group_21" data-name="Group 21" transform="translate(45.6 67.169)">
                    <path id="Shadow"
                        d="M133.538,101.789c6.32,0,49.4,18.475,43.117,33.035,3.408-6.653,5.775-17.132,5.775-33.035,0-21.3-11.408-29.486-16.3-57.333-3.911-22.278,11.408-28.94,19.557-29.486,0-21.3,35.855-8.19,63.56-13.1s34.225,34.4,34.225,55.695-1.63,65.523,0,58.971,32.595-14.743,58.671-14.743,68.449,6.552,101.043,31.124,22.819,54.057,22.819,81.9-45.635,91.732-55.414,91.732-26.074,62.248-16.3,80.266c7.82,14.414,3.258,34.4,0,42.59-24.447,22.934-78.229,11.465-145.049,18.018S73.238,427.767,79.757,406.472,58.57,314.74,58.57,306.549s-37.484-55.695-52.152-76.99,0-68.8,26.076-106.475S127.02,101.789,133.538,101.789Z"
                        transform="translate(-0.6 -1.445)" fill="#f8f5f1" stroke="#f8f5f1"
                        stroke-width="1" />
                    <path id="Path_951" data-name="Path 951"
                        d="M217.163,178.933c2.095-11.916,4.777-23.768,6.411-35.853,6.809-49.772,55.77-116.733,130.688-108.17,36.453,4.218,78.185,43.888,70.623,88.05-6.642,38.869-23.9,70.039-50.049,97.688-3.877,4.07-7.249,8.626-11.145,12.654-3.1,3.227-7.584,6.58-11.524,4.387-5.468-3.058-9.637-7.866-13.513,1.434a5.438,5.438,0,0,1-5.028.759c-10.475-9.237-24.155-2.974-36.6-9.469-1.529-6.622,2.095-14.763,2.807-24.717-9.93,3.206-16.32,10.25-17.745,16.872-2.095,9.7-6.013,9.258-13.7,8.963q-42.026-1.624-84.074-1.413c-11.124,0-22.228,2.447-33.353,3.375-3.331.274-8.024,1.139-7.479-5.1.985-11.452-9.553-12.654-16.383-21.09-1.508,11.831-4.19,20.6,7.291,26.594-13.89.717-26.146,10.545-39.68,2.488-3.562-2.109-6.285-1.455-6.285,2.7C88.3,244.9,79.9,244.817,80.944,252.2c12.571,8.162,27.089,4.809,40.665,3.227,38.129-4.408,76.259-8.309,114.64-5.588,8.191.591,15.985-1.181,23.988-1.35,25.14-.527,48.877,9.617,74.018,8.436,6.159-.317,12.444,1.687,17.725-2.932,2.724-2.4,5.048-6.728,9.153-3.564,3.792,2.91,3.921,7.887,2.684,12.169-2.095,6.96-5.659,12.654-5.092,21.09a223.473,223.473,0,0,0,3.354,30.959c2.743,13.332-4.779,23.2-17.914,25.183-42.383,6.579-85.058,11.767-127.8,9.3-29.561-1.73-59.457-1.119-88.746-8.14-11.25-2.7-23.422-.549-34.8-4.83-15.65-5.906-17.682-7.654-16.53-24.568.9-13.394-3.184-26.089-3.583-39.249-.251-7.972-1.152-15.838-1.131-23.874a41.817,41.817,0,0,0-10.056-27.248,288.816,288.816,0,0,1-40.036-58.545c-14.435-28.408-20.28-59.052-4.819-89.948,15.755-31.382,50.03-46.4,82.817-40.2,21.411,4.07,39.806,14.573,55.372,29.4,25.14,23.684,41.9,51.986,46.635,86.911,1.487,11.072,7.856,20.289,11.879,30.39ZM180.773,189.6c-11.1,0-16.153-8.879-25.015-11.051s-17.452,1.455-25.14,0c-8.129-1.476-5.741-16.007-15.126-19.445a4.7,4.7,0,0,1-1.466-1.139c-3.08-2.826-6.285-4.007-9.721-.591-3.143,3.079-6.285,5.821-3.645,11.2,1.822,3.691,6.076,6.475,4.839,12.064-1.969.886-4.19,1.9-6.453,2.868-4.316,1.856-11.439,1.371-11.146,7.8s6.977,7.761,12.424,9.364,9.155.19,13.869-2.615c8.108-4.83,16.76-6.9,26.125-1.139,5.908,3.67,12.57,4.851,19.149-.232,2.262-1.751,8.108-3.4,8.212-1.012.566,13.73,8.652,7.3,14.665,6.327,3.017-.464,4.484,1.434,5.426,3.775,1.4,3.438,2.682,6.938,3.771,10.545,1.32,4.218,2.828,10.144,8.108,6.833,3.708-2.341,9.658-5.631,7.647-12.97-5.091-18.6-8.066-37.962-15.042-55.825-8-20.52-21.349-38.257-37.459-53.653-9.427-9.068-18.436-18.981-31.425-22.8S95.5,69.139,83.563,73.884C57.878,84.07,35.125,111.572,45.517,143.691c4.19,13.033,7.71,26.32,12.235,39.248a26.755,26.755,0,0,0,15.964,17.23c-7.626-20.351-12.969-38.615-14.456-57.934-1.634-21.491,5.783-41.167,21.328-44.816s32.7-3.881,46.761,5.652c27.235,18.475,41.9,46.587,53.3,76.493C181.673,182.265,180.773,185.724,180.773,189.6Zm52.816,31.129c8.38-23.663,15.587-46.735,24.952-68.859,10.014-23.7,23.045-45.069,48.333-56.753,40.853-18.833,67.5,14.89,73.22,46.588a6.372,6.372,0,0,1-.166,3.691c-11.082,21.448-11.9,47.051-26.88,66.918-2.095,2.7-5.049,5.8-.357,10.039,13.136-13.73,22.208-30.58,29.207-47.326,7.205-17.294,6.892-36.971,3.457-56.289-2.1-11.557-3.667-22.081-14.771-28.3-10.162-5.695-17.411-16.007-30.4-17.336A78.026,78.026,0,0,0,271.7,99.993c-27.236,30.707-41.042,67.868-43.263,109.182C228.246,213.056,227.471,216.768,233.588,220.733ZM92.383,315.171c4.42,6.73,10.894,5.99,17.074,5.928,16.76-.21,33.521-.379,50.281-.781,22.165-.526,44.52-3.457,66.434-1.392,33.269,3.1,66.852,1.793,99.85,7.993a50.552,50.552,0,0,0,9.323,0c3.75,0,8.38-.254,8.631-4.746.251-4.028-4.19-6.789-7.542-7.235-14.142-1.833-27.676-7.927-41.461-8.877-28.367-1.918-56.755-4.808-85.289-3.671-30.126,1.2-60.274,2.11-90.38,3.733-9.449.611-19.84.464-26.921,9.028Zm175-143.789c-1.8,5.715-2.6,10.545,1.257,13.413a27.514,27.514,0,0,0,22.836,5.484c9.218-2.109,17.011-1.645,24.763,3.733,6.285,4.45,11.543,3.965,14.016-4.64.985-3.459,5.7-5.188,4.63-9.828-4.358-3.986-11.062,1.139-15.44-3.817.985-5.547,7.584-8.288,7.312-14.636-.189-4.893,1.613-10.25-2.493-14.172-4.861-4.661-9.176,1.6-13.932,1.265-3.373-.211-2.724,2.805-3.9,4.6-4.861,7.381-4.484,16.134-6.118,25.455-11.146-7.972-22.794-2.025-32.934-6.876ZM210.145,290.96c10.475,4.768,14.121-7.127,22.27-7.591,4.337-.232,8.778-2.932,9.071-7.951.335-5.673-4.735-6.812-8.967-7.55a22.976,22.976,0,0,1-11.606-5.5,10.026,10.026,0,0,0-12.256-.569,128.513,128.513,0,0,1-21.747,10.671c-4.358,1.539-4.86,7.655-.775,8.309,9.344,1.476,14.456,12.125,24.009,10.166ZM294.616,284c3.226,7.952,6.285,16.428,16.446,8.858,3.708-2.761,6.6-1.267,10.182,0,5.2,1.771,10.664,2.805,16.027,4.09s7.5-1.959,9.826-6.115c3.413-6.075.4-10.945-2.389-15.437-2.283-3.712-6.285-2.552-9.867-.675-6.579,3.374-14.561,5.04-19.735,9.849C307.375,291.638,301.865,289.381,294.616,284ZM93.828,295.75c6.662,0,27.571-10.187,27.131-12.887-1.781-11.241-13.827-5.188-19.107-10.924a11.972,11.972,0,0,0-3.247-1.751c-3.645-1.856-7.668-2.446-9.658,1.6-2.326,4.787-6.16,9.912-2.514,15.69,2.2,3.479,3.687,8.078,7.4,8.247ZM53.855,56.885c-7.186,0-13.324,5.947-13.094,12.654.314,8.436,6.285,14.341,14.079,13.919a14.494,14.494,0,0,0,9.833-4.242,14.684,14.684,0,0,0,4.288-9.867C69.023,62.031,62.655,56.822,53.855,56.885Zm335.354,12.8a11.26,11.26,0,0,0-2.651-8.632A11.095,11.095,0,0,0,378.44,57.2c-6.495-.422-13.516,5.842-13.6,12.127s8.671,14.383,14.915,13.919C388.369,82.615,386.819,74.559,389.209,69.687ZM262,278.793c7.354,5.842,12.068,10.544,17.724,13.728,4.358,2.386,9.784,3.082,9.469-5.482-.21-5.948-1.047-10.988-6.956-13.9C274.295,269.24,270.419,276.093,262,278.793ZM30.538,113.449c5.447-.612,11.816-8.563,11.585-13.5-.272-5.863-7.668-12.928-12.382-11.072-6.034,2.4-6.872,8.267-6.285,13.961C23.917,107.775,25.258,112.6,30.538,113.449ZM396.583,94.067c-5.681.38-9.576,2.974-8.928,9.09.839,7.93,7.209,9.322,13.453,9.406,4.5,0,8.38-2.109,7.919-7.8-.607-7.529-5.574-10.334-12.363-10.692ZM93.975,50.537c-4.588.843-8.778,3.712-8.485,8.288a8.946,8.946,0,0,0,3.029,6.663,8.823,8.823,0,0,0,6.964,2.132c4.672-.3,8.611-1.814,10.014-6.707C106.441,57.666,98.5,50.664,93.975,50.537ZM339.387,67.409c6.034.148,9.89-3.1,10.265-8.436.357-4.956-4.064-7.613-8.38-8.436-6.432-1.1-8.59,4.028-9.553,8.9-1.173,5.716,3.478,6.9,7.668,7.888ZM149.473,287.61c6.055.652,7.27-4.219,7.9-8.142.733-4.6-1.634-8.436-7.039-8.436-4.609,0-8.652,2.341-9.553,6.981C139.479,284.4,144.885,285.92,149.473,287.61ZM85.511,123.846c4.651,1.16,7.919-3.058,12.256-3.037,2.765,0,6.285,1.666,7.647-2.4a3.578,3.578,0,0,0-1.11-3.121c-3.038-2.109-5.72-.126-8.38,1.118C91.88,118.109,87.459,119.164,85.511,123.846ZM72.229,156.451c3.058-1.076,5.971-2.657,5.3-6.327-.754-4.218-3.981-5.863-8.087-5.083a4.808,4.808,0,0,0-3.138,1.665,4.872,4.872,0,0,0-1.156,3.376C65.294,154.532,68.039,156.409,72.229,156.451ZM355.5,186.673c-4.65-1.73-7.459-.338-9.2,2.341s-8.715,2.72-5.531,7.4,6.285.274,8.9-2.3C351.791,192.051,355.267,191.207,355.5,186.673ZM142.287,72.281c-.943-2.8-1.257-6.538-5.28-6.327-3.038.105-3.792,2.952-3.561,5.568.251,3.185,1.341,6.538,5.07,6.454C141.218,77.87,142.182,75.023,142.287,72.281Zm1.382,59.663c-1.8-4.218-5.363-3.184-8.108-3.606-2.367-.4-5.845-2.278-6.788,3.606Z"
                        transform="translate(17.955 78.222)" />
                    <path id="Path_952" data-name="Path 952"
                        d="M85.451,89.325C86.624,85.107,87.672,82.26,88.3,79.2c1.194-5.947,4.965-13.16-1.3-17.357-5.217-3.5-11.984-.907-17.913,1.392-12.57,4.914-13.743,4.64-13.324-8.436.21-6.116-3.143-10.671-3.625-16.07s3.708-11.874,8.38-9.2c9.2,5.272,20.8,8.225,26.439,19.466,1.047-11.093-.67-21.09-9.469-29.125-3.436-3.142-5.552-7.213-2.745-11.684,2.535-4.07,6.537-1.561,10.119-1.371,6.285.337,12.4,0,18.6,0,14.142.337,15.817,3.058,8.82,14.868-3.184,5.378-8.61,11.2-3.98,16.872,5.049,6.179,11.062.717,16.613-2.109,10.475-5.209,12.319-3.839,12.235,8.436,0,1.877-.44,3.733-.44,5.61,0,18.812,0,18.812-17.033,12.991-11.041-3.733-12.214-2.91-12.863,9.174C106,88.144,105.061,88.966,85.451,89.325ZM96.6,51.363c1.864-.612,3.457-2.109,3-3.754-.272-.97-2.682-1.814-4.19-1.877a2.59,2.59,0,0,0-2.33.987,2.628,2.628,0,0,0-.393,2.514C93.245,51.279,94.711,51.743,96.6,51.363Z"
                        transform="translate(137.516 10.457)" />
                    <path id="Path_953" data-name="Path 953"
                        d="M86.24,83.776C68.788,83.607,55.967,71.46,56.051,55.3c0-13.687,13.408-24.7,29.456-24.316,17.7.422,27.236,10.545,26.67,28.64C111.862,71.46,98.6,83.881,86.24,83.776Z"
                        transform="translate(148.105 77.757)" />
                    <path id="Path_954" data-name="Path 954"
                        d="M69.392,75.436A18.245,18.245,0,0,1,61.661,59.05c0-3.037.251-6.453,4.19-7.234,4.19-.865,6.914,1.582,8.38,5.357C77.038,64.322,74.755,69.974,69.392,75.436Z"
                        transform="translate(163.002 133.169)" />
                </g>
            </g>
        </g>
    </g>
</svg>  