<svg xmlns="http://www.w3.org/2000/svg" width="570" height="570" viewBox="0 0 570 570">
    <g id="Group_32" data-name="Group 32" transform="translate(-105 -1030)">
        <rect id="Rectangle_2" data-name="Rectangle 2" width="570" height="570"
            transform="translate(105 1030)" fill="none" />
        <g id="Group_31" data-name="Group 31" transform="translate(176.25 1126.263)">
            <path id="Path_1041" data-name="Path 1041"
                d="M73.773,97.7c9.007-12.06,21.048-37.882,36.06-46.049-1.876-5.653,7-14.535,5.629-18.845C100.857-13.238,143.2,4.847,150.707,2.963c6-1.508,15.636,3.031,28.146,4.287H238.9c11.884,3.769,46.91,19.221,91.945,50.88C387.135,97.7,400.27,174.967,411.529,231.5s15.012,88.569,16.888,122.489-28.146,24.5-69.427,18.845-65.675-13.191-91.945-7.538-123.844,13.191-142.608,0,45.034-77.263,54.416-84.8,22.517-43.343,20.641-60.3S186.358,248.46,178.853,231.5s-24.393-11.307-28.146-11.307-39.405,16.96-52.54,20.729-9.382,20.729-20.641,35.8-24.394,5.653-31.9,5.653S34.369,271.074,23.11,267.3s-9.383-3.769-18.765-18.845S8.1,203.233,9.975,191.926,26.862,180.62,38.121,171.2s7.506-11.306,11.258-22.613,1.876-20.729,11.259-28.267S62.514,112.779,73.773,97.7Z"
                transform="translate(-1 -1)" fill="#f8f5f1" stroke="#f8f5f1" stroke-width="1" />
            <path id="Path_1042" data-name="Path 1042"
                d="M212.639,154.451c-12.713,6.75-21.01,16.756-31.6,23.937A69.368,69.368,0,0,1,149.68,190.6c-27.788,3.04-48.172,20.274-70.1,34.637-4.414,2.9-5.6,7.8-7.526,12.471-9.432,22.668-25.932,25.469-41.731,7.182-1.809-2.083-2.581-5.53-5.765-5.673-9.215-.431-17.344-2.011-18.888-13.117-1.809-12.926-2.147-25.349,7.237-36.312,10.71-12.423,23.109-23.219,32.758-36.36,11.747-15.894,28.223-29.395,18.96-52.662a5.494,5.494,0,0,1,.752-5.184A5.589,5.589,0,0,1,70.15,93.34c17.826,2.394,24.725-11.226,33.771-21.711,2.412-2.705,4.221-6.056,7.091-7.971,8.419-5.7,10.783-12.16,6.1-21.759-3.908-8.45,4.583-17.211-.386-26.834-2.412-4.787,5.524-9.12,11.144-10.556s11.675-.886,15.39,4.62c1.544,2.25,1.689,5.386,2.943,7.875,4.438,8.737,6.561,8.857,12.978.957,3.112-3.854,5.765-8.306,9.649-11.37,8.1-6.511,15.173-5.1,17.271,4.787s8.105,11.8,16.234,13.716c45.325,10.748,84.427,32.339,119.307,63.433,17.73,15.822,28.319,35.259,39.632,54.84,32.4,56.085,35.749,118.249,37.944,180.581.531,15.463-4.824,19.15-19.3,15.415a16.612,16.612,0,0,0-4.173-1.029c-12.5.144-18-17.953-32.661-12.184-13.195,5.219-26.944.862-40.4,1.867-12.785.934-25.4,1.006-38.282,3.375a466.138,466.138,0,0,1-94.076,6.8c-17.15-.335-21.107-7.516-14.786-23.458,3.787-9.575,11.048-16.588,18.14-23.6a222.731,222.731,0,0,0,27.981-32.1C223.59,226.789,227.956,192.894,212.639,154.451ZM246.023,68.4c3.184,8.354,9.938,11.466,15.583,15.583,25.3,18.5,45.35,41.89,57.6,70.16,11.434,26.331,24.942,52.422,26.534,82.391.483,9.073,1.254,18.36,2.1,27.528,1.158,12.591,6.947,24.87,2.75,37.94-.941,2.992,1.568,5.338,4.439,6.319,1.11.359,2.629-.407,3.98-.646-2.7-10.723,15.076-14.793,8.8-26.666-2.171-4.117-3.063-7.756,1.519-11.131s3.112-7.3.989-11.394c-6.585-12.878-4.969-27.6-8.443-41.315-5.717-22.716-13.822-44.427-20.817-66.593a16.247,16.247,0,0,0-8.346-9.407c-7.092-3.686-14.474-6.176-8.081-17.019,2.677-4.476-3.691-7.732-7.429-8.234-9.649-1.269-15.076-6.2-19.491-14.362A36.009,36.009,0,0,0,284.86,87.523C272.605,80.534,263.295,67.249,246.023,68.4ZM191.29,75.1c6.634-13.381,18.091-12.926,29.887-11.179,2.1.287,4.053,1.388,6.127,1.747a6.555,6.555,0,0,0,5.079-.892,6.456,6.456,0,0,0,2.832-4.278c1.375-4.667-1.906-5.649-5.668-6.63-8.973-2.394-19.1-.335-27.017-3.256-11.145-4.117-12.616,1.006-13.87,8.641A22.116,22.116,0,0,0,191.29,75.1Zm-50.053,52.326c-.555-20.969-5.138-27.815-18-31.406a11.153,11.153,0,0,0-11.554,2.968,6.859,6.859,0,0,0-2.051,7.636,3.932,3.932,0,0,0,1.925,2.389,3.985,3.985,0,0,0,3.068.292C128.6,105.668,134.194,116.248,141.237,127.427Zm-23.471-7.182c-6.658.934-7.961,5.051-7.791,10.7.241,7.348,4.414,10.006,11.024,9.742s7.96-5.147,7.84-10.413c-.145-7.109-5.162-9.312-11.072-10.006Zm31.358,25.11c.313-2.2-.314-4.117-2.654-4.5-3.3-.551-5.041,1.652-5.668,4.476a3.6,3.6,0,0,0,.617,2.837,3.649,3.649,0,0,0,2.519,1.472c3.425.886,4.752-1.173,5.09-4.26Zm99.7-10.221c.265,3.255,2.581,4.524,5.331,4.979,1.689.287,2.895-1.053,2.171-2.394a13.65,13.65,0,0,0-4.535-6.08c-2-1.029-2.7,1.724-3.063,3.519Z"
                transform="translate(11.975 4.736)" />
        </g>
    </g>
</svg>  