<svg xmlns="http://www.w3.org/2000/svg" width="570" height="570" viewBox="0 0 570 570">
    <g id="Group_37" data-name="Group 37" transform="translate(-705 -830)">
        <rect id="Rectangle_4" data-name="Rectangle 4" width="570" height="570"
            transform="translate(705 830)" fill="none" />
        <g id="Group_36" data-name="Group 36" transform="translate(883.125 915.366)">
            <path id="Path_1080" data-name="Path 1080"
                d="M156.844,39.817c10.571-24.142-30.831-35.766-52.853-38.56-6.606,1.118-21.471,2.682-28.078,0C67.654-2.1,54.441,28.082,51.137,46.523S62.7,73.348,62.7,81.73,56.092,96.819,37.924,96.819,11.5,118.614,3.239,135.379s8.258,21.795,18.168,21.795c7.928,0,30.832,3.353,41.293,5.03-3.3,7.265-12.883,23.806-24.775,31.854-14.865,10.059-16.517,26.824-21.472,43.59a82.024,82.024,0,0,0,4.954,58.678c9.91,20.118,33.034,26.824,24.776,26.824S21.407,351.65,11.5,366.738c-7.928,12.071,3.3,22.912,9.91,26.824,16.517-6.706,42.943,6.706,59.46,6.706s102.4-6.706,115.617-6.706S213,380.15,214.653,366.738s-18.169-35.207-24.775-43.589c-5.285-6.706-24.225-11.736-33.034-13.412a78.847,78.847,0,0,0,21.472-6.706c9.91-5.03,11.562-15.089,24.775-31.854s-6.607-45.266-6.607-55.325S168.406,185.674,156.844,184c-9.249-1.341-9.359-9.5-8.258-13.412,0-13.412,39.641-8.382,54.505-13.412s-6.607-23.471-6.607-38.56-14.865-16.765-28.078-21.795-24.775-6.706-29.73-15.089S143.63,69.995,156.844,39.817Z"
                transform="translate(-1 -1)" fill="#f8f5f1" stroke="#f8f5f1" stroke-width="1" />
            <path id="Path_1081" data-name="Path 1081"
                d="M52.831,302.42c-1.43-6.158-6.131-7.267-10.313-8.268-19.5-4.709-26.714-20.223-28.643-36.652-3.64-30.729,2.167-59.156,29.661-79.485,13.78-10.164,21.428-24.7,26.541-41.6-12.891-5.349-26.281-5.349-39.519-5.349-3.856,0-7.713.661-11.57.64-5.287,0-10.53-.831-13.195-6.116-2.947-5.9,1.17-9.249,4.788-13.127,11.006-11.933,22.793-22.29,39.844-24.89a33.4,33.4,0,0,0,10.7-4.5C77.7,73.9,78.072,70.848,64.487,57.87,49.473,43.7,48.129,34.175,56.341,19.3,64.14,5.342,94.365,2.53,107.516,7.921c16.033,6.542,22.641,24.229,16.271,41.724-1.6,4.39-4.052,8.119-8.927,9.163-12.371,2.6-8.016,7.352-3.033,14.214a39.924,39.924,0,0,0,12.663,11.53,40.635,40.635,0,0,0,16.413,5.24c19.023,2.131,29.032,14.917,38.566,28.47,4.94,7.032,2.665,10.506-6.218,13.7-6.5,2.323-12.8.319-19.131.852-9.425.788-20.756-.4-24.244,11.145-3.25,10.847,2.362,20.543,10.833,26.552,9.1,6.393,16.033,14.661,23.573,22.332,28.317,28.9,20.28,74.584-16.055,93.23a35.4,35.4,0,0,1-5.417,1.939c-3.748,1.172-7.67,2.494-7.258,7.288.346,3.857,3.921,4.56,7.041,5.37,12.892,3.346,22.814,11.614,32.673,19.69a75.681,75.681,0,0,1,21.168,29c3.315,7.586,1.517,12.338-5.85,15.066-4.767,1.747-10.031,3.942-14.863,3.537-35.316-2.855-70.588,1.343-105.947.384-16.748-.447-32.023-7.714-49.052-5.9-8.666.916-12.675-9.611-8.406-18.8,5.46-11.72,14.841-20.351,24.721-28.469C42.344,310.816,47.761,306.511,52.831,302.42Zm52.3-19.072h5.438c35.142-.362,52.649-25.848,52.8-55.192a41.712,41.712,0,0,0-5.408-20.933,42.578,42.578,0,0,0-15.219-15.57c-19.716-12.274-37.006-25.423-37.5-51.143,0-4.006-1.6-7.373-6.5-7.991-11.7-1.513-19.066,4.262-19.5,16.26-.476,16.11-8.883,28.107-21.666,35.949-26.433,16.153-33.691,36.717-20.756,64.1C46.548,269.411,61.692,286.629,105.133,283.348Zm0,68.191a300.581,300.581,0,0,1,46.149,2.515,30.783,30.783,0,0,0,16.661-2.536c5.092-2.131,6.5-7.2,2.383-10.761-9.923-8.524-17.571-19.179-31.069-24.762-11.5-4.688-24.483-2.941-34.666-9.781-8.493-5.647-17.2-4.262-26-2.131-16.661,4.006-27.928,13.212-33.908,30.068-4.9,13.787-4.81,16.685,10.335,17.282,16.618.7,33.366.213,50.071.213ZM37.3,114.021c7.107,5.349,13.823,2.131,19.976,3.6,28.166,6.5,57.134,1.556,85.625,3.985a26.935,26.935,0,0,0,9.425-1.577c4.117-1.172,4.983-5.668,2.167-7.053-11.483-5.818-19.5-21.31-36.508-12.658-6.261,3.218-10.833-1.556-15.166-5.37-8.32-7.395-16.683-7.629-26-1.193A206.325,206.325,0,0,1,37.3,114.021Zm49.4-98.45c-9.685.128-15.73,6.968-15.383,17.389s9.75,19.519,19.673,18.624c5.525-.49,11.938-.874,14.711-6.925,4.333-9.483-8.623-29.152-19.088-29.024Z"
                transform="translate(10.489 12.223)" />
            <path id="Path_1082" data-name="Path 1082"
                d="M77.947,59.25c0,5.327,5.417,35.161-9.75,44.75s-15.166,18.113-34.666,18.113"
                transform="translate(97.669 175.674)" fill="none" stroke="#000" stroke-width="1" />
            <path id="Path_1083" data-name="Path 1083"
                d="M52.831,302.42c-1.43-6.158-6.131-7.267-10.313-8.268-19.5-4.709-26.714-20.223-28.643-36.652-3.64-30.729,2.167-59.156,29.661-79.485,13.78-10.164,21.428-24.7,26.541-41.6-12.891-5.349-26.281-5.349-39.519-5.349-3.856,0-7.713.661-11.57.64-5.287,0-10.53-.831-13.195-6.116-2.947-5.9,1.17-9.249,4.788-13.127,11.006-11.933,22.793-22.29,39.844-24.89a33.4,33.4,0,0,0,10.7-4.5C77.7,73.9,78.072,70.848,64.487,57.87,49.473,43.7,48.129,34.175,56.341,19.3,64.14,5.342,94.365,2.53,107.516,7.921c16.033,6.542,22.641,24.229,16.271,41.724-1.6,4.39-4.052,8.119-8.927,9.163-12.371,2.6-8.016,7.352-3.033,14.214a39.924,39.924,0,0,0,12.663,11.53,40.635,40.635,0,0,0,16.413,5.24c19.023,2.131,29.032,14.917,38.566,28.47,4.94,7.032,2.665,10.506-6.218,13.7-6.5,2.323-12.8.319-19.131.852-9.425.788-20.756-.4-24.244,11.145-3.25,10.847,2.362,20.543,10.833,26.552,9.1,6.393,16.033,14.661,23.573,22.332,28.317,28.9,20.28,74.584-16.055,93.23a35.4,35.4,0,0,1-5.417,1.939c-3.748,1.172-7.67,2.494-7.258,7.288.346,3.857,3.921,4.56,7.041,5.37,12.892,3.346,22.814,11.614,32.673,19.69a75.681,75.681,0,0,1,21.168,29c3.315,7.586,1.517,12.338-5.85,15.066-4.767,1.747-10.031,3.942-14.863,3.537-35.316-2.855-70.588,1.343-105.947.384-16.748-.447-32.023-7.714-49.052-5.9-8.666.916-12.675-9.611-8.406-18.8,5.46-11.72,14.841-20.351,24.721-28.469C42.344,310.816,47.761,306.511,52.831,302.42Zm52.3-19.072h5.438c35.142-.362,52.649-25.848,52.8-55.192a41.712,41.712,0,0,0-5.408-20.933,42.578,42.578,0,0,0-15.219-15.57c-19.716-12.274-37.006-25.423-37.5-51.143,0-4.006-1.6-7.373-6.5-7.991-11.7-1.513-19.066,4.262-19.5,16.26-.476,16.11-8.883,28.107-21.666,35.949-26.433,16.153-33.691,36.717-20.756,64.1C46.548,269.411,61.692,286.629,105.133,283.348Zm0,68.191a300.581,300.581,0,0,1,46.149,2.515,30.783,30.783,0,0,0,16.661-2.536c5.092-2.131,6.5-7.2,2.383-10.761-9.923-8.524-17.571-19.179-31.069-24.762-11.5-4.688-24.483-2.941-34.666-9.781-8.493-5.647-17.2-4.262-26-2.131-16.661,4.006-27.928,13.212-33.908,30.068-4.9,13.787-4.81,16.685,10.335,17.282,16.618.7,33.366.213,50.071.213ZM37.3,114.021c7.107,5.349,13.823,2.131,19.976,3.6,28.166,6.5,57.134,1.556,85.625,3.985a26.935,26.935,0,0,0,9.425-1.577c4.117-1.172,4.983-5.668,2.167-7.053-11.483-5.818-19.5-21.31-36.508-12.658-6.261,3.218-10.833-1.556-15.166-5.37-8.32-7.395-16.683-7.629-26-1.193A206.325,206.325,0,0,1,37.3,114.021Zm49.4-98.45c-9.685.128-15.73,6.968-15.383,17.389s9.75,19.519,19.673,18.624c5.525-.49,11.938-.874,14.711-6.925,4.333-9.483-8.623-29.152-19.088-29.024Z"
                transform="translate(10.489 12.223)" />
            <path id="Path_1084" data-name="Path 1084"
                d="M77.947,59.25c0,5.327,5.417,35.161-9.75,44.75s-15.166,18.113-34.666,18.113"
                transform="translate(97.669 175.674)" fill="none" stroke="#000" stroke-width="1" />
            <path id="Path_1085" data-name="Path 1085"
                d="M62.578,17.773c-1.737-5.99-15.926-9.626-22.8-10.7C33.694,5.764,24.211,21.5,20.23,29.538l15.2,26.739L62.578,50.93C63.3,42.373,64.316,23.762,62.578,17.773Z"
                transform="translate(57.324 17.198)" />
            <path id="Path_1086" data-name="Path 1086"
                d="M42.794,49.644c-6.515-2.139,4.344-12.835,5.429-13.9,1.086-2.139,3.04-6.845,2.172-8.556-1.086-2.139-24.975,13.9-36.919,28.878s21.717,8.556,49.949,8.556,47.778-1.07,62.98,0c12.162.856,19.546-6.061,21.717-9.626-4.705-5.348-16.288-16.471-24.975-18.182s-33.3-7.843-44.52-10.7a39.367,39.367,0,0,0-4.343,5.348,21.914,21.914,0,0,1-5.429,5.348c-2.534,3.565-7.818,9.84-8.687,6.417S65.6,30.392,68.855,26.114c-1.086,1.426-3.692,4.492-5.43,5.348-2.172,1.07-6.515,8.556-9.773,9.626S49.309,51.783,42.794,49.644Z"
                transform="translate(29.33 75.171)" />
            <path id="Path_1087" data-name="Path 1087"
                d="M62.578,17.773c-1.737-5.99-15.926-9.626-22.8-10.7C33.694,5.764,24.211,21.5,20.23,29.538l15.2,26.739L62.578,50.93C63.3,42.373,64.316,23.762,62.578,17.773Z"
                transform="translate(57.324 17.198)" fill="none" stroke="#000" stroke-width="1" />
            <path id="Path_1088" data-name="Path 1088"
                d="M42.794,49.644c-6.515-2.139,4.344-12.835,5.429-13.9,1.086-2.139,3.04-6.845,2.172-8.556-1.086-2.139-24.975,13.9-36.919,28.878s21.717,8.556,49.949,8.556,47.778-1.07,62.98,0c12.162.856,19.546-6.061,21.717-9.626-4.705-5.348-16.288-16.471-24.975-18.182s-33.3-7.843-44.52-10.7a39.367,39.367,0,0,0-4.343,5.348,21.914,21.914,0,0,1-5.429,5.348c-2.534,3.565-7.818,9.84-8.687,6.417S65.6,30.392,68.855,26.114c-1.086,1.426-3.692,4.492-5.43,5.348-2.172,1.07-6.515,8.556-9.773,9.626S49.309,51.783,42.794,49.644Z"
                transform="translate(29.33 75.171)" fill="none" stroke="#000" stroke-width="1" />
            <path id="Path_1089" data-name="Path 1089"
                d="M62.89,82.514c-.988-.958-1.5-2.644-.321-5.462L88.9,76l25.236,17.886,46.083,33.667-6.583,13.677-71.319,7.365c-17.19-2.455-53.105-7.365-59.25-7.365S12.463,132.111,11,127.552c4.023,0,12.069-.421,12.069-2.1,0-2.1-5.486-4.208-4.389-8.417s-1.1-13.677,9.875-10.521,3.292-24.2,28.528-24.2C59.581,82.312,61.476,82.393,62.89,82.514Z"
                transform="translate(29.33 226.476)" stroke="#000" stroke-width="1" />
            <path id="Path_1090" data-name="Path 1090"
                d="M102.553,40.64c0,8.692,0,18.47,6.6,28.249s42.924,41.286,44.025,54.324,3.3,44.546-6.6,51.065-42.924,26.076-44.025,26.076c-.88,0-45.859-7.968-68.239-11.951L9,139.51c4.035-12.314,12.547-37.158,14.308-38.027,2.2-1.086,26.415-23.9,27.516-27.162C51.833,71.332,63.949,51.9,65.1,51.206c.8-2.376,3.724-8.908,9.934-12.739,8.8-5.432,1.1-1.308,15.409-3.259C101.9,33.646,102.555,41.438,102.553,40.64Z"
                transform="translate(23.264 102.123)" stroke="#000" stroke-width="1" />
            <path id="Path_1091" data-name="Path 1091"
                d="M14.517,90.183c-7-8.052,2.333-6.039,7-12.078,1.555-5.368,6.532-16.1,14-16.1,9.332,0,2.333,10.066,0,26.17S21.516,98.235,14.517,90.183Z"
                transform="translate(32.363 184.014)" fill="#fff" stroke="#fff" stroke-width="1" />
            <path id="Path_1092" data-name="Path 1092"
                d="M32.845,63.488c-.062-.238-.266.072-.744,1.624-4.921,2.695-7.287,8.962-14.669,14.556-6.808,5.159-7.12-3.03,6.155-12.639s10.885-15.116,9.455-4.977c-.077.544-.142,1.02-.2,1.436C33.013,64.137,32.121,68.864,32.845,63.488Z"
                transform="translate(34.839 167.749)" fill="#fff" />
            <path id="Path_1093" data-name="Path 1093"
                d="M32.1,65.111c1.884-6.118-.487,7.08.942-3.059s3.82-4.632-9.455,4.977-12.963,17.8-6.155,12.639C24.814,74.073,27.18,67.806,32.1,65.111Z"
                transform="translate(34.839 167.749)" fill="none" stroke="#fff" stroke-width="1" />
        </g>
    </g>
</svg>  