<svg xmlns="http://www.w3.org/2000/svg" width="570" height="570" viewBox="0 0 570 570">
    <g id="Group_122" data-name="Group 122" transform="translate(-586 -1609)">
        <g id="Group_11" data-name="Group 11" transform="translate(586 1609)">
            <rect id="Rectangle_1" data-name="Rectangle 1" width="570" height="570"
                transform="translate(0 0)" fill="none" />
        </g>
        <g id="Group_23" data-name="Group 23" transform="translate(614.5 1690.495)">
            <path id="Path_986" data-name="Path 986"
                d="M2.571,141.874c1.408,11.307,25.23,16.49,36.964,17.668,6.454,15.312,20.77,49.117,26.4,61.838,7.041,15.9,17.6,45.937,21.123,70.672s21.122,40.816,14.082,62.018S94.1,375.091,111.7,387.458s84.49,15.9,103.852,19.435,139.056-5.3,184.823-7.067,21.119-61.838,24.642-81.273,0-49.47,0-68.905,36.962-75.972,40.482-81.272,33.446-3.534,44.005-14.134,0-40.636,0-56.537-22.883-17.668-36.962-17.668S439.1,92.4,433.82,101.238s-14.083,21.2-24.642,30.035,10.559-22.968,15.843-33.569-5.284-28.269-10.563-51.237S395.094,32.333,373.973,34.1s-28.163,8.834-33.444,22.968-5.28,35.336,0,51.237-12.322,8.834-22.883,26.5-19.362-8.834-33.444-21.2,3.521-30.035,21.122-44.17S289.483,21.732,282.443,7.6s-49.286-3.534-66.888,5.3,2.153,122.088-3.128,125.622-29.923-63.6-28.163-79.505S183.871,18.2,176.83,18.2s-42.245-1.767-51.046,0-24.643,35.336-24.643,54.771,7.041,28.269,19.362,38.869,10.561,63.6,0,67.138-36.964-37.1-36.964-53,5.28-40.636-10.561-56.537-33.443,0-54.565,7.067S.811,127.74,2.571,141.874Z"
                transform="translate(-1.202 -0.71)" fill="#f8f5f1" stroke="#f8f5f1" stroke-width="1" />
            <path id="Path_987" data-name="Path 987"
                d="M16.631,79.743C27.82,87.595,39.278,95.019,48.3,105.773c15.845,18.921,34.509,34.827,53.465,50.4,2.954,2.43,6.109,6.3,10.25,3.015,2.753-2.25,1.723-6.119,1.365-9.472-2.686-25.041-5.505-50.058-7.811-75.144a53.379,53.379,0,0,0-4.722-17.256c-2.618-5.782-1.3-11.249,3.491-14.2,6.4-4.027,10.63,2.048,12.242,6.412,9.265,24.928,28.131,43.557,41.6,65.695,6.042,9.944,12.107,20.361,23.163,28.685a128.718,128.718,0,0,0,14.972-46.369C198.933,74.276,207.952,52.318,209,28.807a6.77,6.77,0,0,1,1.789-4.606,6.7,6.7,0,0,1,4.432-2.144,7.537,7.537,0,0,1,7.989,4.725A65.753,65.753,0,0,1,227.2,38.031C235.747,69.844,249.13,99.7,262.8,129.554c5.662,12.4,10.295,13.116,17.367,1.147,12.129-20.721,22.917-42.162,34.106-63.355,3.111-5.894,5.438-12.171,8.415-18.133,1.835-3.667,4.61-7.312,9.22-5.625,4.208,1.53,4.9,5.737,4.722,10.079-.917,20.631-1.857,41.262-2.417,61.915-.358,12.419-1.186,24.906.962,38.517,11.592-3.892,17.322-12.284,24.616-18.628,13.428-11.721,28.446-21.913,37.731-37.932a34.723,34.723,0,0,1,6.716-7.334,5.018,5.018,0,0,1,7.095-.518,4.516,4.516,0,0,1,1.409,5.4,74.787,74.787,0,0,1-5.461,12.824,585.847,585.847,0,0,0-38.828,74.244c-2.415,5.67-4.834,10.394-2.841,16.987,7.071,23.465,6.712,24.231-11.5,39.912,8.728,8.864,10.5,19.146,4.7,30.643-2.237,4.365.335,9.112.9,13.724,1.61,13.116-1.255,17.009-13.832,19.056a624.464,624.464,0,0,1-162.72,6.075c-25.647-2.542-51.719-1.372-77.343-5.76-18.015-3.083-19.47-3.982-19.358-21.081,0-6.367-2.529-11.25-4.476-16.762-5.505-16.356-12.2-33.3-12.622-50.148-.4-15.591-4.767-28.123-11.66-41.172-14.211-27.065-27.638-54.513-41.558-81.781C14.258,88.135,12.893,84.558,16.631,79.743ZM97.2,204.608a58.181,58.181,0,0,1-4.476,4.927c-3.267,2.722-9.825,3.42-6.714,9.967A8.778,8.778,0,0,0,96.279,224c7.743-1.867,15.531-.2,23.521-2.5a242.548,242.548,0,0,1,44.759-8.392,709.547,709.547,0,0,1,180.176,5.512,6.188,6.188,0,0,0,6.669-2.717,6.258,6.258,0,0,0,.9-2.39c-6.087-4.86-11.749-10.934-20.142-11.249-34.106-1.462-67.295-10.934-102.162-8.032-31.331,2.565-63.155-.382-93.814,8.257-20.141,5.67-36.21,3.4-47-16.334-.38-.675-2.081-.63-2.462-.72-1.992,8.932,6,13.161,10.653,19.168Zm9.78,78.114c18.4,6.255,32.942,4.387,47,3.15,49.615-4.5,99.051-7.852,148.6,1.08a51.857,51.857,0,0,0,34.442-5.017c-4.789-7.38-12.04-6.367-18.4-7.6-24.953-4.949-50.242-3.262-75.441-3.87-5.572-.135-13.249,3.465-16.27-3.442-3.446-7.875,5.3-9,9.489-12.666a33.667,33.667,0,0,0,5.483-5.692,6.525,6.525,0,0,0-1.186-9,31,31,0,0,0-36.769-2.992c-9.31,6.187-9.265,11.677.627,17.774,5.282,3.24,12.219,4.5,13.271,13.994-35.583,5.894-71.972,1.148-110.666,14.286ZM339.721,260.4a10.678,10.678,0,0,0,7.5-3.841,10.791,10.791,0,0,0,2.415-8.105,9.827,9.827,0,0,0-5.942-9.452,9.737,9.737,0,0,0-3.838-.785c-6.154-.225-17.657,6.75-17.3,10.372.671,4.23,11.727,12.081,17.389,11.811ZM148.467,154.527l-4.722,1.08c1.455,10.822.918,22.093,7.609,31.813a5.513,5.513,0,0,0,6.915,2.25,4.513,4.513,0,0,0,2.238-6.5C156.367,173.7,152.451,164.089,148.467,154.527Zm77.03-1.08c-8.773,9.494-5.237,19.169-6.266,27.853-.313,2.7,2.506,4.747,5.147,4.859a5.019,5.019,0,0,0,3.561-1.3,5.072,5.072,0,0,0,1.653-3.426C230.89,172.5,231.652,163.594,225.5,153.447Zm-110.24,97.6c-3.156-7.312-10.138-6.749-16.494-6.615-4.342,0-5.1,3.96-4.275,7.177,1.589,6.119,4.789,11.114,12.309,9C111.228,259.347,115.57,257.434,115.257,251.045Zm172.321-.293c3.916-.7,3.67-3.307,3.29-6.007-.291-1.957-.828-4.027-3.044-4.185-3.4-.225-4.475,2.632-4.632,5.22a4.253,4.253,0,0,0,2.537,4.575,4.212,4.212,0,0,0,1.827.329Zm-139.468-8.032c-3.29-.315-5.215.99-5.685,4.14-.56,3.667,2.037,4.769,4.7,4.859s5.371-.7,5.774-4-2.731-4.05-4.812-5.062Zm46.549-81.8a26.758,26.758,0,0,0,3.491.99c2.641.36,3.558-1.147,3.245-3.51a14.1,14.1,0,0,0-1.253-2.992C198.373,157.227,196.538,159.027,194.658,160.917ZM298.252,175.7c-.492-1.125-1.007-2.25-1.522-3.4a9.934,9.934,0,0,0-5.819,7.177c-.112.855,1.231,2.744,1.723,2.677a5.874,5.874,0,0,0,4.187-2.016,5.939,5.939,0,0,0,1.43-4.44Z"
                transform="translate(37.282 61.988)" />
            <path id="Path_988" data-name="Path 988"
                d="M118.471,35.714C118.246,52.408,103.5,65.3,84.745,65.142c-16.2,0-28.892-15.749-27.929-34.423.738-14.444,15.218-25.94,32.45-25.94S118.716,17.783,118.471,35.714Z"
                transform="translate(162.481 11.276)" />
            <path id="Path_989" data-name="Path 989"
                d="M53.767,67.146c-16.225-.27-26.542-11.564-25.758-28.235a27.377,27.377,0,0,1,8.719-19.587,27.083,27.083,0,0,1,20.105-7.208c13.428.45,25.535,13.949,24.976,27.965S67.642,67.393,53.767,67.146Z"
                transform="translate(77.645 32.738)" />
            <path id="Path_990" data-name="Path 990"
                d="M145.805,38.347c0,16.446-11.948,27.291-29.966,27.313-15.665,0-26.34-10.327-26.855-25.986-.358-13.881,13.651-28.1,27.84-28.258C131.5,11.282,145.849,24.646,145.805,38.347Z"
                transform="translate(257.38 30.827)" />
            <path id="Path_991" data-name="Path 991"
                d="M5.236,45.913c.38-11.519,9.153-21.058,19.4-21.081,12.711,0,23.386,11.114,23.588,24.591.135,9.157-14.86,20.5-26.273,19.843C11.95,68.681,4.833,58.669,5.236,45.913Z"
                transform="translate(10.633 70.35)" />
            <path id="Path_992" data-name="Path 992"
                d="M137.659,68.787c-15.081,0-22.958-7.154-23.3-21.1-.245-11.249,10.185-22.5,20.858-22.5,8.417,0,20.925,12.307,21.308,20.9C157.065,58.933,148.873,68.787,137.659,68.787Z"
                transform="translate(332.149 71.392)" />
        </g>
    </g>
</svg>  