<svg xmlns="http://www.w3.org/2000/svg" width="570" height="570" viewBox="0 0 570 570">
    <g id="Group_35" data-name="Group 35" transform="translate(-105 -830)">
        <rect id="Rectangle_3" data-name="Rectangle 3" width="570" height="570"
            transform="translate(105 830)" fill="none" />
        <g id="Group_34" data-name="Group 34" transform="translate(261.75 923.528)">
            <path id="Path_1051" data-name="Path 1051"
                d="M69.907,22.214c-11.978,4.5-10.481-16.5-37.432-15C13.629,8.263,9.425,13.208,9.666,16.441c-19.815,37.728.35,56.776,4.842,67.276,3.594,8.4,17.468,14.5,23.956,16.5l-5.989,76.5c-2.5,18.5-7.486,57.9-7.486,67.5,0,12-14.973,27-14.973,39s0,16.5-5.989,33-1.5,31.5,0,48a21.518,21.518,0,0,0,16.47,19.5c67.377-.5,205.426-1.2,218.6,0,16.47,1.5,14.973-4.5,17.967-27s-10.481-48-10.481-57v-24c0-13.5,0-12-7.487-24s0-7.5,0-19.5-16.47-111-16.47-124.5,11.978-21,23.956-33-7.487-15-7.487-30V7.214c0-8.4-17.967-6.5-26.951-4.5-6.987,1.5-22.159,4.5-26.951,4.5-5.989,0-8.984,15-19.464,15s-7.487-4.5-17.967-15-28.448-4.5-53.9,0S81.885,17.714,69.907,22.214Z"
                transform="translate(-1 -1)" fill="#f8f5f1" />
            <path id="Path_1052" data-name="Path 1052"
                d="M10.016,17.714a3.416,3.416,0,0,1-.35-1.273m0,0c-.24-3.232,3.963-8.178,22.809-9.227,26.951-1.5,25.454,19.5,37.432,15s-1.5-10.5,23.956-15,43.421-10.5,53.9,0,7.486,15,17.967,15,13.475-15,19.464-15c4.792,0,19.964-3,26.951-4.5,8.984-2,26.951-3.9,26.951,4.5v37.5c0,15,19.465,18,7.487,30s-23.956,19.5-23.956,33,16.47,112.5,16.47,124.5-7.486,7.5,0,19.5,7.487,10.5,7.487,24v24c0,9,13.475,34.5,10.481,57s-1.5,28.5-17.967,27c-13.176-1.2-151.224-.5-218.6,0a21.518,21.518,0,0,1-16.47-19.5c-1.5-16.5-5.989-31.5,0-48s5.989-21,5.989-33,14.973-27,14.973-39c0-9.6,4.991-49,7.486-67.5l5.989-76.5c-6.488-2-20.363-8.1-23.956-16.5C10.016,73.216-10.149,54.169,9.666,16.441Z"
                transform="translate(-1 -1)" fill="none" stroke="#fff" stroke-width="1" />
            <path id="Path_1053" data-name="Path 1053"
                d="M73.013,86.971c-4.991,7.9-15.816.459-19.354,8.969-2.831,6.808,2.639,13.139,1.683,20.043-1.224,8.969-2.276,18.015-2.7,27.061-.363,7.516,2.046,11.723,11.283,13.387,10.385,1.913,19.851.612,29.758-.784,25.531-3.614,51.043.153,76.5.631a47.336,47.336,0,0,0,14.917-1.32,8.262,8.262,0,0,0,6.732-8.778c-.555-8.472-.65-17.212-2.486-25.34-1.683-7.459-10.595-4.686-15.644-7.937,1.664-8.568,10.48-2.964,13.865-8.147,1.74-10.4-9.907-11.666-14.21-17.441,2.333-5.565,7.86-2.1,10.251-5.393a3.1,3.1,0,0,0-3.4-3.136c-25.531-.823-51.044-2.066-76.5-2.123-20.272,0-40.716-3.1-60.778,3.653-5.087,1.7-11.054-.689-16.046-4.131A49.877,49.877,0,0,1,10.4,11.965a10.193,10.193,0,0,1,8.243-5.336,80.189,80.189,0,0,1,15.3-.65C45.417,6.763,47.521,9.172,47.6,20.494c.115,13.387.115,13.387,12.794,12.966,3.4,0,6.789-.555,10.193-.746,14.841-.9,14.841-.88,14.688-14.994C85.139,8.79,88.562,5.328,97.55,5.5a13.884,13.884,0,0,1,3.443.516c10.518,2.888,18.283,1.4,28.668.344a11.283,11.283,0,0,1,12.354,11.475c0,1.358,0,2.792-.153,4.456-.5,9.7,3.538,13.387,13.751,11.475a89.2,89.2,0,0,1,13.865-1.721c8.185-.23,13.387-2.372,12.163-11.341s3.5-12.622,12.967-13.387c27.826-1.932,29.738-.536,29.987,27.864a21.606,21.606,0,0,0,.229,6.789c6.254,17.537-3.825,28.362-16.2,37.293-7.65,5.565-9.276,11.8-8.147,20.5,3.825,29.241,7.918,58.483,10.385,87.858,1.319,15.931,8.376,30.733,7.65,46.932,0,1.913,1.912,3.825,3.213,5.737,7.765,11.36,12.7,22.95,4.38,36.337a6.846,6.846,0,0,0,1.013,8.338c12.909,11.743,5.852,28.687,10.691,42.533,1.913,5.6.536,12.3,2.047,18.493,1.644,6.75-1.262,11.052-8.855,10.976-4.552,0-9.1-.17-13.655-.152-41.882.21-83.765-.592-125.61-1.185-25.168-.365-50.355-1.59-75.6-.842-6.541.191-10.576-3.826-11-10.6-.994-16.007-1.912-33.544,4.8-46.989,5.527-11.169,8.606-18.436,2.582-29.547-2.735-5.068.975-11.379,4.7-15.663,6.063-6.961,7.191-15.166,8.09-23.733q6.961-66.745,14.075-133.509C40.636,82.9,40.636,82.439,52.321,83.509,59.033,84.217,66.76,81.31,73.013,86.971Zm20.31,212.818c-20.406,0-40.812-.153-61.2.1-7.65,0-13.693,2.391-10.824,12.336.612,2.1,0,4.532.153,6.789,1.167,16.906,5.164,20.712,21.668,21.037,19.794.478,39.779-.382,59.382,1.071,35.189,2.6,70.225.229,105.319.459,7.745,0,12.851-4.073,12.373-12.871-.153-2.831.287-5.738.287-8.53,0-13.731-2.926-17.786-16.141-18.13-16.084-.421-31.556-4.38-48.27-3.213C135.474,300.344,114.284,297.647,93.324,299.789Zm-21.8-115.416c-1.913-6.445-2.811-10.959-4.666-15.013a10.212,10.212,0,0,0-11.341-5.737c-4.8.65-6.044,4.437-6.158,8.8-.172,6.808-.383,13.6-.65,20.406-.21,5.737,2.41,7.975,8.09,8.224,11.226.5,22.414,1.7,33.64,2.257,7.363.382,14.822-.4,22.127.363,9.83,1.014,12.3,4.4,12.469,14.516a116.455,116.455,0,0,0,.287,11.857c.612,5.03,3.347,8.4,8.912,8.358,19.3-.191,38.593-.344,57.871-.727,3.347,0,7.5-.4,8.836-4,2.792-7.42-2.677-13.98-3.328-21.19-.421-4.552-5.737-4.552-9.849-4.418-15.873.5-31.747,1.071-47.62,1.415-2.83,0-7.152,2.18-7.458-4.437,9.333-1.358,18.742-2.658,28.132-4.15,5.106-.822,8.051-3.347,7.5-9.218s0-11.36-.4-17-3.022-9.868-9.562-9.39c-20.463,1.473-40.755-2.505-61.2-1.913C77.642,163.737,77.642,163.871,71.522,184.372ZM148.9,63.046c12.469,0,24.862-.306,37.407,0,19.124.593,23.733-3.825,22.414-22.395-.363-5.087-1.415-10.117-2.219-15.166a5.011,5.011,0,0,0-4.667-4.284,5.45,5.45,0,0,0-5.106,3.825c-.727,2.142-1.224,4.36-1.779,6.54-3.1,12.278-4.093,13.387-15.567,12.546S155.823,44,144.042,42.2s-13.387-2.486-15.816-13.387c-.688-3.213.344-6.808-3.1-9.2A17.977,17.977,0,0,0,97.187,31.357c-1.186,5.967-3.462,7.937-9.849,8.874-11.934,1.74-23.791-2.314-35.227,0-9.18,1.913-12.163-.822-14.152-9.084-1.052-4.3-1.434-11.991-8.338-10.729-6.387,1.186-4.877,8.4-4.8,13.043a42.86,42.86,0,0,0,3.614,18.245c2.6,5.413,6.062,10.27,12.049,11.016,8.931,1.186,17.709,3.978,27.042,2.639C94.49,61.306,121.8,64.672,148.9,63.046ZM72.21,248.019H39.89c-5.852,0-9.945,2.716-11.054,8.53-1.262,6.636,2.429,10.557,8.109,13.387a26.429,26.429,0,0,0,13.234,2.047c22.032-.842,44.1-2.142,66.075-2.62,19.641-.421,39.569-.822,59.286.995,8.319.765,17.384-5.967,25.512,2.525,1.912,1.912,14.707-12.2,14.5-16.753-.421-8.606-7.172-8.836-13.387-9.907-21.324-3.672-42.763,2.448-63.991-.689C115.967,242.2,94.3,251.4,72.21,248.019Zm12.756-7.286h22.567c3.462,0,6.674-.612,8.7-4.035,5.928-10,.918-22.95-10.461-24.862-16.524-2.85-32.856-5.91-50.126-2.907S36.7,212.428,37.69,229.3c.421,7.286,4.666,11.264,10.652,10.423C61.462,237.653,74.123,244.557,84.966,240.732Zm119.49,50.489c-4.628-9.275-10.423-7.8-15.835-8.07-23.58-1.186-46.951,5.106-70.761.172-23.427-4.838-47.257,2.926-70.971.153-4.819-.574-9.562,1.281-14.745,8.358C90.8,292.464,146.681,292.656,204.457,291.221Zm-32.283-127.2c5.259,9.964,2.85,20.922,6.273,31.192,1.759,5.412,5.45,6.923,10.442,6.426s8.434-3.423,8.281-8.893c-.134-4.552-.688-9.065-1.186-13.6C194.053,162.169,192.905,161.366,172.174,164.024Z"
                transform="translate(8.009 10.742)" />
            <path id="Path_1054" data-name="Path 1054"
                d="M8.409,13.88l.908,10.9,10.567,4.4L39.008,40.655l19.124-6.694,24.862-7.65V13.88l10.519-2.869,7.65-2.869L106.9,13.88l13.387,6.694L176.7,29.18l11.475-18.169,14.343,2.869L204.435,48.3,193.917,58.823l-55.461,5.738h-69.8L23.708,60.735,11.277,48.3,9.317,24.777,8.409,24.4Z"
                transform="translate(18.357 17.662)" />
            <path id="Path_1055" data-name="Path 1055"
                d="M8.409,13.88,11.277,48.3,23.708,60.735l44.942,3.825h69.8l55.461-5.738L204.435,48.3,202.523,13.88l-14.343-2.869L176.7,29.18l-56.417-8.606L106.9,13.88l-5.737-5.737-7.65,2.869L82.994,13.88V26.311l-24.862,7.65L39.008,40.655,19.883,29.18,8.409,24.4Z"
                transform="translate(18.357 17.662)" fill="none" stroke="#000" stroke-width="1" />
            <path id="Path_1056" data-name="Path 1056"
                d="M60.448,71.55c-5.967-4.112-4.074-9.046-4.341-13.215-.994-15.3-.88-15.3-15.625-16.409-3.653-.287-7.975.956-12.45-4.991,13.674-.555,25.838-1.148,38-1.53,12.565-.383,25.378-5.164,38.364,1.664-3.825,6.942-10,5.03-15.185,5.221-5.623.191-11.245-.287-16.887-.4-6.273-.115-8.74,2.773-9.046,9.218S65.574,64.627,60.448,71.55Z"
                transform="translate(69.626 83.709)" />
            <path id="Path_1057" data-name="Path 1057"
                d="M25.544,32.861c2.333-5.489,6.12-5.221,9.218-5.144,21.515.593,43.011,1.243,64.488-.995a15.609,15.609,0,0,1,6.636.8,5.508,5.508,0,0,1,3.232,3.366c.421,2.582-1.568,4.112-3.978,4.38a57.157,57.157,0,0,1-8.492.21,474.489,474.489,0,0,0-52.669.8C38.071,36.705,31.531,37.6,25.544,32.861Z"
                transform="translate(63.127 66.019)" />
            <path id="Path_1058" data-name="Path 1058"
                d="M27.617,34.612c2.735.4,6.215.4,6.024,4.169s-3.213,5.737-7.038,5.431a5.871,5.871,0,0,1-6-4.953C20.14,34.172,24.328,34.8,27.617,34.612Z"
                transform="translate(50.114 86.816)" />
            <path id="Path_1059" data-name="Path 1059"
                d="M196.845,86.14,28.549,80.4,9.424,108.133,6.556,133.951l25.818,15.3h183.6c1.594-11.156,4.781-34.615,4.781-39.205S203.538,87.415,196.845,86.14Z"
                transform="translate(13.515 206.453)" stroke="#000" stroke-width="1" />
            <path id="Path_1060" data-name="Path 1060"
                d="M83.533,56.187a47.2,47.2,0,0,0,15.3-.956L89.27,49.494,42.415,47.581l-8.606,1.913L22.334,53.319l-.956,39.205h7.65L36.678,58.1c.638-2.55,1.913-7.841,1.913-8.606S47.515,53,51.977,55.231l20.081.956.956-3.825C73.971,53.318,77.413,55.423,83.533,56.187Z"
                transform="translate(52.241 120.702)" stroke="#000" stroke-width="1" />
            <path id="Path_1061" data-name="Path 1061"
                d="M100.822,61.14c-3.06,0-15.937,1.912-21.993,2.868H14.761c.319,2.231,3.251,6.311,12.431,4.781S63.529,70.7,75.96,72.615h85.1c25.244,0,21.356-2.55,16.256-3.825-3.187-1.594-10.519-4.781-14.343-4.781s-12.431-3.187-16.256-4.781L132.377,61.14H100.822Z"
                transform="translate(34.954 151.13)" stroke="#000" stroke-width="1" />
            <path id="Path_1062" data-name="Path 1062"
                d="M30.061,29.686,176.218,21l21.971,162.14L208.7,206.3l-4.776,21.233-27.7,29.919L57.764,288.338,10,227.536,30.061,96.279Z"
                transform="translate(22.514 51.254)" stroke="#000" stroke-width="1" />
            <path id="Path_1063" data-name="Path 1063"
                d="M11.22,90c-2.43,7.663-5.833,24.3,0,29.558,7.291,6.569,35.542,6.569,43.744,6.569"
                transform="translate(17.289 231.528)" fill="none" stroke="#000" stroke-width="1" />
            <path id="Path_1064" data-name="Path 1064"
                d="M24.508,54.31c-.318-4.142-.191-12.616,2.864-13.38,3.818-.956,10.5,5.734,22.911,4.778s31.5-9.557,47.73-5.734,38.185,1.911,46.776.956,18.137,8.6,25.774,6.69c7.62-1.907,7.62,2.1,7.62,4.012v.013c0,1.911,7.225,27.1,5.745,32.293-1.51,5.3-7.869-2.863-7.551-7V64.289c0-4.779-2.555-7.12-5.419-9.032s2.469-.947-5.168-1.9-13.364-5.734-18.137-5.734H119.014c-6.873,0-8.591,19.752-8.591,29.628-2.864,1.274-8.019,1.529-5.728-7.646,2.864-11.469,4.773-19.115-2.864-21.982s-13.364-1.911-21.956-1.911-21,2.867-25.775,3.823S31.19,43.8,29.281,45.708c-1.527,1.529-3.818,28.035-4.773,41.1v6.69c.955,2.549-6.873,43.773-11.455,43.008l0,.01c2.208.956,7.1,4.506,6.685,15.282-.954,10.832,2.1,3.058-.954,11.469a14.231,14.231,0,0,1-.846,1.98c-.025.821-.061,1.751-.109,2.8-.219,4.832-.237,7.847-.192,9.591.084,3.258.387,2.07,0,0-.306-1.641-1.046-3.836-2.671-4.812-.988-.594-1.657.038-2.089,1.129l.18,2.694c-.708,7.32-1.415.43-.18-2.694L12.1,162.308c1.272-14.01-.571-19.682.952-25.795l-.04-.017c-1.534-.261-1.145-.486,0,0l.043.007c1.909-7.646,4.773-16.247,4.773-24.849S24.508,62.911,24.508,54.31Z"
                transform="translate(27.739 98.282)" fill="#fff" />
            <path id="Path_1065" data-name="Path 1065"
                d="M13.053,136.5c4.582.765,12.41-40.459,11.455-43.008V86.8c.955-13.062,3.246-39.567,4.773-41.1C31.19,43.8,49.328,50.487,54.1,49.531s17.183-3.823,25.775-3.823,14.319-.956,21.956,1.911S107.559,58.133,104.7,69.6c-2.291,9.175,2.864,8.92,5.728,7.646,0-9.876,1.718-29.628,8.591-29.628h28.638c4.773,0,10.5,4.779,18.137,5.734s2.3-.008,5.168,1.9,5.419,4.253,5.419,9.032V76.933c-.318,4.142,6.041,12.3,7.551,7,1.48-5.2-5.745-30.382-5.745-32.293s.017-5.936-7.62-4.025-17.183-7.646-25.774-6.69-30.548,2.867-46.776-.956-35.32,4.779-47.73,5.734S31.19,39.974,27.372,40.93c-3.055.764-3.182,9.239-2.864,13.38,0,8.6-6.682,48.742-6.682,57.344S14.962,128.857,13.053,136.5Zm0,0c-4.582-.764,7.319-1.274,6.682,15.292-.954,10.832,2.1,3.058-.954,11.469-3.819,10.513,0-16.247-.955,4.779s1.909,7.646-2.863,4.778c-3.819-2.294-2.864,13.7-1.909,3.823L12.1,162.308C13.371,148.29,11.525,142.62,13.053,136.5Z"
                transform="translate(27.74 98.282)" fill="none" stroke="#fff" stroke-width="1" />
            <path id="Path_1066" data-name="Path 1066"
                d="M54.832,46.025c.783,2.23-1.631,15.8-2.936,22.3,1.957.31,6.068.743,6.851,0,.979-.93,1.957-.93,1.957-2.788s-1.957-11.152-.979-14.869,6.851-6.505,6.851-12.082c0-4.461-5.22-6.2-7.83-6.505H37.214c-5.873,0-13.7-.929-18.6-2.788S16.66,34.873,19.6,35.8s19.575,0,32.3.93S53.853,43.237,54.832,46.025Z"
                transform="translate(38.19 72.155)" fill="#fff" stroke="#fff" stroke-width="1" />
            <path id="Path_1067" data-name="Path 1067"
                d="M22.954,60.06C29.3,61.373,45.225,64,58.168,64c16.179,0,56.152-1.97,64.717-1.97,6.12,0,33.446,2.618,50.518,4.348a17.758,17.758,0,0,1,.875-5.332c.952-1.969,0-2.954,0-5.909,0-2.363,1.9-2.3,2.855-1.97l1.9,1.97V66.953a10.9,10.9,0,0,1,4.759,8.863v39.391c-.952,5.252-3.236,14.181-4.759,7.879s-.634-24.291,0-32.5l-5.71-14.772-26.649-5.909c1.269,9.848,3.045,29.74,0,30.528s-6.345-20.024-7.614-30.528c-11.738-.985-37.879-2.363-48.538,0C77.2,72.862,58.168,72.862,56.265,72.862s-25.7-5.909-29.5-2.954S21.051,98.466,16.292,98.466,14.389,64,22.954,60.06Z"
                transform="translate(32.965 134.859)" fill="#fff" stroke="#fff" stroke-width="1" />
            <path id="Path_1068" data-name="Path 1068"
                d="M33.723,31.2c-6.031.879-5.026,4.027-3.769,5.492l1.885,2.2,29.212-2.2,12.25-3.3c3.455,1.1,11.5,3.3,16.02,3.3s3.769-2.2,2.827-3.3C86.492,31.929,74.808,29,73.3,29c-1.884,0-12.25,2.2-17.9,2.2S41.261,30.1,33.723,31.2Z"
                transform="translate(72.155 72.155)" fill="#fff" />
            <path id="Path_1069" data-name="Path 1069"
                d="M51.855,36.012l-.942-3.3.942-2.2,24.5,4.393c.314,1.1.377,3.515-1.885,4.394S58.452,37.477,51.855,36.012Z"
                transform="translate(129.407 76.127)" fill="#fff" />
            <path id="Path_1070" data-name="Path 1070"
                d="M33.723,31.2c-6.031.879-5.026,4.027-3.769,5.492l1.885,2.2,29.212-2.2,12.25-3.3c3.455,1.1,11.5,3.3,16.02,3.3s3.769-2.2,2.827-3.3C86.492,31.929,74.808,29,73.3,29c-1.884,0-12.25,2.2-17.9,2.2S41.261,30.1,33.723,31.2Z"
                transform="translate(72.155 72.155)" fill="none" stroke="#fff" stroke-width="1" />
            <path id="Path_1071" data-name="Path 1071"
                d="M51.855,36.012l-.942-3.3.942-2.2,24.5,4.393c.314,1.1.377,3.515-1.885,4.394S58.452,37.477,51.855,36.012Z"
                transform="translate(129.407 76.127)" fill="none" stroke="#fff" stroke-width="1" />
            <path id="Path_1072" data-name="Path 1072"
                d="M39.2,55.446c-3.274-2.18-3.41,4.543-3.069,8.176,2.728.606,9,1.454,12.277,0,4.092-1.817,0-7.268,0-9.085S43.289,58.171,39.2,55.446Z"
                transform="translate(90.444 137.885)" fill="#fff" />
            <path id="Path_1073" data-name="Path 1073"
                d="M38.954,55.634c-1.637-.727-.682-1.514,0-1.817L39.978,52c1.705.605,5.116,2.18,5.116,3.634C45.093,57.451,41,56.542,38.954,55.634Z"
                transform="translate(95.801 132.247)" fill="#fff" />
            <path id="Path_1074" data-name="Path 1074"
                d="M39.2,55.446c-3.274-2.18-3.41,4.543-3.069,8.176,2.728.606,9,1.454,12.277,0,4.092-1.817,0-7.268,0-9.085S43.289,58.171,39.2,55.446Z"
                transform="translate(90.444 137.885)" fill="none" stroke="#fff" stroke-width="1" />
            <path id="Path_1075" data-name="Path 1075"
                d="M38.954,55.634c-1.637-.727-.682-1.514,0-1.817L39.978,52c1.705.605,5.116,2.18,5.116,3.634C45.093,57.451,41,56.542,38.954,55.634Z"
                transform="translate(95.801 132.247)" fill="none" stroke="#fff" stroke-width="1" />
            <path id="Path_1076" data-name="Path 1076"
                d="M146.706,77.79c16.78.692,26.7-4.9,29.556-7.79l3.814,4.328L185.8,84.714V98.562c0,1.731-5.721-3.462-5.721-8.655s-13.348-5.193-33.369-5.193c-16.018,0-37.819-1.731-46.718-2.6l-47.671-2.6H18.948c-5.339,0-2.225-3.462,0-5.193H42.783c11.123.288,36.42.692,48.624,0C106.662,73.462,125.731,76.924,146.706,77.79Z"
                transform="translate(38.19 179.275)" fill="#fff" stroke="#fff" stroke-width="1" />
            <path id="Path_1077" data-name="Path 1077"
                d="M34.024,87.323c0-10.726,7.359-13.407,11.039-13.407L27,72l1,12.45L30.01,96.9c.669,2.554,2.007,7.853,2.007,8.619s-.669,10.534-1,15.323c-1,2.234-2.609,7.087-1,8.619,2.007,1.915,5.018-4.788,5.018-5.746s-1-8.619,1-15.323S34.024,100.73,34.024,87.323Z"
                transform="translate(66.93 184.5)" fill="#fff" stroke="#fff" stroke-width="1" />
            <path id="Path_1078" data-name="Path 1078"
                d="M93.2,95.691c-15.152-3.1-71.656,7.429-87.123,7.753-.316-.969.379-11.048,1.894-12.6C9.863,88.907,67.629,86,75.205,86s30.3,5.815,46.4,5.815,9.47,0,23.675-1.938c11.364-1.551,29.357-1.292,36.933-.969,9.786-.323,29.736-1.163,31.251-1.938,1.894-.969,5.682,5.815,5.682,12.6s-14.205,3.876-16.1,3.876-12.311-3.876-16.1-3.876-38.827-3.876-51.138,0S112.138,99.568,93.2,95.691Z"
                transform="translate(12.063 221.078)" fill="#fff" stroke="#fff" stroke-width="1" />
            <path id="Path_1079" data-name="Path 1079"
                d="M21.135,115.038l9.3,9.635-6.5,18.133c2.477,6.707,5.946,20.694,0,22.994S12.168,160.37,10,156.219l2.787-23.951,1.668-21.5-.739-7.24c1.239-7.345,3.716-22.994,3.716-26.826,0-4.79-2.787-6.706,2.787-14.371A152.259,152.259,0,0,0,30.438,47c2.477,1.277,7.618,4.024,8.361,4.79.929.958-4.645,14.371-10.219,24.909-4.459,8.431-6.813,29.061-7.432,38.323Z"
                transform="translate(22.514 119.183)" stroke="#000" stroke-width="1" />
        </g>
    </g>
</svg>  