<svg xmlns="http://www.w3.org/2000/svg" width="164.772" height="159.569" viewBox="0 0 164.772 159.569">
  <g id="White_King" data-name="White King" transform="translate(-0.46 -0.475)">
    <path id="Path_955" data-name="Path 955" d="M41.984,33.052c2.216,0,24.788,9.508,23.123,14.772,1.867-3.987-.248-3.319-.248-9.018,0-7.413-4.007-10.264-5.724-19.957C57.762,11.094,63.143,8.775,66,8.585,66,1.172,80.184,2.809,89.914,1.1S109.351,20.465,105.2,28.189c-3.511,6.528-5.422,18.029-4.849,15.749s11.833-3.539,20.132-7.413c7.862-3.67,23.979,1.141,35.427,9.694s8.547,22.238,8.547,31.932-16.025,31.932-19.46,31.932-9.158,21.668-5.724,27.94c2.747,5.018,1.145,11.974,0,14.825-8.586,7.983-27.474,3.991-50.941,6.273S26.511,152.278,28.8,144.864s-10.434-31.931-10.434-34.782S8.195,90.695,3.044,83.282s0-23.949,9.158-37.064S39.694,33.052,41.984,33.052Z" transform="translate(0 0)" fill="#fbf6ee" stroke="#fdf5e8" stroke-width="1"/>
    <path id="Path_956" data-name="Path 956" d="M34.064,124.915c-2.589-2.493-5.031-3.743-2.905-7.494,2.059-3.618-3.677-11.833-7.987-12.135-1.964-.132-3.942.184-5.626-1.052s-1.1-3.14-1.191-4.847a2.456,2.456,0,0,0-.7-1.765c-6.237-3.9-5.045-11.966-9.487-16.834a3.03,3.03,0,0,1-.53-2.478c1.427-4.574.243-9.142.265-13.7A10.3,10.3,0,0,1,7.6,59.07q3.92-6.31,7.634-12.738c1-1.728,1.934-3.611,3.788-4.413a58.687,58.687,0,0,0,11.421-6.082c1.537-1.111,3.405-.522,5.1-.184A49.434,49.434,0,0,1,64.129,52.642c.515.61.846,1.625,1.986,1.375.257-.331.735-.662.735-.971-.25-6.943,2.765-12.194,8.355-16.04a5.884,5.884,0,0,0,2.809-5.494c-.1-3.207-.853-3.891-3.9-3.207-.853.191-1.655.588-2.5.735-3.868.809-5.281-.243-5.273-4.163,0-3.052.485-6.1-.838-9.039a3.55,3.55,0,0,1,1.243-4.633c1.9-1.471,3.17.221,4.641.875.184-.4.559-.816.485-1.133-1.471-6.31-.206-7.685,6.318-6.84,3.17.4,6.244,1.64,9.509-.184a3.736,3.736,0,0,1,4.729,1.265c1.294,1.736.382,3.354-.5,4.869A17.071,17.071,0,0,1,89.9,12.6c-.809.912-1.265,1.971-.243,2.846s2,.221,2.824-.6A13.177,13.177,0,0,1,94.4,13.126c.89-.588,1.912-1.228,3.015-.64,1.338.735,1.566,1.978,1.4,3.383-.478,4.082-1.567,8.09-.154,12.3.64,1.9-1.316,3.17-3.317,2.942a23.206,23.206,0,0,1-4.368-1.353c-1.221-.39-2.478-1.221-3.677-.257-1.589,1.25-.544,2.795-.243,4.229.088.427.132,1.037.412,1.213C93.827,38.926,93.989,46.361,96.7,52.3a10.3,10.3,0,0,0,5.781-3.64A20.4,20.4,0,0,1,115.957,41.3a9.906,9.906,0,0,0,3.155-.838c6.362-3.309,12.466-.735,18.534.875,6.464,1.714,10.6,6.237,14.348,11.686,7.979,11.591,7.722,23.071,1.052,34.941-1.92,3.412-3.486,7.038-5.56,10.355-2.17,3.479-4.155,7.163-8.333,8.943-2.471,1.059-3.471,3.876-5.413,5.641a2.206,2.206,0,0,0-.382,2.942c1.927,3.067,1.4,5.884.39,9.311-1.074,3.611-.669,7.634-2.265,11.289-.655,1.516.963,2.773,1.471,4.177,1.574,4.354.243,6.531-4.192,8.156-9.421,3.448-19.261,3.184-29.014,3.493a371.924,371.924,0,0,1-48.407-1.514,80.9,80.9,0,0,1-15.444-2.84c-3.986-1.191-5.148-2.845-4.972-7.163.088-2.53-1.03-4.67-1.419-7.023C28.916,130.158,28.673,126.709,34.064,124.915ZM97.938,91.871c-4.523,3-4.6,7.524-4.17,12.2.677,7.443.684,7.443-6.921,6.325-.78-.118-1.559-.272-2.721-.471,2.339-1.53,4.413-4.089,2.714-5.376-3.376-2.545-2.1-5.472-1.647-8.09.735-4.06,1.9-8.09,2.773-12.12.53-2.471,1.206-5.391,4.891-6.943-.507,7.354-6.031,12.973-4.92,20.063a2.669,2.669,0,0,0,2.5-2.376c.3-5.736,3.677-10.3,6.141-15.04,3.9-7.406,7.935-14.76,16.606-18.342,11.767-4.861,25.63,1.949,26.19,13.9.183,3.824.9,7.7-.545,12.9,6.111-4.927,5.493.221,6.428,3.721,4.412-8.73,6.619-17.077,6.111-25.447-.42-7.222-2.4-14.591-10.068-18.651-11.357-6.018-21.452-5.811-31.545-.544a49.607,49.607,0,0,0-7.243,4.743c-2.6,2.015-4.721,4.236-8.377,4.494-2.809.2-5.641,1.353-5.759,5.148-.052,1.552-1.1,2.206-2.493,2.589-4.979,1.471-9.855.566-14.709-.5-2.942-.64-3.6-3.493-5.148-5.42A44.721,44.721,0,0,0,52.458,47.4c-6.281-3.5-13.275-5.354-20.791-3.824a24.675,24.675,0,0,0-13.319,7.877C14.3,55.863,15.06,62.541,12,67.572c.287,10.377,2.361,20.2,8.9,28.616,1.508,1.934,3.089,3.912,5.825,4.832.831-3.677-2.758-4.648-3.28-7.185-1.508-7.355-3.949-14.51-4.339-22.063-.066-1.228.463-2.206,1.78-2.206A1.679,1.679,0,0,1,22.68,71.69c-.294,2.287-.419,4.523,1.235,6.751a16.716,16.716,0,0,0,1.169-2.8C27.43,64.409,34.976,59.68,46.008,62.7c9.752,2.648,15.511,10.23,20.026,18.327,3.574,6.4,5.42,13.782,6.825,21.1.331,1.7.949,3.721-1.574,4.192-2.133.4-3.111-1.235-3.677-3a23.536,23.536,0,0,0-3.185-7.141,9.9,9.9,0,0,0-6.56,5.03c-2.53,4.7-.6,8.509,4.8,9.039a9.833,9.833,0,0,0,3.8-.618,16.452,16.452,0,0,1,9.561-.154c-2.736,1.934-5.884,1.353-8.869,1.736-4.229.544-8.825-1.015-12.62,2.089-.9.735-1.662-.059-2.206-.684-2.206-2.456-2.412-4.986-.1-7.531-1.831-5.751,2.361-7.443,6.251-9.48a29.033,29.033,0,0,0,4.126-3.185C60.842,86.039,56.039,81.6,52.568,76.463c-2.023-2.986-6-4.957-9.686-6.421s-6.766,1.125-10.2,1.383c-.331,0-.838,1.081-.831,1.655,0,4.111-1.25,8.09-.441,12.326a72.813,72.813,0,0,0,4.95,16.555c3.148-1.831,6.619-2.25,9.818.574.794.735,1.611,1.581.993,2.824a2.523,2.523,0,0,1-2.633,1.581,53.665,53.665,0,0,1-6.259-1.8c-2.17-.735-3.162.552-2.736,2.206a18.82,18.82,0,0,1,.522,7.774c-.735,4.486-.64,4.714,3.832,4.119q16.228-2.206,32.558-3.133c17.894-1.052,35.684-1.4,53.254,3.008.552.14,1.287.066,1.427-.8-4.045-5.111-4.074-4.707-10.164-5.1-5.148-.331-10.723.78-15.555-2.5a11.563,11.563,0,0,1,.978-1.471c.456-.471,1.059-.8,1.471-1.3,4.207-5.045,3.751-7.413-2.251-10.061a5.785,5.785,0,0,1-3.81-6.141,3.964,3.964,0,0,0,4.288-.772c2.287-2.272,5.148-2,7.935-2.346.831-.1,1.7-.632,2.206.449.39.883-.176,1.64-.529,2.442-.963,2.206-4.508.735-5.045,4.2,3.118.64,4.413,3.229,4.729,6.112.735,7.016,4.707,9.208,11.333,9.1,2.743-.044,4.089-.89,5.038-2.986,2.287-5.016.4-10.8-5.207-13.8-2.655-1.427-4.119-2.611-3.868-5.729a6.473,6.473,0,0,0-1.221-3.677c-1.375-2.147-1.191-3.832,1.3-4.545,2.295-.662,4.464-.132,5.111,2.618a25.225,25.225,0,0,1,.669,5.148c.088,4.508,1.868,7.663,6.251,8.98,5.009-6.236,4.148-12.62,1.736-19.32-2.942-8.252-10.885-12.319-18.386-9.252C106.248,71.639,98.225,83.031,97.938,91.871Zm26.667,51.68a38.047,38.047,0,0,0-.794-5.56c-.9-3.089-2.942-3.619-5.523-1.331a7.5,7.5,0,0,1-5.95,2.059c-7.31-.581-14.753.058-21.909-1.809-5.222-1.368-11.274.632-15.709-4.126-1.647-1.765-5.92-2.383-4.413-5.332s4.67,0,6.906.6c2.986.831,5.744,2.148,8.825.544,2.118-1.11,4.413-2.721,6.678-.927s-1.2,3.957.051,6.45c5.038.8,10.237,2.3,15.68,2.493,1.772.066,3.089.177,4.045-2.118,1.567-3.743,4.582-5.656,8.825-3.817,1.169.507,2.206.463,2.787-.684.735-1.471,2.942-2.317,2.015-4.413-.809-1.795-1.758-3.229-4.111-3.743-4.935-1.066-9.958-.89-14.922-1.559-8.141-1.1-16.437-2.206-24.615.088a3.214,3.214,0,0,1-3.059-.493c-1.956-1.471-4.185-.934-6.332-.861a155.966,155.966,0,0,0-22.762,1.956,48.664,48.664,0,0,0-10.5,2.942c-3.361,1.419-2.273,4.317-2.567,6.766-.125,1.059-.287,2.464,1.044,2.736,2.353.493,3.185-1.875,4.707-2.942.868-.625,1.868-1.184,2.133-2.376-.338-1.471-3.162-.853-2.743-3.148a44.378,44.378,0,0,1,5.339,2.589c2.14,1.383,2.537,3.993,2.317,6.067-.191,1.853-2.206,1.1-3.8.875-2.39-.338-6.273,2.5-7.009,4.8a1.678,1.678,0,0,0,1.471,2.362,22.279,22.279,0,0,0,3.28,0c8.671,0,17.334-.884,25.969-.971,9.473-.1,19,.449,28.5.942C107.146,142.006,115.736,143.125,124.605,143.551ZM75.426,47.06a27.645,27.645,0,0,0,1.6,5.516c2.457,4.913,8.759,5.979,11.583,2.155A10.429,10.429,0,0,0,88.3,42.022c-2.022-2.67-6.192-4.56-8.436-3.824C77.434,39,75.374,42.75,75.426,47.06ZM92.135,22.9c.169-1.684-.581-2.206-1.39-2.493-4.508-1.4-8.6-2.942-6.45-9.171a2.317,2.317,0,0,0-2.155-2.787c-1.743,0-1.765,1.589-1.647,2.942s-.073,2.125,0,3.435c-1.147,3.913.132,4.935-4.464,5.222a10.8,10.8,0,0,0-5.42,1.272c1.662,2.978,4.06,1.78,6.1,1.787,2.942,0,4.516,1.1,4.413,4.273,0,.61-.066,2.052,0,2.706.044.971,2.5.882,2.478-.088-.14-5.736-.294-6.524,7.4-6.619A4,4,0,0,0,92.15,22.9Z" transform="translate(1.777 0.992)"/>
    <path id="Path_957" data-name="Path 957" d="M110.451,53.925a4.371,4.371,0,0,1-3.119-2.206c-4.177-6.3-9.722-9.9-17.584-9.046-1.28.14-2.9.4-3.42-1.125-.61-1.831.485-3.339,1.795-4.6s2.4-.412,3.3.574c1.794,1.942,3.434,2.817,6.259,1.339,2.148-1.133,4.155.434,5.281,2.633,1.015,2,2.25,3.795,4.516,4.508C111.715,47.321,111.782,50.189,110.451,53.925Z" transform="translate(33.149 13.749)"/>
    <path id="Path_958" data-name="Path 958" d="M60.579,78.973c-2.6-9.892-6.994-18.805-13.341-28.124,3.677,0,5.016,1.184,6.178,2.655C57,58.043,61.41,72.774,60.579,78.973Z" transform="translate(18 19.406)"/>
    <path id="Path_959" data-name="Path 959" d="M32.07,59.209c2.6-.294,5.325,2.795,4.141,4.663a7.993,7.993,0,0,0-1.316,6.619A1.758,1.758,0,0,1,33.659,72.5a2.148,2.148,0,0,1-2.331-.735c-1.9-2.118-2.464-8.884-.89-11.142A7.836,7.836,0,0,1,32.07,59.209Z" transform="translate(11.104 22.652)"/>
    <path id="Path_960" data-name="Path 960" d="M53.014,48.123C57.588,53.5,62.06,67.7,61.839,74.357a2.8,2.8,0,0,1-1.912-2.412C59.9,63.8,53.161,57.611,53.014,48.123Z" transform="translate(20.248 18.344)"/>
    <path id="Path_961" data-name="Path 961" d="M104.59,54.232c.324-1.471-.478-3.677,1.927-4.067,1.375-.235,3.568,2.993,3.354,4.825s-1.346,3.332-3.325,3.207C103.98,58.042,104.84,55.8,104.59,54.232Z" transform="translate(40.326 19.134)"/>
    <path id="Path_962" data-name="Path 962" d="M40.22,71.206c-2.478,0-4.133-.662-3.891-2.868.184-1.633,1.559-2.5,3.368-2.14a2.9,2.9,0,0,1,.625.169c1.64.735,4.729,0,4.626,2.427C44.824,71.743,41.316,69.941,40.22,71.206Z" transform="translate(13.744 25.349)"/>
    <path id="Path_963" data-name="Path 963" d="M32.09,41.858A4.258,4.258,0,0,1,27.582,43.9c-2.817-.4-2.17-2.751-2.206-4.582-.044-1.419.963-2.03,2.089-1.471C29.288,38.835,31.392,39.571,32.09,41.858Z" transform="translate(9.474 14.262)"/>
    <path id="Path_964" data-name="Path 964" d="M48.7,50.982,42.879,47.04c-1.052-.735-1.471-1.794-.735-2.78a2.251,2.251,0,0,1,3.435-.28C47.291,45.642,48.24,47.775,48.7,50.982Z" transform="translate(15.872 16.472)"/>
    <path id="Path_965" data-name="Path 965" d="M69.9,57.063a1.331,1.331,0,0,1-1.331-1.214,2.942,2.942,0,0,1,.287-1.883c1.221-1.662,1.14-4.413,3.868-4.8a1.162,1.162,0,0,1,1.324,1.125,7.918,7.918,0,0,1-3.582,6.619A1.916,1.916,0,0,1,69.9,57.063Z" transform="translate(26.285 18.745)"/>
    <path id="Path_966" data-name="Path 966" d="M35.951,38.738a3.427,3.427,0,0,1,2.206,3.876c-.11,1.037-1.044,1.265-1.978,1.111a2.909,2.909,0,0,1-2.773-3.059C33.48,39.554,34.311,38.709,35.951,38.738Z" transform="translate(12.614 14.69)"/>
    <path id="Path_967" data-name="Path 967" d="M19.879,47.31c-1.346-.176-2.6-.735-2.839-2.089-.309-1.721,1.235-1.993,2.434-2.1,1.471-.14,3.221-.1,3.17,1.964C22.607,46.508,21.011,46.751,19.879,47.31Z" transform="translate(6.229 16.377)"/>
    <path id="Path_968" data-name="Path 968" d="M78.651,45.5a1.625,1.625,0,0,1-1.471-1.846c.6-1.964,1.89-3.295,4.185-3.067.949.1,1.787.662,1.471,1.581A5.516,5.516,0,0,1,78.651,45.5Z" transform="translate(29.64 15.401)"/>
    <path id="Path_969" data-name="Path 969" d="M63.921,57.715c-.625-.971-.861-1.169-.838-1.331.309-2.14.537-4.354,2.78-5.486.213-.11.956.279,1.03.552C67.635,54.214,65.973,55.788,63.921,57.715Z" transform="translate(24.167 19.417)"/>
    <path id="Path_970" data-name="Path 970" d="M58.035,76.793c-.772.059-1.008-.515-1.111-1.111-.132-.816-.1-1.684,1-1.787a1.1,1.1,0,0,1,1.206,1.059C59.264,75.837,59.072,76.565,58.035,76.793Z" transform="translate(21.749 28.375)"/>
    <path id="Path_971" data-name="Path 971" d="M69.592,44.831c-.243.875-.809,1.618-1.677,1.633-.61,0-.9-.875-.647-1.427a2.427,2.427,0,0,1,1.25-1.228C69.158,43.6,69.717,43.978,69.592,44.831Z" transform="translate(25.762 16.643)"/>
    <path id="Path_972" data-name="Path 972" d="M37.571,99.9c7.193-1.677,13.922-4.825,21.012-.647a1.815,1.815,0,0,1-1.419,2.148q-7.95.625-15.937.927C39.984,102.368,38.741,101.743,37.571,99.9Z" transform="translate(14.237 37.439)"/>
    <path id="Path_973" data-name="Path 973" d="M84.125,71.045c4.964.941,9.384.228,11.605,4.861C90.347,78.922,89.891,78.782,84.125,71.045Z" transform="translate(32.359 27.267)"/>
  </g>
</svg>
