<svg xmlns="http://www.w3.org/2000/svg" xmlns:xlink="http://www.w3.org/1999/xlink" width="500" zoomAndPan="magnify" viewBox="0 0 375 374.999991" height="500" preserveAspectRatio="xMidYMid meet" version="1.0"><defs><clipPath id="b2bf399e3d"><path d="M 56.390625 51.027344 L 318.921875 51.027344 L 318.921875 314 L 56.390625 314 Z M 56.390625 51.027344 " clip-rule="nonzero"/></clipPath><clipPath id="e12cb40276"><path d="M 187.5 313.769531 C 152.496094 313.769531 119.535156 300.144531 94.800781 275.359375 C 70.015625 250.625 56.390625 217.664062 56.390625 182.660156 C 56.390625 147.65625 70.015625 114.695312 94.800781 89.960938 C 119.535156 65.175781 152.496094 51.550781 187.5 51.550781 C 222.503906 51.550781 255.464844 65.175781 280.199219 89.960938 C 304.984375 114.75 318.609375 147.65625 318.609375 182.660156 C 318.609375 217.664062 304.984375 250.625 280.199219 275.359375 C 255.464844 300.144531 222.503906 313.769531 187.5 313.769531 Z M 187.5 59.414062 C 154.589844 59.414062 123.621094 72.25 100.355469 95.515625 C 77.089844 118.785156 64.25 149.753906 64.25 182.660156 C 64.25 215.570312 77.089844 246.539062 100.355469 269.804688 C 123.621094 293.070312 154.589844 305.910156 187.5 305.910156 C 220.40625 305.910156 251.378906 293.070312 274.644531 269.804688 C 297.910156 246.539062 310.75 215.570312 310.75 182.660156 C 310.75 149.753906 297.910156 118.785156 274.644531 95.515625 C 251.378906 72.25 220.40625 59.414062 187.5 59.414062 Z M 187.5 59.414062 " clip-rule="nonzero"/></clipPath><clipPath id="67c6980aaa"><path d="M 109.984375 95.914062 L 189 95.914062 L 189 216 L 109.984375 216 Z M 109.984375 95.914062 " clip-rule="nonzero"/></clipPath><clipPath id="10af4a9983"><path d="M 167 240 L 265.234375 240 L 265.234375 269.164062 L 167 269.164062 Z M 167 240 " clip-rule="nonzero"/></clipPath></defs><g clip-path="url(#b2bf399e3d)"><g clip-path="url(#e12cb40276)"><path fill="#101011" d="M 56.390625 51.550781 L 318.398438 51.550781 L 318.398438 313.558594 L 56.390625 313.558594 Z M 56.390625 51.550781 " fill-opacity="1" fill-rule="nonzero"/></g></g><path fill="#000000" d="M 129.464844 228.542969 C 129.175781 228.542969 128.890625 228.515625 128.605469 228.460938 C 128.320312 228.402344 128.046875 228.320312 127.78125 228.210938 C 127.511719 228.101562 127.257812 227.964844 127.019531 227.804688 C 126.777344 227.644531 126.554688 227.460938 126.351562 227.257812 C 126.148438 227.054688 125.964844 226.832031 125.804688 226.59375 C 125.644531 226.355469 125.507812 226.101562 125.398438 225.835938 C 125.285156 225.566406 125.203125 225.292969 125.144531 225.011719 C 125.089844 224.726562 125.0625 224.441406 125.0625 224.15625 C 125.019531 219.351562 125.460938 214.59375 126.382812 209.878906 C 126.441406 209.597656 126.523438 209.320312 126.636719 209.054688 C 126.746094 208.789062 126.882812 208.539062 127.046875 208.296875 C 127.207031 208.058594 127.390625 207.839844 127.59375 207.636719 C 127.800781 207.433594 128.023438 207.25 128.261719 207.09375 C 128.503906 206.933594 128.757812 206.796875 129.027344 206.6875 C 129.292969 206.578125 129.570312 206.496094 129.851562 206.441406 C 130.136719 206.386719 130.421875 206.359375 130.710938 206.359375 C 131 206.359375 131.285156 206.390625 131.570312 206.445312 C 131.851562 206.503906 132.128906 206.589844 132.394531 206.699219 C 132.660156 206.808594 132.914062 206.945312 133.152344 207.105469 C 133.394531 207.265625 133.617188 207.449219 133.820312 207.65625 C 134.023438 207.859375 134.203125 208.082031 134.363281 208.320312 C 134.523438 208.5625 134.660156 208.8125 134.769531 209.082031 C 134.878906 209.347656 134.960938 209.621094 135.019531 209.90625 C 135.074219 210.1875 135.101562 210.472656 135.101562 210.761719 C 135.097656 211.050781 135.070312 211.335938 135.015625 211.617188 C 134.214844 215.757812 133.832031 219.9375 133.867188 224.15625 C 133.867188 224.441406 133.839844 224.726562 133.78125 225.011719 C 133.726562 225.292969 133.640625 225.566406 133.53125 225.835938 C 133.421875 226.101562 133.285156 226.355469 133.125 226.59375 C 132.964844 226.832031 132.78125 227.054688 132.578125 227.257812 C 132.371094 227.460938 132.148438 227.644531 131.910156 227.804688 C 131.667969 227.964844 131.414062 228.101562 131.148438 228.210938 C 130.882812 228.320312 130.605469 228.402344 130.324219 228.460938 C 130.039062 228.515625 129.753906 228.542969 129.464844 228.542969 Z M 129.464844 228.542969 " fill-opacity="1" fill-rule="nonzero"/><g clip-path="url(#67c6980aaa)"><path fill="#000000" d="M 130.695312 215.136719 C 130.398438 215.136719 130.105469 215.109375 129.8125 215.050781 C 129.53125 214.992188 129.253906 214.910156 128.988281 214.796875 C 128.722656 214.6875 128.46875 214.550781 128.230469 214.390625 C 127.988281 214.230469 127.765625 214.046875 127.5625 213.839844 C 127.359375 213.636719 127.179688 213.414062 127.019531 213.175781 C 126.859375 212.933594 126.722656 212.679688 126.613281 212.414062 C 126.503906 212.148438 126.421875 211.875 126.367188 211.589844 C 126.308594 211.308594 126.28125 211.023438 126.285156 210.734375 C 126.285156 210.445312 126.3125 210.160156 126.371094 209.878906 C 129.039062 196.707031 135.425781 189.097656 141.0625 182.367188 C 146.453125 175.929688 151.261719 170.207031 153.023438 160.125 C 149.015625 162.019531 144.792969 162.960938 140.355469 162.953125 L 134.214844 162.953125 C 133.59375 162.949219 133.066406 163.167969 132.628906 163.609375 C 132.015625 164.222656 131.34375 164.773438 130.621094 165.253906 C 129.894531 165.738281 129.128906 166.144531 128.324219 166.476562 C 127.519531 166.808594 126.691406 167.0625 125.835938 167.230469 C 124.980469 167.398438 124.117188 167.484375 123.246094 167.484375 C 122.375 167.484375 121.511719 167.402344 120.65625 167.230469 C 119.800781 167.0625 118.972656 166.8125 118.167969 166.480469 C 117.363281 166.148438 116.597656 165.738281 115.871094 165.257812 C 115.148438 164.773438 114.476562 164.226562 113.859375 163.609375 C 113.242188 162.996094 112.691406 162.328125 112.207031 161.605469 C 111.722656 160.882812 111.316406 160.121094 110.980469 159.320312 C 110.648438 158.515625 110.394531 157.6875 110.222656 156.835938 C 110.054688 155.984375 109.96875 155.125 109.96875 154.253906 C 109.96875 153.386719 110.050781 152.523438 110.222656 151.671875 C 110.390625 150.820312 110.640625 149.992188 110.972656 149.1875 C 111.308594 148.386719 111.714844 147.621094 112.199219 146.898438 C 112.683594 146.175781 113.234375 145.507812 113.847656 144.894531 L 117.371094 141.382812 C 120.269531 138.496094 122.507812 135.167969 124.082031 131.394531 C 127.992188 122.066406 134.648438 116.226562 138.773438 113.3125 L 138.773438 100.324219 C 138.773438 100.035156 138.800781 99.75 138.859375 99.46875 C 138.914062 99.183594 138.996094 98.910156 139.109375 98.644531 C 139.21875 98.378906 139.355469 98.125 139.515625 97.882812 C 139.675781 97.644531 139.859375 97.421875 140.0625 97.21875 C 140.265625 97.015625 140.488281 96.832031 140.730469 96.671875 C 140.96875 96.511719 141.222656 96.378906 141.492188 96.269531 C 141.757812 96.15625 142.03125 96.074219 142.316406 96.019531 C 142.601562 95.960938 142.886719 95.933594 143.175781 95.933594 C 143.945312 95.933594 161.292969 96.101562 168.484375 109.871094 C 170.433594 110.347656 172.324219 110.984375 174.164062 111.78125 C 180.246094 114.601562 184.871094 118.761719 187.921875 124.152344 C 188.0625 124.402344 188.179688 124.664062 188.269531 124.9375 C 188.359375 125.214844 188.421875 125.492188 188.457031 125.777344 C 188.492188 126.066406 188.5 126.351562 188.476562 126.640625 C 188.453125 126.925781 188.40625 127.210938 188.328125 127.488281 C 188.25 127.765625 188.144531 128.03125 188.015625 128.289062 C 187.882812 128.546875 187.730469 128.789062 187.550781 129.015625 C 187.375 129.242188 187.175781 129.449219 186.957031 129.636719 C 186.738281 129.824219 186.5 129.988281 186.25 130.132812 C 185.996094 130.273438 185.734375 130.386719 185.460938 130.476562 C 185.183594 130.566406 184.902344 130.628906 184.617188 130.664062 C 184.332031 130.699219 184.042969 130.707031 183.753906 130.683594 C 183.464844 130.660156 183.183594 130.613281 182.90625 130.535156 C 182.625 130.457031 182.359375 130.355469 182.101562 130.222656 C 181.84375 130.09375 181.601562 129.941406 181.371094 129.761719 C 181.144531 129.585938 180.9375 129.386719 180.75 129.167969 C 180.558594 128.949219 180.394531 128.714844 180.253906 128.460938 C 178.128906 124.707031 174.832031 121.765625 170.460938 119.726562 C 169.785156 119.410156 168.097656 118.753906 164.398438 117.890625 C 163.703125 117.726562 163.082031 117.410156 162.539062 116.945312 C 161.996094 116.480469 161.589844 115.917969 161.324219 115.253906 C 158.644531 108.660156 152.058594 106.183594 147.605469 105.25 L 147.605469 115.65625 C 147.605469 116.417969 147.417969 117.132812 147.042969 117.800781 C 146.671875 118.464844 146.15625 119 145.503906 119.398438 C 139.753906 122.910156 134.792969 128.660156 132.230469 134.769531 C 130.210938 139.605469 127.339844 143.875 123.621094 147.578125 L 120.097656 151.089844 C 119.886719 151.292969 119.691406 151.519531 119.523438 151.761719 C 119.355469 152.003906 119.210938 152.261719 119.09375 152.535156 C 118.972656 152.804688 118.882812 153.085938 118.820312 153.375 C 118.761719 153.664062 118.726562 153.957031 118.722656 154.253906 C 118.722656 154.550781 118.746094 154.84375 118.800781 155.136719 C 118.859375 155.425781 118.941406 155.710938 119.054688 155.984375 C 119.164062 156.257812 119.304688 156.519531 119.46875 156.765625 C 119.632812 157.011719 119.820312 157.242188 120.03125 157.449219 C 120.238281 157.660156 120.46875 157.847656 120.714844 158.011719 C 120.960938 158.175781 121.222656 158.3125 121.5 158.425781 C 121.773438 158.539062 122.054688 158.621094 122.347656 158.679688 C 122.640625 158.734375 122.933594 158.761719 123.230469 158.757812 C 123.527344 158.753906 123.820312 158.722656 124.113281 158.660156 C 124.402344 158.601562 124.683594 158.511719 124.957031 158.394531 C 125.230469 158.277344 125.488281 158.132812 125.734375 157.964844 C 125.976562 157.796875 126.203125 157.605469 126.410156 157.390625 C 127.441406 156.359375 128.636719 155.5625 129.988281 155.003906 C 131.34375 154.445312 132.75 154.167969 134.214844 154.171875 L 140.351562 154.171875 C 141.714844 154.175781 143.066406 154.046875 144.402344 153.78125 C 145.742188 153.515625 147.039062 153.125 148.296875 152.605469 C 149.558594 152.082031 150.753906 151.445312 151.886719 150.6875 C 153.019531 149.929688 154.066406 149.070312 155.027344 148.105469 C 155.332031 147.800781 155.679688 147.542969 156.0625 147.339844 C 156.449219 147.132812 156.851562 146.988281 157.28125 146.902344 C 157.707031 146.820312 158.136719 146.796875 158.570312 146.839844 C 159.003906 146.882812 159.421875 146.988281 159.824219 147.152344 C 160.226562 147.320312 160.597656 147.539062 160.933594 147.816406 C 161.269531 148.09375 161.558594 148.410156 161.800781 148.773438 C 162.042969 149.132812 162.226562 149.519531 162.351562 149.9375 C 162.480469 150.351562 162.542969 150.777344 162.542969 151.210938 C 162.542969 170.4375 155.054688 179.367188 147.816406 188 C 142.367188 194.5 137.222656 200.632812 135 211.621094 C 134.898438 212.117188 134.714844 212.582031 134.453125 213.015625 C 134.191406 213.449219 133.867188 213.824219 133.472656 214.144531 C 133.082031 214.464844 132.648438 214.710938 132.167969 214.878906 C 131.691406 215.050781 131.199219 215.136719 130.695312 215.136719 Z M 130.695312 215.136719 " fill-opacity="1" fill-rule="nonzero"/></g><path fill="#000000" d="M 156.8125 248.851562 L 129.464844 248.851562 C 128.65625 248.851562 127.851562 248.769531 127.058594 248.609375 C 126.265625 248.449219 125.496094 248.214844 124.75 247.90625 C 124 247.597656 123.292969 247.214844 122.617188 246.769531 C 121.945312 246.320312 121.324219 245.808594 120.753906 245.238281 C 120.179688 244.667969 119.667969 244.046875 119.21875 243.375 C 118.769531 242.703125 118.390625 241.996094 118.082031 241.25 C 117.769531 240.503906 117.535156 239.734375 117.378906 238.945312 C 117.21875 238.152344 117.140625 237.351562 117.136719 236.546875 L 117.136719 232.070312 C 117.140625 231.261719 117.21875 230.464844 117.378906 229.671875 C 117.535156 228.878906 117.769531 228.109375 118.082031 227.363281 C 118.390625 226.617188 118.773438 225.910156 119.222656 225.238281 C 119.671875 224.566406 120.183594 223.945312 120.757812 223.375 C 121.328125 222.800781 121.953125 222.292969 122.625 221.84375 C 123.300781 221.394531 124.011719 221.015625 124.757812 220.707031 C 125.507812 220.394531 126.277344 220.160156 127.070312 220.003906 C 127.867188 219.84375 128.667969 219.765625 129.480469 219.765625 L 169.484375 219.765625 C 169.773438 219.765625 170.058594 219.792969 170.339844 219.847656 C 170.625 219.90625 170.898438 219.988281 171.167969 220.097656 C 171.433594 220.207031 171.6875 220.34375 171.929688 220.503906 C 172.167969 220.664062 172.390625 220.847656 172.59375 221.050781 C 172.800781 221.253906 172.984375 221.476562 173.144531 221.714844 C 173.304688 221.957031 173.4375 222.207031 173.550781 222.472656 C 173.660156 222.742188 173.742188 223.015625 173.800781 223.296875 C 173.855469 223.582031 173.886719 223.867188 173.886719 224.15625 C 173.886719 224.441406 173.855469 224.726562 173.800781 225.011719 C 173.742188 225.292969 173.660156 225.566406 173.550781 225.835938 C 173.4375 226.101562 173.304688 226.355469 173.144531 226.59375 C 172.984375 226.832031 172.800781 227.054688 172.59375 227.257812 C 172.390625 227.460938 172.167969 227.644531 171.929688 227.804688 C 171.6875 227.964844 171.433594 228.101562 171.167969 228.210938 C 170.898438 228.320312 170.625 228.402344 170.339844 228.460938 C 170.058594 228.515625 169.773438 228.542969 169.484375 228.542969 L 129.464844 228.542969 C 128.996094 228.546875 128.546875 228.636719 128.117188 228.820312 C 127.683594 229 127.304688 229.253906 126.976562 229.585938 C 126.644531 229.914062 126.390625 230.292969 126.210938 230.726562 C 126.03125 231.15625 125.941406 231.605469 125.941406 232.070312 L 125.941406 236.546875 C 125.941406 237.011719 126.03125 237.460938 126.210938 237.890625 C 126.390625 238.320312 126.644531 238.703125 126.976562 239.03125 C 127.304688 239.363281 127.683594 239.617188 128.117188 239.796875 C 128.546875 239.976562 128.996094 240.070312 129.464844 240.070312 L 156.8125 240.070312 C 157.101562 240.070312 157.386719 240.101562 157.671875 240.15625 C 157.957031 240.210938 158.230469 240.296875 158.496094 240.40625 C 158.765625 240.515625 159.019531 240.652344 159.257812 240.8125 C 159.5 240.972656 159.722656 241.152344 159.925781 241.359375 C 160.128906 241.5625 160.3125 241.785156 160.472656 242.023438 C 160.632812 242.261719 160.769531 242.515625 160.878906 242.78125 C 160.992188 243.046875 161.074219 243.324219 161.132812 243.605469 C 161.1875 243.886719 161.214844 244.175781 161.214844 244.460938 C 161.214844 244.75 161.1875 245.035156 161.132812 245.320312 C 161.074219 245.601562 160.992188 245.875 160.878906 246.140625 C 160.769531 246.410156 160.632812 246.660156 160.472656 246.902344 C 160.3125 247.140625 160.128906 247.363281 159.925781 247.566406 C 159.722656 247.769531 159.5 247.953125 159.257812 248.113281 C 159.019531 248.273438 158.765625 248.40625 158.496094 248.519531 C 158.230469 248.628906 157.957031 248.710938 157.671875 248.769531 C 157.386719 248.824219 157.101562 248.851562 156.8125 248.851562 Z M 156.8125 248.851562 " fill-opacity="1" fill-rule="nonzero"/><g clip-path="url(#10af4a9983)"><path fill="#000000" d="M 252.894531 269.15625 L 180.136719 269.15625 C 179.324219 269.15625 178.523438 269.078125 177.730469 268.917969 C 176.933594 268.761719 176.164062 268.527344 175.414062 268.21875 C 174.667969 267.90625 173.957031 267.527344 173.28125 267.078125 C 172.609375 266.628906 171.984375 266.121094 171.414062 265.550781 C 170.839844 264.976562 170.328125 264.355469 169.878906 263.683594 C 169.429688 263.011719 169.046875 262.304688 168.738281 261.558594 C 168.425781 260.8125 168.191406 260.042969 168.035156 259.25 C 167.875 258.457031 167.796875 257.660156 167.796875 256.851562 L 167.796875 252.378906 C 167.796875 251.570312 167.875 250.769531 168.035156 249.980469 C 168.191406 249.1875 168.425781 248.417969 168.738281 247.671875 C 169.046875 246.925781 169.429688 246.214844 169.878906 245.542969 C 170.328125 244.871094 170.839844 244.25 171.414062 243.679688 C 171.984375 243.109375 172.609375 242.597656 173.28125 242.148438 C 173.957031 241.699219 174.667969 241.320312 175.414062 241.011719 C 176.164062 240.703125 176.933594 240.46875 177.730469 240.3125 C 178.523438 240.152344 179.324219 240.074219 180.136719 240.070312 L 252.894531 240.070312 C 253.707031 240.074219 254.507812 240.152344 255.300781 240.3125 C 256.097656 240.46875 256.867188 240.703125 257.617188 241.011719 C 258.363281 241.320312 259.074219 241.699219 259.75 242.148438 C 260.421875 242.597656 261.046875 243.109375 261.617188 243.679688 C 262.191406 244.25 262.703125 244.871094 263.152344 245.542969 C 263.601562 246.214844 263.984375 246.925781 264.292969 247.671875 C 264.605469 248.417969 264.839844 249.1875 264.996094 249.980469 C 265.15625 250.769531 265.234375 251.570312 265.234375 252.378906 L 265.234375 256.851562 C 265.234375 257.660156 265.15625 258.457031 264.996094 259.25 C 264.839844 260.042969 264.605469 260.8125 264.292969 261.558594 C 263.984375 262.304688 263.601562 263.011719 263.152344 263.683594 C 262.703125 264.355469 262.191406 264.976562 261.617188 265.550781 C 261.046875 266.121094 260.421875 266.628906 259.75 267.078125 C 259.074219 267.527344 258.363281 267.90625 257.617188 268.21875 C 256.867188 268.527344 256.097656 268.761719 255.300781 268.917969 C 254.507812 269.078125 253.707031 269.15625 252.894531 269.15625 Z M 180.136719 248.851562 C 179.667969 248.851562 179.214844 248.941406 178.78125 249.121094 C 178.351562 249.300781 177.96875 249.554688 177.636719 249.886719 C 177.304688 250.214844 177.050781 250.597656 176.871094 251.03125 C 176.691406 251.460938 176.601562 251.910156 176.601562 252.378906 L 176.601562 256.851562 C 176.601562 257.316406 176.691406 257.769531 176.871094 258.199219 C 177.050781 258.632812 177.304688 259.011719 177.636719 259.34375 C 177.96875 259.675781 178.351562 259.929688 178.78125 260.109375 C 179.214844 260.285156 179.667969 260.375 180.136719 260.378906 L 252.894531 260.378906 C 253.363281 260.375 253.816406 260.285156 254.246094 260.109375 C 254.679688 259.929688 255.0625 259.675781 255.394531 259.34375 C 255.726562 259.011719 255.980469 258.632812 256.160156 258.199219 C 256.339844 257.769531 256.429688 257.316406 256.429688 256.851562 L 256.429688 252.378906 C 256.429688 251.910156 256.339844 251.460938 256.160156 251.03125 C 255.980469 250.597656 255.726562 250.214844 255.394531 249.886719 C 255.0625 249.554688 254.679688 249.300781 254.246094 249.121094 C 253.816406 248.941406 253.363281 248.851562 252.894531 248.851562 Z M 180.136719 248.851562 " fill-opacity="1" fill-rule="nonzero"/></g><path fill="#000000" d="M 236.382812 178.261719 L 196.648438 178.261719 C 195.792969 178.25 194.949219 178.15625 194.113281 177.976562 C 193.277344 177.800781 192.464844 177.542969 191.679688 177.210938 C 190.894531 176.875 190.148438 176.46875 189.445312 175.988281 C 188.738281 175.507812 188.085938 174.964844 187.484375 174.355469 C 186.886719 173.75 186.351562 173.089844 185.878906 172.378906 C 185.410156 171.667969 185.011719 170.921875 184.6875 170.132812 C 184.363281 169.34375 184.121094 168.53125 183.953125 167.695312 C 183.789062 166.859375 183.707031 166.015625 183.707031 165.164062 C 183.707031 164.3125 183.789062 163.46875 183.953125 162.632812 C 184.121094 161.796875 184.363281 160.984375 184.6875 160.195312 C 185.011719 159.40625 185.410156 158.660156 185.878906 157.949219 C 186.351562 157.238281 186.886719 156.578125 187.484375 155.972656 C 188.085938 155.363281 188.738281 154.820312 189.445312 154.339844 C 190.148438 153.859375 190.894531 153.453125 191.679688 153.117188 C 192.464844 152.785156 193.277344 152.527344 194.113281 152.351562 C 194.949219 152.171875 195.792969 152.078125 196.648438 152.066406 L 236.382812 152.066406 C 237.238281 152.078125 238.082031 152.171875 238.917969 152.351562 C 239.753906 152.527344 240.566406 152.785156 241.351562 153.117188 C 242.136719 153.453125 242.882812 153.859375 243.585938 154.339844 C 244.292969 154.820312 244.945312 155.363281 245.546875 155.972656 C 246.144531 156.578125 246.679688 157.238281 247.152344 157.949219 C 247.621094 158.660156 248.019531 159.40625 248.34375 160.195312 C 248.667969 160.984375 248.910156 161.796875 249.078125 162.632812 C 249.242188 163.46875 249.324219 164.3125 249.324219 165.164062 C 249.324219 166.015625 249.242188 166.859375 249.078125 167.695312 C 248.910156 168.53125 248.667969 169.34375 248.34375 170.132812 C 248.019531 170.921875 247.621094 171.667969 247.152344 172.378906 C 246.679688 173.089844 246.144531 173.75 245.546875 174.355469 C 244.945312 174.964844 244.292969 175.507812 243.585938 175.988281 C 242.882812 176.46875 242.136719 176.875 241.351562 177.210938 C 240.566406 177.542969 239.753906 177.800781 238.917969 177.976562 C 238.082031 178.15625 237.238281 178.25 236.382812 178.261719 Z M 196.648438 160.847656 C 196.367188 160.851562 196.089844 160.886719 195.816406 160.949219 C 195.546875 161.007812 195.28125 161.09375 195.023438 161.207031 C 194.769531 161.316406 194.523438 161.453125 194.296875 161.613281 C 194.066406 161.769531 193.851562 161.949219 193.65625 162.148438 C 193.460938 162.347656 193.289062 162.566406 193.136719 162.800781 C 192.980469 163.03125 192.851562 163.277344 192.746094 163.535156 C 192.640625 163.796875 192.5625 164.0625 192.507812 164.335938 C 192.453125 164.609375 192.429688 164.886719 192.429688 165.164062 C 192.429688 165.441406 192.453125 165.71875 192.507812 165.992188 C 192.5625 166.265625 192.640625 166.53125 192.746094 166.792969 C 192.851562 167.050781 192.980469 167.296875 193.136719 167.527344 C 193.289062 167.761719 193.460938 167.980469 193.65625 168.179688 C 193.851562 168.378906 194.066406 168.558594 194.296875 168.714844 C 194.523438 168.875 194.769531 169.011719 195.023438 169.121094 C 195.28125 169.234375 195.546875 169.320312 195.816406 169.378906 C 196.089844 169.441406 196.367188 169.476562 196.648438 169.480469 L 236.382812 169.480469 C 236.664062 169.476562 236.941406 169.441406 237.214844 169.378906 C 237.484375 169.320312 237.75 169.234375 238.007812 169.121094 C 238.261719 169.011719 238.507812 168.875 238.734375 168.714844 C 238.964844 168.558594 239.179688 168.378906 239.375 168.179688 C 239.570312 167.980469 239.742188 167.761719 239.894531 167.527344 C 240.050781 167.296875 240.179688 167.050781 240.285156 166.792969 C 240.390625 166.53125 240.46875 166.265625 240.523438 165.992188 C 240.578125 165.71875 240.601562 165.441406 240.601562 165.164062 C 240.601562 164.886719 240.578125 164.609375 240.523438 164.335938 C 240.46875 164.0625 240.390625 163.796875 240.285156 163.535156 C 240.179688 163.277344 240.050781 163.03125 239.894531 162.800781 C 239.742188 162.566406 239.570312 162.347656 239.375 162.148438 C 239.179688 161.949219 238.964844 161.769531 238.734375 161.613281 C 238.507812 161.453125 238.261719 161.316406 238.007812 161.207031 C 237.75 161.09375 237.484375 161.007812 237.214844 160.949219 C 236.941406 160.886719 236.664062 160.851562 236.382812 160.847656 Z M 196.648438 160.847656 " fill-opacity="1" fill-rule="nonzero"/><path fill="#000000" d="M 216.515625 160.847656 C 215.78125 160.847656 215.050781 160.808594 214.324219 160.738281 C 213.59375 160.667969 212.871094 160.558594 212.152344 160.417969 C 211.433594 160.273438 210.722656 160.097656 210.023438 159.886719 C 209.320312 159.671875 208.632812 159.425781 207.957031 159.148438 C 207.277344 158.867188 206.617188 158.554688 205.972656 158.210938 C 205.324219 157.867188 204.695312 157.492188 204.089844 157.085938 C 203.480469 156.679688 202.890625 156.246094 202.324219 155.78125 C 201.757812 155.320312 201.214844 154.828125 200.699219 154.3125 C 200.179688 153.796875 199.6875 153.253906 199.222656 152.691406 C 198.757812 152.125 198.324219 151.539062 197.917969 150.933594 C 197.507812 150.324219 197.132812 149.699219 196.789062 149.054688 C 196.441406 148.410156 196.128906 147.75 195.847656 147.074219 C 195.570312 146.402344 195.324219 145.714844 195.109375 145.015625 C 194.898438 144.316406 194.71875 143.609375 194.578125 142.890625 C 194.433594 142.175781 194.328125 141.453125 194.253906 140.726562 C 194.183594 140 194.148438 139.269531 194.148438 138.539062 C 194.148438 137.808594 194.183594 137.078125 194.253906 136.351562 C 194.328125 135.625 194.433594 134.902344 194.578125 134.1875 C 194.71875 133.472656 194.898438 132.761719 195.109375 132.0625 C 195.324219 131.363281 195.570312 130.679688 195.847656 130.003906 C 196.128906 129.328125 196.441406 128.667969 196.789062 128.023438 C 197.132812 127.378906 197.507812 126.753906 197.917969 126.144531 C 198.324219 125.539062 198.757812 124.953125 199.222656 124.386719 C 199.6875 123.824219 200.179688 123.28125 200.699219 122.765625 C 201.214844 122.25 201.757812 121.757812 202.324219 121.296875 C 202.890625 120.832031 203.480469 120.398438 204.089844 119.992188 C 204.695312 119.585938 205.324219 119.210938 205.972656 118.867188 C 206.617188 118.523438 207.277344 118.210938 207.957031 117.929688 C 208.632812 117.652344 209.320312 117.40625 210.023438 117.191406 C 210.722656 116.980469 211.433594 116.804688 212.152344 116.660156 C 212.871094 116.519531 213.59375 116.410156 214.324219 116.339844 C 215.050781 116.269531 215.78125 116.234375 216.515625 116.234375 C 217.25 116.234375 217.980469 116.269531 218.707031 116.339844 C 219.4375 116.410156 220.160156 116.519531 220.878906 116.660156 C 221.597656 116.804688 222.308594 116.980469 223.007812 117.191406 C 223.710938 117.40625 224.398438 117.652344 225.074219 117.929688 C 225.753906 118.210938 226.414062 118.523438 227.058594 118.867188 C 227.707031 119.210938 228.332031 119.585938 228.941406 119.992188 C 229.550781 120.398438 230.140625 120.832031 230.707031 121.296875 C 231.273438 121.757812 231.816406 122.25 232.332031 122.765625 C 232.851562 123.28125 233.34375 123.824219 233.808594 124.386719 C 234.273438 124.953125 234.707031 125.539062 235.113281 126.144531 C 235.523438 126.753906 235.898438 127.378906 236.242188 128.023438 C 236.589844 128.667969 236.902344 129.328125 237.183594 130.003906 C 237.460938 130.679688 237.707031 131.363281 237.921875 132.0625 C 238.132812 132.761719 238.3125 133.472656 238.453125 134.1875 C 238.597656 134.902344 238.703125 135.625 238.777344 136.351562 C 238.847656 137.078125 238.882812 137.808594 238.882812 138.539062 C 238.882812 139.269531 238.847656 140 238.773438 140.726562 C 238.703125 141.453125 238.59375 142.171875 238.449219 142.890625 C 238.308594 143.605469 238.128906 144.3125 237.917969 145.011719 C 237.703125 145.710938 237.457031 146.398438 237.175781 147.070312 C 236.894531 147.746094 236.582031 148.40625 236.238281 149.050781 C 235.890625 149.695312 235.515625 150.320312 235.109375 150.925781 C 234.699219 151.535156 234.265625 152.121094 233.800781 152.683594 C 233.335938 153.25 232.84375 153.789062 232.324219 154.304688 C 231.808594 154.820312 231.265625 155.3125 230.699219 155.773438 C 230.132812 156.238281 229.546875 156.671875 228.9375 157.078125 C 228.328125 157.484375 227.703125 157.859375 227.054688 158.203125 C 226.410156 158.550781 225.75 158.863281 225.070312 159.140625 C 224.394531 159.421875 223.707031 159.667969 223.007812 159.878906 C 222.304688 160.09375 221.597656 160.269531 220.878906 160.414062 C 220.160156 160.554688 219.4375 160.664062 218.707031 160.738281 C 217.980469 160.808594 217.246094 160.84375 216.515625 160.847656 Z M 216.515625 125.011719 C 215.625 125.011719 214.742188 125.097656 213.871094 125.273438 C 212.996094 125.445312 212.148438 125.703125 211.324219 126.042969 C 210.5 126.382812 209.71875 126.796875 208.980469 127.292969 C 208.238281 127.785156 207.554688 128.347656 206.925781 128.972656 C 206.292969 129.601562 205.730469 130.285156 205.238281 131.023438 C 204.742188 131.761719 204.324219 132.542969 203.984375 133.363281 C 203.644531 134.183594 203.386719 135.027344 203.210938 135.898438 C 203.039062 136.769531 202.949219 137.652344 202.949219 138.539062 C 202.949219 139.425781 203.039062 140.308594 203.210938 141.179688 C 203.386719 142.050781 203.644531 142.894531 203.984375 143.714844 C 204.324219 144.535156 204.742188 145.316406 205.238281 146.054688 C 205.730469 146.792969 206.292969 147.476562 206.925781 148.105469 C 207.554688 148.730469 208.238281 149.292969 208.980469 149.785156 C 209.71875 150.28125 210.5 150.695312 211.324219 151.035156 C 212.148438 151.375 212.996094 151.632812 213.871094 151.804688 C 214.742188 151.980469 215.625 152.066406 216.515625 152.066406 C 217.40625 152.066406 218.289062 151.980469 219.160156 151.804688 C 220.035156 151.632812 220.882812 151.375 221.707031 151.035156 C 222.53125 150.695312 223.3125 150.28125 224.050781 149.785156 C 224.792969 149.292969 225.476562 148.730469 226.105469 148.105469 C 226.738281 147.476562 227.300781 146.792969 227.792969 146.054688 C 228.289062 145.316406 228.707031 144.535156 229.046875 143.714844 C 229.386719 142.894531 229.644531 142.050781 229.820312 141.179688 C 229.992188 140.308594 230.082031 139.425781 230.082031 138.539062 C 230.078125 137.652344 229.992188 136.773438 229.816406 135.902344 C 229.644531 135.03125 229.386719 134.183594 229.042969 133.363281 C 228.703125 132.542969 228.285156 131.765625 227.789062 131.027344 C 227.292969 130.289062 226.734375 129.605469 226.101562 128.980469 C 225.472656 128.351562 224.789062 127.789062 224.046875 127.296875 C 223.308594 126.804688 222.527344 126.386719 221.703125 126.046875 C 220.882812 125.707031 220.035156 125.449219 219.160156 125.273438 C 218.289062 125.101562 217.40625 125.011719 216.515625 125.011719 Z M 216.515625 125.011719 " fill-opacity="1" fill-rule="nonzero"/><path fill="#000000" d="M 183.390625 248.851562 C 183.101562 248.851562 182.816406 248.824219 182.53125 248.769531 C 182.25 248.710938 181.972656 248.628906 181.707031 248.519531 C 181.4375 248.40625 181.183594 248.273438 180.945312 248.113281 C 180.703125 247.953125 180.480469 247.769531 180.277344 247.566406 C 180.074219 247.363281 179.890625 247.140625 179.730469 246.902344 C 179.570312 246.660156 179.433594 246.410156 179.324219 246.140625 C 179.214844 245.875 179.128906 245.601562 179.074219 245.320312 C 179.015625 245.035156 178.988281 244.75 178.988281 244.460938 L 178.988281 243.789062 C 178.992188 240.753906 179.230469 237.738281 179.703125 234.738281 C 180.179688 231.742188 180.882812 228.796875 181.8125 225.910156 C 182.746094 223.019531 183.898438 220.222656 185.265625 217.511719 C 186.632812 214.800781 188.203125 212.210938 189.976562 209.742188 L 190.351562 209.214844 C 195.847656 201.527344 201.003906 194.269531 201.003906 173.871094 C 201.003906 173.582031 201.035156 173.296875 201.089844 173.015625 C 201.144531 172.734375 201.230469 172.457031 201.339844 172.191406 C 201.449219 171.925781 201.585938 171.671875 201.746094 171.433594 C 201.90625 171.195312 202.089844 170.972656 202.292969 170.769531 C 202.5 170.5625 202.722656 170.382812 202.960938 170.222656 C 203.203125 170.0625 203.457031 169.925781 203.722656 169.816406 C 203.988281 169.707031 204.265625 169.621094 204.546875 169.566406 C 204.832031 169.511719 205.117188 169.480469 205.40625 169.480469 C 205.695312 169.480469 205.984375 169.511719 206.265625 169.566406 C 206.550781 169.621094 206.824219 169.707031 207.09375 169.816406 C 207.359375 169.925781 207.613281 170.0625 207.851562 170.222656 C 208.09375 170.382812 208.316406 170.5625 208.519531 170.769531 C 208.726562 170.972656 208.90625 171.195312 209.066406 171.433594 C 209.226562 171.671875 209.363281 171.925781 209.472656 172.191406 C 209.585938 172.457031 209.667969 172.734375 209.726562 173.015625 C 209.78125 173.296875 209.808594 173.582031 209.808594 173.871094 C 209.808594 197.070312 203.289062 206.222656 197.535156 214.296875 L 197.164062 214.820312 C 194.125 219.046875 191.808594 223.628906 190.207031 228.578125 C 188.605469 233.523438 187.800781 238.597656 187.792969 243.792969 L 187.792969 244.46875 C 187.792969 244.757812 187.765625 245.042969 187.707031 245.324219 C 187.652344 245.605469 187.566406 245.878906 187.457031 246.144531 C 187.34375 246.414062 187.210938 246.664062 187.050781 246.902344 C 186.886719 247.144531 186.707031 247.363281 186.5 247.570312 C 186.296875 247.773438 186.074219 247.953125 185.835938 248.113281 C 185.59375 248.273438 185.339844 248.410156 185.074219 248.519531 C 184.808594 248.628906 184.53125 248.710938 184.25 248.769531 C 183.964844 248.824219 183.679688 248.851562 183.390625 248.851562 Z M 183.390625 248.851562 " fill-opacity="1" fill-rule="nonzero"/><path fill="#000000" d="M 249.640625 248.851562 C 249.351562 248.851562 249.066406 248.824219 248.78125 248.769531 C 248.5 248.710938 248.222656 248.628906 247.957031 248.519531 C 247.6875 248.40625 247.433594 248.273438 247.195312 248.113281 C 246.953125 247.953125 246.730469 247.769531 246.527344 247.566406 C 246.324219 247.363281 246.140625 247.140625 245.980469 246.902344 C 245.820312 246.660156 245.683594 246.410156 245.574219 246.140625 C 245.460938 245.875 245.378906 245.601562 245.324219 245.320312 C 245.265625 245.035156 245.238281 244.75 245.238281 244.460938 L 245.238281 243.789062 C 245.230469 238.589844 244.425781 233.519531 242.824219 228.570312 C 241.222656 223.625 238.90625 219.039062 235.867188 214.816406 L 235.496094 214.292969 C 229.742188 206.21875 223.222656 197.0625 223.222656 173.867188 C 223.222656 173.578125 223.25 173.292969 223.304688 173.011719 C 223.363281 172.726562 223.445312 172.453125 223.558594 172.1875 C 223.667969 171.921875 223.804688 171.667969 223.964844 171.425781 C 224.125 171.1875 224.304688 170.964844 224.511719 170.761719 C 224.714844 170.558594 224.9375 170.375 225.179688 170.214844 C 225.417969 170.054688 225.671875 169.921875 225.9375 169.8125 C 226.207031 169.699219 226.480469 169.617188 226.765625 169.5625 C 227.046875 169.503906 227.335938 169.476562 227.625 169.476562 C 227.914062 169.476562 228.199219 169.503906 228.484375 169.5625 C 228.765625 169.617188 229.042969 169.699219 229.308594 169.8125 C 229.574219 169.921875 229.828125 170.054688 230.070312 170.214844 C 230.308594 170.375 230.53125 170.558594 230.738281 170.761719 C 230.941406 170.964844 231.125 171.1875 231.285156 171.425781 C 231.445312 171.667969 231.582031 171.921875 231.691406 172.1875 C 231.800781 172.453125 231.886719 172.726562 231.941406 173.011719 C 231.996094 173.292969 232.027344 173.578125 232.027344 173.867188 C 232.027344 194.261719 237.195312 201.523438 242.671875 209.207031 L 243.050781 209.738281 C 244.820312 212.207031 246.394531 214.792969 247.761719 217.503906 C 249.132812 220.214844 250.28125 223.015625 251.214844 225.90625 C 252.148438 228.796875 252.851562 231.738281 253.324219 234.738281 C 253.800781 237.738281 254.039062 240.753906 254.042969 243.789062 L 254.042969 244.460938 C 254.042969 244.75 254.015625 245.035156 253.957031 245.320312 C 253.902344 245.601562 253.816406 245.875 253.707031 246.140625 C 253.597656 246.410156 253.460938 246.660156 253.300781 246.902344 C 253.140625 247.140625 252.957031 247.363281 252.753906 247.566406 C 252.550781 247.769531 252.328125 247.953125 252.085938 248.113281 C 251.847656 248.273438 251.59375 248.40625 251.324219 248.519531 C 251.058594 248.628906 250.78125 248.710938 250.5 248.769531 C 250.214844 248.824219 249.929688 248.851562 249.640625 248.851562 Z M 249.640625 248.851562 " fill-opacity="1" fill-rule="nonzero"/></svg>