<svg xmlns="http://www.w3.org/2000/svg" width="164.766" height="157.919" viewBox="0 0 164.766 157.919">
  <g id="Group_21" data-name="Group 21" transform="translate(-0.059 -0.938)">
    <path id="Shadow" d="M47.245,36.653c2.218,0,17.333,6.482,15.129,11.591,1.2-2.334,2.026-6.011,2.026-11.591,0-7.472-4-10.346-5.718-20.117-1.372-7.817,4-10.154,6.862-10.346,0-7.472,12.581-2.874,22.3-4.6s12.009,12.07,12.009,19.542-.572,22.991,0,20.692,11.437-5.173,20.586-5.173,24.017,2.3,35.454,10.921S163.9,66.541,163.9,76.312,147.889,108.5,144.458,108.5s-9.149,21.841-5.718,28.164c2.744,5.058,1.143,12.07,0,14.944-8.578,8.047-27.449,4.023-50.894,6.322s-61.759-6.9-59.472-14.369S20.94,111.373,20.94,108.5,7.788,88.957,2.641,81.485s0-24.14,9.149-37.36S44.957,36.653,47.245,36.653Z" stroke="#000" stroke-width="1"/>
    <path id="Path_951" data-name="Path 951" d="M81.078,83c.735-4.181,1.676-8.34,2.249-12.58,2.389-17.464,19.568-40.959,45.855-37.954,12.79,1.48,27.433,15.4,24.78,30.895C151.632,77,145.576,87.941,136.4,97.642c-1.36,1.428-2.544,3.027-3.91,4.44-1.088,1.132-2.661,2.309-4.043,1.539-1.919-1.073-3.381-2.76-4.741.5a1.908,1.908,0,0,1-1.764.266c-3.675-3.241-8.476-1.043-12.842-3.323-.537-2.323.735-5.18.985-8.673-3.484,1.125-5.726,3.6-6.226,5.92-.735,3.4-2.11,3.249-4.808,3.145q-14.746-.57-29.5-.5c-3.9,0-7.8.858-11.7,1.184-1.169.1-2.815.4-2.624-1.791.346-4.018-3.352-4.44-5.748-7.4-.529,4.151-1.47,7.23,2.558,9.331-4.874.252-9.174,3.7-13.923.873-1.25-.74-2.205-.511-2.205.947-.044,2.042-2.992,2.013-2.624,4.6,4.411,2.864,9.5,1.687,14.268,1.132,13.379-1.547,26.758-2.916,40.225-1.961,2.874.207,5.609-.414,8.417-.474,8.821-.185,17.15,3.374,25.971,2.96,2.161-.111,4.366.592,6.219-1.029.956-.844,1.771-2.361,3.212-1.251,1.331,1.021,1.376,2.767.942,4.27-.735,2.442-1.986,4.44-1.787,7.4a78.412,78.412,0,0,0,1.177,10.863c.962,4.678-1.677,8.14-6.286,8.836-14.871,2.309-29.845,4.129-44.841,3.263-10.372-.607-20.862-.393-31.139-2.856-3.947-.947-8.218-.192-12.21-1.695-5.491-2.072-6.2-2.686-5.8-8.62.316-4.7-1.117-9.154-1.257-13.772-.088-2.8-.4-5.557-.4-8.377a14.673,14.673,0,0,0-3.529-9.561A101.339,101.339,0,0,1,12.42,77.3C7.355,67.332,5.3,56.58,10.729,45.739a26.742,26.742,0,0,1,29.059-14.1A38.358,38.358,0,0,1,59.216,41.95c8.821,8.31,14.7,18.241,16.363,30.5.522,3.885,2.757,7.119,4.168,10.663ZM68.309,86.749c-3.9,0-5.668-3.115-8.777-3.878s-6.123.511-8.821,0c-2.852-.518-2.014-5.617-5.308-6.823a1.648,1.648,0,0,1-.515-.4c-1.081-.992-2.205-1.406-3.411-.207-1.1,1.08-2.205,2.042-1.279,3.929.639,1.3,2.132,2.272,1.7,4.233-.691.311-1.47.666-2.264,1.006-1.514.651-4.014.481-3.911,2.738s2.448,2.723,4.359,3.286,3.212.067,4.866-.918c2.845-1.695,5.881-2.42,9.167-.4,2.073,1.288,4.411,1.7,6.719-.081.794-.614,2.845-1.191,2.882-.355.2,4.817,3.036,2.56,5.146,2.22,1.059-.163,1.573.5,1.9,1.325.493,1.206.941,2.434,1.323,3.7.463,1.48.992,3.559,2.845,2.4,1.3-.821,3.389-1.976,2.683-4.551-1.786-6.527-2.83-13.32-5.278-19.588A52.9,52.9,0,0,0,59.194,55.558c-3.308-3.182-6.469-6.66-11.026-8S38.391,44.481,34.2,46.146c-9.012,3.574-17,13.224-13.349,24.494,1.47,4.573,2.705,9.235,4.293,13.771a9.388,9.388,0,0,0,5.6,6.046c-2.676-7.141-4.55-13.549-5.072-20.328C25.1,62.588,27.7,55.684,33.157,54.4s11.475-1.362,16.407,1.983c9.556,6.482,14.7,16.346,18.7,26.84C68.625,84.174,68.309,85.388,68.309,86.749ZM86.841,97.672c2.94-8.3,5.469-16.4,8.755-24.161C99.11,65.193,103.682,57.7,112.555,53.6c14.334-6.608,23.685,5.224,25.691,16.346a2.236,2.236,0,0,1-.058,1.3c-3.888,7.526-4.175,16.509-9.432,23.48-.735.947-1.772,2.035-.125,3.522,4.609-4.817,7.792-10.73,10.248-16.606,2.528-6.068,2.418-12.972,1.213-19.75-.736-4.055-1.287-7.748-5.183-9.931-3.565-2-6.109-5.617-10.667-6.083a27.377,27.377,0,0,0-24.03,9.435c-9.556,10.774-14.4,23.813-15.18,38.31C84.967,94.978,84.695,96.28,86.841,97.672ZM37.3,130.808c1.551,2.361,3.823,2.1,5.991,2.08,5.881-.074,11.762-.133,17.642-.274,7.777-.185,15.621-1.213,23.31-.488,11.673,1.088,23.457.629,35.035,2.8a17.736,17.736,0,0,0,3.271,0c1.316,0,2.94-.089,3.029-1.665.088-1.413-1.47-2.382-2.646-2.538-4.962-.643-9.711-2.781-14.548-3.115-9.953-.673-19.914-1.687-29.926-1.288-10.571.422-21.149.74-31.712,1.31-3.315.214-6.961.163-9.446,3.168ZM98.7,80.356c-.632,2.005-.912,3.7.441,4.706a9.654,9.654,0,0,0,8.013,1.924c3.234-.74,5.969-.577,8.689,1.31,2.205,1.561,4.05,1.391,4.918-1.628.346-1.214,2-1.82,1.625-3.448-1.529-1.4-3.881.4-5.418-1.339.345-1.946,2.661-2.908,2.565-5.136-.066-1.717.566-3.6-.875-4.973-1.705-1.635-3.22.562-4.888.444-1.184-.074-.956.984-1.367,1.613-1.705,2.59-1.573,5.661-2.147,8.932-3.911-2.8-8-.711-11.556-2.413ZM78.615,122.313c3.676,1.673,4.955-2.5,7.814-2.663a3.128,3.128,0,0,0,3.183-2.79c.118-1.991-1.661-2.39-3.146-2.649a8.062,8.062,0,0,1-4.072-1.931,3.518,3.518,0,0,0-4.3-.2,45.091,45.091,0,0,1-7.63,3.744c-1.529.54-1.705,2.686-.272,2.916,3.279.518,5.072,4.254,8.424,3.567Zm29.639-2.441c1.132,2.79,2.205,5.764,5.771,3.108,1.3-.969,2.316-.444,3.573,0,1.823.621,3.742.984,5.624,1.435s2.632-.687,3.448-2.146c1.2-2.132.14-3.84-.838-5.417-.8-1.3-2.205-.9-3.462-.237-2.308,1.184-5.109,1.769-6.925,3.456C112.731,122.551,110.8,121.759,108.255,119.871ZM37.8,123.994c2.338,0,9.674-3.575,9.52-4.522-.625-3.944-4.852-1.82-6.7-3.833a4.2,4.2,0,0,0-1.139-.614c-1.279-.651-2.691-.858-3.389.562-.816,1.68-2.161,3.478-.882,5.505.772,1.221,1.294,2.834,2.595,2.894ZM23.777,40.181a4.541,4.541,0,0,0-4.594,4.44c.11,2.96,2.205,5.032,4.94,4.884a5.086,5.086,0,0,0,3.45-1.489,5.152,5.152,0,0,0,1.5-3.462C29.1,41.987,26.864,40.159,23.777,40.181Zm117.668,4.492a3.951,3.951,0,0,0-.93-3.029,3.893,3.893,0,0,0-2.848-1.352,4.8,4.8,0,0,0-4.771,4.255c-.03,2.205,3.042,5.047,5.233,4.884C141.15,49.209,140.607,46.383,141.445,44.673Zm-44.636,73.37c2.58,2.05,4.234,3.7,6.219,4.817,1.529.837,3.433,1.081,3.323-1.924-.074-2.087-.368-3.855-2.441-4.877C101.124,114.692,99.764,117.1,96.809,118.044ZM15.6,60.028c1.911-.215,4.146-3,4.065-4.736-.1-2.057-2.69-4.536-4.344-3.885-2.117.844-2.411,2.9-2.205,4.9C13.272,58.038,13.743,59.732,15.6,60.028Zm128.437-6.8c-1.993.133-3.36,1.043-3.133,3.189.295,2.782,2.529,3.271,4.72,3.3,1.58,0,2.94-.74,2.779-2.738-.213-2.642-1.956-3.626-4.338-3.752ZM37.854,37.954c-1.61.3-3.08,1.3-2.977,2.908A3.139,3.139,0,0,0,35.94,43.2a3.1,3.1,0,0,0,2.444.748c1.639-.1,3.021-.636,3.514-2.353C42.228,40.455,39.442,38,37.854,37.954Zm86.11,5.92c2.117.052,3.47-1.088,3.6-2.96.125-1.739-1.426-2.671-2.94-2.96-2.257-.385-3.014,1.413-3.352,3.123-.412,2.005,1.22,2.42,2.69,2.768ZM57.327,121.137c2.124.229,2.551-1.48,2.771-2.857a2.347,2.347,0,0,0-2.47-2.96,3.149,3.149,0,0,0-3.352,2.449C53.821,120.012,55.717,120.544,57.327,121.137ZM34.884,63.676c1.632.407,2.779-1.073,4.3-1.066.97,0,2.205.585,2.683-.844a1.255,1.255,0,0,0-.39-1.1c-1.066-.74-2.007-.044-2.94.392C37.119,61.663,35.568,62.033,34.884,63.676Zm-4.66,11.44c1.073-.377,2.095-.932,1.86-2.22a2.169,2.169,0,0,0-2.838-1.783,1.687,1.687,0,0,0-1.1.584,1.709,1.709,0,0,0-.406,1.184C27.791,74.443,28.754,75.1,30.224,75.117Zm99.393,10.6c-1.632-.607-2.617-.118-3.227.821s-3.058.955-1.941,2.6,2.205.1,3.124-.807C128.316,87.608,129.536,87.312,129.617,85.721ZM54.806,45.583c-.331-.984-.441-2.294-1.852-2.22-1.066.037-1.33,1.036-1.25,1.954.088,1.117.47,2.294,1.779,2.264C54.431,47.544,54.769,46.545,54.806,45.583Zm.485,20.934c-.632-1.48-1.882-1.117-2.845-1.265-.831-.141-2.051-.8-2.382,1.265Z" transform="translate(2.019 8.67)" fill="#fff"/>
    <path id="Path_952" data-name="Path 952" d="M63.8,35.161c.412-1.48.779-2.479,1-3.552.419-2.087,1.742-4.618-.456-6.09-1.83-1.228-4.2-.318-6.285.488-4.411,1.724-4.822,1.628-4.675-2.96.074-2.146-1.1-3.744-1.272-5.639s1.3-4.166,2.94-3.226c3.227,1.85,7.3,2.886,9.277,6.83.368-3.892-.235-7.4-3.323-10.219-1.206-1.1-1.948-2.531-.963-4.1.89-1.428,2.294-.548,3.551-.481,2.205.118,4.352,0,6.528,0,4.962.118,5.55,1.073,3.095,5.217-1.117,1.887-3.021,3.929-1.4,5.92,1.771,2.168,3.881.252,5.829-.74,3.676-1.828,4.322-1.347,4.293,2.96,0,.659-.154,1.31-.154,1.968,0,6.6,0,6.6-5.976,4.558-3.874-1.31-4.286-1.021-4.513,3.219C71.015,34.746,70.684,35.035,63.8,35.161Zm3.911-13.32c.654-.215,1.213-.74,1.051-1.317-.1-.34-.941-.636-1.47-.659a.909.909,0,0,0-.818.346.922.922,0,0,0-.138.882C66.538,21.811,67.053,21.974,67.714,21.841Z" transform="translate(15.03 1.295)" fill="#fff"/>
    <path id="Path_953" data-name="Path 953" d="M66.643,49.5c-6.123-.059-10.622-4.322-10.593-9.99,0-4.8,4.7-8.665,10.335-8.532,6.212.148,9.556,3.7,9.358,10.049C75.633,45.183,70.98,49.541,66.643,49.5Z" transform="translate(16.183 8.619)" fill="#fff"/>
    <path id="Path_954" data-name="Path 954" d="M64.337,59.991a6.4,6.4,0,0,1-2.713-5.75c0-1.066.088-2.264,1.47-2.538,1.47-.3,2.426.555,2.94,1.88C67.021,56.091,66.219,58.074,64.337,59.991Z" transform="translate(17.804 14.649)" fill="#fff"/>
  </g>
</svg>
