<svg xmlns="http://www.w3.org/2000/svg" width="2000" height="2040.088" viewBox="0 0 2000 2040.088">
  <path id="Path_4272" data-name="Path 4272" d="M1971.641,772.143c-107.958-87.219-272.317-97.685-401.4-50.975h0l.194.581h0l-.194-.581c-5.233,2.52-10.079,5.233-14.536,7.753q-2.326-6.687-4.652-12.792l-.581.194h0l.581-.194v-.194h0c-98.848-98.266-198.083-125.6-282.007-119.974-5.04.388-10.079.775-14.924,1.357,10.854-52.137-3.489-93.227-26.166-123.851-23.258-31.4-55.432-51.362-77.915-60.278-.775-13.374-1.938-34.694-2.132-55.626-.387-21.126.194-41.671,2.132-53.494.775-4.07,3.876-6.977,9.3-8.916,5.233-2.132,12.6-3.295,20.933-3.876,16.862-1.163,38.182.194,57.952,1.357,14.149.775,27.328,1.744,37.407,1.55a56.844,56.844,0,0,0,12.6-1.163,16.627,16.627,0,0,0,4.07-1.357,5.05,5.05,0,0,0,2.325-2.132c1.938-3.876,2.907-9.3,2.907-15.7a84.248,84.248,0,0,0-2.714-21.126c-3.876-14.73-11.629-30.042-23.839-38.958-3.295-2.326-7.947-3.876-13.374-4.652a98.532,98.532,0,0,0-18.8-.388c-13.761.775-29.46,3.295-43.8,5.621-12.792,2.132-24.615,3.876-32.949,4.264-4.264.194-7.365,0-9.5-.775a4.507,4.507,0,0,1-2.132-1.357,2.541,2.541,0,0,1-.387-2.132c.775-4.458.581-14.149-.194-26.166s-1.938-26.747-3.489-41.284-3.488-29.073-5.233-40.9-3.683-20.933-5.039-25c-1.551-4.07-5.815-6.4-11.048-7.365s-11.823-.775-18.219,0a132.219,132.219,0,0,0-17.831,3.489c-2.519.582-4.845,1.357-6.59,1.938a18.668,18.668,0,0,0-3.682,1.551,23,23,0,0,0-7.947,6.977c-2.713,3.683-5.233,9.5-7.753,19.188-1.55,5.621-1.938,15.505-1.938,27.135s.581,25,1.163,37.6c.775,18.025,1.551,34.694.581,42.64a6.276,6.276,0,0,1-2.713,3.876,28.182,28.182,0,0,1-7.171,3.1c-6.2,1.744-14.73,2.907-24.615,3.489-19.769,1.357-45.16,1.163-67.449.775-20.545-.194-38.764-.581-48.067.582a16.19,16.19,0,0,0-12.792,9.3c-2.713,5.039-3.683,11.629-4.07,18.8-.388,14.343,2.907,30.817,6.009,41.865l.193.388h.388c22.871-.581,57.952-.969,88.576,0,15.312.582,29.654,1.357,40.7,2.713a94.4,94.4,0,0,1,13.955,2.326c3.682.969,6.4,1.938,7.559,2.907,1.357,1.163,2.326,3.1,3.3,6.008a66.167,66.167,0,0,1,1.938,10.66c.969,8.528.969,19.188.581,30.817-.775,23.065-3.489,49.23-5.815,66.286-52.719,23.452-79.272,49.23-94,83.924-2.907,6.977-4.07,16.862-4.07,27.91,0,11.241,1.357,23.84,3.295,36.632a580.136,580.136,0,0,0,14.149,63.96C777.131,576.579,620.137,670,556.177,735.9c-120.362-29.461-260.106-12.4-355.853,64.736-108.151,87.219-159.707,251.384-63.767,511.3h0l.581-.194h0l-.581.194c12.4,31.4,45.16,72.876,92.258,116.292,47.1,43.222,108.539,88.382,178.508,127.339l.194-.581h0l-.194.581c3.876,1.745,10.854,3.683,20.739,3.3l-.581,2.907-.194.775h.775c1.551-.194,3.489.969,5.233,5.039s3.295,10.66,3.876,20.739c1.357,20.351-.581,54.657-9.691,110.089-11.435,69.387-20.157,129.859-24.034,175.988-1.938,23.065-2.52,42.447-1.551,57.565a103.6,103.6,0,0,0,2.713,19.576c1.357,5.427,3.1,9.691,5.427,12.6a23.856,23.856,0,0,0,3.1,2.908c1.551,1.163,3.489,2.52,5.815,4.264a199.917,199.917,0,0,0,19.77,11.629c16.669,9.11,40.508,20.545,71.519,32.755,61.635,24.615,151.373,52.525,267.665,72.295,232.583,39.345,571.38,44.966,1005.923-77.528h0a22.333,22.333,0,0,0,11.436-6.977c3.489-4.07,5.621-9.885,3.683-17.832,6.008-76.364,13.18-192.269,15.312-291.7.969-49.617.775-95.359-1.551-129.665-1.163-17.25-2.714-31.592-5.039-42.447a88.344,88.344,0,0,0-3.876-13.374c-.582-1.163-.969-2.132-1.551-3.1,54.657-33.337,102.724-70.163,141.295-105.632,47.1-43.222,79.854-84.7,92.258-116.292l-.582-.194h0l.582.194C2131.348,1023.527,2079.792,859.556,1971.641,772.143ZM268.161,1178.777ZM1903.61,1149.7l-64.542,41.09c-43.027,11.823-51.943,41.865-50.974,55.626,0,16.475,5.039,46.71,9.5,74.039,1.938,11.436,3.682,22.483,5.039,31.98,1.357,9.3,2.326,17.056,2.326,21.9,0,6.4-3.295,16.668-10.854,27.329-7.364,10.66-18.994,21.32-35.081,29.073-32.368,15.312-83.73,17.638-159.707-20.739-13.374-19.576-18.413-46.129-4.651-76.753,13.955-30.817,47.1-66.092,110.283-103.112h0l-.388-.387h0l.388.387c46.129-42.253,53.494-98.267,43.416-156.606-9.885-58.534-37.407-119.587-61.053-172.693-15.894-35.469-30.042-67.062-36.438-92.064-3.1-12.4-4.458-23.065-2.907-31.593s5.621-14.924,13.18-18.8c41.09-3.682,104.081,5.233,160.094,43.416,56.014,38.376,104.663,106.019,117.067,220.567h0c.194,1.938.388,4.264.582,6.784C1941.211,1057.252,1945.087,1111.522,1903.61,1149.7ZM1094.026,1844.16c-35.663,3.1-130.634-9.885-225.993-86.831,27.716-18.607,71.325-45.548,113-66.48,21.126-10.466,41.671-19.576,59.309-25.2a122.345,122.345,0,0,1,24.227-5.62c7.172-.969,13.374-.775,18.219.775,25,7.365,71.52,24.615,112.8,43.609,20.545,9.5,39.927,19.382,54.269,28.492,7.172,4.651,13.374,9.109,17.638,13.179,4.458,4.264,7.171,7.947,7.947,11.242.581,2.519-.581,5.427-3.683,8.915-2.907,3.3-7.559,6.977-13.567,10.854-11.823,7.753-28.879,16.087-48.068,24.227C1172.329,1817.994,1125.425,1834.081,1094.026,1844.16ZM383.483,1274.912Zm-13.955,106.213c1.357-9.3,3.1-20.351,5.039-31.98,4.652-27.522,9.5-57.564,9.5-74.039h0c.969-13.761-7.947-43.8-50.975-55.626l-64.542-41.09c-41.671-38.182-37.6-92.646-35.469-120.556.194-2.519.388-4.651.388-6.783,12.4-114.547,61.053-182.384,117.067-220.567,55.82-38.182,119.005-47.1,160.095-43.415,7.559,3.876,11.629,10.272,13.18,18.8s.388,19.188-2.907,31.592c-6.4,24.809-20.545,56.6-36.438,92.064-23.646,52.913-51.169,114.16-61.053,172.693s-2.52,114.353,43.416,156.606l.387-.387h0l-.387.387h0c63.185,37.02,96.328,72.295,110.283,103.112,13.955,30.623,8.916,57.177-4.651,76.752-75.977,38.376-127.34,36.05-159.707,20.739a86.655,86.655,0,0,1-35.081-29.073c-7.365-10.66-10.854-20.933-10.854-27.329C367.2,1398.181,368.172,1390.428,369.528,1381.125ZM232.886,1050.856ZM947.111,1454.97Zm86.056-813.461Zm133.154-54.851a131.009,131.009,0,0,1,6.977,21.32,51.779,51.779,0,0,1,1.357,9.109,322.034,322.034,0,0,0-79.466,44.191,79.057,79.057,0,0,1-14.73-.775c-12.211-1.938-27.329-7.171-46.9-19.382a100.475,100.475,0,0,1-1.162-34.306c1.938-13.761,6.977-27.91,18.025-38.376,13.761-13.18,30.042-18.8,44-20.739s25.39,0,29.655,1.744c.969.388,1.938.775,3.1,1.163,9.885,3.876,28.685,11.048,39.152,36.05Zm388.608,1170.477ZM636.418,1827.3c-6.009,14.536-19.188,27.329-46.711,32.174-25.584,4.651-43.222,12.985-56.983,19.576-8.334,4.07-15.312,7.171-21.514,8.528a23.009,23.009,0,0,1-18.219-3.1c-8.916-5.427-14.536-17.444-18.025-30.429a143.15,143.15,0,0,1-4.458-35.275c1.551-13.18,6.59-32.949,16.669-49.812s24.809-30.43,46.129-31.2c26.747-1.163,53.3,3.489,73.264,11.629,10.079,4.07,18.413,8.916,24.227,14.343,6.008,5.427,9.5,11.435,9.691,17.637v1.551h0C641.651,1796.092,642.62,1812.567,636.418,1827.3Zm915.409-18.606a3.7,3.7,0,0,1-1.551-1.357,4.669,4.669,0,0,1,0-2.907c.388-1.357,1.163-3.3,2.132-6.008.775-2.132,1.745-4.845,2.908-7.946,5.621-15.7,2.132-26.166.581-31.011a5.98,5.98,0,0,1-.388-1.551c0-.194-.194-.388-.194-.581,11.823-11.629,31.593-27.91,52.525-38.764,21.126-10.854,43.221-16.281,59.7-6.4,7.753,4.652,16.281,9.3,25,14.149,19.188,10.467,38.57,21.127,51.168,31.98,6.2,5.427,10.66,10.66,12.4,16.087,1.745,5.233.969,10.466-3.489,15.7-4.07,4.846-7.558,9.5-10.853,13.955-7.559,10.272-14.343,19.382-24.228,25.778-9.691,6.2-22.677,9.691-42.446,8.529-27.135-1.551-43.8-9.11-56.79-14.73-10.078-4.458-18.025-7.947-26.747-6.59a90.1,90.1,0,0,0-10.66,2.132,14.217,14.217,0,0,1-4.264.775,7.319,7.319,0,0,1-3.488-.969,58.262,58.262,0,0,1-6.4-3.1,29.2,29.2,0,0,0-3.489-1.745c-3.295-1.55-5.815-2.714-7.947-3.682l-.194.582h0l.194-.582C1553.959,1809.66,1552.8,1809.272,1551.827,1808.691ZM1661.336,757.8Zm-309.142-6.977h0l-.387.388h0c30.429,22.871,53.882,40.314,71.907,61.247,18.025,20.739,31.011,44.773,40.315,80.629,20.545,78.5,5.039,154.862-17.638,191.3-10.854,17.637-25.778,36.632-39.345,54.076-7.365,9.5-14.343,18.413-20.158,26.553s-10.466,15.118-13.179,20.932l.581.194h0l-.581-.194h0c-5.039,13.374-8.335,45.741,17.831,69,2.714,2.52,5.427,4.846,8.141,7.172,13.955,12.211,25.778,22.483,33.919,34.306s12.986,25,12.986,43.415c0,20.157-5.427,44.966-17.25,66.674s-29.848,40.12-55.045,47.486c-50.587,14.73-90.9,13.955-161.064,0-20.545-41.09-38.958-146.334,50.005-239.367l-.387-.387h0l.387.387h0c16.862-18.219,40.314-67.837,0-119.78-1.55-2.132-3.1-4.07-4.652-6.2-48.455-62.6-96.328-124.626-112.028-214.171-12.986-73.846,9.3-122.107,21.9-136.837,15.506-9.109,42.447-20.157,72.489-23.258,30.236-3.295,63.767,1.357,92.84,23.258,6.4,4.845,12.4,9.3,18.219,13.761h0l.194-.582Zm-360.31-13.18ZM807.561,751.4l.388.388h0c5.815-4.458,11.823-8.916,18.219-13.761,28.879-21.9,62.6-26.553,92.84-23.258s56.983,14.149,72.489,23.258c12.6,14.924,34.694,62.991,21.9,136.836-15.7,89.545-63.573,151.567-112.028,214.171-.969,1.162-1.745,2.326-2.714,3.294-.775.969-1.357,1.745-2.132,2.714-40.12,51.944-16.668,101.562,0,119.781h0l.388-.388h0l-.388.388c88.963,93.033,70.356,198.278,50.006,239.367-70.356,13.955-110.671,14.536-161.064,0-25.2-7.365-43.222-25.778-55.045-47.486s-17.25-46.517-17.25-66.674c0-18.413,4.652-31.593,12.986-43.416,8.14-11.823,19.963-22.1,33.919-34.306,2.52-2.326,5.233-4.652,8.141-7.171,26.165-23.065,22.677-55.626,17.831-69h0l-.581.194h0l.581-.194c-2.714-5.815-7.365-12.986-13.18-20.933-5.815-8.14-12.792-17.056-20.157-26.553-13.567-17.444-28.492-36.438-39.345-54.076-22.677-36.632-38.182-112.8-17.637-191.3,9.3-35.856,22.289-59.89,40.314-80.629,18.219-20.739,41.478-38.376,71.907-61.247ZM510.629,786.292Zm638.635-372.521Zm-95.553,5.039Zm729.731,1591.259Z" transform="translate(-86.032 -72.961)" fill="#724335"/>
</svg>
