<svg xmlns="http://www.w3.org/2000/svg" width="570" height="570" viewBox="0 0 570 570">
    <g id="Group_5" data-name="Group 5" transform="translate(-900 -1402)">
        <rect id="Rectangle_1" data-name="Rectangle 1" width="570" height="570"
            transform="translate(900 1402)" fill="none" />
        <g id="Group_25" data-name="Group 25" transform="translate(979.8 1481.8)">
            <path id="Path_993" data-name="Path 993"
                d="M190.449,6.911c19.985-13.3,41.3,0,50.629,0,3.108,0,11.99,2.128,22.648,10.639,13.323,10.639,17.32,27.928,19.985,43.887S295.7,92.025,295.7,100s11.991,22.608,11.991,37.237-5.329,21.279-5.329,29.258,5.329,5.32,5.329,19.949S301.032,211.717,295.7,219.7s-13.323,34.578-11.991,42.557-7.994,14.629-9.327,18.618,7.994,10.639,9.327,15.959c1.066,4.255,8.438,9.752,11.991,11.969-2.221,5.32-7.994,16.226-13.323,17.288-6.662,1.33-29.311,13.3-10.659,13.3,14.922,0,49.742-2.66,65.284-3.99,53.293-7.981,61.287,25.266,73.278,33.247,9.6,6.383-.442,15.959-6.66,19.949-5.773,4.433-18.919,14.364-25.315,18.619-7.994,5.317-15.988-5.321-26.645-15.959s-25.315-11.971-37.307-11.971-37.305,5.321-61.287,9.311-30.643-6.651-38.638-14.628-4-11.971-9.326,5.317-45.3,9.311-59.955,11.971-50.629-5.321-69.281-2.66-29.312,13.3-37.306,22.609-23.981-5.321-29.311-9.311-9.326-11.968-7.994-27.927,11.991-18.619,13.323-23.939,26.647-18.619,61.287-18.619h51.961c-6.662,0-5.329-19.949,0-31.918s9.326-18.619,0-26.6-26.646-97.084-27.978-127.672,59.955-93.094,66.616-99.743S170.465,20.21,190.449,6.911Z"
                transform="translate(-1 -1)" fill="#f8f5f1" stroke="#f8f5f1" stroke-width="1" />
            <path id="Path_994" data-name="Path 994"
                d="M105.631,12.016c19.195-12.754,27.992-5.314,29.992,0,1.919,2.906-.8,9.871-2.4,12.99l-1.2-1.181a93.967,93.967,0,0,0,2.4-9.447c0-.945-1.6-2.755-2.4-3.543a31.2,31.2,0,0,0-4.8-.59h-6c-1.8,0-.6,2.952-1.8,3.543s-2.4.59-3,4.133c-.48,2.834,2.6,5.117,4.2,5.9,2.2,0,7.318.236,10.2,1.181s1.6,6.3.6,8.857h-10.2c.2.787-.12,3.424-3,7.676-3.6,5.314-3,0-9.6,4.724-5.279,3.779-9.4,11.022-10.8,14.171-7.2,3.543-16.8,20.076-23.993,30.7s-7.2,20.666-11.4,21.847c-3.359.945-5.4,10.235-6,14.761-1.8,8.857-6,16.533-6,17.714s-2.436,24.469,0,36.018c2.449,11.611,4.049,17.29,5.973,24.119l.025.09c1.616,5.735,5.4,16.533,6,19.485s10.8,15.942,14.4,19.485c3.42,3.366,0,13.58-3,14.761s-7.2-2.362-7.2-7.086c0-3.779-5.6-15.352-9-20.666-6-11.809-12.6-38.38-15.6-44.284-2.79-5.492-5.979-20.237-5.979-28.307-.8-6.488,2.983-18.691,3.207-21.087.435-4.662,3.871-10.772,7.215-19.465,3.261-8.477.8-3.244,8.017-14.6A219.722,219.722,0,0,0,65.732,84.458,48.12,48.12,0,0,1,76.238,72.833l11.4-14.761c3.6-10.628,18-17.714,22.794-21.847,3.839-3.307,4.8-6.495,4.8-7.676C108.99,28.077,106.23,17.33,105.631,12.016Z"
                transform="translate(76.903 7.857)" stroke="#000" stroke-width="3" />
            <path id="Path_995" data-name="Path 995"
                d="M78.516,32.315l-13.277-16.6,1.155-1.779c4.618,0,30.4,29.838,43.295,45.647,7.5,7.114,32.327,54.539,35.213,64.616s.577,38.533-1.155,47.425c-1.385,7.114-17.9,39.323-25.977,54.539-.962-1.581-2.886-5.1-2.886-6.521,0-1.779,13.854-32.012,23.668-58.1s-3.464-36.162-3.464-41.5S127.007,104.046,124.7,99.3s-12.7-27.269-16.741-33.2C104.724,61.363,86.983,41.6,78.516,32.315Z"
                transform="translate(142.158 27.833)" stroke="#000" stroke-width="3" />
            <path id="Path_996" data-name="Path 996"
                d="M81.013,27.634c11.031.394,33.684.709,36.048-1.182s2.561,2.758,2.364,5.319c-1.576,14.577-4.492,44.912-3.546,49.64,3.743,1.379,16.074,3.9,35.457,2.955,2.167,6.894,5.2,22.1,0,27.775l-31.911-1.182c-.788,16.153-1.655,49.64,1.182,54.368H84.559c.394-18.123.709-54.368-1.182-54.368-10.243,0-31.321.473-33.685,2.364L47.92,86.138c9.849-.985,30.73-2.837,35.457-2.364C83.574,65.455,83.377,28.579,81.013,27.634Zm10.637,8.273h17.138c2.955,0,2.955,8.864,2.955,11.819,0,2.364-.788,23.441-1.182,33.684-.394,1.773-.591,5.319,1.773,5.319h24.229c3.94.591,11.7,2.245,11.228,4.137s-.2,10.243,0,14.183H113.516l-1.182,51.413-20.683,1.773c.788-16.153,1.891-48.931,0-50.822s-25.214-2.364-36.639-2.364l-1.182-13c11.819-.2,35.575-1.182,36.048-3.546S91.257,52.454,91.651,35.907Z"
                transform="translate(103.562 54.737)" fill-rule="evenodd" />
            <path id="Path_997" data-name="Path 997"
                d="M120.607,29.805l3.025,3.782h0ZM84.559,30.987l.173-4.84-1.971,9.336Zm38.412,4.137,4.815.52.008-.075.005-.075Zm-3.546,49.64-4.749.95.532,2.658,2.543.937Zm35.457,2.955,4.62-1.452L158.382,82.7l-3.735.182Zm0,27.775-.179,4.839,2.237.083,1.513-1.65Zm-31.911-1.182.179-4.84-4.783-.177-.233,4.781Zm1.182,54.368v4.843h8.553l-4.4-7.335Zm-36.048,0-4.841-.105-.108,4.948H88.1Zm-34.866-52-4.832.315.6,9.269,7.253-5.8ZM51.466,89.492l-.482-4.819-4.655.466.3,4.668Zm35.457-2.364-.482,4.819,5.267.527.057-5.293ZM95.2,39.261V34.418H90.468l-.113,4.728Zm18.91,45.5,4.728,1.051.095-.427.017-.437Zm26,5.319.718-4.789-.357-.054h-.361Zm11.228,4.137-4.7-1.175h0Zm0,14.183v4.843h5.091l-.254-5.085Zm-34.275,0V103.56h-4.733l-.109,4.731Zm-1.182,51.413.414,4.825,4.328-.371.1-4.343ZM95.2,161.588l-4.837-.236-.27,5.534,5.521-.473Zm0-50.822,3.424-3.424h0ZM58.557,108.4l-4.823.438.4,4.4h4.422Zm-1.182-13-.081-4.842-5.214.087.472,5.193Zm36.048-3.546-4.749-.95Zm24.159-65.832a2.849,2.849,0,0,1,.793-.474,4.466,4.466,0,0,1-.483.115,27.79,27.79,0,0,1-2.786.354c-2.456.215-5.718.338-9.344.392-7.23.107-15.565-.068-21.03-.263l-.345,9.679c5.566.2,14.073.378,21.519.269,3.711-.055,7.245-.183,10.046-.428a36.926,36.926,0,0,0,3.821-.5,13.551,13.551,0,0,0,1.721-.446,7.03,7.03,0,0,0,2.14-1.133ZM127.8,35.5a19.616,19.616,0,0,0-.36-5.905,6.843,6.843,0,0,0-2.936-4.258,5.986,5.986,0,0,0-6.922.692l6.051,7.563a3,3,0,0,1-1.236.537,4.038,4.038,0,0,1-2.9-.5,3.58,3.58,0,0,1-1.3-1.313,1.891,1.891,0,0,1-.141-.312,6.087,6.087,0,0,1,.118,1.122,14.992,14.992,0,0,1-.035,1.631Zm-3.625,48.319c0,.015-.024-.133-.049-.528-.023-.366-.038-.845-.041-1.444-.007-1.2.032-2.738.112-4.566.161-3.65.481-8.274.883-13.249.8-9.941,1.921-21.123,2.706-28.383l-9.63-1.041c-.791,7.316-1.918,18.59-2.731,28.644-.406,5.022-.736,9.78-.9,13.6-.084,1.908-.13,3.627-.122,5.051a21.567,21.567,0,0,0,.278,3.814Zm30.473-.932c-19.007.927-30.628-1.587-33.547-2.662l-3.349,9.089c4.566,1.682,17.608,4.211,37.367,3.248Zm3.806,35.884a16.128,16.128,0,0,0,3.7-8.191,36.756,36.756,0,0,0,.326-8.852A71.846,71.846,0,0,0,159.5,86.267l-9.24,2.9a62.21,62.21,0,0,1,2.552,13.234,27.267,27.267,0,0,1-.2,6.48,6.753,6.753,0,0,1-1.3,3.336Zm-35.661.385,31.912,1.182.359-9.679-31.912-1.182Zm5.514,47.037c.146.244-.039-.007-.281-1.378-.208-1.178-.388-2.761-.535-4.711-.292-3.888-.425-8.89-.444-14.336-.039-10.872.371-23.193.763-31.215l-9.674-.472c-.4,8.13-.814,20.63-.774,31.722.02,5.537.154,10.8.472,15.027.159,2.107.369,4.042.654,5.663A14.134,14.134,0,0,0,120,171.171Zm-40.2,7.335h36.048v-9.686H88.1Zm-1.182-54.368a4.625,4.625,0,0,1-3.623-1.728,3.753,3.753,0,0,1-.581-1c-.067-.178-.034-.151.037.276.129.772.259,2.056.371,3.857.222,3.549.347,8.543.4,14.185.108,11.257-.069,24.794-.265,33.828l9.683.21c.2-9.089.376-22.735.267-34.131-.055-5.684-.181-10.885-.419-14.7-.118-1.88-.271-3.569-.485-4.85a11.349,11.349,0,0,0-.524-2.087,5.974,5.974,0,0,0-.9-1.613,5.063,5.063,0,0,0-3.965-1.937Zm-30.659,1.3a2.713,2.713,0,0,1-.672.416,4.39,4.39,0,0,1,.464-.128c.584-.138,1.451-.286,2.607-.431,2.3-.288,5.335-.518,8.714-.693,6.735-.349,14.477-.466,19.547-.466v-9.686c-5.174,0-13.093.119-20.047.479-3.466.18-6.779.423-9.421.755a35.636,35.636,0,0,0-3.621.614,13.634,13.634,0,0,0-1.638.485,7.212,7.212,0,0,0-1.983,1.092ZM46.633,89.807l1.773,27.184,9.665-.631L56.3,89.177Zm40.772-7.5a55.553,55.553,0,0,0-6.845.012c-2.847.126-6.262.347-9.806.613-7.093.531-14.817,1.244-19.77,1.739l.964,9.638c4.9-.49,12.537-1.195,19.529-1.718,3.5-.262,6.8-.476,9.511-.6a49.749,49.749,0,0,1,5.454-.051ZM82.761,35.484a4.344,4.344,0,0,1-1.934-1.5,3.017,3.017,0,0,1-.343-.607c-.029-.071.025.053.118.508a40.938,40.938,0,0,1,.528,4.128c.334,3.724.571,8.875.73,14.661.318,11.543.318,25.275.22,34.4l9.685.1c.1-9.195.1-23.06-.223-34.771-.161-5.841-.4-11.231-.765-15.26a49.757,49.757,0,0,0-.684-5.2,12.823,12.823,0,0,0-.622-2.187,6.73,6.73,0,0,0-.749-1.392,5.344,5.344,0,0,0-2.364-1.883Zm29.573-1.066H95.2V44.1h17.138Zm7.8,16.662a56.845,56.845,0,0,0-.418-7.7,16.969,16.969,0,0,0-1.295-4.759,6.811,6.811,0,0,0-6.085-4.2V44.1a3.069,3.069,0,0,1-2.668-1.339,8.219,8.219,0,0,1,.46,1.982,47.816,47.816,0,0,1,.321,6.333Zm-1.186,33.87c.39-10.15,1.186-31.383,1.186-33.87h-9.686c0,2.241-.781,23.162-1.178,33.5Zm-3.066.29a3.02,3.02,0,0,1,1.239.281,3.238,3.238,0,0,1,1.113.834,2.123,2.123,0,0,1,.5.886,2.859,2.859,0,0,1-.009-.59,5.682,5.682,0,0,1,.116-.835l-9.455-2.1a13.992,13.992,0,0,0-.188,5.222,7.768,7.768,0,0,0,1.678,3.712,6.5,6.5,0,0,0,5.011,2.278Zm24.229,0H115.88v9.686h24.229Zm15.926,10.154a5.633,5.633,0,0,0-1.043-4.821,7.664,7.664,0,0,0-2.179-1.876,18.83,18.83,0,0,0-4.023-1.666,60.111,60.111,0,0,0-7.963-1.738l-1.437,9.578a50.547,50.547,0,0,1,6.574,1.424,10.2,10.2,0,0,1,1.894.724,2.385,2.385,0,0,1-.547-.546,4.057,4.057,0,0,1-.673-3.428Zm.138,12.766c-.1-1.928-.212-4.937-.245-7.677-.017-1.374-.012-2.635.022-3.64.04-1.172.11-1.548.085-1.449l-9.4-2.349a18.1,18.1,0,0,0-.369,3.471c-.041,1.216-.044,2.643-.026,4.086.036,2.894.156,6.03.257,8.042Zm-39.112,5.085h34.275V103.56H117.062Zm3.66,46.681,1.182-51.413-9.683-.222L111.038,159.7ZM95.61,166.413l20.683-1.773-.827-9.65-20.683,1.773Zm-3.838-52.223a3.5,3.5,0,0,1-.925-1.436,6.6,6.6,0,0,1,.125.722c.12.89.221,2.216.294,3.959.145,3.457.161,8.132.092,13.329-.137,10.373-.607,22.544-1,30.587l9.674.472c.4-8.11.871-20.4,1.01-30.931.069-5.252.056-10.137-.1-13.862-.077-1.848-.194-3.519-.373-4.847a15.437,15.437,0,0,0-.384-2,6.381,6.381,0,0,0-1.566-2.846Zm-33.215-.945c5.667,0,14.272.118,21.666.467,3.709.176,7.027.406,9.49.7a27.446,27.446,0,0,1,2.746.432c.3.069.409.111.392.1a2.258,2.258,0,0,1-.273-.133,3.779,3.779,0,0,1-.806-.621l6.849-6.849a6.516,6.516,0,0,0-2.275-1.431,12.637,12.637,0,0,0-1.71-.508,36.4,36.4,0,0,0-3.788-.613c-2.8-.33-6.381-.573-10.167-.752-7.6-.359-16.365-.478-22.124-.478Zm-6-17.406,1.182,13,9.646-.877-1.182-13Zm36.122-4.934a4.149,4.149,0,0,1,1.684-2.635c.285-.193.435-.223.252-.159a15.191,15.191,0,0,1-2.181.495c-2.247.388-5.446.725-9.142,1.005-7.346.557-16.138.849-21.994.947l.161,9.684c5.963-.1,14.96-.4,22.564-.973,3.78-.286,7.347-.651,10.057-1.119a23.909,23.909,0,0,0,3.759-.906,8.594,8.594,0,0,0,1.946-.95,5.551,5.551,0,0,0,2.39-3.49Zm1.68-51.76c-.2,8.267-.521,20.812-.856,31.581-.167,5.387-.337,10.315-.493,14.038-.078,1.864-.153,3.4-.221,4.542-.079,1.322-.132,1.71-.11,1.6l9.5,1.9a25.982,25.982,0,0,0,.281-2.92c.073-1.222.15-2.83.23-4.715.159-3.775.329-8.745.5-14.144.335-10.8.661-23.371.858-31.651Z"
                transform="translate(100.016 51.384)" />
            <path id="Path_998" data-name="Path 998"
                d="M69.519,41.929c1.379.394,5.082.118,8.864-4.137.67-.754,1.28-1.412,1.823-2,3.289-3.548,4.092-4.414.541-7.458-4.137-3.546-7.683-8.864-7.091-13s7.091-8.273,8.864-8.864,7.091-2.364,10.637,0,8.273,8.864,7.091,12.41c-.228.683-.455,1.453-.692,2.252-.99,3.35-2.128,7.2-4.036,7.2-1.891,0-2.364,2.364-2.364,3.546,6.7,5.318,17.728,18.32,21.274,27.184.985,4.334,3.546,13,5.909,13,2.955,0,16.547,27.184,14.774,31.321-1.418,3.309,1.379,8.47,2.955,10.637,1.379,3.546,4.019,12.055,3.546,17.728a46.473,46.473,0,0,1-3.546,13.592l-2.955-11.819a20.924,20.924,0,0,0,0-13,114.676,114.676,0,0,0-7.091-14.774c-.788-5.91-4.137-19.5-11.228-26.593-.935-1.792-1.98-4.44-3.078-7.221-1.679-4.251-3.48-8.813-5.195-11.1-.769-1.026-1.595-2.107-2.439-3.214a123.732,123.732,0,0,1-8.2-11.56c-.345-.6-.665-1.207-.978-1.8-1.832-3.458-3.43-6.475-8.478-6.475-4.728,0-7.091,4.334-7.682,6.5v7.091l1.773,5.909ZM83.7,16.517c.985-1.182,3.546-3.428,5.909-2.955a3.713,3.713,0,0,1,3.245,2.81,7.231,7.231,0,0,0,.3.736c.591,1.182,1.773,5.319.591,6.5a9.472,9.472,0,0,0-1.141,1.627c-.848,1.385-1.784,2.913-3,2.51-1.418-.473-4.531-1.379-5.909-1.773l-2.364-5.909Z"
                transform="translate(151.695 8.531)" fill-rule="evenodd" />
            <path id="Path_999" data-name="Path 999"
                d="M88.038,41.135l3.619,3.217h0Zm-8.864,4.137,1.33-4.656L65.186,36.239,75.476,48.4ZM89.86,39.137l-3.552-3.292h0Zm.541-7.458L87.25,35.356h0ZM92.174,9.814l1.531,4.594h0Zm10.637,0-2.686,4.029h0Zm7.091,12.41,4.594,1.531h0Zm-.692,2.252L104.567,23.1h0Zm-6.4,10.749H97.969v2.338L99.8,39.017Zm21.274,27.184,4.722-1.073-.085-.372-.141-.354Zm20.683,44.322,4.451,1.908Zm2.955,10.637,4.513-1.755-.228-.585-.369-.508ZM151.27,135.1l-4.826-.4h0Zm-3.546,13.592-4.7,1.175,3.365,13.461,5.742-12.632Zm-2.955-11.819-4.551-1.655-.506,1.392.359,1.437Zm0-13-4.551,1.655Zm-7.091-14.774-4.8.64.125.94.47.823ZM126.449,82.5l-4.293,2.24.344.659.526.525Zm-3.078-7.221-4.5,1.779Zm-5.195-11.1,3.874-2.906h0Zm-2.439-3.214-3.85,2.937h0Zm-8.2-11.56-4.2,2.4h0Zm-.978-1.8-4.279,2.267h0Zm-16.16.025-4.672-1.274-.17.626v.649Zm0,7.091H85.559v.711l.2.681Zm1.773,5.909-3.7,3.128,8.335-4.52Zm7.091-43.731-.95,4.749h0ZM93.356,19.86l-3.721-3.1-.165.2-.144.215Zm9.154-.145-4.544,1.673h0Zm.3.736,4.331-2.166h0Zm.591,6.5-3.424-3.424h0Zm-1.141,1.627L98.13,26.05h0Zm-3,2.51,1.531-4.594h0Zm-5.909-1.773-4.5,1.8.882,2.205,2.284.652Zm-2.364-5.909-4.03-2.686-1.413,2.12L86.5,25.2ZM84.418,37.917c-2.835,3.189-4.709,2.47-3.915,2.7l-2.661,9.313c3.552,1.015,9.085-.255,13.814-5.576Zm1.891-2.072c-.541.584-1.183,1.277-1.891,2.072l7.239,6.434c.632-.711,1.211-1.335,1.755-1.923Zm.941-.489c.374.321.63.561.8.739s.211.244.183.2a2.178,2.178,0,0,1-.262-.63,2.993,2.993,0,0,1-.058-1.22,2.269,2.269,0,0,1,.208-.672c.028-.053.009,0-.131.177s-.335.415-.63.744-.634.7-1.053,1.148l7.1,6.584c.765-.826,1.61-1.73,2.26-2.576a8.652,8.652,0,0,0,1.8-3.863,6.984,6.984,0,0,0-1.157-5.029A14.807,14.807,0,0,0,93.553,28ZM78.516,17.993c-.516,3.612.8,7.117,2.379,9.839a30.139,30.139,0,0,0,6.355,7.524L93.553,28a20.484,20.484,0,0,1-4.282-5.034A6.4,6.4,0,0,1,88.1,19.363ZM90.643,5.22a23.113,23.113,0,0,0-6.472,4,21.22,21.22,0,0,0-3.376,3.541,11.745,11.745,0,0,0-2.279,5.232l9.588,1.37A2.884,2.884,0,0,1,88.6,18.5a11.645,11.645,0,0,1,1.832-1.888,19.027,19.027,0,0,1,2.24-1.625c.768-.474,1.13-.61,1.038-.58Zm14.855.565a13.74,13.74,0,0,0-9.2-1.892A27.4,27.4,0,0,0,90.643,5.22l3.063,9.189a17.945,17.945,0,0,1,3.657-.889,4.355,4.355,0,0,1,2.762.324Zm9,17.971a10.071,10.071,0,0,0-.054-5.984,19.344,19.344,0,0,0-2.206-4.762A24.99,24.99,0,0,0,105.5,5.785l-5.373,8.059a15.552,15.552,0,0,1,3.9,4.3,9.819,9.819,0,0,1,1.118,2.329c.191.658.03.634.167.221Zm-.641,2.093c.242-.82.445-1.505.641-2.093l-9.189-3.063c-.259.778-.511,1.633-.741,2.412Zm-8.681,10.673a6.615,6.615,0,0,0,4.818-2.172,11.24,11.24,0,0,0,1.931-2.963,41,41,0,0,0,1.932-5.539L104.567,23.1a32.961,32.961,0,0,1-1.415,4.177c-.23.492-.323.548-.2.418a3.11,3.11,0,0,1,2.224-.863Zm2.479-1.3a1.1,1.1,0,0,1,.018-.147c.017-.09.026-.074-.022.026a2.317,2.317,0,0,1-.678.793,2.991,2.991,0,0,1-1.8.625V26.837a6.892,6.892,0,0,0-6.257,4.077,10.275,10.275,0,0,0-.95,4.312ZM128.582,60.61c-2.039-5.1-6.036-11.006-10.177-16.157a88.581,88.581,0,0,0-12.582-13.021L99.8,39.017a79.359,79.359,0,0,1,11.056,11.5c3.935,4.895,7.227,9.919,8.733,13.686ZM130,70.567a3.463,3.463,0,0,1,2.186.723c.207.17.213.238.059.008a14.39,14.39,0,0,1-1.206-2.527,57.084,57.084,0,0,1-2.226-7.436l-9.445,2.146a66.614,66.614,0,0,0,2.65,8.816,23.472,23.472,0,0,0,2.173,4.38,9.587,9.587,0,0,0,1.839,2.09A6.249,6.249,0,0,0,130,80.253Zm19.225,38.071a7.42,7.42,0,0,0,.55-2.974,13.674,13.674,0,0,0-.242-2.336,34.449,34.449,0,0,0-1.323-4.8,103.975,103.975,0,0,0-4.693-11.117,107.324,107.324,0,0,0-5.627-10.283,32.316,32.316,0,0,0-2.674-3.708,11.083,11.083,0,0,0-1.6-1.544,5.983,5.983,0,0,0-3.616-1.3v9.686a4.111,4.111,0,0,1-1.713-.363,2.939,2.939,0,0,1-.558-.328c-.106-.081-.054-.059.167.2a23.291,23.291,0,0,1,1.823,2.564,98,98,0,0,1,5.084,9.311,94.525,94.525,0,0,1,4.245,10.028,25.211,25.211,0,0,1,.958,3.406,4.543,4.543,0,0,1,.085.664,2.5,2.5,0,0,1,.232-.907Zm2.42,5.881a16.382,16.382,0,0,1-1.966-3.7,7.261,7.261,0,0,1-.44-1.766c-.04-.45.037-.536-.014-.417l-8.9-3.815c-1.465,3.42-.568,7.05.255,9.312a26.027,26.027,0,0,0,3.234,6.082ZM156.1,135.5a37.76,37.76,0,0,0-1.191-11.176,69.52,69.52,0,0,0-2.667-8.711l-9.027,3.51a59.923,59.923,0,0,1,2.267,7.423,28.639,28.639,0,0,1,.966,8.149Zm-3.963,15.194A51.238,51.238,0,0,0,156.1,135.5l-9.652-.8a41.711,41.711,0,0,1-3.128,11.99Zm-12.061-12.648,2.955,11.819,9.4-2.349-2.955-11.819Zm.147-12.521a16.152,16.152,0,0,1,0,9.691l9.1,3.31a25.723,25.723,0,0,0,0-16.311ZM133.473,111.5a110.107,110.107,0,0,1,6.745,14.026l9.1-3.31a119.23,119.23,0,0,0-7.438-15.521ZM123.025,85.926c2.815,2.815,5.126,7.216,6.85,11.967a60.956,60.956,0,0,1,3,11.842l9.6-1.28a70.539,70.539,0,0,0-3.5-13.865c-1.921-5.3-4.829-11.236-9.106-15.513Zm-4.159-8.866c1.059,2.681,2.209,5.612,3.29,7.682l8.587-4.48c-.789-1.513-1.73-3.878-2.868-6.759ZM114.3,67.087a22.471,22.471,0,0,1,2.063,3.882c.823,1.842,1.653,3.941,2.5,6.09l9.008-3.557c-.83-2.1-1.74-4.41-2.666-6.483a31.039,31.039,0,0,0-3.158-5.743ZM111.887,63.9c.847,1.11,1.659,2.175,2.415,3.182l7.748-5.811c-.784-1.044-1.621-2.142-2.463-3.246Zm-8.553-12.094A127.36,127.36,0,0,0,111.887,63.9l7.7-5.875a120.386,120.386,0,0,1-7.844-11.025Zm-1.052-1.934c.308.58.663,1.252,1.052,1.934l8.41-4.805c-.3-.526-.585-1.061-.9-1.662Zm-4.2-3.9a2.67,2.67,0,0,1,2.124.623,13.04,13.04,0,0,1,2.074,3.277l8.559-4.534a21.431,21.431,0,0,0-3.991-5.793,12.259,12.259,0,0,0-8.766-3.259Zm-3.01,2.932a5.5,5.5,0,0,1,1.169-2.044,2.376,2.376,0,0,1,1.841-.888V36.292a12.04,12.04,0,0,0-8.943,3.988,15.139,15.139,0,0,0-3.411,6.082Zm.171,5.817V47.635H85.559v7.091Zm1.568,4.518-1.773-5.91-9.277,2.783,1.773,5.909ZM75.476,48.4l13,15.365,7.394-6.256-13-15.365Zm24.738-36.243a9.741,9.741,0,0,0-6.956,1.479,15.385,15.385,0,0,0-3.624,3.125l7.441,6.2a5.125,5.125,0,0,1,.5-.508,5.474,5.474,0,0,1,.747-.564,2.013,2.013,0,0,1,.446-.22,1.154,1.154,0,0,1-.458-.015Zm6.839,5.885a9.336,9.336,0,0,0-1.845-3.224,8.934,8.934,0,0,0-4.994-2.661l-1.9,9.5c.231.046.257.08.165.031a1.35,1.35,0,0,1-.194-.126,1.8,1.8,0,0,1-.231-.212,1.5,1.5,0,0,1-.23-.321c0-.007.006.011.03.072s.056.145.109.29Zm.088.244c.024.048.028.063.009.016l-.037-.1-.06-.163-9.089,3.347a11.9,11.9,0,0,0,.514,1.228Zm-.316,12.09a6.907,6.907,0,0,0,1.892-4.383,12.813,12.813,0,0,0-.17-3.088,18,18,0,0,0-1.406-4.62l-8.663,4.332c-.023-.046,0-.014.047.12s.1.285.163.481a10.286,10.286,0,0,1,.306,1.279c.035.208.055.382.064.52a1.678,1.678,0,0,1,.005.2c0-.007,0-.046.017-.112a2.246,2.246,0,0,1,.086-.314,3.38,3.38,0,0,1,.81-1.261Zm-.436.732c.21-.343.342-.557.458-.728.052-.077.08-.114.087-.122a1.593,1.593,0,0,1-.109.118l-6.849-6.849A13.709,13.709,0,0,0,98.13,26.05Zm-8.657,4.575a6.361,6.361,0,0,0,6.635-1.8,15.723,15.723,0,0,0,2.022-2.775L98.13,26.05c-.224.365-.38.619-.528.837s-.206.273-.173.24a2.628,2.628,0,0,1,.9-.564,3.627,3.627,0,0,1,2.464-.068Zm-5.709-1.711c1.4.4,4.408,1.277,5.709,1.711l3.063-9.189c-1.536-.512-4.753-1.447-6.11-1.835ZM86.5,25.2l2.364,5.909,8.993-3.6-2.364-5.91Zm2.831-8.03-2.364,3.546,8.059,5.373,2.364-3.546Z"
                transform="translate(142.04 5.188)" />
            <path id="Path_1000" data-name="Path 1000"
                d="M79.232,76.088C66.7,76.536,53.527,83,48.507,86.17v7.282L61.158,84.49l18.074-2.8h43.979c22.652,0,31.93,7.842,33.737,11.762,6.266-.9,2.611-8.215,0-11.762-23.134-3.585-42.172-5.228-48.8-5.6Z"
                transform="translate(104.869 166.334)" stroke="#000" stroke-width="3" />
            <path id="Path_1001" data-name="Path 1001"
                d="M53.6,109.8c3.73-2.839,1.554-13.409,0-18.338l8.741,1.775v20.113c0,5.324-4.662,7.1-7.576,9.465s-2.331,10.648-1.165,13.606,8.741,8.282,18.065,10.648c7.459,1.892,24.281,1.579,31.468,1.776,10.683,0,33.449-1.421,39.043-2.367a23.954,23.954,0,0,0,10.489-4.141c3.5-1.577,10.956-4.969,12.82-5.916,2.331-1.183,3.5-6.507,3.5-10.648s-4.079-5.324-8.158-5.324-6.41-.591-11.072,0-2.914-2.958-7.575-4.141-2.914-8.282,0-10.648,6.993,1.775,9.906,2.958,4.662,4.141,6.41,4.732,4.662-1.775,4.662-5.324c0-2.839.777-11.634,0-15.38-.583-3.352,0-10.056-2.331-13.014-1.954-2.479,4.856,3.944,6.41,7.69V99.743c0,1.42,2.72,6.113,4.079,8.282,2.8.473,5.05,10.056,5.827,14.789,8.158,1.775,7.77,3.747,8.158,7.1-2.331,6.507-7.575,5.324-8.158,6.507a25.562,25.562,0,0,1-8.158,8.282c-4.662,2.957-26.806,7.69-34.964,7.69H90.9c-9.906,0-25.058-2.957-36.13-7.1s-12.237-13.606-12.237-19.521S48.941,113.348,53.6,109.8Z"
                transform="translate(91.552 172.992)" stroke="#000" stroke-width="3" />
            <path id="Path_1002" data-name="Path 1002"
                d="M99.366,113.433c3.5,2.429,6.126-1.176,6.521-1.765l-1.186-2.353a2.33,2.33,0,0,0-2.964,0c-1.423.941-3.359-1.177-4.15-2.353a4.978,4.978,0,0,1,2.964-4.119c2.846-1.412,3.162-7.452,2.964-10.59,0-1.177,1.186-3.765,1.186-4.707s4.742,1.961,7.114,3.53l18.97,1.177v-3.53c-4.94-.588-15.65-1.883-18.97-2.354-4.15-.588-4.743-4.118-5.335-4.118a35.619,35.619,0,0,0-14.82,0c-8.3,1.765-2.964,2.942-1.778,6.472s9.485,1.176,9.485,6.472a9.378,9.378,0,0,1-4.15,8.237H83.36c-5.138-.392-13.042-.941-15.413,0-2.964,1.176-13.768,6.82-9.485,8.237C63.8,113.433,93.438,109.314,99.366,113.433Z"
                transform="translate(124.846 178.319)" stroke="#000" stroke-width="3" />
            <path id="Path_1003" data-name="Path 1003"
                d="M49.258,112.276c-1.472-4.245,7.972-10.022,12.878-9.432l4.293-1.179a15.613,15.613,0,0,0,4.293-3.537c1.227-1.769,0-2.358-2.453-3.537s-4.293-.59-7.359,0-1.84,0-4.293-.59S56,89.284,57.844,88.1A23.147,23.147,0,0,0,63.363,82.8c.981-1.415,4.5-1.769,7.359-1.179,4.7-.393,15.086-1.061,19.011-.59,4.906.59,9.578,3.672,6.746,5.306C93.413,88.1,86.054,91.053,84.214,94c-2.02,3.237-7.972,5.9-8.586,6.485a21.254,21.254,0,0,1-7.359,2.358c-1.84,0-3.68,4.716-4.906,7.074s0,2.948-1.227,4.127S51.1,117.581,49.258,112.276Z"
                transform="translate(106.201 176.988)" stroke="#000" stroke-width="3" />
            <path id="Path_1004" data-name="Path 1004"
                d="M53.369,91.169c-.686-.475,3.144-.989,5.145-1.186,1.143-.2,3.6-.356,4.287.593s-1.429,1.186-2.572,1.186C58.228,91.762,54.055,91.643,53.369,91.169Z"
                transform="translate(115.523 196.964)" stroke="#000" stroke-width="3" />
            <path id="Path_1005" data-name="Path 1005"
                d="M172.393,115.415c4.708-.475,7.847-9.285,8.828-13.631h2.943c-5.179,19.436-18.637,23.307-24.13,23.7-14.6,0-31.193,0-37.667-1.185-7.062-3.558-12.555-5.137-17.068-4.743-22.6-3.79-38.255-2.961-44.141,0-3.531-1.776-7.533,1.185-11.771,1.185-5.3,0-8.24,4.149-14.714,6.518-5.179,1.9-7.651,3.952-8.239,4.743,9.417,0,10.005,1.185,11.182,4.145.941,2.373,3.924,2.964,5.3,2.964,4.12-1.776,11.182-4.739,14.125-5.333,6.474-1.3,31.781-.591,48.26-.591,4.708,1.776,6.121.591,9.417.591s9.809,1.779,12.948,2.964l46.495-.594c13.654-1.9,21.384-13.824,23.542-19.552l-1.177-14.816h5.885l-1.765,20.146c-16.479,21.809-20.6,19.026-26.484,20.74-22.365,6.518-40.61,4.743-62.974-.591-3.436-.82-6.474-4.149-14.713-4.149H61.159c-3.3,0-11.575,3.952-15.3,5.333-2.158,1.579-7.062,4.978-9.417,5.924-2.943,1.185-6.474,5.927-10.005,9.482S15.841,164,14.664,163.41c-.942-.475,7.455-9.679,11.771-14.222,2.746-1.973,6.121-5.924-2.354-5.924-10.594,0-15.3,6.518-18.833,5.924-2.825-.475-1.177-4.145,0-5.924,9.888-19.436,25.7-26.664,32.37-27.849,8.239-2.964,15.694-3.161,21.187-1.188,17.068-4.145,38.844,0,48.849,1.188,14.125.591,21.776,0,25.9,2.37,3.3,1.9,11.771,2.764,15.891,2.961A103.717,103.717,0,0,1,172.393,115.415Z"
                transform="translate(4.989 223.598)" stroke="#000" stroke-width="3" />
            <path id="Path_1006" data-name="Path 1006"
                d="M95,141.47c-14.287-2.386-24.407-12.914-27.383-19.668l-2.976-4.171c.476-19.549,3.373-17.683,4.762-14.306-2.381,6.557,4.167,18.477,5.953,21.457S82.5,132.53,91.43,137.3s26.788,2.386,33.336,2.386,20.24-2.386,23.216-2.386,7.739-2.383,14.287-2.383h35.716c19.646,2.98,23.216,11.326,25,12.517s2.379-1.789,2.977-5.96c.475-3.338,5.356-1.789,7.739-.6a11.357,11.357,0,0,0,1.188-4.171c0-1.789-7.141-5.96-9.524-6.557s-12.5-6.554-17.263-8.342-43.456-2.386-47.028-1.789c-2.857.478-9.922,1.588-13.1,2.98-15.477,3.577-40.48-1.191-48.218-2.98s-15.477-10.131-20.24-14.9c-3.81-3.816,4.366-3.577,8.929-2.98,5.953,13.708,16.668,11.92,23.812,13.708a91.541,91.541,0,0,0,29.169,1.789c7.62-.956,18.851-1.592,22.621-2.98,9.525-3.338,36.113-.2,49.408,1.191a63.557,63.557,0,0,1,13.1,4.769c21.431,13.111,26.193,21.453,28.572,25.628s-4.165,4.171-7.141,4.765c-2.383.478-5.359-5.166-5.953-6.554-5.953,0-5.953,0-9.524,2.98h0c-3.574,2.98,7.739,6.554,10.715,9.534,2.379,2.386-6.153,4.969-10.715,5.96-18.1-18.115-35.32-22.645-41.67-22.645-9.05-3.338-28.376-1.392-36.909,0C130.124,145.641,105.519,143.259,95,141.47Z"
                transform="translate(140.827 222.267)" stroke="#000" stroke-width="3" />
        </g>
    </g>
</svg>  