<svg xmlns="http://www.w3.org/2000/svg" width="570" height="570" viewBox="0 0 570 570">
    <g id="Group_13" data-name="Group 13" transform="translate(-1101 -1402)">
        <rect id="Rectangle_1" data-name="Rectangle 1" width="570" height="570"
            transform="translate(1101 1402)" fill="none" />
        <g id="White_King" data-name="White King" transform="translate(1152.614 1461.171)">
            <path id="Path_955" data-name="Path 955"
                d="M117.8,92.348c6.315,0,70.647,27.1,65.9,42.1,5.32-11.363-.706-9.46-.706-25.7,0-21.126-11.419-29.252-16.313-56.878-3.915-22.1,11.419-28.71,19.575-29.252,0-21.126,40.411-16.462,68.143-21.337s55.4,55.194,43.554,77.21c-10.007,18.605-15.452,51.384-13.821,44.884s33.725-10.086,57.375-21.127c22.406-10.461,68.34,3.251,100.966,27.627s24.359,63.379,24.359,91.005-45.672,91.005-55.46,91.005-26.1,61.753-16.313,79.629c7.828,14.3,3.263,34.126,0,42.251-24.47,22.751-78.3,11.375-145.183,17.877s-176.176-19.5-169.651-40.628-29.737-91-29.737-99.129S21.505,256.631,6.824,235.5s0-68.254,26.1-105.631S111.279,92.348,117.8,92.348Z"
                transform="translate(-1 -1)" fill="#f8f5f1" />
            <path id="Path_956" data-name="Path 956"
                d="M86.787,349.441c-7.378-7.106-14.337-10.669-8.28-21.358,5.869-10.312-10.48-33.725-22.763-34.585-5.6-.377-11.235.524-16.035-3s-3.144-8.95-3.4-13.813a7,7,0,0,0-1.991-5.03c-17.774-11.109-14.379-34.1-27.039-47.978a8.636,8.636,0,0,1-1.509-7.064c4.066-13.037.692-26.054.755-39.049a29.344,29.344,0,0,1,4.842-15.783q11.172-17.984,21.757-36.3c2.85-4.926,5.512-10.291,10.795-12.576A167.257,167.257,0,0,0,76.474,95.57c4.381-3.165,9.7-1.488,14.547-.524,32.845,6.561,59.8,23.057,81.452,48.419,1.467,1.74,2.41,4.632,5.659,3.919.734-.943,2.1-1.886,2.1-2.767-.713-19.787,7.881-34.752,23.811-45.714a16.769,16.769,0,0,0,8.007-15.657c-.293-9.139-2.432-11.088-11.109-9.139-2.431.545-4.716,1.677-7.126,2.1-11.025,2.306-15.049-.692-15.029-11.864,0-8.7,1.383-17.376-2.39-25.76-2.327-5.156-1.048-9.621,3.542-13.2,5.429-4.192,9.034.629,13.226,2.494.524-1.153,1.593-2.327,1.383-3.228-4.192-17.984-.587-21.9,18.005-19.493,9.034,1.153,17.795,4.674,27.1-.524a10.647,10.647,0,0,1,13.477,3.605c3.689,4.947,1.09,9.558-1.425,13.876a48.654,48.654,0,0,1-5.785,7.231c-2.306,2.6-3.605,5.617-.692,8.112s5.7.629,8.049-1.7a37.554,37.554,0,0,1,5.47-4.9c2.536-1.677,5.45-3.5,8.594-1.823,3.815,2.1,4.464,5.638,3.982,9.642-1.362,11.633-4.465,23.056-.44,35.067,1.824,5.429-3.752,9.034-9.453,8.384-4.192-.461-8.384-2.536-12.45-3.857-3.48-1.111-7.064-3.48-10.48-.734-4.527,3.563-1.551,7.965-.692,12.052.251,1.216.377,2.955,1.174,3.458,18.13,11.34,18.592,32.531,26.326,49.446A29.347,29.347,0,0,0,281.781,132.1c10.082-12.367,23.056-18.7,38.4-20.961a28.232,28.232,0,0,0,8.992-2.39c18.131-9.432,35.528-2.1,52.821,2.494,18.423,4.884,30.222,17.774,40.893,33.306,22.739,33.034,22.007,65.753,3,99.583-5.472,9.726-9.934,20.059-15.846,29.512-6.185,9.914-11.843,20.415-23.749,25.487-7.043,3.018-9.893,11.046-15.427,16.077a6.288,6.288,0,0,0-1.09,8.384c5.491,8.74,4,16.768,1.111,26.536-3.06,10.291-1.907,21.757-6.456,32.174-1.866,4.319,2.746,7.9,4.192,11.906,4.486,12.409.692,18.613-11.947,23.246-26.85,9.827-54.9,9.075-82.689,9.954A1059.985,1059.985,0,0,1,136.023,423.1,230.562,230.562,0,0,1,92.006,415c-11.36-3.393-14.672-8.109-14.169-20.415.252-7.21-2.934-13.309-4.045-20.016C72.115,364.385,71.423,354.555,86.787,349.441Zm182.04-94.175c-12.89,8.552-13.121,21.442-11.884,34.773,1.928,21.212,1.949,21.212-19.724,18.026-2.222-.335-4.444-.776-7.755-1.341,6.665-4.36,12.576-11.654,7.734-15.322-9.621-7.252-5.995-15.594-4.7-23.056,2.1-11.57,5.429-23.056,7.9-34.542,1.509-7.043,3.438-15.364,13.939-19.787-1.446,20.96-17.188,36.974-14.022,57.18,4.926-.881,6.98-3.961,7.126-6.77.86-16.349,10.48-29.344,17.5-42.864,11.109-21.107,22.616-42.067,47.328-52.275,33.537-13.855,73.045,5.554,74.641,39.615.523,10.9,2.578,21.945-1.552,36.764,17.418-14.043,15.656.629,18.32,10.606,12.575-24.88,18.863-48.67,17.418-72.523-1.2-20.583-6.854-41.585-28.694-53.155-32.369-17.151-61.138-16.56-89.9-1.549a141.379,141.379,0,0,0-20.642,13.518c-7.4,5.743-13.456,12.073-23.874,12.807-8.007.566-16.077,3.857-16.412,14.672-.147,4.423-3.123,6.288-7.106,7.378-14.19,4.192-28.087,1.614-41.921-1.425-8.384-1.823-10.27-9.956-14.672-15.447a127.455,127.455,0,0,0-38.672-32.028c-17.9-9.977-37.833-15.259-59.255-10.9a70.323,70.323,0,0,0-37.959,22.449c-11.549,12.576-9.369,31.608-18.089,45.945.818,29.575,6.728,57.578,25.362,81.556,4.3,5.512,8.8,11.151,16.6,13.771,2.369-10.48-7.86-13.247-9.348-20.478-4.3-20.961-11.256-41.355-12.367-62.881-.188-3.5,1.32-6.288,5.072-6.288s5.575,2.348,5.114,6.057c-.839,6.519-1.195,12.891,3.521,19.242a47.64,47.64,0,0,0,3.333-7.986c6.686-32.007,28.192-45.484,59.632-36.89,27.793,7.546,44.205,29.156,57.075,52.233,10.187,18.235,15.448,39.279,19.451,60.135.943,4.842,2.7,10.606-4.486,11.947-6.078,1.132-8.866-3.521-10.48-8.552a67.078,67.078,0,0,0-9.076-20.352,28.211,28.211,0,0,0-18.7,14.337c-7.211,13.394-1.7,24.251,13.666,25.76a28.025,28.025,0,0,0,10.837-1.761,46.889,46.889,0,0,1,27.248-.44c-7.8,5.513-16.768,3.857-25.278,4.947-12.052,1.551-25.152-2.893-35.968,5.953-2.557,2.1-4.737-.168-6.288-1.949-6.288-7-6.875-14.211-.272-21.463-5.219-16.391,6.728-21.212,17.816-27.018,4.318-2.264,7.839-5.995,11.759-9.076-5.03-18.173-18.718-30.812-28.611-45.463-5.764-8.51-17.1-14.127-27.6-18.3S92.635,196.263,82.846,197c-.943,0-2.39,3.081-2.369,4.716,0,11.717-3.563,23.056-1.258,35.129a207.517,207.517,0,0,0,14.106,47.181c8.971-5.219,18.864-6.414,27.982,1.635,2.264,2.1,4.591,4.506,2.83,8.049a7.189,7.189,0,0,1-7.5,4.506A152.95,152.95,0,0,1,98.8,293.078c-6.183-2.1-9.013,1.572-7.8,6.288a53.636,53.636,0,0,1,1.488,22.155c-2.1,12.786-1.823,13.436,10.921,11.738q46.249-6.288,92.791-8.929c51-3,101.7-4,151.774,8.573,1.572.4,3.668.189,4.066-2.285-11.528-14.567-11.612-13.415-28.967-14.546-14.672-.943-30.56,2.222-44.331-7.127a32.956,32.956,0,0,1,2.787-4.192c1.3-1.341,3.018-2.285,4.192-3.71,11.989-14.379,10.69-21.128-6.414-28.674-8.07-3.584-11.193-9.2-10.858-17.5a11.3,11.3,0,0,0,12.22-2.2c6.518-6.477,14.672-5.7,22.616-6.686,2.369-.293,4.842-1.8,6.288,1.279,1.111,2.515-.5,4.674-1.509,6.959-2.746,6.288-12.849,2.1-14.379,11.968,8.887,1.823,12.576,9.2,13.478,17.418,2.1,20,13.415,26.242,32.3,25.949,7.818-.126,11.654-2.536,14.358-8.51,6.519-14.3,1.153-30.77-14.84-39.343-7.567-4.066-11.738-7.441-11.025-16.328a18.449,18.449,0,0,0-3.48-10.48c-3.919-6.12-3.4-10.92,3.71-12.953,6.539-1.886,12.723-.377,14.567,7.462a71.889,71.889,0,0,1,1.908,14.672c.251,12.849,5.324,21.841,17.816,25.592,14.274-17.774,11.822-35.968,4.947-55.063-8.384-23.518-31.022-35.108-52.4-26.368C292.512,197.6,269.645,230.072,268.827,255.266Zm76,147.289a108.428,108.428,0,0,0-2.264-15.846c-2.557-8.8-8.384-10.314-15.741-3.795a21.372,21.372,0,0,1-16.957,5.87c-20.835-1.655-42.047.166-62.441-5.157-14.882-3.9-32.132,1.8-44.771-11.759-4.7-5.031-16.873-6.791-12.576-15.2s13.31,0,19.682,1.719c8.51,2.369,16.37,6.121,25.152,1.551,6.037-3.165,12.576-7.755,19.032-2.641s-3.417,11.277.146,18.382c14.358,2.285,29.177,6.561,44.688,7.106,5.051.189,8.8.5,11.528-6.037,4.465-10.669,13.058-16.119,25.152-10.878,3.333,1.446,6.288,1.32,7.944-1.949,2.1-4.192,8.384-6.6,5.743-12.576-2.306-5.114-5.009-9.2-11.717-10.669-14.064-3.039-28.38-2.536-42.529-4.444-23.2-3.123-46.846-6.288-70.154.252a9.16,9.16,0,0,1-8.72-1.4c-5.575-4.192-11.926-2.662-18.047-2.452-21.715.713-43.262,1.677-64.872,5.576a138.691,138.691,0,0,0-29.931,8.384c-9.579,4.045-6.477,12.3-7.315,19.284-.356,3.018-.817,7.022,2.976,7.8,6.707,1.4,9.076-5.345,13.415-8.384,2.473-1.782,5.324-3.375,6.079-6.77-.964-4.192-9.013-2.431-7.818-8.971a126.475,126.475,0,0,1,15.217,7.378c6.1,3.94,7.231,11.381,6.6,17.292-.545,5.282-6.288,3.123-10.836,2.494-6.812-.964-17.879,7.127-19.975,13.685a4.783,4.783,0,0,0,4.192,6.731,63.5,63.5,0,0,0,9.348,0c24.712,0,49.4-2.518,74.011-2.768,27-.273,54.161,1.279,81.221,2.684C295.07,398.152,319.551,401.339,344.829,402.555Zm-140.161-275c1.09,3.92,1.866,10.292,4.569,15.72,7,14,24.964,17.041,33.013,6.142a29.722,29.722,0,0,0-.9-36.22c-5.764-7.608-17.648-13-24.041-10.9C210.39,104.583,204.521,115.272,204.668,127.555ZM252.29,58.7c.482-4.8-1.656-6.288-3.961-7.106-12.849-4-24.524-8.384-18.382-26.137a6.6,6.6,0,0,0-6.142-7.944c-4.968,0-5.03,4.527-4.7,8.384s-.209,6.057,0,9.788c-3.27,11.151.377,14.064-12.723,14.882-4.947.315-10.48.461-15.448,3.626,4.737,8.489,11.57,5.072,17.376,5.093,8.384,0,12.87,3.144,12.576,12.178,0,1.74-.189,5.848,0,7.713.126,2.767,7.126,2.515,7.064-.251-.4-16.349-.839-18.592,21.086-18.864a11.388,11.388,0,0,0,3.291-1.362Z"
                transform="translate(12.511 6.544)" />
            <path id="Path_957" data-name="Path 957"
                d="M155.4,86.5a12.459,12.459,0,0,1-8.889-6.288C134.606,62.267,118.8,52,96.4,54.427c-3.647.4-8.279,1.132-9.747-3.207C84.909,46,88.032,41.7,91.763,38.12s6.833-1.174,9.411,1.635c5.114,5.534,9.788,8.028,17.837,3.815,6.12-3.228,11.843,1.237,15.049,7.5,2.893,5.7,6.414,10.816,12.87,12.849C159,67.674,159.193,75.849,155.4,86.5Z"
                transform="translate(251.01 103.525)" />
            <path id="Path_958" data-name="Path 958"
                d="M85.26,131c-7.4-28.191-19.933-53.6-38.022-80.152,10.48,0,14.295,3.375,17.607,7.567C75.052,71.349,87.628,113.332,85.26,131Z"
                transform="translate(135.839 146.528)" />
            <path id="Path_959" data-name="Path 959"
                d="M36.78,59.245c7.42-.838,15.175,7.965,11.8,13.289C44.6,78.822,43.173,84.355,44.829,91.4a5.01,5.01,0,0,1-3.521,5.722,6.121,6.121,0,0,1-6.645-2.1c-5.407-6.037-7.022-25.32-2.536-31.755A22.333,22.333,0,0,1,36.78,59.245Z"
                transform="translate(83.417 171.208)" />
            <path id="Path_960" data-name="Path 960"
                d="M53.014,48.123c13.037,15.322,25.781,55.8,25.152,74.766a7.986,7.986,0,0,1-5.45-6.875C72.632,92.811,53.433,75.163,53.014,48.123Z"
                transform="translate(152.932 138.46)" />
            <path id="Path_961" data-name="Path 961"
                d="M104.59,61.779c.923-4.192-1.362-10.48,5.492-11.591,3.92-.671,10.168,8.531,9.558,13.75s-3.837,9.5-9.475,9.139C102.852,72.636,105.3,66.243,104.59,61.779Z"
                transform="translate(305.57 144.466)" />
            <path id="Path_962" data-name="Path 962"
                d="M47.461,80.621c-7.064,0-11.78-1.887-11.088-8.175.524-4.653,4.444-7.127,9.6-6.1a8.262,8.262,0,0,1,1.781.482c4.674,2.1,13.478,0,13.184,6.917C60.582,82.151,50.584,77.016,47.461,80.621Z"
                transform="translate(103.485 191.711)" />
            <path id="Path_963" data-name="Path 963"
                d="M44.586,49.667a12.136,12.136,0,0,1-12.849,5.806c-8.028-1.153-6.183-7.839-6.288-13.058-.126-4.045,2.746-5.785,5.953-4.192C36.6,41.052,42.594,43.148,44.586,49.667Z"
                transform="translate(71.021 107.425)" />
            <path id="Path_964" data-name="Path 964"
                d="M61.5,65.17,44.925,53.935c-3-2.1-4.192-5.114-2.1-7.923a6.414,6.414,0,0,1,9.789-.8C57.5,49.952,60.2,56.031,61.5,65.17Z"
                transform="translate(119.666 124.222)" />
            <path id="Path_965" data-name="Path 965"
                d="M72.45,71.7a3.794,3.794,0,0,1-3.794-3.459,8.385,8.385,0,0,1,.817-5.366C72.952,58.135,72.722,50.3,80.5,49.185a3.312,3.312,0,0,1,3.773,3.207c-.545,7.755-3.291,14.526-10.208,18.864A5.46,5.46,0,0,1,72.45,71.7Z"
                transform="translate(198.83 141.506)" />
            <path id="Path_966" data-name="Path 966"
                d="M40.662,38.739A9.768,9.768,0,0,1,46.95,49.785c-.314,2.956-2.976,3.605-5.638,3.165-4.926-.8-8.049-3.794-7.9-8.72C33.619,41.066,35.988,38.656,40.662,38.739Z"
                transform="translate(94.899 110.681)" />
            <path id="Path_967" data-name="Path 967"
                d="M25.2,55.153c-3.836-.5-7.4-2.1-8.091-5.953-.881-4.9,3.521-5.68,6.938-5.995,4.192-.4,9.181-.272,9.034,5.6C32.981,52.868,28.433,53.56,25.2,55.153Z"
                transform="translate(46.351 123.506)" />
            <path id="Path_968" data-name="Path 968"
                d="M81.445,54.635c-3.144-.65-4.758-3.165-4.192-5.261,1.7-5.6,5.387-9.39,11.927-8.74,2.7.272,5.093,1.886,4.192,4.507C91.359,50.569,86.684,53.357,81.445,54.635Z"
                transform="translate(224.335 116.081)" />
            <path id="Path_969" data-name="Path 969"
                d="M65.475,70.363c-1.782-2.766-2.452-3.333-2.39-3.794.88-6.1,1.53-12.409,7.923-15.636.608-.314,2.725.8,2.934,1.572C76.059,60.386,71.322,64.872,65.475,70.363Z"
                transform="translate(182.726 146.613)" />
            <path id="Path_970" data-name="Path 970"
                d="M60.191,82.164c-2.2.167-2.872-1.467-3.165-3.165-.377-2.327-.293-4.8,2.851-5.093a3.124,3.124,0,0,1,3.438,3.018C63.691,79.439,63.147,81.514,60.191,82.164Z"
                transform="translate(164.345 214.713)" />
            <path id="Path_971" data-name="Path 971"
                d="M74.058,46.825c-.692,2.494-2.306,4.611-4.779,4.653-1.739,0-2.557-2.494-1.844-4.066A6.916,6.916,0,0,1,71,43.911C72.822,43.324,74.415,44.393,74.058,46.825Z"
                transform="translate(194.85 125.527)" />
            <path id="Path_972" data-name="Path 972"
                d="M37.571,104.931c20.5-4.779,39.678-13.75,59.884-1.845a5.173,5.173,0,0,1-4.045,6.121q-22.658,1.782-45.421,2.641C44.446,111.975,40.9,110.193,37.571,104.931Z"
                transform="translate(107.231 283.626)" />
            <path id="Path_973" data-name="Path 973"
                d="M84.125,71.045C98.273,73.728,110.87,71.7,117.2,84.9,101.857,93.494,100.558,93.1,84.125,71.045Z"
                transform="translate(245.005 206.296)" />
        </g>
    </g>
</svg>  