<svg xmlns="http://www.w3.org/2000/svg" width="570" height="570" viewBox="0 0 570 570">
    <g id="Group_7" data-name="Group 7" transform="translate(-900 -806)">
        <rect id="Rectangle_1" data-name="Rectangle 1" width="570" height="570"
            transform="translate(900 806)" fill="none" />
        <g id="Group_26" data-name="Group 26" transform="translate(971.25 904.537)">
            <path id="Path_1007" data-name="Path 1007"
                d="M73.773,95.314c9.007-11.968,41.281-31.166,56.293-39.269-1.876-5.61-5.628-17.952-5.628-22.44,0-5.61,18.764-30.434,26.27-32.3,6-1.5,15.637,3.008,28.146,4.254l43.752,9.937c11.884,3.74,48.952,9.137,93.986,40.553,56.292,39.269,83.679,115.938,94.937,172.037s15.012,87.889,16.888,121.548-28.146,24.31-69.427,18.7-65.675-13.09-91.945-7.48-123.844,13.09-142.608,0,45.034-76.668,54.416-84.148,22.517-43.009,20.641-59.839-13.135,28.049-20.641,11.22-24.393-11.22-28.146-11.22-39.405,16.83-52.54,20.57S88.785,258,77.527,272.961s-24.394,5.61-31.9,5.61-11.259-11.22-22.517-14.96-9.383-3.74-18.765-18.7,3.753-44.879,5.629-56.1,16.888-11.22,28.146-20.57,7.506-11.22,11.258-22.44,1.876-20.57,11.259-28.05c7.477-5.961-4.515-.863,0-9.5C61.233,107.08,71.487,98.351,73.773,95.314Z"
                transform="translate(-1 -1)" fill="#f8f5f1" stroke="#f8f5f1" stroke-width="1" />
            <path id="Path_1008" data-name="Path 1008"
                d="M97.517,74.661A42.674,42.674,0,0,0,86.088,89.648a286.8,286.8,0,0,1-40.859,69.436c-4.782,5.9-12.265,11.33,0,18.166,5.834,3.251,2.391,8.1-1.841,11.951-5.571,5.282-13.221,2.534-20.3,5,7.316,12.74,16.042,6.477,22.139,2.247,9.563-6.573,16.736-18.835,29.766-6.262,9.157-3.609,19.127-5.9,27.3-11.115a118.085,118.085,0,0,1,45.211-16.9c33.878-5.832,57.954-25.169,70.051-58.106a33.759,33.759,0,0,1,2.08-6.023c2.726-4.566,3.682-13.385,10.424-11.211,9.4,3.012,5.38,11.712,3.419,18.262-2.75,9.131-10.233,15.225-15.756,22.563-3.993,5.306-6.36,9.011-.311,16.134,11.093,13.122,12.5,29.639,8.344,46.179-6.192,24.643-19.987,45.414-35.361,65.014-8.177,10.4-11.954,22.42-16.736,34.228-3.371,8.485-.215,13.266,9.3,14.341a355.554,355.554,0,0,0,70.242,0c22.57-1.936,44.613-8.485,67.517-7.6,9.061.335,12.456-5.187,13.078-13.361,3.538-46.537.956-92.621-18.72-135.549-15.3-33.463-41.433-59.206-68.9-82.869-8.033-6.932-20.729-8.462-31.153-12.931-5.547-2.39-13.436-2.39-14.488-10.541-1.148-9.059-1.721-18.214-2.056-27.344,0-1.171,2.869-3.251,4.638-3.538,9.348-1.53,20.322-2.39,25.75,5.712,6.216,9.083,14.871,9.728,23.311,12.812a149.719,149.719,0,0,1,61.229,40.108c11.189,12.31,25.414,21.727,33.017,37.455,13.652,28.4,33.974,53.565,35.169,87.768.526,14.126,2.032,29.424,7.172,43.526a37.037,37.037,0,0,1,1.291,18.978,71.1,71.1,0,0,0,2.391,31.408,60.2,60.2,0,0,1,1.578,23.233c-2.008,16.971-8.631,21.512-24.2,15.321-33.807-13.5-68.4-14.8-104.049-9.943-17.429,2.39-35.05,4.781-52.861,4.231a166.575,166.575,0,0,0-42.389,3.442c-8.416,1.888-17.668,1.865-23.382-6.119-4.925-6.836.263-13.433,2.678-20.006,7.986-21.727,23.478-38.674,36.341-57.365,3.634-5.258,6.981-10.732,11.046-15.608,16.138-19.265,14.345-40.467,6.957-64.273-9.3,5.9-18.505,10.708-26.443,17.09-6.766,5.4-13.269,8.414-21.35,4.589-11.691-5.426-22.4-1.865-32.324,4.135a86.786,86.786,0,0,1-19.127,9.059c-16.258,4.972-29.5,10.3-38.254,28.993-7.866,16.732-18.792,20.221-36.436,6.143-2.2-1.769-3.993-5.163-6.336-5.521C4.011,221.9,2.84,209.469,4.274,192.4c1.243-14.771,1.96-26.89,16.305-36.4,14.728-9.848,26.3-23.592,28.929-42.833.932-6.931,3.275-13.911,9.85-18.19.6-.382,1.841-.717,1.793-.98-2.391-19.862,15.205-21.8,26.3-29.829,11.954-8.725,20.872-21.249,35.193-27.44,4.59,7.051-1.817,10.565-5.165,13.935C109.853,58.193,101.868,65.148,97.254,75Zm201.093,27.989c15.875,11.306,18.29,25.6,24.936,37.766s13.628,24.93,16.114,38.913c2.582,14.533,4.04,29.3,12.361,42,1.984,2.988.932,4.78,0,7.529-6.145,15.632,2.128,32.244-3.156,48.043-1.267,3.824,1.483,6.812,4.973,8.27,4.112,1.721,8.416,2.079,11.5-2.056s8.105-9.011,5.547-15.13a40.958,40.958,0,0,1-1.435-26.913c2.008-8.151-2.247-15.561-6.623-21.8-5.953-8.533,5.643-15.035.861-23.9-5.379-9.9-20.9-16.206-12.911-31.838.454-.908-3.252-4.207-5.308-6.071-5.547-5.091-13.675-9.011-5.642-18.572,1.721-2.032-.622-5.426-2.917-7.171-7.7-6.071-15.158-11.473-16.736-22.922C319.075,101.886,310.994,102.053,298.609,102.651ZM237.118,41.175c-9.2-9.561-18.96-5.235-30.412-5.522C221.744,44.162,221.768,44.043,237.118,41.175ZM51.947,213.031c-.645-1.123-1.219-3.083-1.841-3.083a9.275,9.275,0,0,0-8.559,4.541c-1.984,3.2,1.052,3.514,2.534,3.657a7.317,7.317,0,0,0,7.866-5.115Z"
                transform="translate(9.1 26.708)" />
            <path id="Path_1009" data-name="Path 1009"
                d="M68.026,27.045c5.4-5.5,1.243-19.767,13.388-18.213,8.99,1.147,8.177,11.951,10.4,19.122,2.08,6.812,3.849,13.242,2.391,20.723-2.056,10.756.837,20.962,6.742,30.284,1.578,2.39,2.391,5.235-.43,7.577a5.692,5.692,0,0,1-7.746.191C85.264,80.012,74.338,75.543,79.526,61.3c2.391-6.573,2.391-14.915-9.826-14.078-4.017.263-6.36-.932-6.957,4.23-.885,7.649-6.408,11.186-13.365,11.067a15.611,15.611,0,0,1-15.086-12.74c-1.339-11.808-4.567-23.9-1.889-35.853.909-4.063,2.008-8.653,6.575-10.23,5.762-1.984,9.3,2.08,12.671,5.76C57.052,15.357,56.407,26.806,68.026,27.045Z"
                transform="translate(106.753 6.705)" />
            <path id="Path_1010" data-name="Path 1010"
                d="M31.594,23.661c3.084,6.979,10.663,5.282,15.923,8.079C64.659,40.823,68.1,59.658,78.239,73.713c1.315,1.841-.239,4.111-2.008,5.354-2.391,1.745-5.881,2.653-7.627,0-5.666-8.414-13.221-7.745-21.876-6.478-8.3,1.195-14.727-4.207-20.681-9.322-2.008-1.745-5.093-5.641-2.989-7.171,12.528-8.629,3.347-22.54,8.727-32.817Z"
                transform="translate(74.759 78.043)" />
        </g>
    </g>
</svg>  