<svg xmlns="http://www.w3.org/2000/svg" width="570" height="570" viewBox="0 0 570 570">
    <g id="Group_10" data-name="Group 10" transform="translate(-781 -819)">
        <rect id="Rectangle_1" data-name="Rectangle 1" width="570" height="570"
            transform="translate(781 819)" fill="none" />
        <g id="Group_28" data-name="Group 28" transform="translate(959.125 904.366)">
            <path id="Path_1017" data-name="Path 1017"
                d="M156.844,39.817c10.571-24.142-30.831-35.766-52.853-38.56-6.606,1.118-21.471,2.682-28.078,0C67.654-2.1,54.441,28.082,51.137,46.523S62.7,73.348,62.7,81.73,56.092,96.819,37.924,96.819,11.5,118.614,3.239,135.379s8.258,21.795,18.168,21.795c7.928,0,30.832,3.353,41.293,5.03-3.3,7.265-12.883,23.806-24.775,31.854-14.865,10.059-16.517,26.824-21.472,43.59a82.024,82.024,0,0,0,4.954,58.678c9.91,20.118,33.034,26.824,24.776,26.824S21.407,351.65,11.5,366.738c-7.928,12.071,3.3,22.912,9.91,26.824,16.517-6.706,42.943,6.706,59.46,6.706s102.4-6.706,115.617-6.706S213,380.15,214.653,366.738s-18.169-35.207-24.775-43.589c-5.285-6.706-24.225-11.736-33.034-13.412a78.848,78.848,0,0,0,21.472-6.706c9.91-5.03,11.562-15.089,24.775-31.854s-6.607-45.266-6.607-55.325S168.406,185.674,156.844,184c-9.249-1.341-9.359-9.5-8.258-13.412,0-13.412,39.64-8.382,54.505-13.412s-6.607-23.471-6.607-38.56-14.865-16.765-28.078-21.795-24.775-6.706-29.73-15.089S143.63,69.995,156.844,39.817Z"
                transform="translate(-1 -1)" fill="#f8f5f1" stroke="#f8f5f1" stroke-width="1" />
            <path id="Path_1018" data-name="Path 1018"
                d="M52.187,303.314c-1.405-6.158-6.026-7.267-10.135-8.268C22.889,290.336,15.8,274.823,13.9,258.393c-3.577-30.729,2.129-59.155,29.15-79.485,13.542-10.164,21.058-24.7,26.084-41.6-12.669-5.349-25.828-5.349-38.838-5.349-3.79,0-7.58.661-11.37.64-5.2,0-10.348-.831-12.967-6.116-2.9-5.9,1.15-9.249,4.706-13.127,10.817-11.933,22.4-22.29,39.157-24.89a32.512,32.512,0,0,0,10.519-4.5c16.289-9.184,16.651-12.231,3.3-25.209-14.756-14.171-16.076-23.7-8.006-38.57C63.3,6.236,93.005,3.423,105.93,8.815c15.756,6.542,22.251,24.229,15.991,41.724-1.576,4.39-3.982,8.119-8.773,9.163-12.158,2.6-7.878,7.352-2.981,14.214a39.47,39.47,0,0,0,28.575,16.771c18.695,2.131,28.532,14.917,37.9,28.47,4.855,7.032,2.619,10.506-6.111,13.7-6.388,2.323-12.584.319-18.8.852-9.262.788-20.4-.4-23.826,11.145-3.194,10.847,2.321,20.543,10.646,26.552,8.943,6.393,15.757,14.661,23.166,22.332,27.829,28.9,19.93,74.584-15.778,93.23a34.406,34.406,0,0,1-5.323,1.939c-3.684,1.172-7.538,2.494-7.133,7.288.341,3.857,3.854,4.56,6.92,5.37,12.669,3.346,22.421,11.614,32.109,19.69a75.631,75.631,0,0,1,20.8,29c3.258,7.586,1.491,12.338-5.749,15.066-4.684,1.748-9.858,3.942-14.607,3.537-34.707-2.855-69.371,1.343-104.121.384-16.459-.447-31.47-7.714-48.206-5.9-8.517.916-12.456-9.611-8.262-18.8,5.366-11.72,14.585-20.351,24.295-28.469C41.881,311.71,47.2,307.405,52.187,303.314Zm51.4-19.072h5.345c34.536-.362,51.741-25.848,51.89-55.192a42.264,42.264,0,0,0-20.271-36.5c-19.376-12.274-36.368-25.423-36.857-51.143,0-4.006-1.576-7.373-6.388-7.991-11.5-1.513-18.737,4.262-19.163,16.26-.468,16.11-8.73,28.107-21.292,35.949-25.977,16.153-33.11,36.717-20.4,64.1C46.012,270.3,60.9,287.523,103.587,284.241Zm0,68.191a290.356,290.356,0,0,1,45.353,2.515,29.787,29.787,0,0,0,16.374-2.536c5-2.131,6.387-7.2,2.342-10.761-9.752-8.524-17.268-19.179-30.534-24.762-11.306-4.688-24.061-2.941-34.068-9.781-8.347-5.647-16.906-4.262-25.551-2.131-16.374,4.006-27.446,13.212-33.323,30.068-4.812,13.787-4.727,16.685,10.157,17.282,16.331.7,32.79.213,49.207.213ZM36.92,114.915c6.984,5.349,13.584,2.131,19.632,3.6,27.681,6.5,56.149,1.556,84.148,3.985a26.059,26.059,0,0,0,9.262-1.577c4.046-1.172,4.9-5.668,2.129-7.053-11.285-5.818-19.163-21.31-35.878-12.658-6.154,3.218-10.646-1.556-14.9-5.37-8.177-7.395-16.4-7.629-25.551-1.193A201.5,201.5,0,0,1,36.92,114.915Zm48.547-98.45c-9.518.128-15.459,6.968-15.118,17.389s9.582,19.519,19.333,18.624c5.43-.49,11.732-.874,14.458-6.925C108.4,36.07,95.667,16.4,85.382,16.529Z"
                transform="translate(11.049 14.935)" />
        </g>
    </g>
</svg>  