<svg xmlns="http://www.w3.org/2000/svg" width="570" height="570" viewBox="0 0 570 570">
    <g id="Group_12" data-name="Group 12" transform="translate(-900 -1402)">
        <rect id="Rectangle_1" data-name="Rectangle 1" width="570" height="570"
            transform="translate(900 1402)" fill="none" />
        <g id="Group_22" data-name="Group 22" transform="translate(928.5 1483.937)">
            <path id="Path_974" data-name="Path 974"
                d="M2.8,142.156C4.2,153.438,28.025,158.61,39.76,159.785c6.454,15.279,20.77,49.01,26.4,61.7,7.041,15.867,17.6,45.837,21.122,70.518S73.2,307.873,66.162,329.029s28.163,45.837,45.765,58.177,84.49,15.865,103.852,19.394,139.056-5.292,184.823-7.054,21.12-61.7,24.641-81.095,0-49.363,0-68.755,36.963-75.807,40.485-81.1,33.446-3.526,44.006-14.1,0-40.548,0-56.415-22.882-17.63-36.963-17.63-33.446,12.341-38.726,21.155-14.081,21.155-24.641,29.971,10.56-22.918,15.84-33.5-5.28-28.208-10.56-51.126-19.365-14.1-40.485-12.341-28.163,8.815-33.444,22.918-5.281,35.259,0,51.126-12.321,8.815-22.883,26.444-19.362-8.815-33.444-21.155,3.52-29.97,21.122-44.074-15.842-47.6-22.883-61.7-49.286-3.526-66.888,5.289-10.561,66.992-15.842,70.518-1.76-10.578,0-26.445S184.1,18.749,177.054,18.749s-42.245-1.763-51.046,0S101.366,54.008,101.366,73.4s7.041,28.207,19.362,38.785,10.561,63.466,0,66.992-36.964-37.022-36.964-52.889S89.044,85.741,73.2,69.874s-33.443,0-54.565,7.052S1.035,128.052,2.8,142.156Z"
                transform="translate(-1.426 -1.298)" fill="#f8f5f1" />
            <path id="Path_975" data-name="Path 975"
                d="M454.069,86.963l-.135-.2a.459.459,0,0,0-.115-.295c-.812-.771-3.923-3.357-5.367-4.536a.507.507,0,0,1-.294.181,2.727,2.727,0,0,1,0-.363l-.454-.363c-6.565-3.652-27.955-6.8-34.592.884l-8.618,9.617c-7.763,7.8-10.5,20.073-3.792,29.939,6.995,10.3,3.024,16.353-2.913,24.813-15.637,22.3-40.188,35.315-56.774,57.292a.43.43,0,1,1-.79-.34,77.853,77.853,0,0,0-1.173-27.4,208.733,208.733,0,0,1-3.994-54.208c1.083-19.188.451-19.1,19.519-24.2,4.919-1.315,14.827-18.938,13.765-25.7-1.873-11.885,1.2-5.625,1.106-16.988-.2-22.477-13.427-35.269-31.84-30.529-7.9,2.041-15.232,5.965-19.519,13.359-11.982,20.595-16.135,34.475-1.557,51.736,4.671,5.511,4.175,10.161,1.015,16.353-13.382,26.151-34.526,47.9-44.251,76.277-1.354,3.969-4.851,4.219-8.259,2.7-2.731-1.2-4.761-4.241-2.55-6.26,6.093-5.534,1.377-9.571-.948-14.107-13.088-25.766-2.1-1.27-15.232-35.156v-.2c-13.54-28.057-3.949-11.341-12.727-26.628-4.513-8.052-7.717-16.943-11.283-24.949a.64.64,0,0,1,0-.408c2.663-5.466,7.875-6.078,11.283-9.072,13.54-12.112,17.353-31.89,7.7-45.748C228.683,4.313,213.947-3.807,199.55,2.952,184.815,9.87,180.708,23.025,179.241,37.5c-1.67,15.877,1.151,30.438,18.323,35.927,10.99,3.515,12.84,7.621,9.184,18.757-9.026,27.218-22.227,53.165-28.907,81.312a5.636,5.636,0,0,1-1.888,3.76A5.577,5.577,0,0,1,172,178.64a.559.559,0,0,1-.339,0c-7.785-6.555-12.14-16.33-18.255-24.949-9.388-13.109-13.382-31.413-31.976-36.29a11.392,11.392,0,0,0,.948,10.932c13.54,20.05,23.017,42.3,33.849,63.779,7.537,14.879,22.566,14.471,31.592.2a100.306,100.306,0,0,0,11.6-30.03c5.009-20.413,9.838-40.985,14.893-62.146a.519.519,0,0,1,.61-.34,12.21,12.21,0,0,1,9.026,8.437c11.554,30.053,24.123,59.719,32.4,90.951,1.2,4.536,2.934,10.729,8.642,9.073,9.365-2.835,20.625-4.9,24.1-16.036,5.484-17.578,16-32.57,23.355-49.15,1.331-3.016,1.535-8.6,8.282-6.4a.475.475,0,0,1,.338.431c.9,12.18,1.918,24.7,2.731,37.22.948,14.674,1.918,29.326.293,44.092-.542,4.922,3.182,13.427,9.162,8.3,9.748-8.369,24.687-10.524,29.516-25.2,2.031-6.192,5.484-13.269,15.8-12.475a.494.494,0,0,1,.207.059.483.483,0,0,1,.155.143.407.407,0,0,1,.08.2.481.481,0,0,1-.012.213c-7.178,22.953-21.234,42.209-26.425,64.936-.406,1.792-2.256,4.536-3.633,4.536-13.4,1.633-3.339,10.025-3.971,16.626a.454.454,0,0,1-.21.318.452.452,0,0,1-.377.045c-5.754-1.656-11.6-2.268-13.539-7.349-3.949-10.116-11.621-9.254-19.813-9.073-21.572.477-21.55.341-23.829-21.025,0-.635-1.783-1.066-3.408-1.837a.45.45,0,0,0-.586.181c-7.514,13.609-16.022,26.038-34.932,20.889a7.9,7.9,0,0,0-5.348,2.018c-11.148,8.324-20.625,3.992-29.719-3.742l.384-.386c-10.809,8.3-23.175,3.357-34.638,3.289-24.529-.136-47.929,2.042-68.216,19.3a.5.5,0,0,0-.131.526.5.5,0,0,0,.425.335c15.48,0,29.606-6.1,44.748-4.944,14.126,1.089,28-11.522,42.875-2.676a.523.523,0,0,1,.248.5c-.857,5.965-7.514,8.6-7.83,15.559a.5.5,0,0,0,.2.4.5.5,0,0,0,.433.081,50.906,50.906,0,0,0,16.947-8.755c4.017-3.2,8.71-4.536,12.862-.975,6.928,5.9,15.412,11.34,19.316,18.962,3.43,6.8-6.973,7.87-11.079,11.658-1.015.93-.9,2.268.767,2.79,4.355,1.474,5.889,5.035.925,5.625-14.758,1.769-29.561,9.957-44.612,1.406a.455.455,0,0,1-.248-.454c0-1.225,0-2.813.587-3.38,4.062-3.7,7.988-7.417,3.475-13.382-2.1-2.722-5.326-5.081-8.62-4.309-7.92,1.837-4.378,8.71-4.513,13.427-.384,10.184-1.241,18.666-14.984,18.145-8.62-.34-13.2,6.963-18.278,12.77,1.264,6.01,6.77,6.509,11.621,8.6a.476.476,0,0,1,.183.175.478.478,0,0,1,0,.489.471.471,0,0,1-.183.175c-9.974,6.1-19.474,9.39-28.32-.635-3.994-4.536-7.65-3.425-12.388-2.54-3.814.726-8.191,5.33-12.434-.408a.477.477,0,0,1,.1-.654.47.47,0,0,1,.22-.094c5.416-1.316,3.159-13.609,10.493-8.891,9.252,5.965,10.967,3.107,10.471-5.375-.384-6.8,2.708-8.211,8.3-7.349,15.209,2.268,15.931,2.472,32-3.016a.473.473,0,0,0,.222-.206.478.478,0,0,0-.085-.569.471.471,0,0,0-.273-.132c-19.2-.454-37.233-2.949-54.315,5.534a.451.451,0,0,1-.583-.156.458.458,0,0,1-.072-.207c-.519-5.512-.18-9.594,5.732-12.86,3.272-1.814,4.378-8.369-3.543-8.46l-6.77,1.611a.452.452,0,0,1-.293,0c-6.9-3.448-12.727-4.083-14.442,5.784C88.64,319.558,83.9,323.845,78.6,328a.451.451,0,0,1-.713-.231.454.454,0,0,1,.014-.29C82.254,315.362,76.68,299.417,92.16,292l-.609.295c.564-3.538,1.128-7.077,1.692-10.547a.5.5,0,0,0-.248-.5c-5.8-3.448-8.62,5.194-14.555,3.447a.515.515,0,0,1-.21-.129.522.522,0,0,1-.128-.212c-3.317-10.66,1.6-17.646,13.178-22.681a.454.454,0,0,0,0-.885c-8.8-1.293-15.8-.408-15.119-10.479.451-6.963-3.814-12.543-7.311-18.349a130.37,130.37,0,0,1-17.014-48.243.521.521,0,0,1,.18-.431.518.518,0,0,1,.452-.113c14.239,4.536,16.992,19.415,28.049,25.72a.495.495,0,0,0,.632-.159c4.784-6.8,4.242-11.068-.158-17.941-15.435-24.042-42.6-35.337-59.1-57.837-2.956-4.037-7.943-3.493-12.3-1.043,8.462,17.261,17.33,34.271,25.341,51.872,8.891,19.551,16.789,39.579,25.522,59.221,5.416,12.2,5.889,14.425,2.369,28.306a18.687,18.687,0,0,0-.677,7.938C64.4,290.436,60.772,300.3,55.6,309.76c-1.647,2.971-4.288,5.829-1.286,8.914,12.118,12.5,16,32.911,38.362,35.655,14.983,1.837,29.154,12.271,44.522,10.207,21.347-2.858,41.995,11.771,63.184,1.338.88-.408,2.685.34,3.7,1.066,13.652,9.662,26.086,5.67,38.091-3.266,3.137-2.268,6.183-3.176,7.6,1.361,2.076,6.577,7.514,5.012,11.644,4.7,24.551-1.905,49.4,1.27,73.744-4.536,5.98-1.429,12.5-2.631,15.8-7.689,4.806-7.122,16.066-12.611,9.478-23.906-7.086-12.157,11.081-14.335,8.71-24.292-.158-.658,0-1.61-.384-1.95-11.283-9.821-4.039-18.78.406-28.646a62.134,62.134,0,0,0,5.392-23.316c.7-24.949,8.371-47.495,21.032-68.52,6.927-11.545,14.081-22.953,18.617-35.7,3.024-8.551,8.145-13.4,16.767-12.928h.227c5.009-1.361,9.681-1.52,14.463-3.016a40.4,40.4,0,0,0,6.724-3.969c1.106-1.225,2.256-2.517,3.2-3.584a24.321,24.321,0,0,0,1.58-1.905.424.424,0,0,1-.1-.144.438.438,0,0,1,0-.347.42.42,0,0,1,.1-.144C467.179,111.958,456.639,99.982,454.069,86.963Zm-241.2-28.714c-9.252-.227-19.655-11.908-19.565-21.978,0-11.7,8.35-17.941,23.942-18.145,7.627,0,16.518,10.048,16.969,19.279C234.572,44.935,220.717,58.431,212.864,58.249Zm109.985-5.058c.384-8.506,5.867-11.613,13.4-11.636S354.035,53.69,354.17,62.922a14.174,14.174,0,0,1-3.691,10.093,14.029,14.029,0,0,1-9.69,4.559C330.769,78.3,322.217,66.777,322.849,53.191ZM97.012,339.314c-2.392-.318-1.986-3.062-1.986-4.967s-1.58-4.536,1.873-4.151c2.257.272,2.257,2.858,2.595,4.831C99.314,336.887,99.855,339.676,97.012,339.314Zm131.264,10.32a26.709,26.709,0,0,1-8.71-.159c-10.945-2.268-20.061-.159-25.116,11.454a.461.461,0,0,1-.109.173.449.449,0,0,1-.568.053c-6.251-3.719-3.362-9.753-8.326-10.955-3.791-.93-7.7-1.678-8.71-6.26a.458.458,0,0,1,.04-.33.453.453,0,0,1,.253-.214c15.8-5.784,32.291-9.073,48.719-12.338,5.258-1.044,13.382-3.856,14.352,5.171C240.891,343.51,235.588,348.273,228.276,349.633Zm101.41-73.4c4.084,1.588,5.619,2.064,7.018,2.79,2.889,1.475,9.342,1.225,4.739,7.054-2.64,3.334-5.777.907-7.875-1.883-1.061-1.406-1.873-2.994-4.513-7.3a.457.457,0,0,1,.308-.786A.454.454,0,0,1,329.686,276.238Zm-25.025,78.386a8.81,8.81,0,0,1-7.424,5.988c-3.633.612-7.379,0-7.289-4.309.158-9.073-5.213-11.341-12.614-12.271-2.979-.318-5.438-2.268-4.987-5.126,1.76-10.978-4.513-8.528-10.312-7.167-14.781,2.268-15.615,1-10.606-14.108,1.241-3.742.857-8.211,2.64-11.59,3.926-7.417.406-10.637-5.461-14.312s-16.292-4.967-12.321-15.083c3.5-8.891,12.637-5.081,19.384-4.377,17.263,1.792,34.435,4.287,51.631,6.8a37.312,37.312,0,0,1,11.508,3.312c7.853,3.947,8.507,12.248.519,14.539-17.736,5.081-23.288,21.3-33.623,33.182-4.513,5.194-4.288,9.5,2.843,12.316,3.723,1.452,7.176,3.651,10.832,5.307C302.427,349.066,305.948,350.337,304.661,354.623Zm34.142-3.811c-9.026,1.928-9.207,1.724-7.108-7.439a.461.461,0,0,0,0-.235.45.45,0,0,0-.559-.31c-8.237,2.268-15.8.318-23.22-3.062a.52.52,0,0,1-.293-.363c-1.354-7.235,9.7-5.035,8.327-11.34-.9-4.105-8.484-3.9-7.717-10.07a.522.522,0,0,1,.248-.386c6.228-3.561,10.245,0,13.991,4.332a.407.407,0,0,0,.338.159.432.432,0,0,0-.158.386,44.876,44.876,0,0,0,9.139,19.937.527.527,0,0,1,0,.318c-.339,5.058,4.9,4.718,7.221,7.212a.476.476,0,0,1-.2.862Zm11.779-36.993c-.406,4.536-1.106,9.481-4.378,13.019-1.4,1.52-3.836,3.2-6.409.249-6.544-7.394-6.77-7.44-16.631-5.081.925-2.926,2.685-6.215,1.85-8.619-4.31-12.316,5.168-13.79,12.321-15.083C345.889,296.673,351.417,303.954,350.582,313.82Zm90.261-204.266c-1.464,5.421,1.241,13.744-8.324,15.151-7.743,1.134-16.7-8.438-17.559-18.327a12.208,12.208,0,0,1,6.975-12.065,12.068,12.068,0,0,1,4.759-1.135c8.081,0,13.878,6.373,14.173,16.24a.244.244,0,0,1,.044.068Z"
                transform="translate(38.793 16.499)" />
            <path id="Path_976" data-name="Path 976"
                d="M69.026,33.053h0C69.072,33.007,69.072,33.053,69.026,33.053Z"
                transform="translate(214.246 113.141)" />
            <path id="Path_977" data-name="Path 977"
                d="M119.839,21.426c1.082,5.122,1.309,1.995,0,0Z"
                transform="translate(367.198 78.567)" />
            <path id="Path_978" data-name="Path 978"
                d="M87.661,94.41c-5.1,2.268-11.283,2.087-10.493,11.34,1.58,19.234-2.256,38.558,1.015,57.928,1.963,11.34-2.256,22.681-3.565,33.863a11.312,11.312,0,0,1-10.47,10.569c-6.07.68-10.29-2.5-13.246-7.394-2.257-3.856-2.889-8.414,2.5-9.594,11.057-2.427,11.283-12,11.283-19.279-.564-27.807-1.986-55.568.7-83.376.79-8.3-3.294-14.13-10.944-17.4-1.851-.771-3.7-1.588-5.574-2.268C36.888,63.949,27.23,56.691,27.5,42.493A41.735,41.735,0,0,1,50.383,4.978c6.273-3.538,27.666.726,31.885,6.8,6.77,9.708,14.126,19.211,9.026,33.114-3.34,9.073-12.682,14.13-13.539,24.269s10.764,15.582,9.478,25.788ZM79.244,36.528c.519-11.341-8.146-23.067-17.173-23.271-10.064-.227-17.24,6.578-18.052,16.988A21.756,21.756,0,0,0,56.23,52.3a21.546,21.546,0,0,0,8.618,2.1C73.219,54.876,78.635,48.072,79.244,36.528Z"
                transform="translate(92.123 25.747)" />
            <path id="Path_979" data-name="Path 979"
                d="M47.337,78.336c-7.018-3.924-12.343,2.835-18.978,2.971C5.342,81.806-4.97,67.7,3.7,46.424c3.791-9.345,7.6-18.6,16.134-24.949C37,8.705,58.868,17.8,62.5,39.121c2.821,16.512-5.642,28.192-15.593,39.511ZM36.054,60.191c7.334-.249,15.5-6.963,15.57-12.792,0-8.664-9.387-16.716-18.549-16.4-9.636.272-12.118,6.51-12.411,14.448s7.379,14.924,15.412,14.743Z"
                transform="translate(12.15 61.258)" />
            <path id="Path_980" data-name="Path 980"
                d="M92.368,58.283l23.559,5.353c-26,8.778-53.12,3.561-78.98,13.768.316-10.229,5.19-11.975,10.786-12.588C62.13,63.227,76.256,57.738,91.1,62.3c1.76.544,2.527-2.268,1.692-4.378Z"
                transform="translate(120.276 187.278)" />
            <path id="Path_981" data-name="Path 981"
                d="M87.263,89.694c-1.174,4.536-1.512,9.322-6.386,9.98s-7.672-3.221-7.695-7.349c0-14.312-4.265-27.807-7.04-41.575-.745-3.629,0-7.122,4.107-7.779,2.866-.454,4.265,2.268,5.461,4.786C82.434,61.183,80.222,76.993,87.263,89.694Z"
                transform="translate(206.481 142.598)" />
            <path id="Path_982" data-name="Path 982"
                d="M64.8,90.288c-9.7-9.776-12.75-22.976-17.759-35.156a6.169,6.169,0,0,1,1.2-7.349,4.492,4.492,0,0,1,3.656-.567C58.3,49.485,69.784,77.859,67.257,85.163a38.89,38.89,0,0,1-2.821,5.421Z"
                transform="translate(148.204 154.909)" />
            <path id="Path_983" data-name="Path 983"
                d="M90.359,45.379c5.935.816,6.025,4.536,6.567,7.53,2.256,12.5-.158,24.949,0,37.582a5.141,5.141,0,0,1-1.7,4.474,5.079,5.079,0,0,1-4.637,1.105c-1.625-.318-4.513-2.563-4.22-3.312C90.178,77.268,83.86,60.553,90.359,45.379Z"
                transform="translate(267.423 149.92)" />
            <path id="Path_984" data-name="Path 984"
                d="M62.652,76.118c3.092-6.577,6.928-12.815,6.454-20.64a4.256,4.256,0,0,1,1.3-3.626,4.205,4.205,0,0,1,3.685-1.069c3.52.612,3.656,3.924,2.8,6.283-2.573,7.009.542,14.471-1.061,21.411a17.4,17.4,0,0,1-13.743-2.835Z"
                transform="translate(195.166 165.79)" />
            <path id="Path_985" data-name="Path 985"
                d="M82.808,74.8,59.926,69.743c3.2-4.2,6.251-8.188,9.252-12.225,0,0-.564-.5-.655-.544,1.828,8.165,13.855,8.551,13.9,18.145Z"
                transform="translate(188.729 184.459)" />
        </g>
    </g>
</svg>  