<svg xmlns="http://www.w3.org/2000/svg" width="570" height="570" viewBox="0 0 570 570">
    <g id="Group_8" data-name="Group 8" transform="translate(-900 -1402)">
        <rect id="Rectangle_1" data-name="Rectangle 1" width="570" height="570"
            transform="translate(900 1402)" fill="none" />
        <g id="Group_27" data-name="Group 27" transform="translate(1056.75 1497.334)">
            <path id="Path_1011" data-name="Path 1011"
                d="M69.907,22.014C57.929,26.472,59.426,5.669,32.475,7.155,13.629,8.194,9.425,13.093,9.666,16.3c-19.815,37.372.35,56.24,4.842,66.641C18.1,91.257,31.976,97.3,38.464,99.281l-5.989,75.781c-2.5,18.326-7.486,57.356-7.486,66.866,0,11.887-14.973,26.746-14.973,38.633s0,16.345-5.989,32.69-1.5,31.2,0,47.55A21.4,21.4,0,0,0,20.5,380.118c67.377-.5,205.426-1.189,218.6,0,16.47,1.485,14.973-4.458,17.967-26.748s-10.481-47.549-10.481-56.464V273.131c0-13.373,0-11.887-7.487-23.774s0-7.43,0-19.317-16.47-109.957-16.47-123.33,11.978-20.8,23.956-32.69S239.1,59.162,239.1,44.3V7.155c0-8.321-17.967-6.439-26.951-4.458C205.16,4.183,189.988,7.155,185.2,7.155c-5.989,0-8.984,14.859-19.464,14.859s-7.487-4.458-17.967-14.859-28.448-4.458-53.9,0S81.885,17.557,69.907,22.014Z"
                transform="translate(-1 -1)" fill="#f8f5f1" />
            <path id="Path_1012" data-name="Path 1012"
                d="M10.016,17.557a3.359,3.359,0,0,1-.35-1.261m0,0c-.24-3.2,3.963-8.1,22.809-9.14C59.426,5.669,57.929,26.472,69.907,22.014s-1.5-10.4,23.956-14.859,43.421-10.4,53.9,0,7.486,14.859,17.967,14.859S179.208,7.155,185.2,7.155c4.792,0,19.964-2.972,26.951-4.458C221.131.716,239.1-1.166,239.1,7.155V44.3c0,14.859,19.465,17.831,7.487,29.718s-23.956,19.317-23.956,32.69S239.1,218.153,239.1,230.04s-7.486,7.429,0,19.317,7.487,10.4,7.487,23.774v23.775c0,8.915,13.475,34.176,10.481,56.464s-1.5,28.233-17.967,26.748c-13.176-1.189-151.224-.5-218.6,0A21.4,21.4,0,0,1,4.027,360.8c-1.5-16.346-5.989-31.205,0-47.55s5.989-20.8,5.989-32.69,14.973-26.746,14.973-38.633c0-9.51,4.991-48.54,7.486-66.866l5.989-75.781C31.976,97.3,18.1,91.257,14.508,82.936,10.016,72.535-10.149,53.667,9.666,16.3Z"
                transform="translate(-1 -1)" fill="none" stroke="#fff" stroke-width="1" />
            <path id="Path_1013" data-name="Path 1013"
                d="M72.72,86.942c-4.99,7.912-15.811.46-19.348,8.985-2.83,6.82,2.638,13.161,1.682,20.077-1.224,8.985-2.275,18.046-2.7,27.108-.363,7.529,2.046,11.743,11.28,13.41,10.381,1.916,19.845.613,29.749-.785,25.524-3.621,51.028.153,76.475.632a47.225,47.225,0,0,0,14.913-1.322,8.273,8.273,0,0,0,6.73-8.793c-.554-8.487-.65-17.241-2.485-25.383-1.683-7.471-10.592-4.694-15.639-7.95,1.663-8.583,10.477-2.97,13.861-8.161,1.74-10.422-9.9-11.686-14.205-17.472,2.332-5.575,7.858-2.107,10.248-5.4a3.1,3.1,0,0,0-3.4-3.142c-25.524-.824-51.028-2.069-76.475-2.126-20.266,0-40.7-3.1-60.76,3.659-5.086,1.7-11.051-.69-16.041-4.138a50.022,50.022,0,0,1-16.48-64.33,10.189,10.189,0,0,1,8.24-5.345,80.008,80.008,0,0,1,15.3-.651c11.471.785,13.574,3.2,13.651,14.54.115,13.41.115,13.41,12.79,12.989,3.4,0,6.787-.556,10.19-.747,14.836-.9,14.836-.881,14.683-15.019C84.842,8.627,88.264,5.16,97.25,5.332a13.857,13.857,0,0,1,3.441.517c10.515,2.893,18.278,1.4,28.659.345A11.3,11.3,0,0,1,141.7,17.689c0,1.36,0,2.8-.153,4.464-.5,9.713,3.537,13.41,13.747,11.494a88.976,88.976,0,0,1,13.861-1.724c8.183-.23,13.383-2.375,12.16-11.36s3.5-12.644,12.963-13.41c27.818-1.935,29.73-.536,29.978,27.912a21.69,21.69,0,0,0,.229,6.8c6.252,17.567-3.824,28.41-16.193,37.357-7.648,5.575-9.273,11.82-8.145,20.537,3.824,29.292,7.915,58.583,10.381,88.009,1.319,15.958,8.374,30.786,7.648,47.012,0,1.916,1.912,3.832,3.212,5.747,7.762,11.379,12.695,22.989,4.378,36.4a6.868,6.868,0,0,0,1.013,8.352c12.905,11.763,5.85,28.736,10.687,42.606,1.912,5.613.535,12.318,2.046,18.525,1.644,6.764-1.262,11.074-8.852,11-4.551,0-9.1-.173-13.651-.155-41.871.21-83.741-.592-125.573-1.188-25.16-.361-50.34-1.59-75.577-.842-6.539.191-10.573-3.833-10.993-10.613-.994-16.034-1.912-33.6,4.8-47.07,5.525-11.188,8.6-18.468,2.581-29.6-2.734-5.077.975-11.4,4.7-15.69,6.061-6.973,7.189-15.192,8.087-23.774Q32,161.617,39.109,94.739C40.352,82.862,40.352,82.4,52.034,83.475,58.744,84.184,66.468,81.272,72.72,86.942Zm20.3,213.182c-20.4,0-40.8-.153-61.18.1-7.648,0-13.689,2.395-10.821,12.356.612,2.107,0,4.54.153,6.8,1.166,16.935,5.162,20.747,21.662,21.073,19.788.479,39.767-.383,59.364,1.073,35.178,2.605,70.2.23,105.287.46,7.743,0,12.848-4.081,12.37-12.893-.153-2.835.287-5.747.287-8.544,0-13.755-2.925-17.816-16.136-18.161-16.079-.421-31.546-4.387-48.256-3.218C135.162,300.68,113.979,297.979,93.024,300.125ZM71.229,184.51c-1.912-6.456-2.811-10.977-4.665-15.038a10.2,10.2,0,0,0-11.338-5.747c-4.8.651-6.041,4.444-6.156,8.812-.172,6.82-.382,13.621-.65,20.441-.21,5.747,2.409,7.989,8.087,8.238,11.223.5,22.407,1.705,33.63,2.261,7.361.383,14.817-.4,22.12.364,9.827,1.016,12.294,4.406,12.466,14.541a116.854,116.854,0,0,0,.287,11.877c.612,5.038,3.346,8.41,8.909,8.372,19.291-.191,38.582-.345,57.854-.728,3.346,0,7.495-.4,8.833-4,2.791-7.433-2.677-14-3.327-21.226-.421-4.559-5.736-4.559-9.846-4.425-15.869.5-31.737,1.073-47.606,1.418-2.829,0-7.15,2.184-7.456-4.445,9.33-1.36,18.736-2.663,28.124-4.157,5.105-.824,8.049-3.353,7.495-9.234s0-11.38-.4-17.031-3.021-9.885-9.559-9.406c-20.458,1.475-40.742-2.509-61.181-1.916C77.347,163.84,77.347,163.974,71.229,184.51ZM148.584,62.977c12.466,0,24.855-.307,37.4,0,19.119.594,23.727-3.832,22.407-22.433-.363-5.1-1.415-10.134-2.218-15.192A5.012,5.012,0,0,0,201.5,21.06a5.451,5.451,0,0,0-5.1,3.831c-.727,2.146-1.224,4.368-1.778,6.552-3.1,12.3-4.092,13.41-15.563,12.567S155.5,43.9,143.728,42.095s-13.383-2.491-15.811-13.41c-.688-3.218.344-6.82-3.1-9.214A17.972,17.972,0,0,0,96.886,31.233c-1.185,5.977-3.461,7.95-9.846,8.889-11.93,1.743-23.784-2.318-35.217,0-9.177,1.916-12.16-.824-14.148-9.1-1.052-4.31-1.434-12.012-8.336-10.747-6.386,1.188-4.875,8.41-4.8,13.065a43,43,0,0,0,3.613,18.276c2.6,5.422,6.061,10.287,12.045,11.035,8.928,1.188,17.7,3.985,27.034,2.644C94.191,61.233,121.492,64.6,148.584,62.977ZM71.917,248.266H39.606c-5.85,0-9.942,2.72-11.051,8.544-1.262,6.647,2.428,10.575,8.106,13.41a26.376,26.376,0,0,0,13.23,2.05c22.025-.843,44.088-2.146,66.056-2.625,19.635-.421,39.557-.824,59.268,1,8.317.766,17.379-5.977,25.5,2.529,1.912,1.915,14.7-12.222,14.492-16.782-.421-8.621-7.169-8.851-13.383-9.923-21.318-3.678-42.75,2.452-63.972-.69C115.661,242.442,94,251.657,71.917,248.266Zm12.752-7.3h22.56c3.461,0,6.673-.613,8.7-4.042,5.927-10.019.918-22.989-10.458-24.9-16.519-2.854-32.846-5.919-50.11-2.912s-18.947,3.506-17.953,20.4c.421,7.3,4.665,11.283,10.649,10.441C61.173,237.883,73.829,244.8,84.669,240.967Zm119.455,50.575c-4.627-9.291-10.42-7.816-15.83-8.084-23.574-1.188-46.937,5.115-70.74.172-23.421-4.847-47.243,2.931-70.95.153-4.818-.575-9.559,1.284-14.74,8.372C90.5,292.787,146.366,292.979,204.124,291.542ZM171.852,164.127c5.257,9.981,2.849,20.958,6.271,31.246,1.759,5.422,5.449,6.935,10.439,6.437s8.432-3.429,8.278-8.908c-.134-4.559-.688-9.08-1.185-13.621C193.723,162.269,192.576,161.464,171.852,164.127Z"
                transform="translate(7.296 10.303)" />
            <path id="Path_1014" data-name="Path 1014"
                d="M60.159,71.5c-5.965-4.119-4.072-9.061-4.34-13.238-.994-15.326-.879-15.326-15.62-16.437-3.652-.288-7.972.958-12.446-5,13.67-.556,25.83-1.149,37.989-1.532,12.561-.383,25.371-5.173,38.352,1.667-3.824,6.954-10,5.039-15.18,5.23-5.621.191-11.242-.287-16.882-.4-6.271-.115-8.737,2.778-9.043,9.234S65.283,64.561,60.159,71.5Z"
                transform="translate(68.897 83.394)" />
            <path id="Path_1015" data-name="Path 1015"
                d="M25.266,32.74c2.333-5.5,6.118-5.23,9.215-5.153,21.509.594,43,1.245,64.469-1a15.579,15.579,0,0,1,6.634.8,5.514,5.514,0,0,1,3.231,3.372c.421,2.586-1.568,4.119-3.977,4.387a57.02,57.02,0,0,1-8.489.211,473.424,473.424,0,0,0-52.653.8C37.789,36.59,31.25,37.491,25.266,32.74Z"
                transform="translate(62.398 65.674)" />
            <path id="Path_1016" data-name="Path 1016"
                d="M27.338,34.493c2.734.4,6.213.4,6.022,4.176s-3.212,5.747-7.036,5.441a5.873,5.873,0,0,1-6-4.962C19.862,34.053,24.049,34.685,27.338,34.493Z"
                transform="translate(49.388 86.507)" />
        </g>
    </g>
</svg>  