<svg xmlns="http://www.w3.org/2000/svg" width="570" height="570" viewBox="0 0 570 570">
    <g id="Group_118" data-name="Group 118" transform="translate(-1305 -1030)">
      <g id="Group_5" data-name="Group 5" transform="translate(1305 1030)">
        <rect id="Rectangle_1" data-name="Rectangle 1" width="570" height="570" transform="translate(0 0)" fill="none"/>
      </g>
      <g id="BISHOP_1_" data-name="BISHOP (1)" transform="translate(1404.453 1086.5)">
        <path id="Path_4324" data-name="Path 4324" d="M135.865,55.558c-80.691,95.08-95.313,138.128-41.221,250.435,1.944,5.25,2.917,16.333-9.333,26.055-28.543,7.077-56.931,5.405-79.136,53.859-16.138,35.193,2.333,63.97,20.61,48.22-17.5,27.027,37.837,22.982,47.443,14.388,6.144-5.522,12.444-21.777,37.332-14.388s55.22,2.528,70.192-15.555c38.693,38.3,82.364-12.366,102.274,14,24.5,32.471,53.276,24.693,58.914,20.61,12.055-8.75,2.489-14.077,0-25.082,13.3,12.444,37.8,14.505,24.11-36.36-19.444-72.331-64.359-54.248-83.608-59.5-10.305-2.8-7.233-19.327-4.822-26.132,79.486-142.834,8.983-202.1-17.927-247.83C275.082,34.558,242.417,1.7,219.862,17.254,204.7,3.643,184.513-6.7,158.42,5.393,139.559,14.143,118.366,40.975,135.865,55.558Z" transform="translate(0.012 -0.043)" fill="#fbf6ee"/>
        <path id="Path_4325" data-name="Path 4325" d="M135.865,55.558c-80.691,95.08-95.313,138.128-41.221,250.435,1.944,5.25,2.917,16.333-9.333,26.055-28.543,7.077-56.931,5.405-79.136,53.859-16.138,35.193,2.333,63.97,20.61,48.22-17.5,27.027,37.837,22.982,47.443,14.388,6.144-5.522,12.444-21.777,37.332-14.388s55.22,2.528,70.192-15.555c38.693,38.3,82.364-12.366,102.274,14,24.5,32.471,53.276,24.693,58.914,20.61,12.055-8.75,2.489-14.077,0-25.082,13.3,12.444,37.8,14.505,24.11-36.36-19.444-72.331-64.359-54.248-83.608-59.5-10.305-2.8-7.233-19.327-4.822-26.132,79.486-142.834,8.983-202.1-17.927-247.83C275.082,34.558,242.417,1.7,219.862,17.254,204.7,3.643,184.513-6.7,158.42,5.393,139.559,14.143,118.366,40.975,135.865,55.558Z" transform="translate(0.012 -0.043)" fill="#fbf6ee"/>
        <g id="Group_117" data-name="Group 117" transform="translate(30.918 31.018)">
          <path id="Path_4326" data-name="Path 4326" d="M386.629,451.1c-.039-.156-.039-.35-.078-.544-3.578-24.11-19.172-35.115-31.654-40.054-23.021-9.177-33.91-5.95-49.581-.661a18.68,18.68,0,0,0,1.322-3.344c4.667-15.866-3.772-24.3-8.322-28.854-.622-.622-1.361-1.361-1.75-1.828-1.517-4.239-2.139-13.611-1.711-17.616a9.839,9.839,0,0,0,5.95-4.939c1.711-3.461,1.322-7.777-1.206-13.183,11.2-17.422,18.549-34.182,22.127-50.943,5.716-12.25,6.883-16.76,8.011-21.155.233-.972.467-1.905.778-2.917l.078-.311c3.655-20.844,4.55-34.338,3.072-46.548-1.594-13.066-5.989-25.316-14.7-40.871-11.666-20.8-28.893-47.676-40.093-60.353a20.081,20.081,0,0,0,3.344-2.372c4.005-3.655,7.233-12.094-.35-20.571-7.816-8.75-16.838-7.544-20.61-5.639a21.2,21.2,0,0,0-9.955,9.955c-.661-9.722-8.827-15.244-11.005-16.177-.078-.039-6.339-2.255-10.888-2.255a16.425,16.425,0,0,0-8.322,1.283c-3.422,1.439-13.066,7.933-12.288,18.744.506,7.116,5.678,11.666,10.539,14.077-20.338,18.666-60.587,63-74.2,104.141-6.339,19.133-5.289,43.126,3.072,71.32a248.858,248.858,0,0,0,23.371,53.82c-2.761,3.889-3.578,7.466-2.411,10.655a8.9,8.9,0,0,0,5.133,5.133c.156,3.111-.467,9.994-1.828,17.966C159.682,386,159.8,398.292,162.249,407.2c1.711,6.183,6.766,11.2,15.049,14.933a75.791,75.791,0,0,1-11.938-2.683c-.739-.233-1.672-.661-2.8-1.089-7.739-3.189-23.838-9.839-48.376-2.45-19.171,5.755-28,21.583-31.538,30.488a53,53,0,0,0-2.605,8.4c-.856,4.005-.622,5.522.117,6.805a4.9,4.9,0,0,0,3.305,2.333c1.322.233,2.683.506,8.633-3.578a34.41,34.41,0,0,0-.428,8.05v.272c.117,1.906.311,5.911,3.655,7.544a5.354,5.354,0,0,0,2.333.544,8.352,8.352,0,0,0,4.667-1.828c.156-.117.35-.233.506-.35.933-.622,3.072-2.683,12.794-12.211,3.228-3.15,6.883-6.728,7.739-7.544a6.4,6.4,0,0,0,.894-.778c.506-.467,1.867-1.75,7.116-4.667,5.405-2.994,22.9-1.4,30.682,1.944,30.449,13.144,56.7-4.783,67.081-13.688,7.155,8.4,15.049,12.716,25.043,13.883,10.227,1.167,22.049-.894,40.326-5.094l.856-.194c8.555-1.983,19.171-4.433,32.082-4.433,10.033,0,14.427,4.9,15.866,6.494a11.031,11.031,0,0,0,.933.972c.933.972,4.861,5.444,8.361,9.372,12.133,13.727,13.688,15.4,14.7,16.1a9.248,9.248,0,0,1,.739.661c.778.739,2.567,2.411,4.822,2.411a5,5,0,0,0,2.333-.622c3.694-2.022,2.878-6.494,2.1-10.811-.428-2.411-1.361-6.805-2.761-13.455,4.511,3.15,6.961,4.628,9.761,2.955A4.543,4.543,0,0,0,386.629,451.1ZM289.916,341.439l.35.622c2.605,4.667,2.489,6.766,2.294,7.078,0,0-.35.389-1.828.583l-1.283.156-1.011.817a7.524,7.524,0,0,0-.817.778l-37.137-4.589-29.593-1.011h-.117l-24.966,1.944-14.427,4.394a5.982,5.982,0,0,0-.506-.467l-1.011-.817-1.283-.156q-.35-.058-.583-.117a11.824,11.824,0,0,1,2.644-3.811l2.372-2.605-.039-.078a15.617,15.617,0,0,1,4.278-2.255C205.375,336.773,240.607,332.728,289.916,341.439Zm-15.944,33.015a3.456,3.456,0,0,1-2.528.739c-.544-.039-1.089-.078-1.594-.078a13.585,13.585,0,0,1-2.683-.272,2.7,2.7,0,0,1-.7-1.283,42.075,42.075,0,0,0-2.255-5.444,51.225,51.225,0,0,1-2.644-6.416,5.083,5.083,0,0,1-.311-2.45c2.411-.817,6.689-1.361,9.372-.117a3.753,3.753,0,0,1,2.178,2.372C274.711,367.183,274.595,372.355,273.972,374.455Zm11.589-9.566a72.884,72.884,0,0,0,.894,8.244,4.279,4.279,0,0,1-4.278.039,16.88,16.88,0,0,1-.894-3.461,88.334,88.334,0,0,1-.972-9.294c-.039-.661,0-1.478.428-1.789.194-.156,1.322-.739,4.822.311A50.209,50.209,0,0,0,285.561,364.888ZM188.576,361a89.463,89.463,0,0,1-.972,9.294,18.362,18.362,0,0,1-.933,3.578,4.272,4.272,0,0,1-4.278-.078c.35-2.411.7-5.172.933-7.933a56.736,56.736,0,0,0,.272-6.416c3.305-.933,4.355-.389,4.55-.233C188.576,359.522,188.615,360.338,188.576,361ZM215.6,385.421c-14.661-.272-26.832-1.867-34.376-4.394l.078-.389q.117-.642.35-1.983a20.956,20.956,0,0,0,2.683.117h1.789c2.722,0,4.2-2.605,5.094-6.611a10.71,10.71,0,0,0,1.517,5.366,3.727,3.727,0,0,0,3.072,1.672c.506,0,1.089.039,1.672.078.622.039,1.283.078,2.022.078,2.761,0,6.066-.661,7.233-4.783a42.891,42.891,0,0,1,2.022-4.861c2.489-5.405,5.094-11.005,1.828-13.688l-.233-.194-.272-.117c-2.878-1.128-8.711-2.139-12.911-.194a7.833,7.833,0,0,0-4.239,4.666c-.156.506-.35,1.05-.506,1.594,0-.194.039-.389.039-.583.194-2.917-.972-4.433-2.022-5.172-.194-.117-.35-.233-.583-.35,7.544-2.722,20.3-5.328,39.937-4.978,21.233.389,37.487,2.994,47.832,5.522a5.73,5.73,0,0,0-1.244,3.733,7.864,7.864,0,0,0-4.122-4.394c-4.2-1.944-9.994-.972-12.911.194l-.272.117-.233.194c-3.267,2.683-.7,8.283,1.828,13.688a42.885,42.885,0,0,1,2.022,4.861c1.167,4.122,4.472,4.783,7.233,4.783.739,0,1.4-.039,2.022-.078s1.167-.078,1.672-.078a3.728,3.728,0,0,0,3.072-1.672,9.1,9.1,0,0,0,1.4-4.239c.894,3.033,2.333,4.9,4.628,4.9h1.789a20.182,20.182,0,0,0,3.033-.194,9.6,9.6,0,0,0,.389,1.128C261.023,383.671,236.1,385.81,215.6,385.421Zm-10.422-17.344a42.06,42.06,0,0,0-2.255,5.444,2.593,2.593,0,0,1-.35.817,12.646,12.646,0,0,1-2.917.311c-.506.039-1.011.039-1.594.078a3.544,3.544,0,0,1-2.839-1.011,26.383,26.383,0,0,1,1.283-12.25,3.857,3.857,0,0,1,2.178-2.372c2.683-1.244,6.961-.7,9.372.117a4.571,4.571,0,0,1-.311,2.45A37.339,37.339,0,0,1,205.181,368.077Zm50.592-264.085c.622-5.716,5.989-9.372,8.05-10.305l.117-.078c.078-.039,6.766-3.383,13.649,4.317,6.416,7.194,1.011,12.172.778,12.405l-.078.078a13.129,13.129,0,0,1-5.094,2.761l-4.783,1.361,3.539,3.5c10.539,10.383,29.516,39.782,42.037,62.142,16.566,29.554,17.266,47.559,10.966,83.375-.194.7-.389,1.4-.544,2.061.078-15.4-2.917-31.071-8.944-47.482-12.872-35-40.365-67.936-60.042-90.841,4.161-3.694,6.222-5.405,6.727-5.794,2.333-1.283,3.539-3.928,4.044-5.405l1.05-3.033-3.111-.778C264.017,112.314,255.112,110.059,255.773,103.992Zm-5.755,2.411c.778,5.133,4.939,8.439,8.905,10.266-.622.428-2.178,1.633-7.35,6.222-2.878-3.344-5.6-6.533-7.894-9.255A16.494,16.494,0,0,0,250.018,106.4ZM218.13,99.287c-.311-4.122,2.917-7.077,4.978-8.516l-.078.117c.039-.039.078-.078.078-.117a10.349,10.349,0,0,1,1.4-.856c1.75-.622,5.055-.894,10.655.428.194.039.35.078.544.117a8.689,8.689,0,0,1,.933.311c.622.389,5.872,3.694,5.444,9.644-.35,4.744-4.783,6.416-6.689,6.883l-4.161,1.05.078-.194-4.861-1.244C224.391,106.365,218.441,103.837,218.13,99.287ZM157.116,286.841c-7.7-25.977-8.789-48.687-3.15-65.759,13.261-40.054,53.354-83.686,72.719-101.146l.894-.817,2.761-8.089L236.1,119l.194.233c2.528,3.072,5.6,6.572,8.827,10.344,19.366,22.477,48.609,56.426,61.637,91.813,15.088,41.026,10.227,75.675-16.294,115.885l-.194.272c-55.376-9.722-93.524-3.461-109.818,2.45A240.091,240.091,0,0,1,157.116,286.841Zm14.077,117.868c-2.294-8.4-.117-13.611,3.111-17.11a8.461,8.461,0,0,1,5.366-.856c7.583,1.361,56.348,2.411,73.381,1.206,4.55-.311,9.8-.894,14.894-1.478,9.138-1.011,18.51-2.061,24.421-1.672,3.928,3.967,8.361,8.983,5.366,19.094-2.917,9.916-20.921,14.738-33.988,15.866a16.994,16.994,0,0,0-3.539.194.2.2,0,0,0-.156-.078l-.039-.039h-.039c-17.927.661-31.3.194-40.171-.117a98.039,98.039,0,0,0-11.2-.078C193.748,418.747,173.721,413.847,171.193,404.709Zm-5.483,38.149c-8.244-3.578-29.282-6.844-38.849-1.556-6.261,3.461-8.089,5.211-8.983,6.066-.661.467-1.944,1.711-8.789,8.439-2.489,2.411-5.678,5.6-8.127,7.933.272-2.372.933-6.066,2.489-13.377l2.722-12.677-10.15,8.089c-1.633,1.283-3.189,2.489-4.628,3.578,3.539-8.555,11.083-20.26,25.432-24.616,21.388-6.455,34.921-.856,42.154,2.139,1.244.506,2.333.972,3.305,1.283,5.833,1.983,32.782,8.283,50.048.583.311-.039.661-.117,1.05-.194,2.8-.467,7.039-1.205,12.288-1.633,0,.039.039.039.039.078a1.542,1.542,0,0,1-.194,1.322C219.219,434.5,194.409,455.224,165.71,442.858Zm204.626-4.55-10.15-8.089,2.722,12.677c1.633,7.544,2.878,13.377,3.772,17.694-2.372-2.644-4.978-5.639-7.116-8.05-6.611-7.505-8.4-9.527-9.255-10.305-.039-.039-.078-.078-.078-.117-5.678-6.378-13.338-9.605-22.749-9.605-14,0-25.666,2.722-34.182,4.705l-.856.194c-17.266,4.005-28.271,5.95-37.176,4.939-8.75-1.011-15.2-5.172-21.583-13.883l-.039.039a4.491,4.491,0,0,1-.817-1.867,100.9,100.9,0,0,1,26.132,2.878c.35.078.661.156.972.194,12.677,4.511,28.271-2.644,37.8-7.078,2.139-.972,4.005-1.828,5.016-2.178,1.439-.467,2.839-.933,4.161-1.4,15.516-5.25,24.071-8.128,44.565.039,11.394,4.55,19.21,12.133,23.255,22.555C373.174,440.524,371.658,439.358,370.336,438.308Z" transform="translate(-79.494 -79.807)" fill="#724335"/>
          <path id="Path_4327" data-name="Path 4327" d="M403.849,376.776v70.5h10.383l-2.294-70.5h32.432l.583-6.144v-.078l-33.016-.117L410.11,319.3h-6.261v51.137H371.3l1.789,6.339Z" transform="translate(-257.824 -226.167)" fill="#724335"/>
          <path id="Path_4328" data-name="Path 4328" d="M464.491,790.38c-2.139-2.761-6.416-5.561-14.077-8.088-8.05-2.683-14.311-1.4-18.86,1.517a20.5,20.5,0,0,0-8.166,10.266v.078l1.361.428h0l-1.361-.428a10.7,10.7,0,0,0-.194,6.688,8.489,8.489,0,0,0,4.2,4.667c3.772,2.139,9.838,3.033,17.577,3.422,12.988.7,18.938-6.611,20.377-11.161C466.552,795.864,466.591,793.1,464.491,790.38Zm-5.522,7.311a10.246,10.246,0,0,1-1.361,2.683,7.081,7.081,0,0,1-2.333,2.177c-.389.195-.739.389-1.05.544a12.222,12.222,0,0,1-3.655,1.478,24.208,24.208,0,0,1-7.078.156c-.467-.039-.972-.078-1.439-.117-4.005-.35-7.894-.7-10.694-1.828a6.149,6.149,0,0,1-2.839-2.022,4.759,4.759,0,0,1-.7-3.228,37.038,37.038,0,0,1,1.75-4.278,15.55,15.55,0,0,1,1.167-2.022,2.7,2.7,0,0,1,.505-.583l.156-.156c.039-.039.078-.039.039-.039a14.223,14.223,0,0,0,1.633-1.011,18.327,18.327,0,0,1,6.066-2.994c2.644-.661,6.261-.739,11.044.972,4.55,1.633,6.728,3.811,7.816,5.678A7.775,7.775,0,0,1,458.969,797.691Zm1.905.428Zm2.683-1.205Z" transform="translate(-289.262 -508.216)" fill="#724335"/>
        </g>
      </g>
    </g>
  </svg>
  