<svg width="200" height="200" fill="none" viewbox="0 0 200 200">
    <g id="Group_118" data-name="Group 118" transform="translate(-1305 -1030)">
        <g id="BISHOP_1_" data-name="BISHOP (1)" transform="translate(1339.908 1049.781)">
            <path id="Path_4324" data-name="Path 4324"
                d="M47.664,19.522C19.351,52.883,14.221,67.988,33.2,107.394c.682,1.842,1.023,5.731-3.275,9.142-10.015,2.483-19.976,1.9-27.767,18.9-5.663,12.348.819,22.446,7.232,16.919-6.14,9.483,13.276,8.064,16.647,5.049,2.156-1.938,4.366-7.641,13.1-5.049s19.375.887,24.629-5.458c13.576,13.44,28.9-4.339,35.886,4.912,8.6,11.393,18.693,8.664,20.672,7.232,4.23-3.07.873-4.939,0-8.8,4.666,4.366,13.263,5.089,8.46-12.758C121.959,112.1,106.2,118.446,99.446,116.6c-3.616-.982-2.538-6.781-1.692-9.169,27.89-50.117,3.152-70.912-6.29-86.958C96.512,12.154,85.05.624,77.137,6.082c-5.321-4.776-12.4-8.405-21.559-4.162C48.96,4.99,41.524,14.405,47.664,19.522Z"
                fill="#fbf6ee" />
            <path id="Path_4325" data-name="Path 4325"
                d="M47.664,19.522C19.351,52.883,14.221,67.988,33.2,107.394c.682,1.842,1.023,5.731-3.275,9.142-10.015,2.483-19.976,1.9-27.767,18.9-5.663,12.348.819,22.446,7.232,16.919-6.14,9.483,13.276,8.064,16.647,5.049,2.156-1.938,4.366-7.641,13.1-5.049s19.375.887,24.629-5.458c13.576,13.44,28.9-4.339,35.886,4.912,8.6,11.393,18.693,8.664,20.672,7.232,4.23-3.07.873-4.939,0-8.8,4.666,4.366,13.263,5.089,8.46-12.758C121.959,112.1,106.2,118.446,99.446,116.6c-3.616-.982-2.538-6.781-1.692-9.169,27.89-50.117,3.152-70.912-6.29-86.958C96.512,12.154,85.05.624,77.137,6.082c-5.321-4.776-12.4-8.405-21.559-4.162C48.96,4.99,41.524,14.405,47.664,19.522Z"
                fill="#fbf6ee" />
            <g id="Group_117" data-name="Group 117" transform="translate(10.836 10.927)">
                <path id="Path_4326" data-name="Path 4326"
                    d="M187.261,210.086c-.014-.055-.014-.123-.027-.191a17.123,17.123,0,0,0-11.107-14.054c-8.078-3.22-11.9-2.088-17.4-.232a6.555,6.555,0,0,0,.464-1.173c1.637-5.567-1.324-8.528-2.92-10.124-.218-.218-.478-.478-.614-.641a19.274,19.274,0,0,1-.6-6.181,3.452,3.452,0,0,0,2.088-1.733c.6-1.214.464-2.729-.423-4.626a53.943,53.943,0,0,0,7.764-17.875,36.257,36.257,0,0,0,2.811-7.423c.082-.341.164-.669.273-1.023l.027-.109c1.283-7.314,1.6-12.048,1.078-16.333-.559-4.585-2.1-8.883-5.158-14.341-4.093-7.3-10.138-16.728-14.068-21.177a7.046,7.046,0,0,0,1.173-.832c1.405-1.283,2.538-4.244-.123-7.218-2.743-3.07-5.908-2.647-7.232-1.978a7.437,7.437,0,0,0-3.493,3.493,7.245,7.245,0,0,0-3.861-5.676,14.044,14.044,0,0,0-3.821-.791,5.763,5.763,0,0,0-2.92.45c-1.2.5-4.585,2.784-4.312,6.577a6.138,6.138,0,0,0,3.7,4.939c-7.136,6.549-21.258,22.1-26.034,36.541-2.224,6.713-1.856,15.132,1.078,25.024a87.318,87.318,0,0,0,8.2,18.884A4,4,0,0,0,110.96,176a3.123,3.123,0,0,0,1.8,1.8,35.971,35.971,0,0,1-.641,6.3c-4.489,3.138-4.448,7.45-3.589,10.575.6,2.17,2.374,3.93,5.281,5.24a26.593,26.593,0,0,1-4.189-.941c-.259-.082-.587-.232-.982-.382a23.371,23.371,0,0,0-16.974-.86c-6.727,2.019-9.824,7.573-11.066,10.7a18.6,18.6,0,0,0-.914,2.947c-.3,1.405-.218,1.938.041,2.388a1.719,1.719,0,0,0,1.16.819c.464.082.941.177,3.029-1.255a12.074,12.074,0,0,0-.15,2.824v.1c.041.669.109,2.074,1.283,2.647a1.878,1.878,0,0,0,.819.191,2.93,2.93,0,0,0,1.637-.641c.055-.041.123-.082.177-.123.327-.218,1.078-.941,4.489-4.284,1.133-1.105,2.415-2.361,2.715-2.647a2.245,2.245,0,0,0,.314-.273,12.022,12.022,0,0,1,2.5-1.637c1.9-1.051,8.037-.491,10.766.682,10.684,4.612,19.894-1.678,23.537-4.8a12.949,12.949,0,0,0,8.787,4.871c3.589.409,7.737-.314,14.15-1.787l.3-.068a47.659,47.659,0,0,1,11.257-1.555,6.894,6.894,0,0,1,5.567,2.279,3.868,3.868,0,0,0,.327.341c.327.341,1.706,1.91,2.934,3.288,4.257,4.817,4.8,5.4,5.158,5.649a3.248,3.248,0,0,1,.259.232,2.613,2.613,0,0,0,1.692.846,1.755,1.755,0,0,0,.819-.218c1.3-.71,1.01-2.279.737-3.793-.15-.846-.478-2.388-.969-4.721,1.583,1.105,2.442,1.624,3.425,1.037A1.594,1.594,0,0,0,187.261,210.086Zm-33.934-38.478.123.218c.914,1.637.873,2.374.805,2.483,0,0-.123.136-.641.2l-.45.055-.355.287a2.641,2.641,0,0,0-.287.273l-13.031-1.61-10.384-.355h-.041l-8.76.682-5.062,1.542a2.1,2.1,0,0,0-.177-.164l-.355-.287-.45-.055q-.123-.02-.2-.041a4.148,4.148,0,0,1,.928-1.337l.832-.914-.014-.027a5.48,5.48,0,0,1,1.5-.791C123.663,169.971,136.025,168.552,153.327,171.608Zm-5.594,11.584a1.213,1.213,0,0,1-.887.259c-.191-.014-.382-.027-.559-.027a4.767,4.767,0,0,1-.941-.1.947.947,0,0,1-.246-.45,14.763,14.763,0,0,0-.791-1.91,17.975,17.975,0,0,1-.928-2.251,1.784,1.784,0,0,1-.109-.86,5.111,5.111,0,0,1,3.288-.041,1.317,1.317,0,0,1,.764.832A8.73,8.73,0,0,1,147.732,183.192Zm4.066-3.357a25.577,25.577,0,0,0,.314,2.893,1.5,1.5,0,0,1-1.5.014,5.921,5.921,0,0,1-.314-1.214,30.994,30.994,0,0,1-.341-3.261c-.014-.232,0-.518.15-.628.068-.055.464-.259,1.692.109A17.62,17.62,0,0,0,151.8,179.836Zm-34.03-1.364a31.391,31.391,0,0,1-.341,3.261,6.444,6.444,0,0,1-.327,1.255,1.5,1.5,0,0,1-1.5-.027c.123-.846.246-1.815.327-2.784a19.908,19.908,0,0,0,.1-2.251c1.16-.327,1.528-.136,1.6-.082C117.768,177.953,117.782,178.239,117.768,178.471Zm9.483,8.569A44,44,0,0,1,115.19,185.5l.027-.136q.041-.225.123-.7a7.353,7.353,0,0,0,.941.041h.628c.955,0,1.474-.914,1.787-2.32a3.758,3.758,0,0,0,.532,1.883,1.308,1.308,0,0,0,1.078.587c.177,0,.382.014.587.027s.45.027.71.027a2.311,2.311,0,0,0,2.538-1.678,15.047,15.047,0,0,1,.71-1.706c.873-1.9,1.787-3.861.641-4.8l-.082-.068-.1-.041a6.478,6.478,0,0,0-4.53-.068,2.748,2.748,0,0,0-1.487,1.637c-.055.177-.123.368-.177.559,0-.068.014-.136.014-.2a1.9,1.9,0,0,0-.71-1.815c-.068-.041-.123-.082-.2-.123,2.647-.955,7.123-1.869,14.013-1.747a78.434,78.434,0,0,1,16.783,1.938,2.011,2.011,0,0,0-.437,1.31,2.759,2.759,0,0,0-1.446-1.542,6.406,6.406,0,0,0-4.53.068l-.1.041-.082.068c-1.146.941-.246,2.906.641,4.8a15.048,15.048,0,0,1,.71,1.706,2.311,2.311,0,0,0,2.538,1.678c.259,0,.491-.014.71-.027s.409-.027.587-.027a1.308,1.308,0,0,0,1.078-.587,3.192,3.192,0,0,0,.491-1.487c.314,1.064.819,1.719,1.624,1.719h.628a7.081,7.081,0,0,0,1.064-.068,3.37,3.37,0,0,0,.136.4A142.014,142.014,0,0,1,127.252,187.04Zm-3.657-6.086a14.759,14.759,0,0,0-.791,1.91.91.91,0,0,1-.123.287,4.437,4.437,0,0,1-1.023.109c-.177.014-.355.014-.559.027a1.244,1.244,0,0,1-1-.355,9.257,9.257,0,0,1,.45-4.3,1.353,1.353,0,0,1,.764-.832,5.111,5.111,0,0,1,3.288.041,1.6,1.6,0,0,1-.109.86A13.1,13.1,0,0,1,123.595,180.955Zm17.752-92.661a5.052,5.052,0,0,1,2.824-3.616l.041-.027c.027-.014,2.374-1.187,4.789,1.515,2.251,2.524.355,4.271.273,4.353l-.027.027a4.607,4.607,0,0,1-1.787.969l-1.678.478,1.242,1.228c3.7,3.643,10.356,13.959,14.75,21.8,5.813,10.37,6.058,16.687,3.848,29.254-.068.246-.136.491-.191.723a47.305,47.305,0,0,0-3.138-16.66c-4.516-12.28-14.163-23.837-21.067-31.874,1.46-1.3,2.183-1.9,2.361-2.033a3.443,3.443,0,0,0,1.419-1.9l.368-1.064L144.28,91.2C144.239,91.213,141.115,90.422,141.346,88.293Zm-2.019.846a5.021,5.021,0,0,0,3.125,3.6c-.218.15-.764.573-2.579,2.183-1.01-1.173-1.965-2.292-2.77-3.247A5.787,5.787,0,0,0,139.327,89.139Zm-11.189-2.5a3.548,3.548,0,0,1,1.747-2.988l-.027.041c.014-.014.027-.027.027-.041a3.631,3.631,0,0,1,.491-.3,7.007,7.007,0,0,1,3.739.15l.191.041a3.049,3.049,0,0,1,.327.109,3.877,3.877,0,0,1,1.91,3.384,2.848,2.848,0,0,1-2.347,2.415l-1.46.368.027-.068-1.706-.437C130.335,89.126,128.248,88.239,128.138,86.642ZM106.73,152.451c-2.7-9.115-3.084-17.083-1.105-23.073,4.653-14.054,18.721-29.363,25.516-35.49l.314-.287.969-2.838,2.019,2.8.068.082c.887,1.078,1.965,2.306,3.1,3.629,6.8,7.887,17.056,19.8,21.627,32.215,5.294,14.4,3.589,26.553-5.717,40.661l-.068.1c-19.43-3.411-32.816-1.214-38.533.86A84.243,84.243,0,0,1,106.73,152.451Zm4.939,41.357c-.805-2.947-.041-4.776,1.092-6a2.969,2.969,0,0,1,1.883-.3c2.661.478,19.771.846,25.748.423,1.6-.109,3.438-.314,5.226-.519a59.049,59.049,0,0,1,8.569-.587c1.378,1.392,2.934,3.152,1.883,6.7-1.023,3.479-7.341,5.171-11.925,5.567a5.963,5.963,0,0,0-1.242.068.071.071,0,0,0-.055-.027l-.014-.014h-.014c-6.29.232-10.984.068-14.095-.041a34.4,34.4,0,0,0-3.93-.027C119.583,198.734,112.556,197.014,111.669,193.808Zm-1.924,13.385c-2.893-1.255-10.274-2.4-13.631-.546a13.639,13.639,0,0,0-3.152,2.129c-.232.164-.682.6-3.084,2.961-.873.846-1.992,1.965-2.852,2.784.1-.832.327-2.129.873-4.694l.955-4.448-3.561,2.838c-.573.45-1.119.873-1.624,1.255,1.242-3,3.889-7.109,8.924-8.637a20.059,20.059,0,0,1,14.791.75c.437.177.819.341,1.16.45,2.047.7,11.5,2.906,17.561.2.109-.014.232-.041.368-.068.982-.164,2.47-.423,4.312-.573,0,.014.014.014.014.027a.541.541,0,0,1-.068.464C128.52,204.26,119.815,211.532,109.745,207.193Zm71.8-1.6-3.561-2.838.955,4.448c.573,2.647,1.01,4.694,1.324,6.208-.832-.928-1.747-1.978-2.5-2.824-2.32-2.633-2.947-3.343-3.247-3.616-.014-.014-.027-.027-.027-.041a10.208,10.208,0,0,0-7.982-3.37,50.872,50.872,0,0,0-11.994,1.651l-.3.068c-6.058,1.405-9.92,2.088-13.044,1.733-3.07-.355-5.335-1.815-7.573-4.871l-.014.014a1.576,1.576,0,0,1-.287-.655,35.4,35.4,0,0,1,9.169,1.01c.123.027.232.055.341.068,4.448,1.583,9.92-.928,13.263-2.483.75-.341,1.405-.641,1.76-.764.5-.164,1-.327,1.46-.491,5.444-1.842,8.446-2.852,15.637.014a13.758,13.758,0,0,1,8.16,7.914C182.54,206.375,182.008,205.965,181.544,205.6Z"
                    transform="translate(-79.494 -79.807)" fill="#724335" />
                <path id="Path_4327" data-name="Path 4327"
                    d="M382.721,339.467V364.2h3.643l-.805-24.738h11.38l.2-2.156v-.027l-11.584-.041-.641-17.943h-2.2v17.943H371.3l.628,2.224Z"
                    transform="translate(-331.484 -286.622)" fill="#724335" />
                <path id="Path_4328" data-name="Path 4328"
                    d="M437.391,784.177c-.75-.969-2.251-1.951-4.939-2.838a7.436,7.436,0,0,0-6.618.532,7.194,7.194,0,0,0-2.865,3.6v.027l.478.15h0l-.478-.15a3.756,3.756,0,0,0-.068,2.347,2.979,2.979,0,0,0,1.474,1.637c1.324.75,3.452,1.064,6.167,1.2,4.557.246,6.645-2.32,7.15-3.916A2.215,2.215,0,0,0,437.391,784.177Zm-1.938,2.565a3.6,3.6,0,0,1-.478.942,2.485,2.485,0,0,1-.819.764c-.136.068-.259.136-.368.191a4.289,4.289,0,0,1-1.283.518,8.5,8.5,0,0,1-2.483.055l-.5-.041a14.187,14.187,0,0,1-3.752-.641,2.157,2.157,0,0,1-1-.71,1.67,1.67,0,0,1-.246-1.133,13,13,0,0,1,.614-1.5,5.457,5.457,0,0,1,.409-.71.947.947,0,0,1,.177-.2l.055-.055c.014-.014.027-.014.014-.014a4.99,4.99,0,0,0,.573-.355,6.43,6.43,0,0,1,2.129-1.051,6.594,6.594,0,0,1,3.875.341,4.86,4.86,0,0,1,2.743,1.992A2.727,2.727,0,0,1,435.453,786.742Zm.669.15Zm.941-.423Z"
                    transform="translate(-375.907 -685.172)" fill="#724335" />
            </g>
        </g>
    </g>
</svg>