<svg width="200" height="200" fill="none" viewbox="0 0 200 200">
    <g v-if="piece == 'K'" id="Group_115" data-name="Group 115" transform="translate(-905 -1030)">
        <g id="KING_1_" data-name="KING (1)" transform="translate(915.09 1042.317)">
            <path id="Path_4299" data-name="Path 4299"
                d="M177.458,76.089c-7.209-25.262-31.649-30.712-43.9-28.765-4.974-3.533-12.761-6.777-21.268-8.074-8.421-1.283,0-4.326,1.081-4.326s3.749,1.3,3.677-9.8C116.986,16.237,109,14.738,105,15.1,104.312,2.51,94.031-.186,88.912.03,83.794-.186,73.513,2.525,72.821,15.1c-3.994-.36-11.982,1.139-12.04,10.021-.072,11.1,2.6,9.8,3.677,9.8s9.5,3.042,1.081,4.326c-8.507,1.3-16.293,4.542-21.268,8.074-12.256-1.947-36.7,3.5-43.9,28.765-1.543,12.861.851,41.18,22.709,51.619-2.48,9.56-4.8,29.76,5.7,34.028,11.982,4.874,30.38,13.7,60.14,13.611,29.76.087,48.158-8.752,60.14-13.611,10.5-4.268,8.175-24.468,5.7-34.028C176.607,117.269,178.986,88.95,177.458,76.089Z"
                transform="translate(0 0)" fill="#fbf6ee" />
            <g id="Group_114" data-name="Group 114" transform="translate(11.444 11.183)">
                <path id="Path_4300" data-name="Path 4300"
                    d="M532.873,908.915c-.678-.26-1.4-.519-2.134-.779l-8.925-3.936-7.959,3.287c-3.5.952-8.94,2.667-9.415,3.331-.043.058-.058.1-.029.144.2.62,8.074,4.124,12.789,5.681l4.571,2.033,6.4-2.408c2.062-.36,11.319-3.071,11.953-3.936.043-.058.058-.1.029-.144C540.011,911.755,536.392,910.227,532.873,908.915Zm-22.464,2.336,11.376-4.7,12.011,5.306-11.967,4.484Z"
                    transform="translate(-443.121 -784.993)" fill="#724335" />
                <path id="Path_4301" data-name="Path 4301"
                    d="M232.6,146.737l-.014-.1-.014-.1c-1.817-9.1-6.157-15.745-12.919-19.782a31.827,31.827,0,0,0-15.5-4.21,43.6,43.6,0,0,0-12.429,1.442,32.506,32.506,0,0,0-13.64-7.267,23.806,23.806,0,0,0-9.185-.5,12.242,12.242,0,0,0,.072-1.269,11.694,11.694,0,0,0-6.171-10.281c0-.692-.043-1.615-.115-2.869-.072-1.413-.159-3.187-.144-4.542,1.471-.014,3.158-.043,4.643-.087,1.24-.043,2.235-.1,2.941-.159a10,10,0,0,0,1.081-.144,2.254,2.254,0,0,0,2-1.99c0-.029.014-.058.014-.1.13-.952.5-3.85-1.11-5.7a4.209,4.209,0,0,0-3.273-1.4c-.995,0-2.451-.058-3.98-.115-1.053-.043-2.12-.087-3.143-.115V79.906A2.314,2.314,0,0,0,161,78.234c-.98-.923-2.48-.836-4.556-.707-.4.029-.779.043-1.1.058a2.6,2.6,0,0,0-1.8.822c-.937,1.009-1.456,2.913-1.211,9.329-.519,0-1.081,0-1.572-.014-3.763-.043-6.561-.014-8.2.793a3.724,3.724,0,0,0-2.12,3.533,10.047,10.047,0,0,0,.577,2.884c.043.13.072.26.115.389l.433,1.5,2.293.014c1.9,0,6.373.014,8.507.187,0,1.125-.115,2.884-.187,4.08-.087,1.4-.159,2.523-.173,3.4a9.877,9.877,0,0,0-2.6,1.9,14.1,14.1,0,0,0-3.561,8.219l-.043.332.058.332c.144.75.332,1.471.534,2.177a35.523,35.523,0,0,0-19.162,1.009,28.394,28.394,0,0,0-10.771,6.546c-8.608-1.009-15.053-.49-20.258,1.586-4.946,1.975-8.291,5.147-11.809,9.314-6.344,7.5-5.479,12.761-3.59,24.281.2,1.2.4,2.437.606,3.763.88,5.537,4.181,10.915,9.819,15.976a53.855,53.855,0,0,0,11.823,7.974c-.519,3.3-1.384,9.3-1.961,15.212-.966,10.064-.36,12.588.433,13.813.346.533,1.081,1.327,3.763,2.667a64.956,64.956,0,0,0,7.152,2.985,129.726,129.726,0,0,0,24.05,5.926,149.137,149.137,0,0,0,22.551,1.716A139.725,139.725,0,0,0,209.9,220.82l1.1-.433.2-1.154c1.182-6.791,2.7-22.046.4-33.61a39.034,39.034,0,0,0,17.346-19.09C232.374,158.791,233.081,151.236,232.6,146.737Zm-32.529,57.8c-.577-.476-.966-.923-.98-1.254a1.76,1.76,0,0,1,.533-1.1l9.026-4.282c.058,3.446-.058,6.878-.288,10.021Zm12.3-41.569c-.591.2-1.11.375-1.528.562-1.413.606-5.71,2.451-4.7,6.387.26,1.024.433,1.86.591,2.682a35.877,35.877,0,0,0,1.1,4.412,7.211,7.211,0,0,1-.663,5.667,27.517,27.517,0,0,1-8.608,1.8c-3.1.13-7.354-.3-10.41-3.042a8.8,8.8,0,0,1,.029-3.143c.26-1.745,2.12-3.057,4.7-4.859a45.018,45.018,0,0,0,6.027-4.83c2.494-2.466,4.412-4.686,6.315-10.684.995-2.393.058-6.445-2.869-12.414A99.031,99.031,0,0,0,194.41,132.3c-.923-1.283-1.874-3.057-1.11-4.153a2.356,2.356,0,0,1,.245-.288,41.652,41.652,0,0,1,5.609-.952,26.577,26.577,0,0,1,19.581,12.818c3.85,6.387,4.354,12.688,3.187,15.875C219.816,160.449,215.158,162.035,212.375,162.972Zm-35.268-42.16a27.339,27.339,0,0,1,10.929,5.551c.966,1.2,1.975,2.538,3,3.951a10.114,10.114,0,0,0,1.644,3.244c4.513,6.272,8.8,14.015,10.252,19.119a11.189,11.189,0,0,1-1.038,6.445c-.159.389-.332.793-.476,1.2-.649,1.788-3.071,5.234-4.8,7.527a49.106,49.106,0,0,1-4.96,3.85c-2.9,2.033-5.191,3.648-5.594,6.3-.62,4.124.447,5.969,2.365,7.613a1.928,1.928,0,0,0,.332.231,5.379,5.379,0,0,1-.591,1.9.488.488,0,0,0-.216.087c-2.538.173-5.277.332-8.175.447a4.118,4.118,0,0,1-.937-1.269c3.042-2.725,6.041-7.815,4.34-11.261a17,17,0,0,0-2.653-3.792c-.1-.115-.187-.216-.274-.317-1.024-2.134-1.745-4.571-1.615-5.263.144-.75,1.24-2.235,3.071-4.181a14.348,14.348,0,0,0,1.918-2.826,19.727,19.727,0,0,0,4.2-9.257l.014-.058a34.7,34.7,0,0,0-.519-10.828,22.765,22.765,0,0,0-5.364-11.074c-3.388-3.662-7.974-5.58-13.669-5.739.433-.634.851-1.3,1.254-2.019A18.887,18.887,0,0,1,177.107,120.812Zm-42.939,56.507a14.825,14.825,0,0,1,2.249-3.4,13.732,13.732,0,0,0,2.379-3.734c1.658-4.21.029-6.517-1.629-7.714l-.029-.029c-1.874-1.355-6.863-4.96-8.247-11.9-.865-5.912-.144-14.765,4.686-20.316,3.158-3.619,7.685-5.465,13.481-5.465h.26l.087-.014a4.2,4.2,0,0,1,2.84.692c.2.159.389.3.591.447,1.644,1.427,2.653,4.008,2.9,7.5.562,8.147-5.09,18.456-8.175,22.782a9.061,9.061,0,0,0-1.557,5.09,8.154,8.154,0,0,0,3.475,6.517c4.4,3.4,6.561,7.642,6.4,12.6a27.994,27.994,0,0,1-.2,3.215c-5.263,4.311-12.588,2.884-16.524,1.211C134.918,182.466,133.318,179.208,134.169,177.319Zm46.2-47.726c5,5.407,6,14.231,5.32,20.157-1.182,6.979-6.041,10.728-7.873,12.141l-.029.029c-1.629,1.254-3.187,3.619-1.384,7.772a13.61,13.61,0,0,0,2.494,3.662,15.254,15.254,0,0,1,2.35,3.331c.923,1.86-.577,5.162-2.74,7.584-3.879,1.8-11.146,3.46-16.553-.692-.13-.721-.2-1.716-.3-3.2-.317-4.96,1.7-9.257,6-12.8a8.127,8.127,0,0,0,3.259-6.618,9.255,9.255,0,0,0-1.716-5.061c-3.2-4.21-9.185-14.347-8.867-22.508a14.687,14.687,0,0,1,1.067-5.292,12.392,12.392,0,0,0,5.176-3.533C172.436,124.345,177.079,126.032,180.366,129.593ZM156.1,188.565a4.84,4.84,0,0,1-1.4-1.961c1.168-1.37,1.226-2.985,1.327-6.157.173-5.7-2.264-10.54-7.238-14.39a7.438,7.438,0,0,1-1.572-1.6,10.037,10.037,0,0,1-.836-4.946,7.662,7.662,0,0,1,.937-2.105c3.23-4.527,9.17-15.414,8.565-24.18a17.543,17.543,0,0,0-1.11-5.263,10.89,10.89,0,0,0,3.533.606c.2,0,.418-.014.634-.014a18.042,18.042,0,0,0-.75,4.729c-.332,8.767,5.94,19.465,9.3,23.892a7.464,7.464,0,0,1,1.009,2.091,10.015,10.015,0,0,1-.678,4.974,7.655,7.655,0,0,1-1.528,1.658c-4.859,4.008-7.137,8.925-6.777,14.606.245,4.023.346,5.522,2.768,7.152a4.581,4.581,0,0,0,.995.476v.014a.36.36,0,0,1-.187.317h0a.871.871,0,0,0-.115.115C160.7,188.609,158.406,188.594,156.1,188.565ZM155.234,93.4c-.908-.548-2.6-.75-10.511-.779a3.023,3.023,0,0,1-.087-.447,32.383,32.383,0,0,1,6.085-.274c3.172.043,4.354.058,5.22-.807a2.181,2.181,0,0,0,.649-1.557c0-.144-.014-.332-.029-.764a39.348,39.348,0,0,1,.058-7.065h.072c.245-.014.548-.029.851-.043v9.978h2.091c1.471,0,3.3.072,5.075.144,1.572.058,3.057.115,4.138.115a.362.362,0,0,1,.144.014,2.317,2.317,0,0,1,.187,1.024c-1.788.115-5.119.187-8.565.187h-1.7l-.346,1.658a33.731,33.731,0,0,0-.058,7.253c.014.418.043.894.058,1.341a13.1,13.1,0,0,0-1.312-.072c-.346,0-.692.014-1.024.043.029-.663.072-1.37.115-2,.087-1.413.187-2.884.187-4.052C156.561,95.666,156.474,94.152,155.234,93.4Zm-2.826,15.9a6.416,6.416,0,0,1,4.859-1.817,7.477,7.477,0,0,1,3.1,14.3,9.631,9.631,0,0,1-4.614.087,9.5,9.5,0,0,1-2.913-1.24l-.2-.2a12.155,12.155,0,0,1-2.61-5.623A9.954,9.954,0,0,1,152.408,109.306Zm-5.854,12.429c.216.288.447.562.692.851a.245.245,0,0,0-.1.014c-6.488-.029-11.621,2.062-15.212,6.2a23.05,23.05,0,0,0-5.018,11.247,34.832,34.832,0,0,0-.187,10.843l.014.058a19.6,19.6,0,0,0,4.484,9.113,15.124,15.124,0,0,0,2,2.768c1.9,1.9,3.042,3.345,3.2,4.095.159.692-.49,3.143-1.442,5.306-.087.115-.173.216-.274.332a16.873,16.873,0,0,0-2.538,3.879c-1.471,3.23,1.11,7.714,3.965,10.468-.187.49-.5.952-1.038.952a.454.454,0,0,0-.389.173c-3.129-.13-6.229-.288-9.271-.461a6.6,6.6,0,0,1-2.336-3.36c.793-1.3,1.11-3,.735-5.7-.36-2.567-2.509-4.21-5-6.1a41.352,41.352,0,0,1-4.9-4.2,37.2,37.2,0,0,1-4.023-6.791c-.13-.389-.288-.779-.433-1.153a11.522,11.522,0,0,1-1.038-4.527,30.68,30.68,0,0,1,2.581-7.685,95.2,95.2,0,0,1,6.921-12.458c1.658-2.494,1.8-4.282,1.427-5.494A50.637,50.637,0,0,1,125,124.027a27.043,27.043,0,0,1,3.619-1.572A30.5,30.5,0,0,1,146.554,121.735Zm-34.461,7.426.072-.014.072-.029c.98-.288,3.907-.187,4.859,1.1.793,1.067-.072,2.826-.937,4.124a97.986,97.986,0,0,0-7.094,12.775c-2.6,5.753-3.432,9.675-2.552,11.968,1.7,5.811,3.417,7.945,5.638,10.338a39.957,39.957,0,0,0,5.393,4.672c2.293,1.745,3.936,3,4.181,4.686a8.891,8.891,0,0,1,0,3.187,8.046,8.046,0,0,1-.865.707c-.317.13-.678.317-1.1.533s-.851.476-1.312.764c-4.527,1.7-10.194.476-13.395-.88a7.243,7.243,0,0,1-.62-5.551,35.743,35.743,0,0,0,.98-4.268c.144-.793.288-1.6.533-2.6.894-3.792-2.97-5.594-4.239-6.186-.375-.173-.836-.346-1.384-.548-2.466-.908-6.589-2.408-8.493-7.108-1.168-3.46-.36-10.165,3.432-16.351A23.539,23.539,0,0,1,112.094,129.161ZM85.578,163.275c-.216-1.341-.418-2.6-.62-3.792-1.874-11.434-2.437-14.88,2.653-20.907,3.835-4.542,7.527-8.118,14.707-9.4.1.1.187.216.274.317a1.649,1.649,0,0,1,.26.591,26.607,26.607,0,0,0-9.415,9.286c-3.72,6.07-5.205,13.568-3.619,18.211l.014.058c2.264,5.594,7.137,7.382,9.761,8.348.49.173.908.332,1.211.476.014.014.029.014.043.029a4.044,4.044,0,0,1,.88.721,11.323,11.323,0,0,1,1.1,1.889c.072.13.13.274.2.4.029.072.072.13.1.2a3.069,3.069,0,0,1,.433,1.716c-.1.519-.2,1.009-.288,1.485a35.21,35.21,0,0,1-.923,4.037,9.6,9.6,0,0,0-.375,2.74c-.4.807-.793,1.557-1.153,2.177a48.725,48.725,0,0,1-6.791-5.061C90.7,173.757,86.486,168.97,85.578,163.275ZM113.708,201.3a3.078,3.078,0,0,1,.606,1.5,1.953,1.953,0,0,1-.75,1.067l-8.55,2.941c.072-1.1.187-2.336.317-3.749.2-2.019.433-4.037.678-5.955Zm24.526,23.214a129.119,129.119,0,0,1-23.373-5.551c-5.9-2.047-9.055-3.778-9.776-4.383-.115-.36-.36-1.629-.187-5.436l17-5.854-15.558-8.478c.375-2.826.75-5.263.995-6.849,15.644,1.528,35.931,2.437,54.257,2.437h2.091c12.53-.043,34.1-.606,43.948-3.691a61.21,61.21,0,0,1,.966,8.824l-16.769,7.959,16.351,6.69c-.245,2.754-.562,5.205-.865,7.152C180.193,227.626,154.831,226.934,138.235,224.511Zm86.93-59.679a35.342,35.342,0,0,1-13.251,15.774,3.6,3.6,0,0,1-1.6-1.355,8.874,8.874,0,0,0-.418-2.9,32.345,32.345,0,0,1-1.038-4.181c-.072-.332-.13-.678-.2-1.024a3.484,3.484,0,0,1,.49-2.264,1.443,1.443,0,0,0,.115-.2c.072-.144.159-.274.231-.418a11.111,11.111,0,0,1,1.226-1.961,5.329,5.329,0,0,1,1.2-.865c.317-.13.707-.26,1.153-.4,2.927-.995,8.363-2.826,10.886-8.608l.029-.058c1.673-4.513.317-11.665-3.36-17.764a29.855,29.855,0,0,0-5.883-7.022c-.793-1.327-.779-2-.548-2.35a.927.927,0,0,1,.418-.317,22.688,22.688,0,0,1,2.9,1.456c5.681,3.388,9.358,9.084,10.944,16.913A37.991,37.991,0,0,1,225.165,164.832Z"
                    transform="translate(-79.424 -77.448)" fill="#724335" />
            </g>
        </g>
    </g>
</svg>