<svg xmlns="http://www.w3.org/2000/svg" width="570" height="570" viewBox="0 0 570 570">
    <g id="Group_115" data-name="Group 115" transform="translate(-905 -1030)">
        <g id="Group_13" data-name="Group 13" transform="translate(905 1030)">
            <rect id="Rectangle_1" data-name="Rectangle 1" width="570" height="570"
                transform="translate(0 0)" fill="none" />
        </g>
        <g id="KING_1_" data-name="KING (1)" transform="translate(933.731 1065.156)">
            <path id="Path_4299" data-name="Path 4299"
                d="M505.77,216.819c-20.547-72-90.2-87.529-125.129-81.981-14.177-10.068-36.368-19.314-60.613-23.012-24-3.657,0-12.328,3.082-12.328s10.684,3.7,10.479-27.943c-.164-25.313-22.93-29.587-34.313-28.56C297.3,7.12,268-.564,253.417.052c-14.588-.616-43.888,7.109-45.86,42.942-11.383-1.027-34.148,3.246-34.313,28.56-.205,31.642,7.4,27.943,10.479,27.943s27.08,8.671,3.082,12.328c-24.245,3.7-46.435,12.944-60.613,23.012C91.263,129.29,21.61,144.824,1.063,216.819c-4.4,36.655,2.425,117.362,64.722,147.114-7.068,27.245-13.684,84.816,16.232,96.98,34.148,13.89,86.583,39.039,171.4,38.792,84.816.247,137.251-24.944,171.4-38.792,29.916-12.164,23.3-69.735,16.232-96.98C503.346,334.181,510.126,253.474,505.77,216.819Z"
                transform="translate(0.009 -0.019)" fill="#fbf6ee" />
            <g id="Group_114" data-name="Group 114" transform="translate(32.642 31.818)">
                <path id="Path_4300" data-name="Path 4300"
                    d="M585.557,917.638c-1.931-.74-3.986-1.479-6.082-2.219L554.038,904.2l-22.683,9.369c-9.986,2.712-25.478,7.6-26.834,9.492-.123.165-.164.288-.082.411.575,1.767,23.012,11.753,36.45,16.191l13.027,5.794L572.16,938.6c5.876-1.027,32.258-8.753,34.066-11.219.123-.164.164-.288.082-.411C605.9,925.733,595.583,921.377,585.557,917.638Zm-64.023,6.657,32.423-13.4,34.231,15.123L554.079,938.8Z"
                    transform="translate(-329.761 -564.461)" fill="#4e2e24" />
                <path id="Path_4301" data-name="Path 4301"
                    d="M515.989,274.922l-.041-.288-.041-.288c-5.178-25.93-17.547-44.874-36.82-56.38-12.451-7.438-27.327-11.465-44.175-12a124.265,124.265,0,0,0-35.422,4.109c-11.712-10.232-25.067-17.382-38.874-20.711-9.164-2.219-18.615-2.712-26.176-1.438a34.9,34.9,0,0,0,.205-3.616,33.329,33.329,0,0,0-17.588-29.3c0-1.973-.123-4.6-.329-8.178-.206-4.027-.452-9.082-.411-12.944,4.192-.041,9-.123,13.232-.247,3.534-.123,6.369-.288,8.383-.452a28.489,28.489,0,0,0,3.082-.411c4.849-.945,5.589-4.52,5.712-5.671,0-.082.041-.164.041-.288.37-2.712,1.438-10.972-3.164-16.232a11.994,11.994,0,0,0-9.328-3.986c-2.835,0-6.986-.164-11.342-.329-3-.123-6.041-.247-8.958-.329V84.455a6.6,6.6,0,0,0-2.055-4.767c-2.794-2.63-7.068-2.383-12.985-2.014-1.151.082-2.219.123-3.123.164a7.4,7.4,0,0,0-5.137,2.342c-2.671,2.877-4.15,8.3-3.452,26.587-1.479,0-3.082,0-4.479-.041-10.725-.123-18.7-.041-23.382,2.26a10.614,10.614,0,0,0-6.041,10.068,28.634,28.634,0,0,0,1.644,8.219c.123.37.205.74.329,1.109l1.233,4.274,6.534.041c5.424,0,18.163.041,24.245.534,0,3.205-.329,8.219-.534,11.629-.247,3.986-.452,7.191-.493,9.7a28.15,28.15,0,0,0-7.4,5.424c-5.383,5.506-8.917,13.6-10.15,23.423l-.123.945.164.945c.411,2.137.945,4.192,1.521,6.205-18.862-4.027-37.641-3.041-54.613,2.876-16.191,5.671-26.135,14.054-30.7,18.656-24.533-2.877-42.9-1.4-57.736,4.52-14.1,5.63-23.629,14.67-33.655,26.546-18.081,21.368-15.615,36.367-10.232,69.2.575,3.411,1.151,6.945,1.726,10.725C87.592,339.808,97,355.136,113.07,369.56a153.489,153.489,0,0,0,33.7,22.725c-1.479,9.41-3.945,26.505-5.589,43.353-2.753,28.683-1.027,35.874,1.233,39.367.986,1.52,3.082,3.781,10.725,7.6a185.121,185.121,0,0,0,20.382,8.506A369.718,369.718,0,0,0,242.061,508a425.041,425.041,0,0,0,64.27,4.89,398.217,398.217,0,0,0,144.936-26.834l3.123-1.233.575-3.288c3.37-19.355,7.684-62.832,1.151-95.788,27.532-14.67,42.038-37.477,49.435-54.408C515.331,309.276,517.345,287.743,515.989,274.922ZM423.283,439.665c-1.644-1.356-2.753-2.63-2.794-3.575a5.016,5.016,0,0,1,1.52-3.123l25.724-12.2c.164,9.821-.164,19.6-.822,28.56Zm35.053-118.472c-1.685.575-3.164,1.068-4.356,1.6-4.027,1.726-16.273,6.986-13.4,18.2.74,2.918,1.233,5.3,1.685,7.643a102.261,102.261,0,0,0,3.123,12.574c1.4,4.4,1.274,11.136-1.89,16.15a78.424,78.424,0,0,1-24.533,5.137c-8.835.37-20.958-.863-29.669-8.671a25.086,25.086,0,0,1,.082-8.958c.74-4.972,6.041-8.712,13.4-13.848a128.3,128.3,0,0,0,17.177-13.766c7.109-7.027,12.575-13.355,18-30.45,2.835-6.821.164-18.369-8.178-35.381a282.235,282.235,0,0,0-22.642-37.641c-2.63-3.657-5.342-8.712-3.164-11.835a6.712,6.712,0,0,1,.7-.822,118.708,118.708,0,0,1,15.985-2.712,75.745,75.745,0,0,1,55.8,36.532c10.972,18.2,12.41,36.162,9.082,45.244C479.539,314,466.266,318.522,458.335,321.193ZM357.821,201.036a77.917,77.917,0,0,1,31.149,15.821c2.753,3.411,5.63,7.232,8.547,11.26a28.825,28.825,0,0,0,4.685,9.246c12.862,17.876,25.067,39.943,29.217,54.49,1.027,8.835-.986,13.684-2.959,18.369-.452,1.109-.945,2.26-1.356,3.411-1.849,5.1-8.753,14.917-13.684,21.451a139.946,139.946,0,0,1-14.136,10.972c-8.26,5.794-14.794,10.4-15.944,17.958-1.767,11.753,1.274,17.013,6.739,21.7a5.492,5.492,0,0,0,.945.657c-.534,2.877-1.233,4.972-1.685,5.424a1.391,1.391,0,0,0-.616.247c-7.232.493-15.04.945-23.3,1.274a11.738,11.738,0,0,1-2.671-3.616c8.671-7.767,17.218-22.273,12.369-32.094a48.448,48.448,0,0,0-7.561-10.807c-.288-.329-.534-.616-.781-.9-2.918-6.082-4.972-13.027-4.6-15,.411-2.137,3.534-6.369,8.753-11.917a40.892,40.892,0,0,0,5.465-8.054,56.221,56.221,0,0,0,11.958-26.382l.041-.164a98.89,98.89,0,0,0-1.479-30.861c-2.712-12.944-7.849-23.588-15.287-31.56-9.657-10.438-22.725-15.9-38.956-16.355,1.233-1.808,2.424-3.7,3.575-5.753C341.26,198.9,348.945,198.9,357.821,201.036ZM235.445,362.081a42.249,42.249,0,0,1,6.41-9.7c2.466-3.041,5.013-6.164,6.78-10.643,4.726-12,.082-18.574-4.643-21.985l-.082-.082c-5.342-3.863-19.56-14.136-23.505-33.9-2.466-16.848-.411-42.079,13.355-57.9,9-10.314,21.9-15.574,38.422-15.574h.74l.247-.041a11.957,11.957,0,0,1,8.1,1.973c.575.452,1.11.863,1.685,1.274,4.685,4.068,7.561,11.424,8.26,21.368,1.6,23.218-14.506,52.6-23.3,64.927a25.823,25.823,0,0,0-4.438,14.506c.041,5.013,1.808,12.328,9.9,18.574,12.534,9.7,18.7,21.779,18.245,35.915a79.792,79.792,0,0,1-.575,9.164c-15,12.287-35.874,8.219-47.093,3.452C237.582,376.751,233.021,367.464,235.445,362.081ZM367.108,226.062c14.259,15.41,17.095,40.559,15.163,57.448-3.37,19.889-17.218,30.573-22.437,34.6l-.082.082c-4.644,3.575-9.082,10.314-3.945,22.149,1.89,4.438,4.561,7.479,7.109,10.438a43.473,43.473,0,0,1,6.7,9.493c2.63,5.3-1.644,14.711-7.808,21.615-11.054,5.137-31.765,9.862-47.175-1.972-.37-2.055-.575-4.89-.863-9.123-.9-14.136,4.849-26.382,17.095-36.491,7.89-6.493,9.41-13.848,9.287-18.862a26.377,26.377,0,0,0-4.89-14.424c-9.123-12-26.176-40.888-25.272-64.147a41.859,41.859,0,0,1,3.041-15.081,35.317,35.317,0,0,0,14.753-10.068C344.507,211.1,357.739,215.912,367.108,226.062Zm-69.16,168.071a13.794,13.794,0,0,1-3.986-5.589c3.328-3.9,3.493-8.506,3.781-17.547.493-16.232-6.452-30.039-20.629-41.011a21.2,21.2,0,0,1-4.479-4.561,28.6,28.6,0,0,1-2.383-14.1,21.838,21.838,0,0,1,2.671-6c9.2-12.9,26.135-43.929,24.409-68.913a50,50,0,0,0-3.164-15,31.036,31.036,0,0,0,10.068,1.726c.575,0,1.192-.041,1.808-.041a51.421,51.421,0,0,0-2.137,13.479c-.945,24.985,16.93,55.476,26.505,68.091a21.275,21.275,0,0,1,2.877,5.959,28.543,28.543,0,0,1-1.931,14.177A21.815,21.815,0,0,1,327,329.535c-13.848,11.424-20.341,25.437-19.314,41.627.7,11.465.986,15.739,7.89,20.382a13.058,13.058,0,0,0,2.835,1.356v.041a1.026,1.026,0,0,1-.534.9h0a2.48,2.48,0,0,0-.329.329C311.057,394.257,304.523,394.216,297.948,394.134Zm-2.466-271.215c-2.589-1.562-7.4-2.137-29.957-2.219a8.613,8.613,0,0,1-.247-1.274c3.329-.945,12.657-.863,17.341-.781,9.041.123,12.41.164,14.876-2.3a6.216,6.216,0,0,0,1.849-4.438c0-.411-.041-.945-.082-2.178-.575-11.917-.247-17.547.164-20.136h.205c.7-.041,1.562-.082,2.425-.123V117.9h5.958c4.192,0,9.41.205,14.465.411,4.479.164,8.712.329,11.794.329a1.031,1.031,0,0,1,.411.041,6.6,6.6,0,0,1,.534,2.918c-5.1.329-14.588.534-24.409.534h-4.849l-.986,4.726c-.9,4.356-.658,11.3-.164,20.67.041,1.192.123,2.548.164,3.822a37.337,37.337,0,0,0-3.74-.205c-.986,0-1.972.041-2.918.123.082-1.89.205-3.9.329-5.712.247-4.027.534-8.219.534-11.547C299.263,129.37,299.017,125.055,295.483,122.918Zm-8.054,45.326c3.411-3.493,7.931-5.178,13.848-5.178a21.31,21.31,0,0,1,8.835,40.764,27.447,27.447,0,0,1-13.15.247,27.081,27.081,0,0,1-8.3-3.534l-.575-.575c-3.452-3.822-6-9.328-7.438-16.026C281.716,177.12,284.018,171.7,287.428,168.244Zm-16.684,35.422c.617.822,1.274,1.6,1.973,2.424a.7.7,0,0,0-.288.041c-18.492-.082-33.121,5.876-43.353,17.67-7.15,8.219-11.958,19.026-14.3,32.053a99.269,99.269,0,0,0-.534,30.9l.041.164a55.846,55.846,0,0,0,12.78,25.971,43.1,43.1,0,0,0,5.712,7.89c5.424,5.424,8.671,9.534,9.123,11.67.452,1.972-1.4,8.958-4.109,15.122-.247.329-.493.616-.781.945a48.09,48.09,0,0,0-7.232,11.054c-4.191,9.2,3.164,21.985,11.3,29.834-.534,1.4-1.438,2.712-2.959,2.712a1.294,1.294,0,0,0-1.109.493c-8.917-.37-17.752-.822-26.423-1.315-2.794-2.3-6.041-6.082-6.657-9.575,2.26-3.7,3.164-8.547,2.1-16.232-1.027-7.315-7.15-12-14.259-17.382a117.847,117.847,0,0,1-13.972-11.958c-4.4-6.246-9.9-14.794-11.465-19.355-.37-1.11-.822-2.219-1.233-3.287a32.837,32.837,0,0,1-2.959-12.9c.7-4.6,2.671-11.547,7.356-21.9a271.335,271.335,0,0,1,19.725-35.5c4.726-7.109,5.137-12.2,4.068-15.657,3.164-4.644,10.356-11.876,16.026-17.341a77.069,77.069,0,0,1,10.314-4.479C235.651,199.886,252.828,199.311,270.744,203.666Zm-98.213,21.163.205-.041.205-.082c2.794-.822,11.136-.534,13.848,3.123,2.26,3.041-.205,8.054-2.671,11.753A279.256,279.256,0,0,0,163.9,275.991c-7.4,16.4-9.78,27.574-7.274,34.107,4.849,16.561,9.739,22.642,16.067,29.464a113.879,113.879,0,0,0,15.369,13.314c6.534,4.972,11.218,8.547,11.917,13.355a25.341,25.341,0,0,1,0,9.082,22.931,22.931,0,0,1-2.466,2.014c-.9.37-1.931.9-3.123,1.52-1.151.616-2.425,1.356-3.74,2.178-12.9,4.849-29.053,1.356-38.176-2.507a20.644,20.644,0,0,1-1.767-15.821,101.869,101.869,0,0,0,2.794-12.164c.411-2.26.822-4.561,1.52-7.4,2.548-10.808-8.465-15.944-12.081-17.629-1.068-.493-2.383-.986-3.945-1.562-7.027-2.589-18.78-6.863-24.2-20.259-3.329-9.862-1.027-28.971,9.78-46.6C135.63,239.171,152.642,227.665,172.532,224.829Zm-75.57,97.227c-.616-3.822-1.192-7.4-1.767-10.808-5.342-32.587-6.945-42.408,7.561-59.585,10.931-12.944,21.451-23.135,41.915-26.793.288.288.534.616.781.9a4.7,4.7,0,0,1,.74,1.685,75.829,75.829,0,0,0-26.834,26.464c-10.6,17.3-14.835,38.669-10.314,51.9l.041.164c6.452,15.944,20.341,21.04,27.82,23.793,1.4.493,2.589.945,3.452,1.356.041.041.082.041.123.082a11.526,11.526,0,0,1,2.507,2.055,32.27,32.27,0,0,1,3.123,5.383c.205.37.37.781.575,1.151.082.205.205.37.288.575a8.747,8.747,0,0,1,1.233,4.89c-.288,1.479-.575,2.877-.822,4.233a100.35,100.35,0,0,1-2.63,11.506,27.352,27.352,0,0,0-1.068,7.808c-1.151,2.3-2.26,4.438-3.287,6.205A138.861,138.861,0,0,1,121.042,360.6C111.549,351.931,99.55,338.288,96.961,322.056Zm80.173,108.363a8.771,8.771,0,0,1,1.726,4.274c-.041.822-.863,1.89-2.137,3.041l-24.368,8.383c.205-3.123.534-6.657.9-10.684.575-5.753,1.233-11.506,1.931-16.971Zm69.9,66.16a367.988,367.988,0,0,1-66.612-15.821c-16.807-5.835-25.807-10.766-27.861-12.492-.329-1.027-1.027-4.644-.534-15.492l48.449-16.684-44.34-24.163c1.068-8.054,2.137-15,2.835-19.519,44.586,4.356,102.4,6.945,154.634,6.945h5.959c35.71-.123,97.185-1.726,125.252-10.52a174.453,174.453,0,0,1,2.753,25.149l-47.791,22.683,46.6,19.067c-.7,7.849-1.6,14.835-2.466,20.382C366.615,505.455,294.332,503.483,247.034,496.579ZM494.785,326.494c-6.041,13.766-17.3,31.929-37.765,44.956a10.245,10.245,0,0,1-4.561-3.863,25.291,25.291,0,0,0-1.192-8.26,92.188,92.188,0,0,1-2.959-11.917c-.206-.945-.37-1.931-.575-2.918-.123-3.9.7-5.3,1.4-6.452a4.112,4.112,0,0,0,.329-.575c.205-.411.452-.781.657-1.192a31.662,31.662,0,0,1,3.493-5.589,15.186,15.186,0,0,1,3.411-2.466c.9-.37,2.014-.74,3.287-1.151,8.342-2.835,23.834-8.054,31.025-24.533l.082-.164c4.767-12.862.9-33.244-9.575-50.627a85.086,85.086,0,0,0-16.766-20.012c-2.26-3.781-2.219-5.712-1.562-6.7a2.644,2.644,0,0,1,1.192-.9,64.662,64.662,0,0,1,8.26,4.15c16.191,9.657,26.669,25.889,31.19,48.2C505.222,287.291,503.414,306.769,494.785,326.494Z"
                    transform="translate(-79.424 -77.448)" fill="#4e2e24" />
            </g>
        </g>
    </g>
</svg>
  