<svg xmlns="http://www.w3.org/2000/svg" width="570" height="570" viewBox="0 0 570 570">
    <g id="Group_120" data-name="Group 120" transform="translate(-1505 -1030)">
      <g id="Group_7" data-name="Group 7" transform="translate(1505 1030)">
        <rect id="Rectangle_1" data-name="Rectangle 1" width="570" height="570" fill="none"/>
      </g>
      <g id="KNIGHT_1_" data-name="KNIGHT (1)" transform="translate(1591.989 1097.318)">
        <path id="Path_4329" data-name="Path 4329" d="M70.231,141.571c15.4-24.872,36.841-56.716,45.231-71.073-5.966-24.424,11.261-44.9,17.526-51.72C139.4,11.805,150.141-12.06,161.03,7.7c2.61,4.7,16.3,24.126,25.729,32.926,1.715-3.393-1.156-14.916,5.146-23.641,14.282-19.875,31.546-4.363,59.811,0s41.092,23.641,57.425,32.18,18.2,32.851,36.879,46.164c19.39,13.834,24.35,50.564,28.34,62.645,4.027,12.305,11.075,31.472,16.78,42.882,8.39,16.78-3.1,27.258,3.692,43.255s-17.489,46.238-6.488,55.188c13.834,11.261-10.329,51.384-4.288,55.56s-.932,64.883-19.577,73.646c-30.95,14.543-43.367-4.251-68.239,0-26.1,4.475-116.043,2.387-190.807,6.861-17.041,1.007-27.594-24.424-14.17-61.527,3.468-9.583,9.7-24.984,21.255-40.086C118,326.6,127.47,310.638,133.1,297.848a7.61,7.61,0,0,1-1.007.858c-18.085,13.424-28.3,26.4-46.984,29.682C64.377,332,42.6,325.368,36.075,322.571c-6.824-2.909-8.054-9.359-23.492-25.916-15.027-16.072-15.549-71-6.936-83.714S51.326,172.11,70.231,141.571Z" transform="translate(-0.026 -0.035)" fill="#fbf6ee"/>
        <g id="Group_119" data-name="Group 119" transform="translate(28.651 31.347)">
          <path id="Path_4330" data-name="Path 4330" d="M362.039,391.8l-3.132.224c-.037.932-.932,3.356-4.4,4.736H337.241c-6.749,0-15.139,0-17.414,4.064-1.79,3.207-2.5,8.726-2.61,11.187-.485,2.983-3.244,10.329-10.068,16.78-.485.261-8.949,4.661-8.949,6.488,0,1.268.82,4.959,2.722,6.115a2.611,2.611,0,0,0,1.231.373,2.847,2.847,0,0,0,1.38-.373c3.766-1.939,6.637-6.078,8.949-9.882.41-.671.858-1.454,1.305-2.312,2.349-4.251,5.519-10.031,10.031-10.217,3.393-.149,7.607-1.715,10.963-2.983a31.777,31.777,0,0,1,5.071-1.641,4.711,4.711,0,0,1,1.827.037c1.119.224,2.386.448,10.18-2.312a8.9,8.9,0,0,0,5.668-5,10.613,10.613,0,0,0,.485-5.183C361.666,397.505,362.374,393.776,362.039,391.8Z" transform="translate(-215.665 -277.062)" fill="#724335"/>
          <path id="Path_4331" data-name="Path 4331" d="M152.225,613.574c-4.512,2.5-12.343,12.641-13.834,16.146a4.816,4.816,0,0,0,1.007,4.885,7.467,7.467,0,0,0,5.743,2.759,5.492,5.492,0,0,0,1.342-.149c5.22-1.044,6.153-6.563,6.376-11.821.186-4.549,3.393-9.061,5.034-10.814v-.037c.3-.932.224-1.678-.3-2.088C156.7,611.785,154.8,612.157,152.225,613.574Z" transform="translate(-115.257 -415.235)" fill="#724335"/>
          <path id="Path_4332" data-name="Path 4332" d="M407.7,341.505a26.6,26.6,0,0,1,5.071-6.265l-.037-.075h0l.037.075.037-.037v-.037c2.461-12.566,3.468-19.614,3.654-24.2a24.338,24.338,0,0,0-1.119-9.322c-.112-.336-.187-.671-.3-1.044a10.937,10.937,0,0,0-3.505-4.736,43.073,43.073,0,0,0-6.376-4.587,93.31,93.31,0,0,0-11.709-6.078,11.256,11.256,0,0,1-6.339-9.471,4.307,4.307,0,0,1,2.424-3.58,2.967,2.967,0,0,1,3.8.41,7.927,7.927,0,0,0,2.126,1.6c1.007.6,2.274,1.231,3.692,1.9,2.8,1.305,6.153,2.685,9.024,3.878,1.715.708,3.281,1.38,4.475,1.864a2.565,2.565,0,0,0,1.678.261,1.885,1.885,0,0,0,1.156-.858,7.9,7.9,0,0,0,.932-3.953,37.644,37.644,0,0,0-1.417-10.7,7.875,7.875,0,0,0-1.976-3.617,7.523,7.523,0,0,0-3.505-1.976c-2.871-.858-6.787-.858-12.007-.485a39.779,39.779,0,0,1-5.407.112,5.444,5.444,0,0,1-2.834-.82,3.481,3.481,0,0,1-1.268-2.051,26.589,26.589,0,0,1-.6-3.654c-.075-.709-.186-1.492-.3-2.387a5.74,5.74,0,0,1,.336-3.692,2.576,2.576,0,0,1,2.163-1.193,12.658,12.658,0,0,1,3.505.41c1.342.336,2.834.82,4.325,1.305l3.132,1.007c3.617,1.081,5.742.671,7.01-.522s1.715-3.132,2.088-5.071a4.645,4.645,0,0,0-1.79-4.288A22.465,22.465,0,0,0,403.6,236.8c-.447-.224-.82-.447-1.193-.671a1.888,1.888,0,0,1-.671-.746,6.853,6.853,0,0,1-.522-1.268,30.956,30.956,0,0,1-.858-3.542,29.015,29.015,0,0,0-1.454-5.37c-.671-1.566-1.566-2.759-3.02-3.02a5.653,5.653,0,0,0-3.281.559,25.992,25.992,0,0,0-3.393,2.014c-2.759,1.827-5.929,3.915-10.217,3.915a5.947,5.947,0,0,1-4.549-2.125,13.938,13.938,0,0,1-2.685-4.922,42.513,42.513,0,0,1-1.753-9.7c0-.186-.037-.336-.037-.448a1.423,1.423,0,0,1,.41-1.007,5.574,5.574,0,0,1,1.268-1.156,14.514,14.514,0,0,1,4.1-2.014,10.027,10.027,0,0,1,4.475-.522,3.283,3.283,0,0,1,2.834,2.163,14.311,14.311,0,0,0,2.685,4.251,26.132,26.132,0,0,0,4.1,3.8,11,11,0,0,0,3.953,2.014,2.345,2.345,0,0,0,1.454-.112,1.436,1.436,0,0,0,.783-1.119,12.864,12.864,0,0,0-.522-5.854,23.364,23.364,0,0,0-1.976-4.848v-.037h-.037l-.037.075h0l.037-.075c-2.386-1.342-7.01-6.227-6.339-15.288.224-2.871-.932-6.6-2.834-10.59a83.023,83.023,0,0,0-7.458-12.268,89.37,89.37,0,0,0-8.651-10.329,33.812,33.812,0,0,0-3.692-3.319,8.047,8.047,0,0,0-2.759-1.529,16.037,16.037,0,0,0-14.99,4.512c-1.976,1.976-4.922,2.536-7.793,2.461a25.448,25.448,0,0,1-7.5-1.529,6.2,6.2,0,0,1-2.536-2.2,16.178,16.178,0,0,1-2.014-4.1c-1.044-3.132-1.305-6.787,0-9.658a3.012,3.012,0,0,1,1.678-1.641,5.367,5.367,0,0,1,2.61-.224,33.761,33.761,0,0,1,6.936,1.976c1.715.6,3.431,1.231,5.071,1.641a10.738,10.738,0,0,0,4.363.41,3.536,3.536,0,0,0,2.909-2.312,7.56,7.56,0,0,0,.037-4.288,17.849,17.849,0,0,0-5.034-8.688c-2.051-1.79-4.661-1.939-7.085-2.125a15.219,15.219,0,0,1-4.064-.634,4.591,4.591,0,0,1-2.8-2.685c-2.387-5.444-6.526-9.285-10.963-9.285a2.359,2.359,0,0,0-1.939.895,4.467,4.467,0,0,0-.82,2.275,30.736,30.736,0,0,0,.112,6.376c.112,1.305.224,2.536.224,3.542a3.032,3.032,0,0,1-1.044,2.349,6.634,6.634,0,0,1-2.685,1.231,32.216,32.216,0,0,1-7.085.485h-.895A2.661,2.661,0,0,1,304,130.9a15.234,15.234,0,0,1-1.23-3.617,17.455,17.455,0,0,0-.932-2.983,3.533,3.533,0,0,0-1.6-1.939,2.836,2.836,0,0,0-1.715-.112,12.681,12.681,0,0,0-2.424.671c-1.79.634-3.878,1.6-5.929,2.573-1.976.932-3.915,1.827-5.519,2.386a10.422,10.422,0,0,1-2.125.6,2.457,2.457,0,0,1-1.417-.075q-.447-.224-.447-1.231a8.5,8.5,0,0,1,.6-2.5,23.779,23.779,0,0,1,4.064-6.637c3.841-4.512,9.732-8.2,16.482-5.78a30.309,30.309,0,0,0,12.865,2.051c3.132-.3,5.146-1.268,6-2.088l-.074-.075h0l.074-.037c-4.922-8.2-15.288-12.678-26.1-14.99a112.587,112.587,0,0,0-28.19-2.014,8.673,8.673,0,0,0-.634-.969,4.6,4.6,0,0,0-3.878-2.2,5.569,5.569,0,0,0-3.654,2.051,22.265,22.265,0,0,0-2.759,4.027c-1.79,3.132-3.692,7.346-5.742,11.485a87.3,87.3,0,0,1-6.749,11.858,27.541,27.541,0,0,0-2.8,5.109c-3.095.373-6.339.932-9.732,1.641,0-.037,0-.037.037-.075,1.976-6.712-8.427-19.539-21.18-34.343-2.983-3.468-5.593-6.488-6.861-8.315l-.932-1.268-1.268.895c-12.566,8.949-9.732,45.455-6.526,57.835l.261.932c-17.339,1.753-36.431,41.2-37.7,46.387-1.044,4.139-23.156,33.6-34.306,48.028l-4.1,3.8c-7.01,6.227-18.943,19.987-23.716,21.777C88.174,266,75.458,296.386,76.987,307.945s6.526,33.56,12.678,37.848c3.244,2.275,10.143,2.61,15.773,2.685q1.846.28,3.8.559a70.161,70.161,0,0,1,9.1,2.088h0c1.044.3,2.088.6,3.17.858,4.288,1.119,8.875,2.088,13.5,1.715a22.424,22.424,0,0,0,13.871-6.3c4.4-4.064,8.576-10.329,12.529-19.726a297.323,297.323,0,0,0,29.757-18.234,138.932,138.932,0,0,0,14.505-11.56,40.35,40.35,0,0,0,8.315-10.031c4.1.783,9.919,1.827,15.326,2.61,2.983.41,5.854.783,8.241.969a28.026,28.026,0,0,0,4.624.075c1.081.224,2.125.41,3.095.6,4.288.783,7.682,1.417,8.987,3.692.746,1.268.82,3.058.261,5.482-3.393,4.437-6.414,8.241-8.726,11.112h0c-1.044,1.305-1.939,2.387-2.648,3.319-18.607,17.116-35.872,43.777-49.893,70.029-2.237,4.176-4.363,8.315-6.414,12.455-4.773,7.607-8.614,13.834-10.553,17.116-8.054,13.573-16.556,38.631-17.041,42.808a1.359,1.359,0,0,0,.336,1.081c.6.6,1.864.82,3.654.82,2.2,0,5.146-.336,8.651-.708a145.654,145.654,0,0,1,15.773-1.081c3.617,0,10.478-.037,19.129-.075,25.282-.112,67.567-.3,82.11.075,8.5.224,22.411-.783,36.282-2.61,4.251-.559,8.688-1.231,12.6-1.9l10.7-.149h1.119l.336-1.081c.149-.447.3-.895.41-1.342a142.889,142.889,0,0,0,24.872,5.966,96.037,96.037,0,0,0,14.207,1.119,30.869,30.869,0,0,0,11.261-1.79,6.458,6.458,0,0,0,3.17-3.207,21.69,21.69,0,0,0,1.939-5.929,84.336,84.336,0,0,0,1.044-17.377c-.3-13.163-2.163-28.377-3.431-38.631-.373-2.909-.671-5.407-.895-7.346,11.6-8.054,12.529-21.926,10.292-28.451-1.79-5.146-5.258-5.854-6.861-5.519C405.2,347.21,406.173,344.153,407.7,341.505Zm-15.885,74.354h0a110.328,110.328,0,0,1-9.248,10.478,13.838,13.838,0,0,1-4.214,2.909,2.842,2.842,0,0,1-1.641.149,1.917,1.917,0,0,1-1.23-.969,12.947,12.947,0,0,1-1.753-8.912c.485-2.983,2.163-5.519,5.258-6.227v-.075h0v-.075a16.567,16.567,0,0,1-8.2-1.864,5.668,5.668,0,0,1-2.61-2.983,7.122,7.122,0,0,1,.336-4.885c1.939-5,4.848-7.98,7.868-9.248a9.2,9.2,0,0,1,8.8.783,31.2,31.2,0,0,1,8.353,8.017,11.336,11.336,0,0,1,2.051,5.146,6.491,6.491,0,0,1-1.566,5c-.671.858-1.417,1.753-2.2,2.759Zm11.671-82.93Zm.708-2.946a4.618,4.618,0,0,1-.3,1.492,14.916,14.916,0,0,0-.485,1.417h0a16.811,16.811,0,0,1-3.692,7.159c-2.349,2.5-6.19,4.624-12.79,5a15.94,15.94,0,0,1-8.688-1.529,8.414,8.414,0,0,1-4.475-8.987,4.309,4.309,0,0,1,1.6-2.946,15.116,15.116,0,0,1,3.841-1.193,21.575,21.575,0,0,0,5.332-1.678,6.948,6.948,0,0,0,3.654-4.288h0a23.958,23.958,0,0,0-1.119-6.265,9.513,9.513,0,0,0-1.492-2.871,3.762,3.762,0,0,0-2.312-1.492,2.464,2.464,0,0,1-2.014-1.939,3.994,3.994,0,0,1,.671-3.207c1.417-2.088,4.81-3.58,10.665-1.566,5.817,2.014,8.912,7.532,10.4,12.865A32.2,32.2,0,0,1,404.2,327.3C404.234,328.342,404.234,329.274,404.2,329.983ZM388.424,369.77c-.783-.708-1.492-1.342-2.163-1.939h0l-.037.075h0l.037-.075c-1.827-1.566-3.058-2.685-3.617-4.1s-.373-3.207.708-6.153a9.492,9.492,0,0,1,6.115-3.99c3.02-.559,6.936.224,11.6,3.99,2.908,2.349,3.878,4.587,3.617,6.488-.261,1.939-1.715,3.58-3.692,4.848a16.557,16.557,0,0,1-6.861,2.237C391.78,371.336,389.654,370.926,388.424,369.77ZM359.562,192.387a7.476,7.476,0,0,1-1.753-5.668,5.589,5.589,0,0,1,1.715-3.319l.186-.149h-.224a56.332,56.332,0,0,1-13.275-.97,10.945,10.945,0,0,1-4.773-2.051,2.9,2.9,0,0,1-.932-1.529,2.964,2.964,0,0,1,.373-1.939c1.9-3.729,4.288-6.115,7.532-6.861s7.309.186,12.566,3.207,8.129,5.854,9.7,8.539a14.212,14.212,0,0,1,1.827,7.57,4.719,4.719,0,0,1-1.454,3.207,8.53,8.53,0,0,1-3.505,2.125A6.912,6.912,0,0,1,359.562,192.387ZM270.33,107.853a87.926,87.926,0,0,1,12.007-1.678,21.7,21.7,0,0,1,2.759.075,6.112,6.112,0,0,1,1.976.485,1.479,1.479,0,0,1,.895,1.007,2.358,2.358,0,0,1-.448,1.678c-1.641,2.759-4.549,4.326-7.57,5.183a22.858,22.858,0,0,1-7.98.783v.075h0v-.075H271.9v.075l-.41,1.753A87.941,87.941,0,0,0,270.33,107.853Zm64.92,79.873Zm67.195,196.289Zm-156.5-260.5a85.211,85.211,0,0,0,7.048-12.38c2.125-4.288,3.915-8.278,5.631-11.3a18.7,18.7,0,0,1,2.312-3.393c.746-.82,1.081-.858,1.119-.858h0a.289.289,0,0,1,.112.037,2.742,2.742,0,0,1,.634.671,16.935,16.935,0,0,1,2.014,4.549c2.946,9.173,4.176,22.038,2.648,35.574S261.716,164.01,254,175.644a1.831,1.831,0,0,0,3.058,2.014c8.129-12.231,12.492-26.885,14.058-40.831.186-1.753.336-3.542.447-5.258a62.051,62.051,0,0,1,8.688,3.281,69.955,69.955,0,0,1,6,3.654,145.106,145.106,0,0,1,18.794,15.512,351.027,351.027,0,0,1,30.167,33.746c21.889,31.174,31.509,57.462,35.126,80.134s1.193,41.764-.895,58.655c-.708,5.556-1.38,10.888-1.79,16-1.305,7.048-2.461,15.139-3.654,23.94-.149,1.044-.3,2.088-.448,3.169v.037c-3.095,22.821-6.824,50.116-15.139,77.337-1.492-.969-3.915-1.492-6.936-1.492H234.98c-4.959,0-10.329,1.827-16.034,3.729-3.356,1.119-6.973,2.349-10.739,3.244l-22.821.336c-5.258-1.231-9.322-3.356-11.373-6.115a7.539,7.539,0,0,1-1.193-6.936c2.5-8.427,14.431-34.045,23.492-45.53,6.339-8.017,17.9-31.882,24.35-47.506a212.411,212.411,0,0,1,15.96-20.024,69.66,69.66,0,0,0,11.41-5.071c4.139-2.237,11.187-6.414,11.932-9.509.112-.41.261-.634.448-.634,1.119-.149,3.766,4.7,6.376,9.359,3.319,6,6.786,12.193,8.8,12.193a1.244,1.244,0,0,0,1.044-.6c2.61-3.505.671-22.411-.97-28-.224-.82-.112-.932-.075-.97.485-.261,3.356,3.17,6.115,6.526,3.766,4.549,8.054,9.7,9.583,9.7a.725.725,0,0,0,.6-.3c.858-1.23-.932-6.115-2.648-10.888-1.193-3.319-2.349-6.451-2.2-7.458.261-1.864,10.776-3.729,17.75-4.549h.037V296.5a3.277,3.277,0,0,0-.261-2.8c-1.529-2.424-7.122-4.363-17.638-6.041-2.088-.336-3.207-1.044-3.319-2.088-.447-3.99,13.088-11.858,17.638-13.76l.447-.186c3.244-1.342,3.915-1.641,3.841-1.864-.037-.224-.634-.186-3.058,0a157.338,157.338,0,0,1-21.777.186,134.85,134.85,0,0,0,8.278-21.516c3.729-14.17,3.953-15.549,4.176-18.458.112-1.492.112-2.759.075-6.041-.037-2.573-.075-6.488-.075-12.753,0-1.715-1.119-5.37-2.237-8.912a48.484,48.484,0,0,1-1.939-7.309c-.075-.746-.075-2.5-.112-4.661-.075-7.98-.224-15.139-1.305-15.624a.38.38,0,0,0-.41.112l-.037.037v.037c0,1.342-.149,3.617-.373,6.488-.41,5.519-.932,13.088-.932,21.926,0,5.966.3,11.485.559,16.37.336,6.041.559,10.814.037,13.051-6.041,14.878-17.116,40.2-23.231,43.031-1.492.671-2.2,1.529-2.163,2.5a.224.224,0,0,0,.037.149c-.41.187-.82.373-1.231.522-2.759,1.007-5.556,1.939-8.2,2.871-4.661,1.6-8.949,3.058-12.231,4.512-5.929.186-12.231.186-16.482.149-.373-.075-.783-.112-1.156-.186a7.638,7.638,0,0,0-2.312-1.417c-2.014-4.885-5.37-12.343-7.383-14.282-2.871-2.759-6.526-11.485-9.1-11.485s-10.478-.559-7.905,1.678c2.051,1.79,3.8,1.715,4.4,1.491,5.3,5,14.505,16.444,11.485,24.163a15.63,15.63,0,0,0-2.051,2.088c-6.712,8.2-16.034,10.254-19.763,14.543-2.983,3.431-21.739,16.109-30.763,22a77.2,77.2,0,0,1-5.22,9.7c-2.61,3.915-17.9,15.475-23.492,15.1a25.948,25.948,0,0,1-9.21-2.536c-1.529-2.461.671-16.705,1.193-19.987.559-3.356,14.543-15.475,16.594-17.526,2.237-2.237,3.915-4.437,5.78-5.966,2.983-2.424,11.932-8.241,8.2-10.665s-8.2,4.288-13.983,9.546c-4.661,4.214-18.272,16.78-22,21.068-2.909,3.319-2.461,20.546-5.668,22.411a10.058,10.058,0,0,0-1.044-.149c-7.159-.932-11.373-1.79-14.543-6.227-1.641-2.312-3.058-5.631-4.288-10.7a155.1,155.1,0,0,1-3.095-20.322c.075-10.59,1.753-20.248,3.729-26.065a47.623,47.623,0,0,1,2.759-5.332c3.244-3.17,9.993-9.583,14.99-14.8.3-.149.6-.336.895-.447l.3-.149.224-.261c11.821-14.431,39.377-50.154,54.927-77.412,12.044-21.143,27.706-35.387,38-42.659,6.264-1.864,11.336-2.871,15.065-2.946,3.953-.112,6.414.783,7.234,2.648,1.417,3.095-2.126,7.831-3.953,8.875-2.088,1.231-3.766,4.139-4.437,7.793a21.738,21.738,0,0,0,1.566,12.678c1.939,4.363,6.115,5.631,10.105,5.631a22.944,22.944,0,0,0,3.654-.336c0,.186-.037.373-.037.559l3.654.373c.336-3.393.6-7.719.969-12.566l4.251-30.5A33.58,33.58,0,0,1,245.943,123.514Zm-.075,193.828c.634-.783,1.38-1.715,2.2-2.759C247.36,315.552,246.614,316.484,245.868,317.342Zm-51.682-172.5a1.866,1.866,0,0,0-.3.261l.224-.447Zm50.825,173.468a45.465,45.465,0,0,1-3.692,3.542C242.512,320.623,243.743,319.467,245.011,318.312Z" transform="translate(-76.86 -84.1)" fill="#724335"/>
          <path id="Path_4333" data-name="Path 4333" d="M887,966.512l.037.075L887,966.4Z" transform="translate(-584.908 -637.4)" fill="#724335"/>
          <path id="Path_4334" data-name="Path 4334" d="M730.574,159.312l.037-.037-.037-.075-.074.037Z" transform="translate(-486.765 -131.196)" fill="#724335"/>
        </g>
      </g>
    </g>
  </svg>
  