<svg width="200" height="200" fill="none" viewbox="0 0 200 200">
    <g id="KNIGHT_1_" data-name="KNIGHT (1)"
        transform="translate(30.496 23.585)">
        <path id="Path_4329" data-name="Path 4329"
            d="M24.66,49.7c5.4-8.727,12.927-19.9,15.871-24.938-2.093-8.57,3.951-15.753,6.149-18.147,2.25-2.447,6.019-10.82,9.839-3.886a70.544,70.544,0,0,0,9.028,11.553c.6-1.191-.406-5.234,1.806-8.3,5.011-6.974,11.069-1.531,20.986,0s14.418,8.3,20.149,11.291,6.385,11.527,12.94,16.2c6.8,4.854,8.544,17.742,9.944,21.981A131.43,131.43,0,0,0,137.259,70.5c2.944,5.888-1.086,9.564,1.3,15.177s-6.136,16.224-2.277,19.364c4.854,3.951-3.624,18.029-1.5,19.495s-.327,22.766-6.869,25.841c-10.86,5.1-15.216-1.492-23.943,0-9.159,1.57-40.717.837-66.95,2.407-5.979.353-9.682-8.57-4.972-21.588A51.989,51.989,0,0,1,39.5,117.131a74.6,74.6,0,0,0,7.222-12.6,2.67,2.67,0,0,1-.353.3c-6.346,4.71-9.931,9.263-16.486,10.415-7.275,1.269-14.916-1.06-17.205-2.041-2.394-1.021-2.826-3.284-8.243-9.093C-.841,98.473-1.024,79.2,2,74.739S18.026,60.412,24.66,49.7Z"
            transform="translate(0)" fill="#fbf6ee" />
        <g id="Group_119" data-name="Group 119" transform="translate(10.079 11.034)">
            <path id="Path_4330" data-name="Path 4330"
                d="M320.6,391.8l-1.1.078a2.175,2.175,0,0,1-1.544,1.662H311.9c-2.368,0-5.312,0-6.11,1.426a10.581,10.581,0,0,0-.916,3.925,11.833,11.833,0,0,1-3.533,5.888c-.17.092-3.14,1.635-3.14,2.277a3.042,3.042,0,0,0,.955,2.146.916.916,0,0,0,.432.131,1,1,0,0,0,.484-.131,9.073,9.073,0,0,0,3.14-3.467c.144-.235.3-.51.458-.811.824-1.492,1.936-3.52,3.52-3.585a13.93,13.93,0,0,0,3.847-1.047,11.151,11.151,0,0,1,1.779-.576,1.653,1.653,0,0,1,.641.013c.392.079.837.157,3.572-.811a3.124,3.124,0,0,0,1.989-1.753,3.724,3.724,0,0,0,.17-1.819A4.811,4.811,0,0,0,320.6,391.8Z"
                transform="translate(-269.24 -351.541)" fill="#724335" />
            <path id="Path_4331" data-name="Path 4331"
                d="M143.048,612.638c-1.583.877-4.331,4.435-4.854,5.665a1.69,1.69,0,0,0,.353,1.714,2.62,2.62,0,0,0,2.015.968,1.927,1.927,0,0,0,.471-.052c1.832-.366,2.159-2.3,2.237-4.148a6.732,6.732,0,0,1,1.766-3.794v-.013c.1-.327.078-.589-.1-.733C144.618,612.01,143.951,612.141,143.048,612.638Z"
                transform="translate(-130.077 -543.045)" fill="#724335" />
            <path id="Path_4332" data-name="Path 4332"
                d="M192.945,174.418a9.332,9.332,0,0,1,1.779-2.2l-.013-.026h0l.013.026.013-.013v-.013a62.107,62.107,0,0,0,1.282-8.491,8.539,8.539,0,0,0-.393-3.271c-.039-.118-.065-.236-.1-.366a3.837,3.837,0,0,0-1.23-1.662,15.113,15.113,0,0,0-2.237-1.609,32.743,32.743,0,0,0-4.108-2.133,3.949,3.949,0,0,1-2.224-3.323,1.511,1.511,0,0,1,.85-1.256,1.041,1.041,0,0,1,1.335.144,2.781,2.781,0,0,0,.746.563c.353.209.8.432,1.3.667.981.458,2.159.942,3.166,1.361.6.249,1.151.484,1.57.654a.9.9,0,0,0,.589.092.661.661,0,0,0,.406-.3,2.773,2.773,0,0,0,.327-1.387,13.208,13.208,0,0,0-.5-3.755,2.763,2.763,0,0,0-.693-1.269,2.64,2.64,0,0,0-1.23-.693,12.582,12.582,0,0,0-4.213-.17,13.956,13.956,0,0,1-1.9.039,1.91,1.91,0,0,1-.994-.288,1.221,1.221,0,0,1-.445-.72,9.33,9.33,0,0,1-.209-1.282c-.026-.249-.065-.523-.1-.837a2.014,2.014,0,0,1,.118-1.3.9.9,0,0,1,.759-.419,4.441,4.441,0,0,1,1.23.144c.471.118.994.288,1.518.458l1.1.353c1.269.379,2.015.236,2.46-.183a3.231,3.231,0,0,0,.733-1.779,1.63,1.63,0,0,0-.628-1.5,7.882,7.882,0,0,0-1.5-.994c-.157-.079-.288-.157-.419-.236a.662.662,0,0,1-.236-.262,2.4,2.4,0,0,1-.183-.445,10.863,10.863,0,0,1-.3-1.243,10.179,10.179,0,0,0-.51-1.884c-.236-.55-.55-.968-1.06-1.06a1.984,1.984,0,0,0-1.151.2,9.12,9.12,0,0,0-1.191.707,6.346,6.346,0,0,1-3.585,1.374,2.087,2.087,0,0,1-1.6-.746,4.891,4.891,0,0,1-.942-1.727,14.917,14.917,0,0,1-.615-3.4c0-.065-.013-.118-.013-.157a.5.5,0,0,1,.144-.353,1.955,1.955,0,0,1,.445-.406,5.092,5.092,0,0,1,1.439-.707,3.518,3.518,0,0,1,1.57-.183,1.152,1.152,0,0,1,.994.759,5.021,5.021,0,0,0,.942,1.492,9.169,9.169,0,0,0,1.439,1.335,3.859,3.859,0,0,0,1.387.707.823.823,0,0,0,.51-.039.5.5,0,0,0,.275-.393,4.514,4.514,0,0,0-.183-2.054,8.2,8.2,0,0,0-.693-1.7v-.013h-.013l-.013.026h0l.013-.026c-.837-.471-2.46-2.185-2.224-5.364a7.988,7.988,0,0,0-.994-3.716,29.133,29.133,0,0,0-2.617-4.3,31.358,31.358,0,0,0-3.035-3.624,11.864,11.864,0,0,0-1.3-1.164,2.823,2.823,0,0,0-.968-.536,5.627,5.627,0,0,0-5.26,1.583,3.656,3.656,0,0,1-2.735.864,8.929,8.929,0,0,1-2.63-.536,2.174,2.174,0,0,1-.89-.772,5.676,5.676,0,0,1-.707-1.439,4.8,4.8,0,0,1,0-3.389,1.057,1.057,0,0,1,.589-.576,1.883,1.883,0,0,1,.916-.078,11.845,11.845,0,0,1,2.434.693c.6.209,1.2.432,1.779.576a3.768,3.768,0,0,0,1.531.144,1.241,1.241,0,0,0,1.021-.811,2.652,2.652,0,0,0,.013-1.5,6.263,6.263,0,0,0-1.766-3.049,4,4,0,0,0-2.486-.746,5.34,5.34,0,0,1-1.426-.222,1.611,1.611,0,0,1-.981-.942c-.837-1.91-2.29-3.258-3.847-3.258a.828.828,0,0,0-.68.314,1.567,1.567,0,0,0-.288.8,10.784,10.784,0,0,0,.039,2.237c.039.458.079.89.079,1.243a1.064,1.064,0,0,1-.366.824,2.328,2.328,0,0,1-.942.432,11.3,11.3,0,0,1-2.486.17h-.314a.934.934,0,0,1-.864-.563,5.345,5.345,0,0,1-.432-1.269A6.122,6.122,0,0,0,155.8,98.2a1.24,1.24,0,0,0-.563-.68,1,1,0,0,0-.6-.039,4.449,4.449,0,0,0-.85.236c-.628.222-1.361.563-2.08.9-.693.327-1.374.641-1.936.837a3.657,3.657,0,0,1-.746.209.862.862,0,0,1-.5-.026q-.157-.078-.157-.432a2.984,2.984,0,0,1,.209-.877A8.344,8.344,0,0,1,150,96.006c1.348-1.583,3.415-2.878,5.783-2.028a10.635,10.635,0,0,0,4.514.72,3.693,3.693,0,0,0,2.106-.733l-.026-.026h0l.026-.013c-1.727-2.878-5.364-4.448-9.159-5.26a39.5,39.5,0,0,0-9.891-.707,3.044,3.044,0,0,0-.222-.34,1.615,1.615,0,0,0-1.361-.772,1.954,1.954,0,0,0-1.282.72,7.812,7.812,0,0,0-.968,1.413c-.628,1.1-1.3,2.578-2.015,4.03a30.63,30.63,0,0,1-2.368,4.161,9.663,9.663,0,0,0-.981,1.792c-1.086.131-2.224.327-3.415.576,0-.013,0-.013.013-.026.693-2.355-2.957-6.856-7.432-12.05-1.047-1.217-1.963-2.277-2.407-2.918l-.327-.445-.445.314c-4.409,3.14-3.415,15.949-2.29,20.293l.092.327c-6.084.615-12.783,14.458-13.228,16.276-.366,1.452-8.125,11.789-12.037,16.852L91.245,139.5c-2.46,2.185-6.647,7.013-8.321,7.641-2.093.785-6.555,11.448-6.019,15.5s2.29,11.775,4.448,13.28c1.138.8,3.559.916,5.534.942q.648.1,1.335.2a24.618,24.618,0,0,1,3.192.733h0c.366.1.733.209,1.112.3a14.328,14.328,0,0,0,4.736.6,7.868,7.868,0,0,0,4.867-2.211,19.585,19.585,0,0,0,4.4-6.921,104.326,104.326,0,0,0,10.441-6.4,48.749,48.749,0,0,0,5.09-4.056,14.157,14.157,0,0,0,2.918-3.52c1.439.275,3.48.641,5.377.916,1.047.144,2.054.275,2.892.34a9.833,9.833,0,0,0,1.622.026c.379.078.746.144,1.086.209,1.5.275,2.7.5,3.153,1.3a2.628,2.628,0,0,1,.092,1.923c-1.191,1.557-2.25,2.892-3.062,3.9h0c-.366.458-.68.837-.929,1.164-6.529,6.005-12.587,15.36-17.506,24.571-.785,1.465-1.531,2.918-2.25,4.37-1.675,2.669-3.022,4.854-3.7,6.005a67.587,67.587,0,0,0-5.979,15.02.477.477,0,0,0,.118.379,1.922,1.922,0,0,0,1.282.288c.772,0,1.806-.118,3.035-.249a51.108,51.108,0,0,1,5.534-.379c1.269,0,3.677-.013,6.712-.026,8.871-.039,23.708-.1,28.811.026a92.121,92.121,0,0,0,12.731-.916c1.492-.2,3.049-.432,4.422-.667l3.755-.052h.393l.118-.379c.052-.157.1-.314.144-.471a50.137,50.137,0,0,0,8.727,2.093,33.694,33.694,0,0,0,4.985.393,10.831,10.831,0,0,0,3.951-.628,2.266,2.266,0,0,0,1.112-1.125,7.61,7.61,0,0,0,.68-2.08,29.59,29.59,0,0,0,.366-6.1c-.1-4.619-.759-9.957-1.2-13.555-.131-1.021-.236-1.9-.314-2.578a9.231,9.231,0,0,0,3.611-9.983c-.628-1.806-1.845-2.054-2.407-1.936A4.029,4.029,0,0,1,192.945,174.418Zm-5.574,26.089h0a38.711,38.711,0,0,1-3.245,3.677,4.855,4.855,0,0,1-1.478,1.021,1,1,0,0,1-.576.052.673.673,0,0,1-.432-.34,4.543,4.543,0,0,1-.615-3.127,2.472,2.472,0,0,1,1.845-2.185v-.026h0v-.026a5.813,5.813,0,0,1-2.878-.654,1.989,1.989,0,0,1-.916-1.047,2.5,2.5,0,0,1,.118-1.714,5.449,5.449,0,0,1,2.761-3.245,3.229,3.229,0,0,1,3.088.275,10.946,10.946,0,0,1,2.931,2.813,3.978,3.978,0,0,1,.72,1.806,2.278,2.278,0,0,1-.55,1.753c-.236.3-.5.615-.772.968Zm4.1-29.1Zm.249-1.034a1.62,1.62,0,0,1-.1.523,5.239,5.239,0,0,0-.17.5h0a5.9,5.9,0,0,1-1.3,2.512,6.31,6.31,0,0,1-4.488,1.753,5.593,5.593,0,0,1-3.049-.536,2.952,2.952,0,0,1-1.57-3.153,1.512,1.512,0,0,1,.563-1.034,5.3,5.3,0,0,1,1.348-.419,7.57,7.57,0,0,0,1.871-.589,2.438,2.438,0,0,0,1.282-1.5h0a8.406,8.406,0,0,0-.393-2.2,3.338,3.338,0,0,0-.523-1.007,1.32,1.32,0,0,0-.811-.523.865.865,0,0,1-.707-.68,1.4,1.4,0,0,1,.236-1.125c.5-.733,1.688-1.256,3.742-.55a6.233,6.233,0,0,1,3.65,4.514,11.3,11.3,0,0,1,.419,2.578C191.728,169.8,191.728,170.126,191.715,170.375Zm-5.534,13.96c-.275-.249-.523-.471-.759-.68h0l-.013.026h0l.013-.026a4.093,4.093,0,0,1-1.269-1.439,3.055,3.055,0,0,1,.249-2.159,3.331,3.331,0,0,1,2.146-1.4,5.034,5.034,0,0,1,4.069,1.4c1.021.824,1.361,1.609,1.269,2.277a2.559,2.559,0,0,1-1.3,1.7,5.81,5.81,0,0,1-2.407.785A2.65,2.65,0,0,1,186.181,184.335ZM176.054,122.1a2.623,2.623,0,0,1-.615-1.989,1.961,1.961,0,0,1,.6-1.164l.065-.052h-.078a19.765,19.765,0,0,1-4.658-.34,3.84,3.84,0,0,1-1.675-.72,1.019,1.019,0,0,1-.327-.536,1.04,1.04,0,0,1,.131-.68,4.09,4.09,0,0,1,2.643-2.407c1.138-.262,2.564.065,4.409,1.125a8.806,8.806,0,0,1,3.4,3,4.987,4.987,0,0,1,.641,2.656,1.656,1.656,0,0,1-.51,1.125,2.993,2.993,0,0,1-1.23.746A2.425,2.425,0,0,1,176.054,122.1Zm-31.31-29.661a30.85,30.85,0,0,1,4.213-.589,7.614,7.614,0,0,1,.968.026,2.145,2.145,0,0,1,.693.17.519.519,0,0,1,.314.353.827.827,0,0,1-.157.589A4.346,4.346,0,0,1,148.12,94.8a8.02,8.02,0,0,1-2.8.275V95.1h0v-.026h-.026V95.1l-.144.615A30.856,30.856,0,0,0,144.744,92.434Zm22.779,28.026ZM191.1,189.333Zm-54.913-91.4a29.9,29.9,0,0,0,2.473-4.344c.746-1.5,1.374-2.9,1.976-3.964a6.56,6.56,0,0,1,.811-1.191c.262-.288.379-.3.393-.3h0a.1.1,0,0,1,.039.013.962.962,0,0,1,.222.236,5.943,5.943,0,0,1,.707,1.6,31.193,31.193,0,0,1,.929,12.482,31.508,31.508,0,0,1-4.723,13.764.642.642,0,0,0,1.073.707,32.689,32.689,0,0,0,4.933-14.327c.065-.615.118-1.243.157-1.845a21.772,21.772,0,0,1,3.049,1.151,24.543,24.543,0,0,1,2.107,1.282,50.913,50.913,0,0,1,6.594,5.443,123.171,123.171,0,0,1,10.585,11.841c7.68,10.938,11.056,20.162,12.325,28.117s.419,14.654-.314,20.581c-.249,1.949-.484,3.82-.628,5.613-.458,2.473-.864,5.312-1.282,8.4-.052.366-.1.733-.157,1.112v.013c-1.086,8.007-2.394,17.585-5.312,27.136a4.638,4.638,0,0,0-2.434-.523H132.341a18.888,18.888,0,0,0-5.626,1.308c-1.178.393-2.447.824-3.768,1.138l-8.007.118a6.9,6.9,0,0,1-3.991-2.146,2.645,2.645,0,0,1-.419-2.434c.877-2.957,5.063-11.945,8.243-15.975,2.224-2.813,6.28-11.187,8.544-16.669a74.53,74.53,0,0,1,5.6-7.026,24.443,24.443,0,0,0,4-1.779c1.452-.785,3.925-2.25,4.187-3.336.039-.144.092-.222.157-.222.393-.052,1.321,1.649,2.237,3.284,1.164,2.107,2.381,4.278,3.088,4.278a.436.436,0,0,0,.366-.209c.916-1.23.236-7.863-.34-9.826-.078-.288-.039-.327-.026-.34.17-.092,1.178,1.112,2.146,2.29,1.321,1.6,2.826,3.4,3.363,3.4a.254.254,0,0,0,.209-.1c.3-.432-.327-2.146-.929-3.82a10.51,10.51,0,0,1-.772-2.617c.092-.654,3.781-1.308,6.228-1.6h.013v-.013a1.15,1.15,0,0,0-.092-.981c-.536-.85-2.5-1.531-6.189-2.12-.733-.118-1.125-.366-1.164-.733-.157-1.4,4.592-4.161,6.189-4.828l.157-.065c1.138-.471,1.374-.576,1.348-.654s-.222-.065-1.073,0a55.207,55.207,0,0,1-7.641.065,47.317,47.317,0,0,0,2.9-7.549c1.308-4.972,1.387-5.456,1.465-6.476.039-.523.039-.968.026-2.12-.013-.9-.026-2.277-.026-4.475a15.043,15.043,0,0,0-.785-3.127,17.011,17.011,0,0,1-.68-2.564c-.026-.262-.026-.877-.039-1.635-.026-2.8-.079-5.312-.458-5.482a.133.133,0,0,0-.144.039l-.013.013v.013c0,.471-.052,1.269-.131,2.277-.144,1.936-.327,4.592-.327,7.693,0,2.093.1,4.03.2,5.744a22.465,22.465,0,0,1,.013,4.579c-2.12,5.22-6.005,14.1-8.151,15.1-.523.236-.772.536-.759.877a.079.079,0,0,0,.013.052c-.144.065-.288.131-.432.183-.968.353-1.95.68-2.878,1.007-1.635.563-3.14,1.073-4.291,1.583-2.08.065-4.291.065-5.783.052-.131-.026-.275-.039-.406-.065a2.68,2.68,0,0,0-.811-.5c-.707-1.714-1.884-4.331-2.591-5.011-1.007-.968-2.29-4.03-3.192-4.03s-3.677-.2-2.774.589a1.682,1.682,0,0,0,1.544.523c1.858,1.753,5.09,5.77,4.03,8.478a5.484,5.484,0,0,0-.72.733c-2.355,2.878-5.626,3.6-6.934,5.1-1.047,1.2-7.628,5.652-10.794,7.719a27.085,27.085,0,0,1-1.832,3.4c-.916,1.374-6.28,5.43-8.243,5.3a9.1,9.1,0,0,1-3.232-.89c-.536-.864.236-5.862.419-7.013.2-1.178,5.1-5.43,5.822-6.149.785-.785,1.374-1.557,2.028-2.093,1.047-.85,4.187-2.892,2.878-3.742s-2.878,1.5-4.906,3.349c-1.635,1.478-6.411,5.888-7.719,7.392-1.021,1.164-.864,7.209-1.989,7.863a3.529,3.529,0,0,0-.366-.052c-2.512-.327-3.991-.628-5.1-2.185a10.874,10.874,0,0,1-1.5-3.755,54.423,54.423,0,0,1-1.086-7.131,31.356,31.356,0,0,1,1.308-9.146,16.71,16.71,0,0,1,.968-1.871c1.138-1.112,3.506-3.363,5.26-5.194.1-.052.209-.118.314-.157l.1-.052.079-.092c4.148-5.063,13.817-17.6,19.272-27.162a47.65,47.65,0,0,1,13.332-14.968,21.371,21.371,0,0,1,5.286-1.034c1.387-.039,2.25.275,2.538.929.5,1.086-.746,2.748-1.387,3.114a3.981,3.981,0,0,0-1.557,2.735,7.627,7.627,0,0,0,.55,4.448,3.57,3.57,0,0,0,3.546,1.976,8.051,8.051,0,0,0,1.282-.118c0,.065-.013.131-.013.2l1.282.131c.118-1.191.209-2.708.34-4.409l1.492-10.7A11.782,11.782,0,0,1,136.188,97.93Zm-.026,68.01c.222-.275.484-.6.772-.968C136.685,165.311,136.423,165.638,136.161,165.939Zm-18.134-60.526a.655.655,0,0,0-.1.092l.078-.157Zm17.833,60.866a15.953,15.953,0,0,1-1.3,1.243C134.984,167.091,135.416,166.685,135.861,166.279Z"
                transform="translate(-76.86 -84.1)" fill="#724335" />
            <path id="Path_4333" data-name="Path 4333" d="M887,966.439l.013.026L887,966.4Z"
                transform="translate(-781.003 -850.962)" fill="#724335" />
            <path id="Path_4334" data-name="Path 4334"
                d="M730.526,159.239l.013-.013-.013-.026-.026.013Z"
                transform="translate(-644.979 -149.374)" fill="#724335" />
        </g>
    </g>
</svg>