<svg xmlns="http://www.w3.org/2000/svg" width="570" height="570" viewBox="0 0 570 570">
    <g id="Group_120" data-name="Group 120" transform="translate(-905 -830)">
        <g id="Group_10" data-name="Group 10" transform="translate(905 830)">
            <rect id="Rectangle_1" data-name="Rectangle 1" width="570" height="570" fill="none" />
        </g>
        <g id="PAWN_1_" data-name="PAWN (1)" transform="translate(1080.864 911.688)">
            <path id="Path_4337" data-name="Path 4337"
                d="M178.183,323.818c52.964-60.919,2.036-121.083-28.876-156.9,21,22.392,54.887,7.69,60.542-10.857,3.807-12.478,2.865-26.765-48.064-74.075,3.016-3.167,6.258-16.474,6.936-21.676-.3-42.447-38.715-57.677-58.958-60.165V0c-.188.038-.377.038-.565.075-.188-.038-.377-.038-.565-.075V.151c-20.281,2.488-58.732,17.718-59,60.165.679,5.2,3.92,18.509,6.936,21.676C5.643,129.3,4.7,143.588,8.508,156.066c5.655,18.547,39.544,33.249,60.542,10.857-30.912,35.812-81.878,95.977-28.876,156.9C26.867,327.287-.84,338.143.064,366.039,1.2,400.57,51.106,409.391,109.2,405.923c58.054,3.468,107.965-5.353,109.1-39.884C219.2,338.143,191.49,327.287,178.183,323.818Z"
                transform="translate(-0.043)" fill="#fbf6ee" />
            <path id="Path_4338" data-name="Path 4338"
                d="M227.351,398.776c-14.74-13.759-48.215-22.467-50.326-23.033-.113-.038-.3-.075-.49-.151-.98-.264-1.809-.49-2.563-.716a9.014,9.014,0,0,0,.792-.49c9.839-5.428,24.051-15.267,32.646-27.632a63.558,63.558,0,0,0,10.216-47.2c-1.885-9.8-16.738-35.058-44.143-75.168l-.377-.565c-.641-.9-1.206-1.772-1.772-2.563-4.3-6.22-6.069-8.783-6.522-12.025-.49-3.28-1.093-7.389,4.524-16.323,3.28-5.24,9.613-5.165,21.186.151l1.546.716a155.277,155.277,0,0,0,21.487,8.633,12.371,12.371,0,0,0,3.619.528c6.182,0,11.045-4.9,13.081-10.706a6.851,6.851,0,0,0,.792-4.75c-.452-2.488-2.111-6.22-11.008-13.119a152.811,152.811,0,0,0-15.343-10.291l-.038-.038c-22.882-13.081-32.533-23.335-36-28.5a29.589,29.589,0,0,0,19.112-30.384l-.038-.264c-3.581-20.884-22.543-28.386-33.739-28.2-11.2-.226-30.158,7.313-33.626,28.348l-.038.264a29.639,29.639,0,0,0,19.112,30.384c-3.43,5.165-13.119,15.456-36,28.5l-.038.038A148.611,148.611,0,0,0,88.06,174.516c-8.9,6.9-10.555,10.668-11.008,13.119a6.851,6.851,0,0,0,.792,4.75c2.413,6.9,8.821,12.478,16.7,10.141,7.841-2.3,15.418-5.843,21.487-8.633l1.546-.716c11.573-5.353,17.906-5.391,21.186-.151,5.617,8.934,5.014,13.043,4.524,16.323-.339,2.413-1.432,4.147-4.524,8.821-1.093,1.659-2.375,3.581-3.845,5.919-.942,1.47-2.9,4.411-5.391,8.143-19.112,28.5-37.019,56.433-39.092,67.365a63.388,63.388,0,0,0,10.216,47.2c8.1,11.648,21.3,21.11,30.987,26.69.792.49,1.583.98,2.375,1.432-.716.226-1.546.452-2.488.716a2.565,2.565,0,0,0-.49.151c-2.111.528-35.624,9.236-50.326,23.033-6.182,5.805-9.047,10.4-9.01,14.513a8.645,8.645,0,0,0,3.317,6.6c.075.038.113.113.188.151l.679.6.867.3a11.96,11.96,0,0,1,1.508.679c4.3,2.149,10.329,5.164,44.407,5.164,8.52,0,18.811-.188,31.251-.641,12.478.452,22.807.641,31.364.641,34.191,0,40.336-3.016,44.709-5.2a11.956,11.956,0,0,1,1.508-.679l.867-.3.679-.6a.82.82,0,0,1,.189-.151,8.645,8.645,0,0,0,3.317-6.6C236.4,409.181,233.571,404.582,227.351,398.776ZM136.8,237.093c2.6-3.921,4.524-6.748,5.5-8.331,1.432-2.262,2.639-4.109,3.732-5.73,3.28-4.938,5.278-7.916,5.918-12.4.792-5.353.98-11.5-5.805-22.317-2.639-4.222-7.916-8.972-17.868-7.8-5.918.716-11.46,3.28-14.476,4.637l-1.583.716a147.455,147.455,0,0,1-20.281,8.18c-4,1.169-5.918-4.712-5.994-4.976l-.113-.3c.528-.9,2.262-3.28,7.841-7.577a140.891,140.891,0,0,1,14.1-9.424c29.479-16.851,41.014-31.176,41.957-38.3l.49-3.883-3.807-.942C131.261,124.831,128.4,112.466,129,106.322c2.714-15.87,16.549-20.206,23.146-20.771h.038c.339-.038.867-.038,1.47-.075h.942c5.994.151,21.374,4.034,24.239,20.847.6,6.107-2.262,18.509-17.416,22.317l-3.807.942.49,3.883c.942,7.125,12.478,21.45,41.957,38.3a140.888,140.888,0,0,1,14.1,9.424c5.579,4.3,7.313,6.635,7.841,7.577l-.113.3c-.075.264-2,6.145-5.994,4.976a157.613,157.613,0,0,1-20.281-8.18l-1.583-.716c-5.805-2.677-23.523-10.857-32.344,3.167-6.785,10.781-6.6,16.926-5.805,22.317.754,5.24,3.317,8.972,7.992,15.72.565.792,1.131,1.659,1.734,2.563l.377.565c16.775,24.465,26.991,40.826,33.249,51.72a122.365,122.365,0,0,1,4.109,11.535c.415,1.395.716,2.262.942,2.865.075.264.189.528.264.754h0c6.446,18.773-.867,33.211-8.143,41.995-11.762,14.249-30.535,22.467-39.431,22.467a10.936,10.936,0,0,1-1.621-.113c-20.243-2.9-36.378-12.025-45.425-25.747a49.111,49.111,0,0,1-8.029-26.577,13.173,13.173,0,0,0,.075-2.149c0-.188-.038-.377-.038-.6a54.072,54.072,0,0,1,1.923-12.327h-.038c.867-3.167,1.847-6.145,2.752-8.482C115.428,269.136,129.489,248.063,136.8,237.093Zm90.7,175.895c-.565.226-1.056.49-1.546.716-4.109,2.036-11.762,5.805-72.115,3.657l-.038,1.131-.038-1.131C93.6,419.51,86.137,415.778,82.1,413.742a16.146,16.146,0,0,0-1.621-.754h0c.151-.641,1.018-2.978,6.182-7.766,9.839-9.2,33.211-17.567,46.556-20.922l.113-.038a3.9,3.9,0,0,1,.452-.113c5.089-1.357,8.934-2.79,11.045-4.863a50.682,50.682,0,0,0,11.271,1.433,30.865,30.865,0,0,0,7.653-.9c2.224,1.809,5.805,3.091,10.48,4.335a3.9,3.9,0,0,1,.452.113l.113.038c13.307,3.393,36.717,11.724,46.556,20.922,5.127,4.825,5.994,7.125,6.145,7.766Z"
                transform="translate(-44.687 -47.778)" fill="#724335" />
        </g>
    </g>
</svg>  