<svg width="200" height="200" fill="none" viewbox="0 0 200 200">
    <g id="PAWN_1_" data-name="PAWN (1)" transform="translate(61.664 28.663)">
        <path id="Path_4337" data-name="Path 4337"
            d="M62.548,113.62c18.584-21.375.714-42.485-10.132-55.051,7.367,7.857,19.259,2.7,21.243-3.809,1.336-4.378,1.005-9.391-16.864-25.991,1.058-1.111,2.2-5.78,2.434-7.606C59.122,6.27,45.644.926,38.541.053V0c-.066.013-.132.013-.2.026-.066-.013-.132-.013-.2-.026V.053c-7.116.873-20.608,6.217-20.7,21.11.238,1.825,1.376,6.494,2.434,7.606C2.008,45.369,1.677,50.382,3.013,54.76,5,61.268,16.888,66.426,24.256,58.569,13.41,71.135-4.473,92.246,14.124,113.62,9.455,114.837-.267,118.647.05,128.435c.4,12.116,17.909,15.211,38.292,13.994,20.37,1.217,37.882-1.878,38.279-13.994C76.939,118.647,67.217,114.837,62.548,113.62Z"
            transform="translate(0)" fill="#fbf6ee" />
        <path id="Path_4338" data-name="Path 4338"
            d="M126.314,189.7c-5.172-4.828-16.917-7.883-17.658-8.082-.04-.013-.106-.026-.172-.053-.344-.093-.635-.172-.9-.251a3.164,3.164,0,0,0,.278-.172c3.452-1.9,8.439-5.357,11.455-9.7a22.3,22.3,0,0,0,3.585-16.56c-.661-3.439-5.873-12.3-15.489-26.375l-.132-.2c-.225-.317-.423-.622-.622-.9-1.508-2.182-2.13-3.082-2.288-4.219s-.384-2.593,1.587-5.727c1.151-1.839,3.373-1.812,7.434.053l.542.251a54.483,54.483,0,0,0,7.539,3.029,4.341,4.341,0,0,0,1.27.185,5.161,5.161,0,0,0,4.59-3.756,2.4,2.4,0,0,0,.278-1.667c-.159-.873-.741-2.182-3.862-4.6a53.617,53.617,0,0,0-5.383-3.611l-.013-.013c-8.029-4.59-11.415-8.188-12.632-10a10.382,10.382,0,0,0,6.706-10.661l-.013-.093a12,12,0,0,0-23.637.053l-.013.093a10.4,10.4,0,0,0,6.706,10.661c-1.2,1.812-4.6,5.423-12.632,10l-.013.013a52.144,52.144,0,0,0-5.383,3.611c-3.122,2.421-3.7,3.743-3.862,4.6a2.4,2.4,0,0,0,.278,1.667c.847,2.421,3.1,4.378,5.86,3.558a56.182,56.182,0,0,0,7.539-3.029l.542-.251c4.061-1.878,6.283-1.891,7.434-.053,1.971,3.135,1.759,4.577,1.587,5.727-.119.847-.5,1.455-1.587,3.1-.384.582-.833,1.257-1.349,2.077-.331.516-1.018,1.548-1.891,2.857-6.706,10-12.989,19.8-13.716,23.637a22.242,22.242,0,0,0,3.585,16.56c2.844,4.087,7.473,7.407,10.873,9.365.278.172.556.344.833.5-.251.079-.542.159-.873.251a.9.9,0,0,0-.172.053c-.741.185-12.5,3.241-17.658,8.082-2.169,2.037-3.174,3.651-3.161,5.092a3.033,3.033,0,0,0,1.164,2.315c.026.013.04.04.066.053l.238.212.3.106a4.2,4.2,0,0,1,.529.238c1.508.754,3.624,1.812,15.581,1.812,2.989,0,6.6-.066,10.965-.225,4.378.159,8,.225,11,.225,12,0,14.153-1.058,15.687-1.825a4.2,4.2,0,0,1,.529-.238l.3-.106.238-.212a.288.288,0,0,1,.066-.053,3.033,3.033,0,0,0,1.164-2.315C129.488,193.351,128.5,191.738,126.314,189.7ZM94.542,132.97c.913-1.376,1.587-2.368,1.931-2.923.5-.794.926-1.442,1.309-2.011,1.151-1.733,1.852-2.778,2.077-4.352.278-1.878.344-4.034-2.037-7.83a6.027,6.027,0,0,0-6.27-2.738,17.878,17.878,0,0,0-5.079,1.627l-.556.251a51.739,51.739,0,0,1-7.116,2.87c-1.4.41-2.077-1.653-2.1-1.746l-.04-.106a10.884,10.884,0,0,1,2.751-2.659,49.436,49.436,0,0,1,4.947-3.307C94.7,104.135,98.748,99.109,99.079,96.609l.172-1.362-1.336-.331c-5.317-1.336-6.323-5.674-6.111-7.83A8.809,8.809,0,0,1,99.926,79.8h.013c.119-.013.3-.013.516-.026h.331c2.1.053,7.5,1.415,8.505,7.315.212,2.143-.794,6.494-6.111,7.83l-1.336.331.172,1.362c.331,2.5,4.378,7.526,14.722,13.439a49.435,49.435,0,0,1,4.947,3.307,10.638,10.638,0,0,1,2.751,2.659l-.04.106c-.026.093-.7,2.156-2.1,1.746a55.3,55.3,0,0,1-7.116-2.87l-.556-.251c-2.037-.939-8.254-3.809-11.349,1.111-2.381,3.783-2.315,5.939-2.037,7.83.265,1.839,1.164,3.148,2.8,5.516.2.278.4.582.608.9l.132.2c5.886,8.584,9.471,14.325,11.666,18.148a42.931,42.931,0,0,1,1.442,4.047c.146.489.251.794.331,1.005.026.093.066.185.093.265h0a14.742,14.742,0,0,1-2.857,14.735c-4.127,5-10.714,7.883-13.836,7.883a3.839,3.839,0,0,1-.569-.04c-7.1-1.018-12.764-4.219-15.939-9.034a17.232,17.232,0,0,1-2.817-9.325,4.623,4.623,0,0,0,.026-.754c0-.066-.013-.132-.013-.212a18.973,18.973,0,0,1,.675-4.325h-.013c.3-1.111.648-2.156.966-2.976C87.043,144.213,91.976,136.819,94.542,132.97Zm31.824,61.717c-.2.079-.37.172-.542.251-1.442.714-4.127,2.037-25.3,1.283l-.013.4-.013-.4c-21.11.754-23.729-.556-25.145-1.27a5.667,5.667,0,0,0-.569-.265h0c.053-.225.357-1.045,2.169-2.725,3.452-3.227,11.653-6.164,16.335-7.341l.04-.013a1.369,1.369,0,0,1,.159-.04,9.1,9.1,0,0,0,3.876-1.706,17.784,17.784,0,0,0,3.955.5,10.829,10.829,0,0,0,2.685-.317,10.22,10.22,0,0,0,3.677,1.521,1.369,1.369,0,0,1,.159.04l.04.013c4.669,1.19,12.883,4.114,16.335,7.341,1.8,1.693,2.1,2.5,2.156,2.725Z"
            transform="translate(-62.178 -66.544)" fill="#724335" />
    </g>
</svg>