<svg width="200" height="200" fill="none" viewbox="0 0 200 200">
    <g v-if="piece == 'Q'" id="QUEEN_1_" data-name="QUEEN (1)" transform="translate(11.679 19.825)">
        <path id="Path_4302" data-name="Path 4302"
            d="M105.025,28.606a19.134,19.134,0,1,0-33.262,0A29.354,29.354,0,0,0,70.6,33.175c-.669,3.347-1.353,6.722-3.39,7.13a5.27,5.27,0,0,1-4.685-1.6,18.4,18.4,0,1,0-35.459-6.911A18.251,18.251,0,0,0,28.621,39.2,16.153,16.153,0,1,0,6.329,62.29c4.045,23.077,7.29,36.609,9.181,44.51,1.44,6.024,2.1,8.774,1.731,9.967-.466,1.542-.9,2.765-1.28,3.841-1.295,3.594-1.935,5.369-.757,11.655.189,1.019.32,1.979.451,2.91a25,25,0,0,0,2.6,9.021c3.943,7.683,14.041,17.2,70.133,16.064,56.092,1.135,66.19-8.381,70.133-16.064a25.076,25.076,0,0,0,2.6-9.021c.131-.931.262-1.892.451-2.91,1.179-6.286.538-8.075-.757-11.655h0c-.378-1.062-.815-2.284-1.28-3.827-.291-.96.087-2.1,1.019-4.845,1.906-5.646,6.082-18.115,11.422-49.937l-.189-.1A16.153,16.153,0,1,0,148.4,39.65a18.41,18.41,0,1,0-34.019-1.077,5.349,5.349,0,0,1-4.816,1.731c-2.037-.407-2.706-3.783-3.39-7.13A29.428,29.428,0,0,0,105.025,28.606Zm40.61,15.409a18.614,18.614,0,0,1-3.026,2.837c-.189,1.149-.378,2.284-.553,3.39-1.019,6.111-1.862,11.2-.393,10.724a11.743,11.743,0,0,0,4.409-3.347,16.047,16.047,0,0,1-1.717-7.275A15.77,15.77,0,0,1,145.635,44.015ZM35.139,60.966a16.14,16.14,0,0,1-5.253-2.983A16.134,16.134,0,0,0,32.3,49.471a15.866,15.866,0,0,0-1.251-6.228,18.137,18.137,0,0,0,3.041,3.026c.2,1.339.437,2.677.655,3.972C35.75,56.339,36.609,61.446,35.139,60.966Z"
            fill="#fbf6ee" fill-rule="evenodd" />
        <g id="Group_116" data-name="Group 116" transform="translate(8.148 9.458)">
            <path id="Path_4303" data-name="Path 4303"
                d="M547.2,84.308A9.669,9.669,0,1,0,537,74.661,9.95,9.95,0,0,0,547.2,84.308Zm0-16.98a7.627,7.627,0,0,1,7.872,7.333,7.034,7.034,0,0,1-.786,3.2c-9.254,4.729-14.943-3.579-14.943-3.579A7.659,7.659,0,0,1,547.2,67.328Z"
                transform="translate(-467.013 -65)" fill="#724335" fill-rule="evenodd" />
            <path id="Path_4304" data-name="Path 4304"
                d="M72.049,295.624a8.035,8.035,0,1,0-8.032,7.624A7.835,7.835,0,0,0,72.049,295.624Zm-3.056,2.59h0c-6.8,3.914-10.665-2.59-10.665-2.59a5.7,5.7,0,0,1,11.378,0A4.818,4.818,0,0,1,68.993,298.214Z"
                transform="translate(-56 -255.553)" fill="#724335" fill-rule="evenodd" />
            <path id="Path_4305" data-name="Path 4305"
                d="M1056.032,294a7.634,7.634,0,1,0,8.017,7.624A7.848,7.848,0,0,0,1056.032,294Zm5.384,9.341h0c-7.188,5.442-10.476-1.324-11.015-2.575a5.6,5.6,0,0,1,5.617-4.438,5.513,5.513,0,0,1,5.689,5.3A4.787,4.787,0,0,1,1061.416,303.341Z"
                transform="translate(-903.66 -260.68)" fill="#724335" fill-rule="evenodd" />
            <path id="Path_4306" data-name="Path 4306"
                d="M851.934,178.866A8.494,8.494,0,1,0,843,170.383,8.718,8.718,0,0,0,851.934,178.866Zm0-14.623a6.405,6.405,0,0,1,6.606,6.155,5.8,5.8,0,0,1-.48,2.3c-10.331,6.475-12.048-5.02-12.048-5.02h0A6.663,6.663,0,0,1,851.934,164.243Z"
                transform="translate(-728.489 -147.801)" fill="#724335" fill-rule="evenodd" />
            <path id="Path_4307" data-name="Path 4307"
                d="M259.934,176.866A8.494,8.494,0,1,0,251,168.4,8.718,8.718,0,0,0,259.934,176.866Zm0-14.623a6.4,6.4,0,0,1,6.606,6.155,5.958,5.958,0,0,1-.349,1.979,17.293,17.293,0,0,1-6.941,1.63,6.989,6.989,0,0,1-5.922-3.609A6.405,6.405,0,0,1,259.934,162.243Z"
                transform="translate(-222.627 -146.092)" fill="#724335" fill-rule="evenodd" />
            <path id="Path_4308" data-name="Path 4308"
                d="M258.8,252.875a7.374,7.374,0,0,0-4.991-.684,2.81,2.81,0,0,0-.96.451c-.189.145-.364.306-.509.437a13.082,13.082,0,0,0-.888,1.018c-.6.757-1.324,1.775-2.124,2.954-1.586,2.357-3.565,5.471-5.6,8.672h0l-.029.044,1.775,1.135h0l-1.79-1.135c-2.459,3.885-4.991,7.872-7.057,10.869-.538.786-1.033,1.484-1.484,2.081-.087-1.019-.16-2.255-.218-3.652-.175-4.438-.16-10.3-.16-16.195,0-5.369.015-10.753-.131-14.929-.073-2.081-.175-3.914-.335-5.326a12.449,12.449,0,0,0-.32-1.892,5.5,5.5,0,0,0-.262-.829,3.125,3.125,0,0,0-.611-.96c-1.15-1.208-2.91-2.808-5.311-2.75-2.43.058-4.583,1.746-6.664,4.54a35.929,35.929,0,0,0-3.448,6.81c-1.222,2.9-2.532,6.344-3.827,9.749-1.6,4.19-3.157,8.294-4.54,11.378a29.143,29.143,0,0,1-1.8,3.565c-.146.233-.262.407-.364.538h-.015l-.014-.015-.058-.058a1.714,1.714,0,0,1-.218-.378,25.26,25.26,0,0,1-1.149-5.209c-.044-.233-.073-.48-.116-.728h0c-.1-.655-.262-1.586-.436-2.735h0c-.742-4.685-2.052-12.921-3.492-20.341-.728-3.71-1.484-7.261-2.241-10.083-.378-1.411-.757-2.663-1.149-3.7a8.752,8.752,0,0,0-1.4-2.6h0l-.015-.015-.015-.015h0a5.139,5.139,0,0,0-1.775-1.208,10.233,10.233,0,0,0-1.79-.582c-.567-.131-1.135-.233-1.586-.291a5.577,5.577,0,0,0-.684-.044h-.276a3.188,3.188,0,0,0-.378,0,3.332,3.332,0,0,0-.7.116,8.6,8.6,0,0,0-1.3.451,7.56,7.56,0,0,0-2.634,1.8h0l-.015.015-.015.015h0a8.241,8.241,0,0,0-1.164,1.95c-.32.742-.64,1.63-.96,2.6-.626,1.964-1.266,4.423-1.892,7.1-1.266,5.355-2.517,11.728-3.536,16.937l2.066.407h0l-2.066-.407c-.815,4.176-1.484,7.523-1.892,9.123-.349,1.368-.626,2.648-.873,3.783a21.763,21.763,0,0,1-1.149,4.249l-.044.087-.044-.087a27.172,27.172,0,0,1-1.528-3.39c-1.149-2.954-2.444-6.911-3.769-11.015-1.164-3.565-2.343-7.232-3.478-10.316a32.806,32.806,0,0,0-3.39-7.275c-2.081-2.779-4.234-4.482-6.65-4.54s-4.147,1.528-5.3,2.75a3.124,3.124,0,0,0-.611.96,4.936,4.936,0,0,0-.262.829,17.536,17.536,0,0,0-.32,1.892c-.16,1.411-.262,3.245-.335,5.325-.131,4.176-.131,9.56-.116,14.929,0,5.878.015,11.757-.16,16.18-.058,1.4-.116,2.619-.218,3.652-.451-.6-.946-1.295-1.484-2.081-2.066-3-4.583-6.984-7.042-10.855-2.037-3.216-4.016-6.359-5.616-8.716-.8-1.179-1.513-2.2-2.11-2.954a10.608,10.608,0,0,0-.888-1.019,3.8,3.8,0,0,0-.509-.436,2.555,2.555,0,0,0-.96-.451,7.374,7.374,0,0,0-4.991.684,5.794,5.794,0,0,0-3.1,5.267c0,7.741,2.619,16.151,5.573,25.711,2.066,6.679,4.336,14.041,6.184,22.437-.16.451-.335.873-.538,1.339a8.358,8.358,0,0,0-.8,2.677c-.029.058-.087.116-.145.2-.087.116-.175.233-.291.378a9.737,9.737,0,0,0-.815,1.135,4.043,4.043,0,0,0-.626,1.935,3.231,3.231,0,0,0,1.019,2.444,6.15,6.15,0,0,0,2.226,1.295,4.884,4.884,0,0,1,2.357,1.6c.029.044.058.073.087.116a16.664,16.664,0,0,0-2.663,2.43c-.96,1.149-2.314,3.39-.829,5.718,1.848,2.91,5.544,4.772,9.661,6.053a79.017,79.017,0,0,0,14.885,2.75c10.927,1.135,23.266,1.149,31.807,1.149h2.284v-.015c8.628-.073,21.04-.509,32.244-1.746a118.142,118.142,0,0,0,16.427-2.794,36.677,36.677,0,0,0,6.14-2.139,11.3,11.3,0,0,0,4.22-3.114,3.89,3.89,0,0,0,.684-3.361,6.27,6.27,0,0,0-1.339-2.444,16.932,16.932,0,0,0-2.75-2.488c.029-.044.058-.073.087-.116a4.884,4.884,0,0,1,2.357-1.6,6.15,6.15,0,0,0,2.226-1.3,3.231,3.231,0,0,0,1.019-2.444,4.043,4.043,0,0,0-.626-1.935,11.175,11.175,0,0,0-.815-1.135c-.116-.146-.2-.262-.291-.378-.058-.087-.1-.146-.145-.2a8.9,8.9,0,0,0-.407-2.1l-.087-.306.306-1.266-.611-.146h0l.611.146c1.993-8.206,4.147-15.249,6.082-21.52,3.172-10.345,5.806-18.915,5.806-27.122A5.572,5.572,0,0,0,258.8,252.875ZM229.861,237.51Zm-22.844,31.458c-.029.044-.029.029,0,0Zm-16.253-46.11h0l-.858,1.921Zm-16.122,46.678c.029.029.029.044,0,0ZM153.355,237.67Zm98.71,46.343c-1.79,5.835-3.8,12.411-5.7,19.992l-1.426-.131.2,2.5,2.11-.175.015-.116h0l-.015.116-2.11.175a15.5,15.5,0,0,0,.6,3.114,4.6,4.6,0,0,1,.247,1.237,3.558,3.558,0,0,0,.582,1.862,10.838,10.838,0,0,0,.742,1.033c.058.073.116.146.16.2a.21.21,0,0,1-.1.029c-4.089,1.484-5.558,4.511-5.558,6.475v1l.771.626,1.339-1.63h0l-1.339,1.63c.189.16.466.349.7.524a16.115,16.115,0,0,1,2.6,2.255,3.26,3.26,0,0,1,.436.64,7.96,7.96,0,0,1-2.59,1.761,32.689,32.689,0,0,1-5.4,1.877,114.839,114.839,0,0,1-15.816,2.692,334.422,334.422,0,0,1-33.8,1.731h-.247c-8.585,0-20.705-.015-31.371-1.12a74.339,74.339,0,0,1-14.07-2.59c-3.929-1.222-6.329-2.706-7.333-4.263a2.44,2.44,0,0,1,.48-.771,14.526,14.526,0,0,1,2.532-2.183c.233-.175.495-.364.684-.524l-1.339-1.63h0l1.339,1.63.771-.64v-1c0-1.964-1.47-4.991-5.558-6.475a.21.21,0,0,0-.1-.029c.044-.058.1-.131.16-.2a10.193,10.193,0,0,0,.742-1.033,3.558,3.558,0,0,0,.582-1.862,1.473,1.473,0,0,1,.087-.32c.087-.247.2-.553.393-.975a17.21,17.21,0,0,0,.9-2.474l-2.037-.553h0l2.037.553.815-3.041-1.266.16c-1.833-7.988-4.016-15.031-5.966-21.331-3.012-9.763-5.384-17.49-5.384-24.459a1.6,1.6,0,0,1,.888-1.557,3.048,3.048,0,0,1,1.644-.335c.1.116.233.262.393.466.495.626,1.149,1.542,1.935,2.706,1.557,2.3,3.507,5.384,5.544,8.614,2.444,3.856,5.02,7.915,7.13,11,1.048,1.528,2.037,2.866,2.852,3.827a11.385,11.385,0,0,0,1.237,1.266,3.87,3.87,0,0,0,.786.524,2.452,2.452,0,0,0,3.128-.771,3.946,3.946,0,0,0,.509-.975,11.686,11.686,0,0,0,.451-1.979,56.014,56.014,0,0,0,.436-5.689c.175-4.54.16-10.505.16-16.355h0c0-5.4-.015-10.695.116-14.783.058-2.052.16-3.754.306-4.976a11.746,11.746,0,0,1,.218-1.368.941.941,0,0,1,.029-.1c.989-1,1.571-1.251,1.95-1.237s1.47.306,3.376,2.837a29.575,29.575,0,0,1,2.823,6.2c1.106,3,2.27,6.577,3.434,10.156,1.324,4.06,2.648,8.163,3.856,11.247a31.513,31.513,0,0,0,1.79,3.943,7.793,7.793,0,0,0,1.019,1.441,3.2,3.2,0,0,0,1.993,1.077,4.184,4.184,0,0,0,2.866-.7,5.177,5.177,0,0,0,1.688-2.081,24.993,24.993,0,0,0,1.47-5.194c.247-1.135.495-2.343.829-3.608.451-1.746,1.135-5.267,1.95-9.356h0l-2.066-.407h0l2.066.407c1.033-5.224,2.27-11.524,3.507-16.791.626-2.634,1.237-4.976,1.8-6.78a22.955,22.955,0,0,1,.8-2.2,6.472,6.472,0,0,1,.32-.64,1.365,1.365,0,0,1,.131-.2l-1.557-1.426,1.586,1.382a1.886,1.886,0,0,1,.436-.349,5.787,5.787,0,0,1,.728-.393c.131-.058.247-.1.335-.131l.32.146.466-.2h.044c.276.029.669.1,1.077.189a6.908,6.908,0,0,1,1.091.349c.247.116.349.189.349.175h0a1.854,1.854,0,0,1,.189.306c.116.233.262.567.422.975.32.844.655,1.95,1.019,3.288.713,2.677,1.455,6.111,2.183,9.792,1.426,7.348,2.721,15.525,3.463,20.21h0c.189,1.149.335,2.1.436,2.765.044.247.073.48.116.728a27.271,27.271,0,0,0,1.47,6.286,4.973,4.973,0,0,0,1.921,2.284,4.784,4.784,0,0,0,3.07.611,3.3,3.3,0,0,0,1.993-1.062,7.918,7.918,0,0,0,1.091-1.455,34.941,34.941,0,0,0,2.066-4.074c1.426-3.216,3.041-7.435,4.627-11.582,1.31-3.419,2.59-6.8,3.769-9.618a32.484,32.484,0,0,1,2.939-5.907c1.906-2.532,3-2.837,3.376-2.837s.975.233,1.964,1.237a.922.922,0,0,1,.029.1,11.754,11.754,0,0,1,.218,1.368c.146,1.237.233,2.925.306,4.976.131,4.089.131,9.4.116,14.8h0c0,5.849-.015,11.815.16,16.355a56.007,56.007,0,0,0,.437,5.689,10.437,10.437,0,0,0,.451,1.979,3.508,3.508,0,0,0,.509.975,2.5,2.5,0,0,0,1.571,1,2.688,2.688,0,0,0,1.557-.233,3.872,3.872,0,0,0,.786-.524,10.269,10.269,0,0,0,1.237-1.266c.815-.96,1.79-2.3,2.852-3.827,2.11-3.07,4.685-7.115,7.115-10.956h0c.015-.015.015-.029.029-.044h0l-1.775-1.135h0l1.775,1.135c2.052-3.23,4-6.315,5.558-8.614.786-1.149,1.426-2.066,1.935-2.706.16-.2.291-.349.393-.466a3.188,3.188,0,0,1,1.644.335,1.581,1.581,0,0,1,.888,1.557C257.681,265.577,255.28,273.478,252.064,284.013Z"
                transform="translate(-111.799 -198.093)" fill="#724335" fill-rule="evenodd" />
            <path id="Path_4309" data-name="Path 4309"
                d="M576.786,247.882,575.2,246.5l1.557,1.426.015-.015Z"
                transform="translate(-499.654 -220.091)" fill="#724335" fill-rule="evenodd" />
            <path id="Path_4310" data-name="Path 4310"
                d="M525.348,737.691c-1.5-.917-3.245-1.935-4.714-2.663l-3.2-2.328-6.053,4.118c-2.677,1.178-6.65,3.172-7.45,4.161a.464.464,0,0,0-.145.349c.116.553,2.954,2.721,5.7,4.569a50.647,50.647,0,0,0,5.5,3.318l2.386,1.76,10.112-6.257a20.517,20.517,0,0,0,3.23-1.993l.276-.175-.044-.029a.936.936,0,0,0,.116-.131.492.492,0,0,0,.146-.364C531.11,741.459,528.1,739.379,525.348,737.691Zm.233,6.169-8.1,5.005-9.952-7.3,9.894-6.722,10.156,7.392Z"
                transform="translate(-438.628 -635.547)" fill="#724335" fill-rule="evenodd" />
            <path id="Path_4311" data-name="Path 4311"
                d="M878.688,826.621l-.116-.291c-.146-1.426-2.255-1.891-2.837-2.008-2.5-.859-3.8-.058-4.278.7l-4.671,2.91c-2.546,1.193-2.677,1.833-2.692,2.139-.131,1.193.451,1.542,1.6,2.212.451.262,1.077.64,1.892,1.164a20.47,20.47,0,0,0,4.423,2.357l.087.015a6.228,6.228,0,0,0,.873.073,2.8,2.8,0,0,0,2.168-.8,2.3,2.3,0,0,0,.538-2.1l-.015-.029a3.025,3.025,0,0,1-.1-1.964,11.8,11.8,0,0,0,2.5-2.066,2.3,2.3,0,0,0,.8-1.848A.733.733,0,0,0,878.688,826.621Zm-2.779,1.8a2.808,2.808,0,0,1-.451.917c-.291.2-.524.364-.655.437-.233.131-.786.6-.757,1.921a12.277,12.277,0,0,1-.32,1.324,3.8,3.8,0,0,1-.684,1.324l-.073.073a4.245,4.245,0,0,1-.582-.044,20.656,20.656,0,0,1-3.987-2.154c-.844-.553-1.484-.931-1.95-1.208-.291-.175-.553-.335-.728-.451a1.058,1.058,0,0,1,.1-.349l.087-.175a11.306,11.306,0,0,1,1.542-.829l4.511-2.808a9.784,9.784,0,0,1,1.455-.247,4.055,4.055,0,0,1,1.28.058,1.216,1.216,0,0,1,.8.495A2.229,2.229,0,0,1,875.908,828.425Z"
                transform="translate(-746.497 -713.521)" fill="#724335" fill-rule="evenodd" />
            <path id="Path_4312" data-name="Path 4312"
                d="M253.962,833.949l-4.554-2.9c-.466-.757-1.746-1.571-4.205-.713-.582.1-2.648.582-2.794,2.008l-.116.291a1.186,1.186,0,0,0-.218.451,2.325,2.325,0,0,0,.786,1.848A11.3,11.3,0,0,0,245.3,837a3.151,3.151,0,0,1-.1,1.964l-.015.029a2.365,2.365,0,0,0,.553,2.11,2.789,2.789,0,0,0,2.124.786,6.205,6.205,0,0,0,.858-.073l.1-.015a19.73,19.73,0,0,0,4.336-2.357c.8-.538,1.4-.9,1.848-1.164,1.12-.684,1.688-1.018,1.571-2.212C256.581,835.783,256.465,835.142,253.962,833.949Zm.32,3.1c-.451.276-1.077.655-1.906,1.208a19.561,19.561,0,0,1-3.885,2.153,3.445,3.445,0,0,1-.524.044,1.156,1.156,0,0,1-.247-.218,3.8,3.8,0,0,1-.684-1.324c-.073-.218-.131-.451-.189-.655.189-1.731-.451-2.284-.713-2.444-.16-.1-.48-.32-.844-.6a2.9,2.9,0,0,1-.451-.9,2.22,2.22,0,0,1,.407-1.673,1.118,1.118,0,0,1,.8-.495,4.545,4.545,0,0,1,1.28-.058,8.966,8.966,0,0,1,1.251.189l4.642,2.954.073.044a9.666,9.666,0,0,1,1.659.946,1.094,1.094,0,0,1,.073.378C254.864,836.7,254.573,836.874,254.282,837.049Z"
                transform="translate(-214.982 -718.667)" fill="#724335" fill-rule="evenodd" />
            <path id="Path_4313" data-name="Path 4313"
                d="M758.964,785.015l-.1-.014h-.1c-2.517.174-4.234.931-5.137,2.27a3.673,3.673,0,0,0-.451,3.085,5.437,5.437,0,0,0,4.7,5.005,6.388,6.388,0,0,0,1.426.16,8.624,8.624,0,0,0,1.862-.218,4.327,4.327,0,0,0,3.143-2.154,4.814,4.814,0,0,0,.218-3.3C764.435,786.95,761,785.451,758.964,785.015Zm3.914,5.471c-.946,2.765-3.507,2.677-4.889,2.634h-.16a8.161,8.161,0,0,1-2.459-.786,3.716,3.716,0,0,1-.727-2.124v-.1l-.029-.1a2.2,2.2,0,0,1,.247-1.906c.611-.917,1.964-1.47,3.914-1.615,1.281.291,4.278,1.426,4.307,3.477A3.034,3.034,0,0,0,762.878,790.486Z"
                transform="translate(-651.596 -680.237)" fill="#724335" fill-rule="evenodd" />
            <path id="Path_4314" data-name="Path 4314"
                d="M844.512,841.5h-.058a.864.864,0,0,0-.7.32.544.544,0,0,0-.073.451.777.777,0,0,0,.742.684h.073a.737.737,0,0,0,.524-.2.729.729,0,0,0,.247-.553C845.268,841.776,844.788,841.558,844.512,841.5Z"
                transform="translate(-729.054 -728.516)" fill="#724335" fill-rule="evenodd" />
            <path id="Path_4315" data-name="Path 4315"
                d="M722.462,794.5H722.4a.959.959,0,0,0-.786.349.516.516,0,0,0-.058.436.824.824,0,0,0,.8.684h.087a.838.838,0,0,0,.6-.218.713.713,0,0,0,.233-.538C723.306,794.791,722.855,794.573,722.462,794.5Z"
                transform="translate(-624.698 -688.355)" fill="#724335" fill-rule="evenodd" />
            <path id="Path_4316" data-name="Path 4316"
                d="M351.407,840.414l-.029-.014h-.029a.766.766,0,0,0-.626.305.647.647,0,0,0-.087.466.747.747,0,0,0,.669.7h.073a.651.651,0,0,0,.451-.174.769.769,0,0,0,.247-.582C352.091,840.691,351.654,840.473,351.407,840.414Z"
                transform="translate(-307.756 -727.576)" fill="#724335" fill-rule="evenodd" />
            <path id="Path_4317" data-name="Path 4317"
                d="M464.514,788.415l-.029-.015h-.029a.8.8,0,0,0-.684.335.627.627,0,0,0-.087.509.825.825,0,0,0,.742.771h.087a.747.747,0,0,0,.495-.189.845.845,0,0,0,.276-.64C465.271,788.72,464.79,788.487,464.514,788.415Z"
                transform="translate(-404.348 -683.143)" fill="#724335" fill-rule="evenodd" />
            <path id="Path_4318" data-name="Path 4318"
                d="M374.743,779h-.1l-.1.015c-2.081.437-5.6,1.964-5.558,4.933v.058a4.773,4.773,0,0,0,.2,3.259,4.37,4.37,0,0,0,3.187,2.168,8.787,8.787,0,0,0,1.892.218,5.754,5.754,0,0,0,3.376-1.019,5.827,5.827,0,0,0,.713-.611,5,5,0,0,0,1.979-3.74,3.585,3.585,0,0,0-.422-3.026C379.006,779.931,377.275,779.174,374.743,779Zm4.176,4.918-.029.1v.1a3.556,3.556,0,0,1-1.222,2.6,6.019,6.019,0,0,1-1.877.524h-.16c-1.4.044-3.987.131-4.962-2.634-.073-.218-.145-.407-.218-.6v-.1c-.029-2.052,3.012-3.187,4.307-3.477,1.964.145,3.332.7,3.929,1.615A2.217,2.217,0,0,1,378.919,783.918Z"
                transform="translate(-323.278 -675.11)" fill="#724335" fill-rule="evenodd" />
            <path id="Path_4319" data-name="Path 4319"
                d="M368.625,471.1c-1.571-4.889-3.419-10.564-5.282-15.482-3.274-8.628-4.8-10.273-5.878-10.753a2.753,2.753,0,0,0-2.735.029c-1.513.989-1.63,3.448-1.63,6.81,0,3.245.393,17.446,1.484,21.8.378,1.484,1.862,6.46,5.267,8.163a5.194,5.194,0,0,0,2.343.567,5.864,5.864,0,0,0,2.314-.495C370.357,479.311,369.862,475,368.625,471.1Zm-1.5,5.238c-5.544,5.471-9.938-1.746-9.938-1.746-.189-.538-.349-1.077-.48-1.6-.989-3.943-1.426-17.5-1.426-21.273a28.394,28.394,0,0,1,.146-3.521c.175-1.208.451-1.426.495-1.455.015-.015.044-.015.1-.015a1.535,1.535,0,0,1,.567.16c.233.116,1.528,1.091,4.743,9.574,1.833,4.86,3.667,10.462,5.209,15.307A9.318,9.318,0,0,1,367.127,476.342Z"
                transform="translate(-309.871 -389.302)" fill="#724335" fill-rule="evenodd" />
            <path id="Path_4320" data-name="Path 4320"
                d="M211.94,624.591a5.361,5.361,0,0,0,2.343-.582,4.261,4.261,0,0,0,2.474-2.648c.364-1.339-.044-2.866-1.251-4.7-1.31-2.023-3.725-5.529-6.213-8.745-4.365-5.646-5.442-5.849-5.966-5.937a2.2,2.2,0,0,0-2.2.684c-1.237,1.441-.407,4.161-.116,4.962.946,2.663,4.743,11.044,6.068,13.386C208.623,623.748,210.369,624.591,211.94,624.591ZM202.774,604.1a.569.569,0,0,1,.131.014c.175.073,1.266.7,4.845,5.355,2.386,3.114,4.7,6.46,5.951,8.4a9.363,9.363,0,0,1,.771,1.412c-3.361,4.8-6.737-1.819-7.159-2.692l-.044-.087h0c-1.586-3.347-3.565-7.843-4.191-9.589A4.3,4.3,0,0,1,202.774,604.1Z"
                transform="translate(-179.449 -523.801)" fill="#724335" fill-rule="evenodd" />
            <path id="Path_4321" data-name="Path 4321"
                d="M905.176,601.98c-.524.1-1.615.306-5.965,5.937-2.488,3.216-4.9,6.722-6.213,8.745-1.208,1.833-1.615,3.376-1.251,4.7a4.227,4.227,0,0,0,2.474,2.648,5.463,5.463,0,0,0,2.343.582c1.572,0,3.317-.844,4.86-3.579,1.324-2.343,5.122-10.724,6.068-13.386.276-.8,1.106-3.521-.116-4.962A2.2,2.2,0,0,0,905.176,601.98Zm.262,4.918c-.9,2.532-4.656,10.825-5.907,13.052a5.972,5.972,0,0,1-1.7,2.052,10.013,10.013,0,0,1-2.052-.888c-1.79-1.033-.334-4.205-.334-4.205h0c1.31-1.964,3.288-4.787,5.325-7.435,3.579-4.656,4.671-5.267,4.845-5.354a.5.5,0,0,1,.131-.015A4.484,4.484,0,0,1,905.438,606.9Z"
                transform="translate(-770.032 -523.801)" fill="#724335" fill-rule="evenodd" />
            <path id="Path_4322" data-name="Path 4322"
                d="M748.938,447a2.755,2.755,0,0,0-2.736-.029h0c-1.077.466-2.6,2.11-5.878,10.753-1.863,4.918-3.71,10.578-5.282,15.482-1.251,3.9-1.731,8.206,4.1,10.651a5.865,5.865,0,0,0,2.314.495,5.194,5.194,0,0,0,2.343-.567c3.4-1.7,4.889-6.679,5.267-8.163,1.106-4.351,1.484-18.566,1.484-21.8C750.568,450.448,750.451,447.989,748.938,447Zm-1.979,28.082a14.02,14.02,0,0,1-2.706,5.616,18.3,18.3,0,0,1-4.016-.757c-4.292-1.222-2.561-7.755-2.561-7.8,1.426-4.423,3.041-9.3,4.656-13.59,3.216-8.5,4.511-9.472,4.744-9.574.393-.175.611-.175.669-.131.029.015.32.233.495,1.455a28.634,28.634,0,0,1,.145,3.521C748.385,457.577,747.949,471.138,746.959,475.081Z"
                transform="translate(-635.562 -391.097)" fill="#724335" fill-rule="evenodd" />
            <path id="Path_4323" data-name="Path 4323"
                d="M551.707,428.186c.131,0,.247.015.378.015a6.177,6.177,0,0,0,4.336-1.688c2.954-2.765,3.507-8.236,3.565-11.247.1-4.933-2.881-18.886-4.03-23.353-.989-3.827-1.964-6.329-3.827-7.028a3.154,3.154,0,0,0-3,.538h0c-1.557,1.062-3.012,5.355-4.322,12.746a116.12,116.12,0,0,0-1.833,18.639,11.4,11.4,0,0,0,2.386,8.454A8.751,8.751,0,0,0,551.707,428.186Zm-6.577-11.247v-.116a113.67,113.67,0,0,1,1.79-18.3c1.441-8.1,2.866-10.956,3.4-11.335h0a1.5,1.5,0,0,1,.8-.32.735.735,0,0,1,.189.029c1.179.436,2.168,4.278,2.488,5.529,1.222,4.772,4.06,18.261,3.972,22.771-.044,1.775-.291,5.675-1.775,8.265a9.279,9.279,0,0,1-4.583,1.251c-4.482.233-6.184-5.616-6.344-6.2A14.574,14.574,0,0,1,545.13,416.939Z"
                transform="translate(-472.073 -338.192)" fill="#724335" fill-rule="evenodd" />
        </g>
    </g>
</svg>