<svg xmlns="http://www.w3.org/2000/svg" width="570" height="570" viewBox="0 0 570 570">
    <g id="Group_120" data-name="Group 120" transform="translate(-1061 -1567)">
      <g id="Group_12" data-name="Group 12" transform="translate(1061 1567)">
        <rect id="Rectangle_1" data-name="Rectangle 1" width="570" height="570" transform="translate(0 0)" fill="none"/>
      </g>
      <g id="QUEEN_1_" data-name="QUEEN (1)" transform="translate(1094.286 1623.5)">
        <path id="Path_4302" data-name="Path 4302" d="M299.32,81.527a54.531,54.531,0,1,0-94.8,0,83.659,83.659,0,0,0-3.317,13.021c-1.908,9.538-3.857,19.158-9.662,20.32-5.184,1.037-9.579-1.12-13.353-4.562a52.451,52.451,0,1,0-101.059-19.7,52.015,52.015,0,0,0,4.437,21.108,46.035,46.035,0,1,0-63.53,65.811C29.567,243.3,38.815,281.862,44.206,304.379c4.105,17.168,5.971,25.006,4.935,28.406-1.327,4.4-2.571,7.879-3.649,10.948-3.691,10.243-5.515,15.3-2.156,33.216.539,2.9.912,5.64,1.286,8.294,1.12,8,2.156,15.426,7.423,25.71,11.238,21.9,40.017,49.016,199.879,45.781,159.861,3.235,188.641-23.886,199.879-45.781,5.267-10.284,6.3-17.749,7.423-25.71.373-2.654.746-5.391,1.285-8.294,3.359-17.914,1.534-23.015-2.156-33.216h0c-1.078-3.027-2.322-6.511-3.649-10.906-.829-2.737.249-5.971,2.9-13.809,5.432-16.09,17.334-51.628,32.553-142.32l-.539-.29A46.036,46.036,0,1,0,422.938,113a52.469,52.469,0,1,0-96.954-3.069c-3.857,3.649-8.377,6.013-13.726,4.935-5.806-1.161-7.713-10.782-9.662-20.32C301.642,89.821,300.73,85.135,299.32,81.527Zm115.739,43.915a53.049,53.049,0,0,1-8.625,8.086c-.539,3.276-1.078,6.511-1.576,9.662-2.9,17.417-5.308,31.931-1.12,30.562,3.981-1.286,8.211-4.852,12.565-9.538a45.734,45.734,0,0,1-4.893-20.734A44.944,44.944,0,0,1,415.059,125.442ZM100.147,173.753a46,46,0,0,1-14.97-8.5,45.982,45.982,0,0,0,6.884-24.259,45.217,45.217,0,0,0-3.566-17.749,51.69,51.69,0,0,0,8.667,8.625c.581,3.815,1.244,7.63,1.866,11.321C101.888,160.566,104.335,175.122,100.147,173.753Z" fill="#fbf6ee" fill-rule="evenodd"/>
        <g id="Group_116" data-name="Group 116" transform="translate(23.222 26.955)">
          <path id="Path_4303" data-name="Path 4303" d="M566.069,120.029c16.048,0,29.07-12.358,29.07-27.535S582.118,65,566.069,65,537,77.358,537,92.535,550.021,120.029,566.069,120.029Zm0-48.394c12.358,0,22.435,9.372,22.435,20.9a20.046,20.046,0,0,1-2.239,9.123c-26.374,13.477-42.588-10.2-42.588-10.2C544.3,80.426,554.085,71.635,566.069,71.635Z" transform="translate(-337.536 -65)" fill="#724335" fill-rule="evenodd"/>
          <path id="Path_4304" data-name="Path 4304" d="M101.74,309.729C101.74,297.745,91.5,288,78.891,288,66.243,288,56,297.745,56,309.729s10.243,21.73,22.849,21.73C91.5,331.5,101.74,321.755,101.74,309.729Zm-8.708,7.381h0c-19.366,11.155-30.4-7.381-30.4-7.381,0-8.335,7.3-15.095,16.214-15.095,8.957,0,16.214,6.8,16.214,15.095A13.731,13.731,0,0,1,93.031,317.111Z" transform="translate(-56 -195.525)" fill="#724335" fill-rule="evenodd"/>
          <path id="Path_4305" data-name="Path 4305" d="M1070.89,294c-12.607,0-22.891,9.745-22.891,21.729s10.243,21.729,22.891,21.729c12.606,0,22.849-9.745,22.849-21.729S1083.5,294,1070.89,294Zm15.344,26.623h0c-20.486,15.509-29.857-3.774-31.393-7.34,1.287-7.174,7.964-12.648,16.008-12.648,8.957,0,16.214,6.8,16.214,15.095A13.641,13.641,0,0,1,1086.234,320.623Z" transform="translate(-636.632 -199.037)" fill="#724335" fill-rule="evenodd"/>
          <path id="Path_4306" data-name="Path 4306" d="M868.462,210.252c14.058,0,25.462-10.823,25.462-24.176,0-13.311-11.4-24.176-25.462-24.176S843,172.723,843,186.076,854.4,210.252,868.462,210.252Zm0-41.676c10.367,0,18.827,7.879,18.827,17.541a16.542,16.542,0,0,1-1.369,6.552c-29.443,18.454-34.336-14.307-34.336-14.307h0A18.989,18.989,0,0,1,868.462,168.576Z" transform="translate(-516.642 -121.717)" fill="#724335" fill-rule="evenodd"/>
          <path id="Path_4307" data-name="Path 4307" d="M276.462,208.252c14.058,0,25.462-10.823,25.462-24.176,0-13.311-11.4-24.176-25.462-24.176S251,170.765,251,184.118C251,197.429,262.4,208.252,276.462,208.252Zm0-41.676c10.367,0,18.827,7.879,18.827,17.541a16.979,16.979,0,0,1-1,5.64c-4.023,1.825-11.736,4.727-19.781,4.644-11.736-.083-16.878-10.284-16.878-10.284C257.635,174.455,266.095,166.576,276.462,166.576Z" transform="translate(-170.136 -120.546)" fill="#724335" fill-rule="evenodd"/>
          <path id="Path_4308" data-name="Path 4308" d="M513.178,312.3a21.015,21.015,0,0,0-14.224-1.949,8.009,8.009,0,0,0-2.737,1.286c-.539.415-1.037.871-1.451,1.244a37.265,37.265,0,0,0-2.53,2.9c-1.7,2.156-3.774,5.059-6.054,8.418-4.52,6.718-10.16,15.592-15.965,24.715h0l-.083.124,5.059,3.234h0l-5.1-3.234c-7.008,11.072-14.224,22.434-20.112,30.977-1.534,2.239-2.944,4.23-4.23,5.93-.249-2.9-.456-6.428-.622-10.409-.5-12.648-.456-29.36-.456-46.155,0-15.3.041-30.645-.373-42.547-.207-5.93-.5-11.155-.954-15.178a35.475,35.475,0,0,0-.912-5.391,15.665,15.665,0,0,0-.746-2.364,8.906,8.906,0,0,0-1.742-2.737c-3.276-3.442-8.294-8-15.136-7.838-6.925.166-13.063,4.976-18.993,12.938-3.069,4.105-6.469,11.362-9.828,19.407-3.483,8.252-7.215,18.08-10.906,27.784-4.562,11.943-9,23.637-12.938,32.428A83.054,83.054,0,0,1,367,356.044c-.415.664-.746,1.161-1.037,1.534h-.042l-.041-.042-.166-.166a4.884,4.884,0,0,1-.622-1.078c-1.2-2.654-1.99-7.133-3.276-14.846-.124-.664-.207-1.368-.332-2.073h0c-.29-1.866-.746-4.52-1.244-7.8h0c-2.115-13.353-5.847-36.824-9.952-57.973-2.073-10.574-4.23-20.693-6.386-28.738-1.078-4.022-2.156-7.589-3.276-10.533a24.944,24.944,0,0,0-3.981-7.423h0l-.041-.041-.042-.042h0a14.647,14.647,0,0,0-5.059-3.442,29.161,29.161,0,0,0-5.1-1.659c-1.617-.373-3.234-.664-4.52-.829a15.887,15.887,0,0,0-1.949-.124h-.788a9.092,9.092,0,0,0-1.078,0,9.495,9.495,0,0,0-1.99.332,24.517,24.517,0,0,0-3.691,1.286,21.547,21.547,0,0,0-7.506,5.142h0l-.042.042-.042.041h0a23.487,23.487,0,0,0-3.317,5.557c-.912,2.115-1.825,4.644-2.737,7.423-1.783,5.6-3.608,12.606-5.391,20.237-3.608,15.26-7.174,33.424-10.077,48.269l5.889,1.161h0l-5.889-1.161c-2.322,11.9-4.23,21.439-5.391,26-1,3.9-1.783,7.547-2.488,10.782-1.285,5.93-2.115,9.745-3.276,12.109l-.124.249-.124-.249a77.441,77.441,0,0,1-4.354-9.662c-3.276-8.418-6.967-19.7-10.74-31.392-3.317-10.16-6.676-20.61-9.911-29.4-3.152-8.542-6.428-16.38-9.662-20.734-5.93-7.921-12.067-12.772-18.951-12.938-6.842-.166-11.819,4.354-15.095,7.838a8.9,8.9,0,0,0-1.742,2.737,14.067,14.067,0,0,0-.746,2.364,49.981,49.981,0,0,0-.912,5.391c-.456,4.022-.746,9.247-.954,15.177-.373,11.9-.373,27.245-.332,42.547,0,16.753.041,33.507-.456,46.113-.166,3.981-.332,7.464-.622,10.409-1.285-1.7-2.7-3.691-4.23-5.93-5.888-8.543-13.063-19.9-20.071-30.936-5.806-9.164-11.445-18.122-16.007-24.84-2.281-3.359-4.313-6.262-6.013-8.418a30.237,30.237,0,0,0-2.53-2.9,10.841,10.841,0,0,0-1.451-1.244,7.281,7.281,0,0,0-2.737-1.285,21.015,21.015,0,0,0-14.224,1.949,16.514,16.514,0,0,0-8.833,15.012c0,22.061,7.464,46.03,15.882,73.275,5.889,19.034,12.358,40.017,17.624,63.945-.456,1.286-.954,2.488-1.534,3.815a23.82,23.82,0,0,0-2.281,7.63c-.083.166-.249.332-.415.58-.249.332-.5.664-.829,1.078a27.748,27.748,0,0,0-2.322,3.235,11.524,11.524,0,0,0-1.783,5.515,9.209,9.209,0,0,0,2.9,6.967,17.527,17.527,0,0,0,6.345,3.691,13.921,13.921,0,0,1,6.718,4.562c.083.124.166.207.249.332a47.492,47.492,0,0,0-7.589,6.925c-2.737,3.276-6.594,9.662-2.364,16.3,5.267,8.294,15.8,13.6,27.535,17.251,12.067,3.774,26.872,6.22,42.422,7.837,31.143,3.234,66.308,3.276,90.65,3.276h6.51v-.042c24.591-.207,59.964-1.451,91.894-4.976,17.209-1.907,33.631-4.479,46.818-7.962a104.531,104.531,0,0,0,17.5-6.1c4.852-2.281,9.206-5.184,12.026-8.874a11.087,11.087,0,0,0,1.949-9.579,17.869,17.869,0,0,0-3.815-6.967,48.259,48.259,0,0,0-7.838-7.091c.083-.124.166-.207.249-.332a13.919,13.919,0,0,1,6.718-4.561,17.527,17.527,0,0,0,6.345-3.691,9.209,9.209,0,0,0,2.9-6.967,11.524,11.524,0,0,0-1.783-5.515,31.855,31.855,0,0,0-2.322-3.235c-.332-.415-.581-.746-.829-1.078-.166-.249-.29-.415-.415-.581a25.358,25.358,0,0,0-1.161-5.972l-.249-.871.871-3.608-1.742-.415h0l1.742.415c5.681-23.388,11.819-43.459,17.334-61.332,9.04-29.484,16.546-53.909,16.546-77.3A15.88,15.88,0,0,0,513.178,312.3ZM430.7,268.5Zm-65.106,89.655c-.083.124-.083.083,0,0Zm-46.32-131.414h0l-2.447,5.474ZM273.324,359.777c.083.083.083.124,0,0Zm-60.669-90.816ZM493.978,401.038c-5.1,16.629-10.823,35.373-16.256,56.978l-4.064-.373.581,7.133,6.013-.5.042-.332h0l-.042.332-6.013.5a44.185,44.185,0,0,0,1.7,8.874,13.124,13.124,0,0,1,.7,3.525,10.141,10.141,0,0,0,1.659,5.308,30.9,30.9,0,0,0,2.115,2.944c.166.207.332.415.456.581a.6.6,0,0,1-.29.083c-11.653,4.23-15.841,12.855-15.841,18.454V507.4l2.2,1.783,3.815-4.644h0l-3.815,4.644c.539.456,1.327,1,1.99,1.493a45.93,45.93,0,0,1,7.423,6.428,9.289,9.289,0,0,1,1.244,1.825c-1.244,1.451-3.566,3.193-7.381,5.018a93.166,93.166,0,0,1-15.385,5.35c-12.357,3.276-28.116,5.764-45.076,7.672-33.921,3.732-71.99,4.935-96.331,4.935h-.705c-24.466,0-59.01-.042-89.406-3.193-15.219-1.576-29.152-3.939-40.1-7.381-11.2-3.483-18.039-7.713-20.9-12.15a6.954,6.954,0,0,1,1.368-2.2,41.4,41.4,0,0,1,7.216-6.22c.664-.5,1.41-1.037,1.949-1.493l-3.815-4.644h0l3.815,4.644,2.2-1.825v-2.861c0-5.6-4.188-14.224-15.841-18.453a.6.6,0,0,0-.29-.083c.124-.166.29-.373.456-.581a29.051,29.051,0,0,0,2.115-2.944,10.141,10.141,0,0,0,1.659-5.308,4.2,4.2,0,0,1,.249-.912c.249-.705.581-1.576,1.12-2.778a49.052,49.052,0,0,0,2.571-7.05l-5.806-1.576h0l5.806,1.576,2.322-8.667-3.608.456c-5.225-22.766-11.445-42.837-17-60.793-8.584-27.825-15.343-49.845-15.343-69.709a4.546,4.546,0,0,1,2.53-4.437,8.688,8.688,0,0,1,4.686-.954c.29.332.664.746,1.12,1.327,1.41,1.783,3.276,4.4,5.515,7.713,4.437,6.552,9.994,15.343,15.8,24.549,6.967,10.989,14.307,22.559,20.32,31.35,2.986,4.354,5.806,8.169,8.128,10.906a32.442,32.442,0,0,0,3.525,3.608,11.032,11.032,0,0,0,2.239,1.493,6.987,6.987,0,0,0,8.916-2.2,11.247,11.247,0,0,0,1.451-2.778,33.306,33.306,0,0,0,1.286-5.64,159.636,159.636,0,0,0,1.244-16.214c.5-12.938.456-29.94.456-46.611h0c0-15.385-.042-30.479.332-42.132.166-5.847.456-10.7.871-14.182a33.471,33.471,0,0,1,.622-3.9,2.676,2.676,0,0,1,.083-.29c2.82-2.861,4.479-3.566,5.557-3.525s4.188.871,9.621,8.086c2.032,2.737,4.81,8.874,8.045,17.666,3.152,8.543,6.469,18.744,9.787,28.945,3.774,11.57,7.547,23.264,10.989,32.055a89.814,89.814,0,0,0,5.1,11.238,22.206,22.206,0,0,0,2.9,4.105,9.1,9.1,0,0,0,5.681,3.069,11.924,11.924,0,0,0,8.169-1.991,14.755,14.755,0,0,0,4.81-5.93c1.907-3.981,3.069-9.538,4.188-14.8.705-3.234,1.41-6.676,2.364-10.284,1.286-4.976,3.235-15.012,5.557-26.664h0l-5.889-1.161h0l5.889,1.161c2.944-14.887,6.469-32.843,9.994-47.855,1.783-7.506,3.525-14.182,5.142-19.324a65.418,65.418,0,0,1,2.281-6.262,18.444,18.444,0,0,1,.912-1.825,3.891,3.891,0,0,1,.373-.581l-4.437-4.064,4.52,3.939a5.376,5.376,0,0,1,1.244-1,16.486,16.486,0,0,1,2.073-1.12c.373-.166.7-.29.954-.373l.912.415,1.327-.581h.124c.788.083,1.908.29,3.069.539a19.686,19.686,0,0,1,3.11,1c.7.332,1,.539,1,.5h0a5.283,5.283,0,0,1,.539.871c.332.663.746,1.617,1.2,2.778.912,2.405,1.866,5.557,2.9,9.372,2.032,7.63,4.147,17.417,6.22,27.908,4.064,20.942,7.755,44.247,9.87,57.6h0c.539,3.276.954,5.971,1.244,7.879.124.705.208,1.368.332,2.073,1.12,6.925,2.156,13.436,4.188,17.914a14.172,14.172,0,0,0,5.474,6.511,13.634,13.634,0,0,0,8.75,1.742,9.415,9.415,0,0,0,5.681-3.027,22.566,22.566,0,0,0,3.11-4.147,99.576,99.576,0,0,0,5.889-11.611c4.064-9.165,8.667-21.19,13.187-33.009,3.732-9.745,7.381-19.366,10.74-27.411,3.442-8.252,6.345-14.141,8.377-16.836,5.432-7.216,8.543-8.086,9.621-8.086,1.12-.041,2.778.664,5.6,3.525a2.635,2.635,0,0,1,.083.29,33.493,33.493,0,0,1,.622,3.9c.415,3.525.663,8.335.871,14.182.373,11.653.373,26.789.332,42.174h0c0,16.67-.041,33.672.456,46.611a159.622,159.622,0,0,0,1.244,16.214,29.746,29.746,0,0,0,1.286,5.64,10,10,0,0,0,1.451,2.779,7.127,7.127,0,0,0,4.479,2.861,7.66,7.66,0,0,0,4.437-.664,11.036,11.036,0,0,0,2.239-1.493,29.266,29.266,0,0,0,3.525-3.608c2.322-2.737,5.1-6.552,8.128-10.906,6.013-8.75,13.353-20.278,20.278-31.226h0c.042-.042.042-.083.083-.124h0l-5.059-3.235h0l5.059,3.235c5.847-9.206,11.4-18,15.841-24.549,2.239-3.276,4.064-5.888,5.515-7.713.456-.58.829-1,1.12-1.327a9.087,9.087,0,0,1,4.686.954,4.506,4.506,0,0,1,2.53,4.437C509.985,348.5,503.143,371.015,493.978,401.038Z" transform="translate(-94.221 -156.166)" fill="#724335" fill-rule="evenodd"/>
          <path id="Path_4309" data-name="Path 4309" d="M579.72,250.44l-4.52-3.94,4.437,4.064.041-.041Z" transform="translate(-359.895 -171.234)" fill="#724335" fill-rule="evenodd"/>
          <path id="Path_4310" data-name="Path 4310" d="M565.246,746.924c-4.271-2.612-9.248-5.515-13.436-7.589l-9.123-6.635-17.251,11.736c-7.63,3.359-18.951,9.04-21.232,11.86a1.322,1.322,0,0,0-.415,1c.332,1.576,8.418,7.755,16.256,13.021a144.326,144.326,0,0,0,15.675,9.455l6.8,5.017,28.821-17.831a58.45,58.45,0,0,0,9.206-5.681l.788-.5-.125-.083a2.653,2.653,0,0,0,.332-.374,1.4,1.4,0,0,0,.415-1.036C581.667,757.664,573.083,751.734,565.246,746.924Zm.663,17.583-23.1,14.265-28.365-20.817,28.2-19.158,28.945,21.066Z" transform="translate(-318.093 -455.814)" fill="#724335" fill-rule="evenodd"/>
          <path id="Path_4311" data-name="Path 4311" d="M905.72,831.56l-.332-.83c-.415-4.063-6.427-5.391-8.086-5.722-7.133-2.447-10.823-.167-12.192,1.99L871.8,835.292c-7.257,3.4-7.63,5.225-7.672,6.1-.373,3.4,1.285,4.4,4.562,6.3,1.285.747,3.069,1.825,5.391,3.318,6.635,4.354,11.073,6.261,12.606,6.718l.249.042a17.763,17.763,0,0,0,2.488.207c2.7,0,4.769-.746,6.179-2.281a6.556,6.556,0,0,0,1.534-5.971l-.042-.083c-1-3.774-.456-5.267-.29-5.6a33.637,33.637,0,0,0,7.133-5.889c1.825-2.073,2.571-3.773,2.281-5.266A2.089,2.089,0,0,0,905.72,831.56ZM897.8,836.7a8.007,8.007,0,0,1-1.286,2.613c-.829.581-1.493,1.037-1.866,1.244-.663.373-2.24,1.7-2.157,5.474a34.994,34.994,0,0,1-.912,3.773,10.819,10.819,0,0,1-1.949,3.774l-.208.207a12.117,12.117,0,0,1-1.659-.124c-1.161-.373-5.1-2.074-11.362-6.138-2.405-1.576-4.23-2.654-5.557-3.441-.83-.5-1.576-.954-2.073-1.286a3.011,3.011,0,0,1,.29-1l.249-.5a32.23,32.23,0,0,1,4.4-2.364l12.855-8a27.874,27.874,0,0,1,4.147-.705,11.558,11.558,0,0,1,3.649.166,3.466,3.466,0,0,1,2.281,1.41C897.8,833.841,898.173,835.251,897.8,836.7Z" transform="translate(-528.978 -509.225)" fill="#724335" fill-rule="evenodd"/>
          <path id="Path_4312" data-name="Path 4312" d="M275.994,841.305l-12.98-8.252c-1.327-2.157-4.976-4.479-11.984-2.032-1.659.29-7.547,1.659-7.962,5.723l-.332.829a3.38,3.38,0,0,0-.622,1.286c-.29,1.493.456,3.193,2.239,5.266a32.206,32.206,0,0,0,6.967,5.888c.166.332.664,1.825-.29,5.6l-.041.083a6.739,6.739,0,0,0,1.576,6.013,7.949,7.949,0,0,0,6.054,2.24,17.691,17.691,0,0,0,2.447-.208l.29-.042c1.534-.456,5.847-2.364,12.358-6.718,2.281-1.534,3.981-2.571,5.267-3.317,3.193-1.949,4.81-2.9,4.479-6.3C283.458,846.53,283.126,844.705,275.994,841.305Zm.912,8.833c-1.286.788-3.069,1.866-5.432,3.442-6.1,4.064-9.911,5.764-11.072,6.137a9.8,9.8,0,0,1-1.493.125,3.3,3.3,0,0,1-.705-.622,10.823,10.823,0,0,1-1.949-3.774c-.207-.622-.373-1.286-.539-1.866.539-4.935-1.286-6.51-2.032-6.967-.456-.29-1.368-.912-2.405-1.7a8.252,8.252,0,0,1-1.286-2.571c-.332-1.452.041-2.862,1.161-4.769a3.185,3.185,0,0,1,2.281-1.41,12.958,12.958,0,0,1,3.649-.166,25.525,25.525,0,0,1,3.566.539l13.229,8.418.207.124a27.553,27.553,0,0,1,4.727,2.7,3.118,3.118,0,0,1,.207,1.078C278.565,849.143,277.735,849.641,276.906,850.138Z" transform="translate(-164.899 -512.749)" fill="#724335" fill-rule="evenodd"/>
          <path id="Path_4313" data-name="Path 4313" d="M769.969,785.041l-.29-.041h-.29c-7.175.5-12.068,2.654-14.639,6.469a10.468,10.468,0,0,0-1.286,8.792c.5,8.335,6.843,13.021,13.395,14.265a18.206,18.206,0,0,0,4.064.456,24.581,24.581,0,0,0,5.308-.622c4.4-1,7.382-3.028,8.958-6.138a13.722,13.722,0,0,0,.622-9.413C785.562,790.556,775.775,786.285,769.969,785.041Zm11.156,15.593c-2.7,7.879-9.994,7.63-13.934,7.506h-.456c-1.99-.083-4.852-1.285-7.008-2.239a10.588,10.588,0,0,1-2.073-6.054v-.29l-.083-.291a6.261,6.261,0,0,1,.7-5.432c1.742-2.613,5.6-4.189,11.155-4.6,3.65.829,12.192,4.063,12.275,9.911A8.646,8.646,0,0,0,781.125,800.634Z" transform="translate(-463.973 -486.426)" fill="#724335" fill-rule="evenodd"/>
          <path id="Path_4314" data-name="Path 4314" d="M846.083,841.5h-.166a2.463,2.463,0,0,0-1.991.912,1.551,1.551,0,0,0-.207,1.286,2.213,2.213,0,0,0,2.115,1.949h.208a2.1,2.1,0,0,0,1.492-.58,2.076,2.076,0,0,0,.705-1.576C848.239,842.288,846.871,841.666,846.083,841.5Z" transform="translate(-517.03 -519.496)" fill="#724335" fill-rule="evenodd"/>
          <path id="Path_4315" data-name="Path 4315" d="M724.175,794.5h-.166a2.732,2.732,0,0,0-2.239,1,1.47,1.47,0,0,0-.166,1.244,2.35,2.35,0,0,0,2.281,1.949h.249a2.389,2.389,0,0,0,1.7-.622,2.031,2.031,0,0,0,.664-1.534C726.58,795.33,725.295,794.708,724.175,794.5Z" transform="translate(-445.548 -491.987)" fill="#724335" fill-rule="evenodd"/>
          <path id="Path_4316" data-name="Path 4316" d="M352.854,840.441l-.083-.041h-.083a2.184,2.184,0,0,0-1.783.871,1.845,1.845,0,0,0-.249,1.327,2.13,2.13,0,0,0,1.908,1.99h.207a1.855,1.855,0,0,0,1.286-.5,2.191,2.191,0,0,0,.705-1.659C354.8,841.229,353.559,840.607,352.854,840.441Z" transform="translate(-228.448 -518.853)" fill="#724335" fill-rule="evenodd"/>
          <path id="Path_4317" data-name="Path 4317" d="M466.085,788.442,466,788.4h-.083a2.27,2.27,0,0,0-1.949.954,1.788,1.788,0,0,0-.249,1.451,2.352,2.352,0,0,0,2.115,2.2h.249a2.128,2.128,0,0,0,1.41-.539,2.408,2.408,0,0,0,.788-1.825C468.241,789.312,466.872,788.649,466.085,788.442Z" transform="translate(-294.612 -488.416)" fill="#724335" fill-rule="evenodd"/>
          <path id="Path_4318" data-name="Path 4318" d="M385.755,779h-.29l-.29.042c-5.93,1.244-15.965,5.6-15.841,14.058v.166a13.6,13.6,0,0,0,.581,9.289c1.576,3.11,4.6,5.183,9.082,6.179a25.058,25.058,0,0,0,5.391.622,16.4,16.4,0,0,0,9.621-2.9,16.629,16.629,0,0,0,2.032-1.742,14.246,14.246,0,0,0,5.64-10.658,10.218,10.218,0,0,0-1.2-8.625C397.906,781.654,392.971,779.5,385.755,779Zm11.9,14.016-.083.29v.291a10.134,10.134,0,0,1-3.483,7.423,17.148,17.148,0,0,1-5.35,1.492h-.456c-3.981.125-11.362.373-14.141-7.506-.207-.622-.415-1.161-.622-1.7v-.29c-.083-5.847,8.584-9.082,12.275-9.911,5.6.415,9.5,1.99,11.2,4.6A6.318,6.318,0,0,1,397.657,793.016Z" transform="translate(-239.081 -482.914)" fill="#724335" fill-rule="evenodd"/>
          <path id="Path_4319" data-name="Path 4319" d="M397.347,520.277c-4.479-13.933-9.745-30.106-15.053-44.123-9.33-24.591-13.685-29.277-16.753-30.645-3.027-1.327-5.681-1.327-7.8.083-4.313,2.82-4.645,9.828-4.645,19.407,0,9.247,1.12,49.721,4.23,62.12,1.078,4.23,5.308,18.412,15.012,23.264A14.8,14.8,0,0,0,379.018,552a16.713,16.713,0,0,0,6.594-1.41C402.282,543.666,400.872,531.391,397.347,520.277Zm-4.271,14.929c-15.8,15.592-28.323-4.976-28.323-4.976-.539-1.534-1-3.069-1.368-4.561-2.82-11.238-4.064-49.887-4.064-60.627a80.929,80.929,0,0,1,.415-10.036c.5-3.442,1.286-4.064,1.41-4.147.042-.042.124-.042.29-.042a4.375,4.375,0,0,1,1.617.456c.664.332,4.354,3.11,13.519,27.286,5.225,13.851,10.45,29.816,14.846,43.625C393.159,527.659,393.781,531.888,393.076,535.206Z" transform="translate(-229.897 -287.141)" fill="#724335" fill-rule="evenodd"/>
          <path id="Path_4320" data-name="Path 4320" d="M233.16,666.523a15.279,15.279,0,0,0,6.677-1.658c3.815-1.825,6.179-4.4,7.05-7.547,1.037-3.815-.124-8.169-3.566-13.395-3.732-5.764-10.616-15.758-17.707-24.922-12.441-16.09-15.509-16.671-17-16.919a6.282,6.282,0,0,0-6.262,1.949c-3.525,4.106-1.161,11.86-.332,14.141,2.7,7.589,13.519,31.475,17.292,38.151C223.705,664.118,228.681,666.523,233.16,666.523Zm-26.125-58.387a1.618,1.618,0,0,1,.373.041c.5.208,3.608,1.991,13.809,15.26,6.8,8.875,13.394,18.412,16.961,23.927a26.692,26.692,0,0,1,2.2,4.023c-9.579,13.684-19.2-5.184-20.4-7.672l-.124-.249h0c-4.52-9.538-10.16-22.352-11.943-27.328C206.33,611.7,206.62,608.758,207.035,608.136Z" transform="translate(-140.561 -379.27)" fill="#724335" fill-rule="evenodd"/>
          <path id="Path_4321" data-name="Path 4321" d="M930.259,602.081c-1.492.29-4.6.871-17,16.919-7.092,9.165-13.975,19.159-17.708,24.923-3.442,5.225-4.6,9.62-3.566,13.394.871,3.193,3.235,5.723,7.05,7.547a15.569,15.569,0,0,0,6.677,1.658c4.479,0,9.455-2.405,13.85-10.2,3.773-6.677,14.6-30.562,17.292-38.151.788-2.281,3.152-10.036-.332-14.141A6.282,6.282,0,0,0,930.259,602.081Zm.746,14.016c-2.571,7.216-13.27,30.853-16.835,37.2a17.023,17.023,0,0,1-4.852,5.847,28.54,28.54,0,0,1-5.847-2.529c-5.1-2.944-.953-11.985-.953-11.985h0c3.732-5.6,9.372-13.643,15.177-21.19,10.2-13.27,13.311-15.012,13.809-15.26a1.415,1.415,0,0,1,.373-.042C932.25,608.757,932.54,611.7,931.005,616.1Z" transform="translate(-545.099 -379.27)" fill="#724335" fill-rule="evenodd"/>
          <path id="Path_4322" data-name="Path 4322" d="M776.112,447.692c-2.156-1.41-4.769-1.41-7.8-.083h0c-3.068,1.327-7.423,6.013-16.753,30.645-5.308,14.016-10.574,30.148-15.053,44.123-3.566,11.114-4.934,23.388,11.694,30.355a16.716,16.716,0,0,0,6.594,1.41,14.8,14.8,0,0,0,6.677-1.617c9.7-4.852,13.933-19.034,15.011-23.264,3.151-12.4,4.23-52.914,4.23-62.12C780.757,457.521,780.425,450.512,776.112,447.692Zm-5.64,80.034c-1.41,5.515-4.022,11.9-7.713,16.007a52.156,52.156,0,0,1-11.445-2.156c-12.233-3.483-7.3-22.1-7.3-22.227,4.064-12.606,8.667-26.5,13.27-38.732,9.165-24.218,12.856-27,13.519-27.286,1.12-.5,1.742-.5,1.908-.373.083.042.912.663,1.41,4.147a81.558,81.558,0,0,1,.415,10.036C774.536,477.84,773.292,516.489,770.472,527.727Z" transform="translate(-452.989 -288.37)" fill="#724335" fill-rule="evenodd"/>
          <path id="Path_4323" data-name="Path 4323" d="M567.96,508.615c.373,0,.705.042,1.078.042a17.605,17.605,0,0,0,12.358-4.811c8.418-7.879,9.994-23.471,10.16-32.055.29-14.058-8.211-53.826-11.487-66.557-2.82-10.906-5.6-18.039-10.906-20.029-1.866-.705-4.852-1-8.542,1.534h0c-4.437,3.027-8.584,15.261-12.317,36.327-3.234,18.2-5.225,38.524-5.225,53.121-.83,9.372,1.659,18.122,6.8,24.093C554.275,505.339,560.537,508.241,567.96,508.615Zm-18.744-32.055v-.332c-.041-14.265,1.949-34.253,5.1-52.167,4.106-23.1,8.169-31.226,9.7-32.3h0a4.275,4.275,0,0,1,2.28-.912,2.1,2.1,0,0,1,.54.083c3.359,1.244,6.179,12.192,7.091,15.758,3.484,13.6,11.57,52.043,11.321,64.9-.124,5.059-.829,16.173-5.059,23.554-2.529,1.617-6.635,3.235-13.062,3.566-12.773.663-17.625-16.007-18.081-17.666A41.551,41.551,0,0,1,549.216,476.559Z" transform="translate(-341.002 -252.131)" fill="#724335" fill-rule="evenodd"/>
        </g>
      </g>
    </g>
  </svg>
  