<svg xmlns="http://www.w3.org/2000/svg" width="570" height="570" viewBox="0 0 570 570">
    <g id="Group_120" data-name="Group 120" transform="translate(-1705 -1030)">
      <g id="Group_8" data-name="Group 8" transform="translate(1705 1030)">
        <rect id="Rectangle_1" data-name="Rectangle 1" width="570" height="570" transform="translate(0 0)" fill="none"/>
      </g>
      <g id="ROOK_1_" data-name="ROOK (1)" transform="translate(1806.881 1100.65)">
        <path id="Path_4335" data-name="Path 4335" d="M169.263.012c-12.676-.569-46.491,3.492-54.651,7.4-6.072,2.922-9.222,9.905-12.145,16.471-3,6.717-5.807,13.018-11.386,13.89-4.137.645-8.311-3.226-13.359-7.932-6.793-6.338-15.181-14.08-27.06-14.08-20.684,0-35.068,11.424-42.506,25.048-8.919,16.319-9.033,76.928.835,85.316a91.646,91.646,0,0,0,9.26,6.49c11.12,7.135,24.821,15.94,24.821,32.335v1.48c0,25.618,0,117.233-7.59,121.484-7.78,4.327-19.431,32.639-24.1,46.681-2.808,8.463-4.061,17.534-5.275,26.377-1.063,7.818-2.125,15.408-4.213,22.2-4.744,15.56-.607,35.827,15.94,46.681.607.379,1.177.8,1.746,1.176C32.408,439.647,37.114,442.8,169.225,442.8c131.617.228,136.171-2.846,148.847-11.348.607-.417,1.252-.835,1.9-1.252,16.547-10.854,20.722-31.083,16.016-46.643-2.049-6.793-3.112-14.384-4.175-22.2-1.214-8.843-2.429-17.913-5.237-26.377-4.668-14.042-16.281-42.392-24.024-46.719-7.59-4.251-7.439-95.867-7.4-121.484v-1.48c.038-16.357,13.739-25.162,24.858-32.3a82.366,82.366,0,0,0,9.26-6.452c9.868-8.349,9.868-68.959.987-85.316C322.816,27.6,308.508,16.142,287.786,16.1c-11.879-.038-20.266,7.742-27.06,14.042-5.048,4.668-9.26,8.577-13.4,7.894-5.579-.911-8.387-7.173-11.386-13.928-2.922-6.566-6.034-13.549-12.107-16.471-8.16-3.985-41.861-8.084-54.575-7.552Z" transform="translate(-0.056 0.041)" fill="#fbf6ee" fill-rule="evenodd"/>
        <path id="Path_4336" data-name="Path 4336" d="M323.238,179.247,353.3,154.882a13.844,13.844,0,0,0,5.161-10.778V109.833a19.45,19.45,0,0,0-38.9-.038c-.076.38-1.252,1.86-4.516,3.15a19.681,19.681,0,0,1-9.108,1.442L270.3,108.846c-6.262-.949-7.325-4.213-7.325-11.2V91.768A17.282,17.282,0,0,0,245.7,74.5H191.317a17.282,17.282,0,0,0-17.268,17.268v5.883c0,2.733-.987,9.184-10.057,10.551l-32.9,6.262a19.331,19.331,0,0,1-9.033-1.442c-3.264-1.29-4.478-2.77-4.554-3.15A19.452,19.452,0,0,0,92.187,91.351,19.4,19.4,0,0,0,78.6,109.909v34.233a13.808,13.808,0,0,0,5.123,10.778l30.058,24.365a19.966,19.966,0,0,1,7.4,15.56V328.74a47.586,47.586,0,0,1-16.547,36.054l-3.074,2.657a34.39,34.39,0,0,0-11.955,26.073v10.4L81.56,420.014a28.456,28.456,0,0,0-2.96,12.6v7.514a19.825,19.825,0,0,0,19.811,19.811h240.2a19.825,19.825,0,0,0,19.811-19.811v-7.552a28.335,28.335,0,0,0-2.96-12.6l-8.046-16.092v-10.4a34.39,34.39,0,0,0-11.955-26.073l-3.074-2.657A47.527,47.527,0,0,1,315.837,328.7V194.808A19.967,19.967,0,0,1,323.238,179.247Zm-190.9,3.226c.569-.114,1.176-.228,1.746-.342,3.947-.759,7.932-1.366,11.917-2.011,3.985-.569,8.008-1.139,11.993-1.594,2.011-.266,4.023-.455,6.034-.683h.114c2.695-.19,5.427-.342,8.122-.493.228,0,.493-.038.721-.038a12.107,12.107,0,0,1,8.425,3.34,12.542,12.542,0,0,1,3.871,9.3l-.076,14.8a14.016,14.016,0,0,1-3.985,9.6,14.33,14.33,0,0,1-9.488,4.44c-11.006.607-22.164,1.442-33.132,2.429a12.04,12.04,0,0,1-6.414-1.063V194.77a30.924,30.924,0,0,0-1.86-10.589A17.666,17.666,0,0,1,132.34,182.473ZM276.405,349.651a12.687,12.687,0,0,1-9.6,3.492c-11.158-.531-22.506-.835-33.739-.949a13.535,13.535,0,0,1-13.511-13.359l.038-14.8a13.345,13.345,0,0,1,13.321-13.283h.152c11.12.114,22.392.455,33.436.949a14.411,14.411,0,0,1,13.587,14.156l.076,14.8A12.091,12.091,0,0,1,276.405,349.651ZM155.87,341.416l.114-14.8a14.669,14.669,0,0,1,13.625-14.308c11.082-.645,22.316-1.1,33.436-1.328h.3a13.049,13.049,0,0,1,9.146,3.719,12.782,12.782,0,0,1,3.909,9.374l-.038,14.8a13.774,13.774,0,0,1-13.549,13.511c-11.2.228-22.505.683-33.7,1.328a12.571,12.571,0,0,1-9.564-3.378A12.167,12.167,0,0,1,155.87,341.416Zm92.185-151.77.038,14.8a12.819,12.819,0,0,1-3.833,9.222,13.12,13.12,0,0,1-9.45,3.757c-11.044-.152-22.2-.076-33.246.19a12.994,12.994,0,0,1-9.412-3.643,12.514,12.514,0,0,1-3.757-9.184l.076-14.8a13.839,13.839,0,0,1,13.321-13.777c7.173-.152,14.46-.266,21.709-.266,3.757,0,7.514.038,11.272.076A13.62,13.62,0,0,1,248.055,189.646Zm-44.707,31.576h.3a12.723,12.723,0,0,1,8.995,3.681,13.138,13.138,0,0,1,3.947,9.45l-.038,14.8a13.478,13.478,0,0,1-3.947,9.45,13.731,13.731,0,0,1-9.488,4.1,7.943,7.943,0,0,0-.949.038H201.3c-9.867.228-19.849.645-29.678,1.177h-.114c-.266,0-.569.038-.835.038a7,7,0,0,1-.873.038,12.489,12.489,0,0,1-9.412-3.34,12.081,12.081,0,0,1-3.719-8.995l.114-14.8a14.593,14.593,0,0,1,13.473-14.308C181.222,221.905,192.342,221.488,203.348,221.222Zm-15.333,58.484a13.89,13.89,0,0,1,13.321-13.776,8.265,8.265,0,0,0,.949-.038c7.059-.152,14.118-.266,21.215-.266,3.53,0,7.059.038,10.589.076h.8a13.644,13.644,0,0,1,13.283,13.625l.038,14.8a12.761,12.761,0,0,1-3.8,9.184,13.32,13.32,0,0,1-9.6,3.833c-11.158-.152-22.43-.076-33.549.19a13.2,13.2,0,0,1-9.564-3.719,12.577,12.577,0,0,1-3.757-9.146Zm46.909-17.154H233.1a13.452,13.452,0,0,1-13.359-13.359l.038-14.8a13.261,13.261,0,0,1,3.985-9.488,13.018,13.018,0,0,1,9.336-3.8c11.006.114,22.164.417,33.132.949a14.326,14.326,0,0,1,13.435,14.118l.076,14.8a12.343,12.343,0,0,1-3.757,9.033,12.716,12.716,0,0,1-9.45,3.454c-.266,0-.569-.038-.835-.038-.3,0-.607-.038-.873-.038h-.152C254.773,262.931,244.829,262.665,234.924,262.552ZM132.188,225.511c2.808-.266,5.617-.569,8.425-.8.38-.038.8-.038,1.177-.038a11.741,11.741,0,0,1,8.008,3.074,11.92,11.92,0,0,1,3.8,9.071l-.114,14.8a14.664,14.664,0,0,1-4.023,9.792,14.98,14.98,0,0,1-9.564,4.782c-.266.038-.569.038-.835.076-.3.038-.569.038-.873.076h-.152c-1.936.19-3.871.38-5.845.569Zm0,46.15a14.348,14.348,0,0,1,6.11-2.125c.38-.038.8-.076,1.177-.114,10.4-.949,20.911-1.708,31.31-2.315.38,0,.759-.038,1.139-.038h.493a12.367,12.367,0,0,1,12.448,12.6l-.076,14.8a13.814,13.814,0,0,1-4.023,9.6,14.6,14.6,0,0,1-9.564,4.44c-11.12.607-22.392,1.442-33.474,2.467a13.256,13.256,0,0,1-5.5-.645V271.66Zm132.756,36.358a14.236,14.236,0,0,1-13.549-13.852l-.038-14.8a12.643,12.643,0,0,1,13.131-12.79c.342,0,.683.038,1.025.038,10.475.493,21.1,1.139,31.576,1.974.3.038.607.038.911.076a14.436,14.436,0,0,1,6.793,2.467v37.914a12.6,12.6,0,0,1-6.338,1.063C287.335,309.195,276.064,308.473,264.944,308.018Zm39.888-42.013c-2.2-.19-4.364-.38-6.528-.569h-.114a5.093,5.093,0,0,0-.759-.038c-.342-.038-.645-.038-.987-.076A14.869,14.869,0,0,1,282.9,250.938l-.076-14.8a12.254,12.254,0,0,1,3.833-9.146,11.907,11.907,0,0,1,9.222-3.112c2.96.228,5.959.493,8.919.759v41.368Zm0-71.2v24.137a12.6,12.6,0,0,1-6.945,1.4c-11.006-.873-22.2-1.594-33.208-2.087a14.157,14.157,0,0,1-13.4-13.852l-.038-14.8a12.721,12.721,0,0,1,3.909-9.336,12.554,12.554,0,0,1,6.3-3.226c1.822.152,3.681.3,5.5.493,8.046.721,16.092,1.708,24.061,2.846,5.01.759,10.019,1.556,14.991,2.467.3.266.569.569.873.873A30.382,30.382,0,0,0,304.831,194.808ZM132.188,328.7V315.191c2.5-.266,5.01-.493,7.514-.721.38-.038.8-.038,1.214-.038a11.744,11.744,0,0,1,8.122,3.112,11.972,11.972,0,0,1,3.8,9.033l-.114,14.8h0a15.163,15.163,0,0,1-10.816,14c-.228,0-.455.038-.721.038-5.313.3-10.627.645-15.978,1.025A58.323,58.323,0,0,0,132.188,328.7Zm164.028,26.225a14.917,14.917,0,0,1-7.856-3.643l-2.846-3.378a13.99,13.99,0,0,1-2.163-7.287l-.076-14.8a12.435,12.435,0,0,1,3.833-9.109,12.132,12.132,0,0,1,9.374-3.15l8.311.683v14.422a58.129,58.129,0,0,0,6.566,26.908C306.311,355.382,301.264,355.154,296.216,354.927ZM95.489,101.825a8.322,8.322,0,0,1,7.552,1.214,8.346,8.346,0,0,1,3.454,6.831c0,2.467.835,6.11,4.82,9.526,5.845,4.972,15.56,6.907,21.595,5.92l32.828-6.224c14.27-2.2,19.318-12.9,19.318-21.4V91.806a6.268,6.268,0,0,1,6.262-6.262h54.347a6.268,6.268,0,0,1,6.262,6.262v5.883c0,3.681.152,7.932,2.087,12.069,1.822,3.833,5.807,8.691,14.536,10.019l35.523,5.541c6.034.987,15.75-.987,21.595-5.92,3.985-3.378,4.82-7.059,4.82-9.526a8.4,8.4,0,0,1,3.454-6.831,8.462,8.462,0,0,1,13.473,6.793v29.906c-9.222-1.177-18.369-2.2-27.591-3.074-11.234-1.1-22.505-2.011-33.739-2.733-2.809-.19-5.617-.342-8.425-.493s-5.617-.342-8.425-.493c-5.617-.266-11.272-.569-16.889-.721l-8.5-.228-8.463-.19c-5.617-.152-11.272-.114-16.927-.19-5.655-.038-11.272.038-16.927.038-5.617.114-11.272.228-16.889.418-11.272.3-22.543.873-33.777,1.556-2.808.152-5.617.38-8.425.569l-4.213.3-4.213.342c-5.617.417-11.234.949-16.889,1.518-5.617.531-11.234,1.176-16.889,1.86-2.808.3-5.617.721-8.425,1.1-.759.114-1.48.19-2.2.3V109.8A8.288,8.288,0,0,1,95.489,101.825Zm-4.858,44.518a.457.457,0,0,1-.19-.19c.835-.19,1.67-.379,2.5-.607,2.733-.607,5.465-1.214,8.2-1.784s5.5-1.1,8.274-1.594c2.77-.531,5.541-.987,8.274-1.442,5.541-.873,11.082-1.708,16.661-2.429,2.77-.38,5.579-.721,8.349-1.025s5.579-.645,8.387-.911l8.387-.8c2.808-.266,5.617-.417,8.425-.645,5.617-.455,11.234-.721,16.851-1.025,2.808-.152,5.617-.19,8.425-.3l8.425-.266,8.425-.114c2.808-.038,5.617-.114,8.425-.038,22.505.152,44.973,1.252,67.365,3.567,11.2,1.1,22.316,2.619,33.436,4.327,2.771.417,5.541.911,8.312,1.366s5.5.987,8.273,1.518c3.529.683,7.1,1.4,10.589,2.2l-.076.076-30.058,24.479a30.6,30.6,0,0,0-5.883,6.262c-6.3-.721-12.524-1.29-18.824-1.822-8.122-.683-16.243-1.29-24.365-1.746-8.122-.417-16.243-.873-24.365-1.063-8.122-.266-16.243-.38-24.365-.417l-12.183.038c-4.061.076-8.122.152-12.183.266-8.122.19-16.243.569-24.365.987q-6.091.342-12.183.8c-4.061.266-8.122.607-12.183.987-4.061.342-8.122.759-12.183,1.177-2.049.19-4.061.455-6.11.683-.19.038-.38.038-.569.076a31.089,31.089,0,0,0-5.807-6.224ZM347.413,432.576v7.514a8.811,8.811,0,0,1-8.8,8.8H98.411a8.811,8.811,0,0,1-8.8-8.8v-7.514a17.265,17.265,0,0,1,1.822-7.666l8.539-17.04c1.063-.19,2.125-.379,3.188-.531,2.5-.379,5.048-.759,7.59-1.1,5.086-.683,10.171-1.214,15.295-1.708q7.685-.683,15.37-1.252c5.124-.38,10.285-.607,15.408-.911,10.285-.531,20.57-.835,30.855-1.1,10.285-.152,20.57-.266,30.893-.266,10.285.076,20.608.152,30.893.417,10.285.3,20.57.607,30.855,1.214,10.285.493,20.532,1.252,30.779,2.2,5.123.493,10.209,1.025,15.295,1.67,2.543.342,5.086.645,7.59,1.025,1.063.152,2.163.342,3.226.493l8.463,16.927A17.432,17.432,0,0,1,347.413,432.576Zm-11.006-39.091v7.742c-.607-.038-1.214-.076-1.86-.114-2.581-.152-5.2-.266-7.78-.379-5.2-.19-10.361-.38-15.522-.493-10.323-.3-20.646-.456-30.931-.607-10.323-.114-20.608-.228-30.931-.266l-15.446-.076H218.491c-10.323,0-20.608-.038-30.893.038-5.161-.038-10.285.038-15.446.038l-15.446.114-15.484.228c-5.161.038-10.323.19-15.484.342-5.161.114-10.323.3-15.522.531-2.581.114-5.2.228-7.78.38l-1.822.114v-7.59a23.339,23.339,0,0,1,8.122-17.723l3.074-2.657a56.511,56.511,0,0,0,6.376-6.414,63.38,63.38,0,0,1,11.234-4.554q6.091-.854,12.183-1.594c8.463-.987,16.927-1.822,25.39-2.429,4.251-.3,8.5-.645,12.752-.835l6.376-.342,6.376-.266c4.251-.19,8.5-.228,12.752-.342,4.251-.038,8.5-.114,12.79-.114,17.04.076,34.081.607,51.045,1.746,8.5.531,16.964,1.252,25.466,2.087,3.188.342,6.414.683,9.64,1.025a65.682,65.682,0,0,1,14.27,5.2,56.425,56.425,0,0,0,6.68,6.793l3.074,2.657A23.294,23.294,0,0,1,336.407,393.486Z" transform="translate(-48.791 -46.21)" fill="#724335"/>
      </g>
    </g>
  </svg>
  