<svg width="200" height="200" fill="none" viewbox="0 0 200 200">
    <g id="ROOK_1_" data-name="ROOK (1)" transform="translate(35.691 24.831)">
        <path id="Path_4335" data-name="Path 4335"
            d="M59.427-.023c-4.448-.2-16.313,1.225-19.176,2.6C38.121,3.6,37.015,6.05,35.99,8.353,34.938,10.71,33.953,12.921,32,13.227c-1.451.226-2.916-1.132-4.687-2.783C24.924,8.22,21.981,5.5,17.813,5.5A16.574,16.574,0,0,0,2.9,14.293c-3.129,5.726-3.169,26.992.293,29.935a32.157,32.157,0,0,0,3.249,2.277c3.9,2.5,8.709,5.593,8.709,11.346v.519c0,8.989,0,41.135-2.663,42.626-2.73,1.518-6.818,11.452-8.456,16.379A51.789,51.789,0,0,0,2.18,126.63,49.909,49.909,0,0,1,.7,134.42C-.963,139.88.488,146.991,6.294,150.8c.213.133.413.28.613.413,4.5,3.023,6.152,4.128,52.507,4.128,46.181.08,47.779-1,52.227-3.982.213-.146.439-.293.666-.439,5.806-3.809,7.271-10.906,5.62-16.366a51.534,51.534,0,0,1-1.465-7.79,51.764,51.764,0,0,0-1.838-9.255c-1.638-4.927-5.713-14.874-8.429-16.393-2.663-1.491-2.61-33.637-2.6-42.626v-.519c.013-5.739,4.821-8.829,8.722-11.332a28.9,28.9,0,0,0,3.249-2.264c3.462-2.93,3.462-24.2.346-29.935a16.581,16.581,0,0,0-14.9-8.815C96.846,5.61,93.9,8.34,91.52,10.551c-1.771,1.638-3.249,3.01-4.7,2.77C84.861,13,83.876,10.8,82.824,8.433c-1.025-2.3-2.117-4.754-4.248-5.779C75.713,1.256,63.888-.182,59.427,0Z"
            transform="translate(0 0)" fill="#fbf6ee" fill-rule="evenodd" />
        <path id="Path_4336" data-name="Path 4336"
            d="M164.438,111.253l10.547-8.549a4.857,4.857,0,0,0,1.811-3.782V86.9a6.825,6.825,0,0,0-13.649-.013c-.027.133-.439.653-1.585,1.105a6.906,6.906,0,0,1-3.2.506l-12.5-1.944c-2.2-.333-2.57-1.478-2.57-3.928V80.559a6.064,6.064,0,0,0-6.059-6.059H118.15a6.064,6.064,0,0,0-6.059,6.059v2.064c0,.959-.346,3.223-3.529,3.7l-11.545,2.2a6.783,6.783,0,0,1-3.169-.506c-1.145-.453-1.571-.972-1.6-1.105a6.825,6.825,0,0,0-8.882-6.5A6.805,6.805,0,0,0,78.6,86.924V98.936a4.845,4.845,0,0,0,1.8,3.782l10.547,8.549a7.006,7.006,0,0,1,2.6,5.46v46.98a16.7,16.7,0,0,1-5.806,12.651l-1.079.932a12.067,12.067,0,0,0-4.195,9.148v3.649l-2.823,5.646a9.985,9.985,0,0,0-1.039,4.421v2.637a6.956,6.956,0,0,0,6.951,6.951h84.28a6.956,6.956,0,0,0,6.951-6.951v-2.65a9.942,9.942,0,0,0-1.039-4.421l-2.823-5.646v-3.649a12.067,12.067,0,0,0-4.195-9.148l-1.079-.932a16.676,16.676,0,0,1-5.806-12.651v-46.98A7.006,7.006,0,0,1,164.438,111.253Zm-66.982,1.132.613-.12c1.385-.266,2.783-.479,4.181-.706,1.4-.2,2.81-.4,4.208-.559.706-.093,1.412-.16,2.117-.24h.04c.945-.067,1.9-.12,2.85-.173.08,0,.173-.013.253-.013a4.248,4.248,0,0,1,2.956,1.172,4.4,4.4,0,0,1,1.358,3.263l-.027,5.193a4.918,4.918,0,0,1-1.4,3.369,5.028,5.028,0,0,1-3.329,1.558c-3.862.213-7.777.506-11.625.852a4.224,4.224,0,0,1-2.25-.373V116.7a10.851,10.851,0,0,0-.653-3.715A6.2,6.2,0,0,1,97.456,112.385Zm50.549,58.659a4.452,4.452,0,0,1-3.369,1.225c-3.915-.186-7.9-.293-11.838-.333a4.749,4.749,0,0,1-4.741-4.687l.013-5.193a4.683,4.683,0,0,1,4.674-4.661h.053c3.9.04,7.857.16,11.732.333a5.057,5.057,0,0,1,4.767,4.967l.027,5.193A4.243,4.243,0,0,1,148.005,171.044Zm-42.293-2.89.04-5.193a5.147,5.147,0,0,1,4.781-5.02c3.888-.226,7.83-.386,11.732-.466h.107a4.578,4.578,0,0,1,3.209,1.3,4.485,4.485,0,0,1,1.372,3.289l-.013,5.193A4.833,4.833,0,0,1,122.185,172c-3.928.08-7.9.24-11.825.466A4.411,4.411,0,0,1,107,171.284,4.269,4.269,0,0,1,105.712,168.155ZM138.058,114.9l.013,5.193a4.5,4.5,0,0,1-1.345,3.236,4.6,4.6,0,0,1-3.316,1.318c-3.875-.053-7.79-.027-11.665.067a4.559,4.559,0,0,1-3.3-1.278,4.391,4.391,0,0,1-1.318-3.223l.027-5.193a4.856,4.856,0,0,1,4.674-4.834c2.517-.053,5.074-.093,7.617-.093,1.318,0,2.637.013,3.955.027A4.779,4.779,0,0,1,138.058,114.9Zm-15.687,11.079h.107a4.464,4.464,0,0,1,3.156,1.292,4.61,4.61,0,0,1,1.385,3.316l-.013,5.193a4.729,4.729,0,0,1-1.385,3.316,4.818,4.818,0,0,1-3.329,1.438,2.786,2.786,0,0,0-.333.013h-.306c-3.462.08-6.965.226-10.413.413h-.04c-.093,0-.2.013-.293.013a2.458,2.458,0,0,1-.306.013,4.382,4.382,0,0,1-3.3-1.172,4.239,4.239,0,0,1-1.305-3.156l.04-5.193a5.12,5.12,0,0,1,4.727-5.02C114.608,126.221,118.509,126.075,122.371,125.981Zm-5.38,20.521a4.874,4.874,0,0,1,4.674-4.834,2.9,2.9,0,0,0,.333-.013c2.477-.053,4.954-.093,7.444-.093,1.238,0,2.477.013,3.715.027h.28a4.787,4.787,0,0,1,4.661,4.781l.013,5.193a4.478,4.478,0,0,1-1.332,3.223,4.674,4.674,0,0,1-3.369,1.345c-3.915-.053-7.87-.027-11.772.067a4.63,4.63,0,0,1-3.356-1.3,4.413,4.413,0,0,1-1.318-3.209Zm16.459-6.019h-.639a4.72,4.72,0,0,1-4.687-4.687l.013-5.193a4.653,4.653,0,0,1,1.4-3.329,4.568,4.568,0,0,1,3.276-1.332c3.862.04,7.777.146,11.625.333a5.027,5.027,0,0,1,4.714,4.954l.027,5.193a4.331,4.331,0,0,1-1.318,3.169,4.462,4.462,0,0,1-3.316,1.212c-.093,0-.2-.013-.293-.013s-.213-.013-.306-.013h-.053C140.415,140.616,136.926,140.523,133.45,140.483Zm-36.048-13c.985-.093,1.971-.2,2.956-.28.133-.013.28-.013.413-.013a4.12,4.12,0,0,1,2.81,1.079,4.182,4.182,0,0,1,1.332,3.183l-.04,5.193a5.145,5.145,0,0,1-1.412,3.436,5.256,5.256,0,0,1-3.356,1.678c-.093.013-.2.013-.293.027s-.2.013-.306.027h-.053l-2.051.2Zm0,16.193a5.034,5.034,0,0,1,2.144-.746l.413-.04c3.649-.333,7.337-.6,10.986-.812.133,0,.266-.013.4-.013h.173a4.339,4.339,0,0,1,4.368,4.421l-.027,5.193a4.847,4.847,0,0,1-1.412,3.369,5.122,5.122,0,0,1-3.356,1.558c-3.9.213-7.857.506-11.745.866a4.651,4.651,0,0,1-1.931-.226V143.679Zm46.581,12.757a5,5,0,0,1-4.754-4.861l-.013-5.193a4.436,4.436,0,0,1,4.607-4.488c.12,0,.24.013.36.013,3.675.173,7.4.4,11.079.692.107.013.213.013.32.027a5.065,5.065,0,0,1,2.384.866v13.3a4.419,4.419,0,0,1-2.224.373C151.841,156.849,147.886,156.6,143.984,156.436Zm14-14.741-2.29-.2h-.04a1.786,1.786,0,0,0-.266-.013c-.12-.013-.226-.013-.346-.027a5.217,5.217,0,0,1-4.754-5.047l-.027-5.193a4.3,4.3,0,0,1,1.345-3.209,4.178,4.178,0,0,1,3.236-1.092c1.039.08,2.091.173,3.129.266v14.515Zm0-24.982v8.469a4.421,4.421,0,0,1-2.437.493c-3.862-.306-7.79-.559-11.652-.732a4.967,4.967,0,0,1-4.7-4.861l-.013-5.193a4.463,4.463,0,0,1,1.372-3.276,4.4,4.4,0,0,1,2.211-1.132c.639.053,1.292.107,1.931.173,2.823.253,5.646.6,8.443,1,1.758.266,3.516.546,5.26.866.107.093.2.2.306.306A10.661,10.661,0,0,0,157.979,116.713ZM97.4,163.694v-4.741c.879-.093,1.758-.173,2.637-.253.133-.013.28-.013.426-.013a4.121,4.121,0,0,1,2.85,1.092,4.2,4.2,0,0,1,1.332,3.169l-.04,5.193h0a5.32,5.32,0,0,1-3.8,4.914c-.08,0-.16.013-.253.013-1.864.107-3.729.226-5.606.36A20.464,20.464,0,0,0,97.4,163.694Zm57.554,9.2a5.234,5.234,0,0,1-2.757-1.278l-1-1.185a4.909,4.909,0,0,1-.759-2.557l-.027-5.193a4.363,4.363,0,0,1,1.345-3.2,4.257,4.257,0,0,1,3.289-1.105l2.916.24v5.06a20.4,20.4,0,0,0,2.3,9.441C158.5,173.055,156.728,172.975,154.957,172.9ZM84.526,84.088a2.92,2.92,0,0,1,2.65.426,2.928,2.928,0,0,1,1.212,2.4,4.335,4.335,0,0,0,1.691,3.342,10.478,10.478,0,0,0,7.577,2.077l11.519-2.184a7.46,7.46,0,0,0,6.778-7.51V80.572a2.2,2.2,0,0,1,2.2-2.2h19.069a2.2,2.2,0,0,1,2.2,2.2v2.064a9.689,9.689,0,0,0,.732,4.235,6.312,6.312,0,0,0,5.1,3.516l12.464,1.944a10.54,10.54,0,0,0,7.577-2.077,4.317,4.317,0,0,0,1.691-3.342,2.947,2.947,0,0,1,1.212-2.4A2.969,2.969,0,0,1,172.92,86.9V97.391c-3.236-.413-6.445-.772-9.681-1.079-3.942-.386-7.9-.706-11.838-.959-.985-.067-1.971-.12-2.956-.173s-1.971-.12-2.956-.173c-1.971-.093-3.955-.2-5.926-.253l-2.983-.08-2.97-.067c-1.971-.053-3.955-.04-5.939-.067s-3.955.013-5.939.013c-1.971.04-3.955.08-5.926.146-3.955.107-7.91.306-11.852.546-.985.053-1.971.133-2.956.2l-1.478.107-1.478.12c-1.971.146-3.942.333-5.926.533s-3.942.413-5.926.652c-.985.107-1.971.253-2.956.386-.266.04-.519.067-.772.107V86.884A2.908,2.908,0,0,1,84.526,84.088Zm-1.7,15.62a.16.16,0,0,1-.067-.067c.293-.067.586-.133.879-.213.959-.213,1.918-.426,2.876-.626s1.931-.386,2.9-.559,1.944-.346,2.9-.506c1.944-.306,3.888-.6,5.846-.852.972-.133,1.958-.253,2.93-.36s1.958-.226,2.943-.32l2.943-.28c.985-.093,1.971-.146,2.956-.226,1.971-.16,3.942-.253,5.913-.36.985-.053,1.971-.067,2.956-.107l2.956-.093,2.956-.04c.985-.013,1.971-.04,2.956-.013,7.9.053,15.78.439,23.637,1.252,3.928.386,7.83.919,11.732,1.518.972.146,1.944.32,2.916.479s1.931.346,2.9.533c1.238.24,2.49.493,3.715.772l-.027.027L162,108.257a10.738,10.738,0,0,0-2.064,2.2c-2.211-.253-4.394-.453-6.6-.639-2.85-.24-5.7-.453-8.549-.613s-5.7-.306-8.549-.373c-2.85-.093-5.7-.133-8.549-.146l-4.275.013c-1.425.027-2.85.053-4.275.093-2.85.067-5.7.2-8.549.346q-2.137.12-4.275.28c-1.425.093-2.85.213-4.275.346s-2.85.266-4.275.413c-.719.067-1.425.16-2.144.24-.067.013-.133.013-.2.027a10.908,10.908,0,0,0-2.037-2.184Zm90.1,100.433v2.637a3.092,3.092,0,0,1-3.089,3.089H85.551a3.092,3.092,0,0,1-3.089-3.089v-2.637a6.058,6.058,0,0,1,.639-2.69l3-5.979c.373-.067.746-.133,1.119-.186.879-.133,1.771-.266,2.663-.386,1.784-.24,3.569-.426,5.367-.6s3.6-.306,5.393-.439,3.609-.213,5.406-.32c3.609-.186,7.218-.293,10.826-.386,3.609-.053,7.218-.093,10.84-.093,3.609.027,7.231.053,10.84.146s7.218.213,10.826.426c3.609.173,7.2.439,10.8.772,1.8.173,3.582.36,5.367.586.892.12,1.784.226,2.663.36.373.053.759.12,1.132.173l2.97,5.939A6.117,6.117,0,0,1,172.92,200.141Zm-3.862-13.716v2.717l-.653-.04c-.906-.053-1.824-.093-2.73-.133-1.824-.067-3.635-.133-5.446-.173-3.622-.107-7.244-.16-10.853-.213s-7.231-.08-10.853-.093l-5.42-.027h-5.42c-3.622,0-7.231-.013-10.84.013-1.811-.013-3.609.013-5.42.013l-5.42.04-5.433.08c-1.811.013-3.622.067-5.433.12s-3.622.107-5.446.186c-.906.04-1.824.08-2.73.133l-.639.04v-2.663a8.189,8.189,0,0,1,2.85-6.219l1.079-.932a19.828,19.828,0,0,0,2.237-2.25,22.237,22.237,0,0,1,3.942-1.6q2.137-.3,4.275-.559c2.97-.346,5.939-.639,8.909-.852,1.491-.107,2.983-.226,4.474-.293l2.237-.12,2.237-.093c1.491-.067,2.983-.08,4.474-.12,1.491-.013,2.983-.04,4.488-.04,5.979.027,11.958.213,17.911.613,2.983.186,5.952.439,8.935.732l3.382.36a23.047,23.047,0,0,1,5.007,1.824,19.8,19.8,0,0,0,2.344,2.384l1.079.932A8.173,8.173,0,0,1,169.059,186.425Z"
            transform="translate(-68.084 -64.615)" fill="#724335" />
    </g>
</svg>