<svg xmlns="http://www.w3.org/2000/svg" width="222.119" height="215.102"
    viewBox="0 0 222.119 215.102">
    <path id="Path_5" data-name="Path 5"
        d="M251.605,1149.992c.194,4.075-2.285,6.146-5.905,4.878-3.858-1.4-7.151-3.04-9.11-7.5-5.446-12.427-15.193-21.631-25.213-30.451-7.062-6.231-14.246-12.378-19.883-19.961-2.931-3.943-7.583-5.529-10.92-8.786-5.588-5.462-11.022-11.108-16.544-16.654-7.706-7.717-15.748-15.117-23.093-23.135-7.212-7.9-15.246-14.912-22.228-23.065-9.3-10.874-19.872-20.671-29.952-30.887-6.011-6.139-11.211-12.967-17.806-18.489-3.946-3.3-7.124-7.507-12.024-9.646a10.837,10.837,0,0,1-5.067-4.809c-2.649-4.877-5.712-9.217-10.231-12.515-1.081-.781-1.863-2.088-.813-3.359a3.4,3.4,0,0,1,4.255-1.025c3.9,2.114,7.848,4.472,9.542,8.77,1.3,3.3,3.381,5.418,6.051,7.744,6.85,5.964,13.3,12.382,19.606,18.986,7.063,7.456,13.948,15.3,21.936,22.128,6.533,5.594,12.218,12.706,18.362,19.056,7.063,7.28,13.33,15.25,21.064,21.923,11.66,10.089,21.72,21.849,32.83,32.455,11.663,11.175,21.769,23.937,34.86,33.726,5.6,4.193,10.265,9.655,15.077,14.816,6.437,6.866,12.967,13.63,20.807,18.943A9.652,9.652,0,0,1,251.6,1150Zm-4.509-.133c-.407-1.52-1.1-2.64-2.485-2.64-.777,0-.733,1.136-.635,1.821.176,1.169.16,2.7,2.013,2.289.484-.118.8-1.036,1.1-1.47Z"
        transform="translate(-37.712 -941.86)" />
    <path id="Path_9" data-name="Path 9"
        d="M246.312,1127.1a5.835,5.835,0,0,1-.985,2.828,5.964,5.964,0,0,1-2.262,1.987c-1.977,1.07-3.531-.233-4.793-1.6-3.292-3.691-5.905-7.9-9.55-11.409-10.992-10.407-21.936-20.846-32.664-31.487-12.985-12.828-25.6-26.058-39.293-38.168a24.277,24.277,0,0,1-4.6-5.328,44.812,44.812,0,0,0-12.518-12.706,52.293,52.293,0,0,1-13.806-13.7c-2.9-4.385-8.033-6.71-11.52-10.589-8.871-9.91-18.282-19.295-26.863-29.51a94.78,94.78,0,0,0-18.049-16.094c-4.8-3.368-8.122-8.033-12.65-11.532-1.677-1.306-3.231-3.183-1.412-5.324,1.527-1.754,3.832-1.606,5.808-.694a9.4,9.4,0,0,1,2.966,2.509c16.057,18.926,34.6,35.526,50.972,54.181,6.506,7.41,14.539,13.507,21.8,20.257a70.251,70.251,0,0,1,5.951,6.246c3.849,4.6,7.291,9.509,12.73,12.59a22.675,22.675,0,0,1,5.145,4.777c17.269,19.209,36.018,37,54.212,55.256,8,8.05,16.72,15.685,27.058,21.046A9.416,9.416,0,0,1,246.312,1127.1Z"
        transform="translate(-29.394 -942.606)" />
    <path id="Path_13" data-name="Path 13"
        d="M232.521,1146.175c-.16,1.587-1.352,2.138-2.648,2.456-2.384.567-4.971.865-6.233-1.754a24.286,24.286,0,0,0-3.726-5.913c-14.327-15.853-28.891-31.47-44.386-46.22-2.462-2.338-5.11-4.646-6.946-7.433-2.411-3.674-5.748-5.93-9.481-7.888-1.621-.885-3.629-1.169-4.59-2.857-5.079-8.936-14.689-13.865-20-22.567-2.918-4.777-7.751-7.734-11.653-11.575a80.188,80.188,0,0,1-8.934-9.822c-5.535-7.681-13.365-13.161-19.73-20.09-6.483-7.015-13.63-13.575-20.808-19.969-7.009-6.252-13.241-13.276-19.845-19.862a19.437,19.437,0,0,0-6.682-3.983c-3.823-1.56-5.341-4.806-6-8.586-.291-1.665.062-3.262,1.766-3.866s2.648.483,3.407,2.139c2.392,5.016,7.221,7.971,11.114,11.562,10.77,9.919,21.071,20.24,31.12,30.869,5.879,6.219,13.409,10.865,18.91,17.541a367.726,367.726,0,0,0,30.782,32.137c14.761,13.948,28.037,29.316,43.071,42.963,8,7.283,16.473,14.449,22.4,23.82a10.47,10.47,0,0,0,3.036,3.558c9.6,5.712,15.555,15.268,23.95,22.233C231.427,1143.934,232.644,1144.6,232.521,1146.175Z"
        transform="translate(-38.775 -933.914)" />
    <path id="Path_19" data-name="Path 19"
        d="M70.78,942.848a6.77,6.77,0,0,1,6.771,3.674c8,13.795,20.763,23.214,31.78,34.2a53.2,53.2,0,0,1,5.9,6.2,41.756,41.756,0,0,0,10.451,10.525c7.5,4.971,11.98,12.865,18.4,18.942,16.666,15.785,32.741,32.138,49.259,48.056,8.271,7.968,15.827,16.654,24.841,23.887,3.849,3.089,7.467,6.431,11.838,8.886,1.986,1.1,3.531,3.074,5.147,4.761,1.926,1.987,2.2,4.243,0,6.13s-4.646,2.255-6.916-.2c-3.194-3.458-7.309-6.381-9.509-10.356-4.856-8.787-13.393-13.8-20.048-20.663-4.149-4.293-8.395-8.5-12.545-12.811-5.755-6-11.886-11.642-18.079-17.222-6.974-6.247-12.427-14.13-20.56-19.154-8.827-13.426-22.21-22.573-32.892-34.3-6.55-7.191-13.5-14.566-22-19.873-1.554-.964-1.766-2.445-2.648-3.578-2.9-3.586-5.619-7.067-10.646-8.656-6.629-2.113-9.887-8.26-12.4-14.294C65.66,943.838,68.793,943.365,70.78,942.848Z"
        transform="translate(-21.148 -942.808)" />
    <path id="Path_48" data-name="Path 48"
        d="M83.023,943.709c3.072.359,6.18.878,7.662,3.621,4.008,7.564,10.7,12.682,16.331,18.812,9.551,10.373,19.819,20.03,29.572,30.193,15.56,16.225,32.389,31.178,48.552,46.813,5.041,4.863,10.231,9.638,15.008,14.833a56.264,56.264,0,0,0,12.668,10.19c5.058,3.006,9.313,7.383,13.779,11.308,1.518,1.32,3.417,3.073,1.491,5.261a4.592,4.592,0,0,1-1.487,1.3,4.741,4.741,0,0,1-1.9.567,4.9,4.9,0,0,1-1.962-.267,4.72,4.72,0,0,1-1.669-1.07,95.884,95.884,0,0,1-9.455-9.3c-5-5.7-11.38-9.922-16.386-15.518-11.687-13.028-26.173-23.172-37.632-36.415-3.761-4.385-8.254-8.006-12.4-11.943-10.778-10.253-20.569-21.451-31.259-31.713-9-8.637-17.073-18.214-26.712-26.222a36.152,36.152,0,0,1-6.117-7.069C79.625,945.041,80.587,943.744,83.023,943.709Z"
        transform="translate(-11.762 -942.205)" />
    <path id="Path_77" data-name="Path 77"
        d="M187.74,1127.982c-.222,1.086-.725,2.038-1.881,2.205-.687.1-1.845,0-2.108-.484-3.072-5.111-9.429-6.548-12.616-11.86a60.362,60.362,0,0,0-11.264-12.995c-9.87-8.936-18.262-19.377-28.813-27.628-2.833-2.222-4.793-5.511-7.406-8.069-9.667-9.42-19.783-18.407-29.067-28.213-8.625-9.07-16.817-18.558-26.024-27.077-7.78-7.191-13.8-16.3-23.721-21.2-2.4-1.189-3.328-3.945-4.246-6.419-.468-1.272-.635-2.736.741-3.458a3.116,3.116,0,0,1,3.682.456c2.066,2.325,3.681,5.07,5.862,7.271,6.591,6.656,13.419,13.092,20.065,19.705,12.765,12.694,25.017,25.957,38.339,38.036,9.163,8.3,16.826,17.938,26.483,25.89,11.759,9.638,21.8,21.415,32.5,32.356,4.881,4.994,10.849,9.1,13.363,16.119.648,1.754,3.02,1.872,4.484,2.907C186.929,1126.078,187.846,1126.73,187.74,1127.982Z"
        transform="translate(-39.122 -916.276)" />
    <path id="Path_105" data-name="Path 105"
        d="M166.917,1118.164c-.353,2.593-1.863,3.291-3.965,2.907-2.232-.417-3.35-2.322-4.811-3.825-8.942-9.1-18.115-17.99-26.872-27.261-15.157-16.036-31.833-30.535-46.945-46.637-7.063-7.564-14.345-15.217-23.385-20.747a8.333,8.333,0,0,1-2.886-2.572c-2.8-4.878-7.063-8.219-11.291-11.793-3.116-2.623-6.523-5.459-6.7-10.178-.053-1.35.15-2.631,1.537-3.262a2.389,2.389,0,0,1,1.928-.009,2.363,2.363,0,0,1,1.3,1.421c2.013,4.569,6.091,7.016,9.816,9.872,2.154,1.637,4.317,3.14,1.766,6.13a1.326,1.326,0,0,0-.392.669,1.271,1.271,0,0,0,.04.756,1.284,1.284,0,0,0,.458.618,1.414,1.414,0,0,0,.724.267c7.38.417,11.476,6.381,15.678,10.658,11.3,11.576,23.835,21.915,34.517,34.026,8.828,10.04,18.989,18.694,28.346,28.146,5.676,5.763,11.334,11.454,16.605,17.556,3.242,3.742,7.608,6.213,11.582,9.12C165.514,1115.158,166.811,1116.361,166.917,1118.164Z"
        transform="translate(-39.256 -908.095)" />
    <path id="Path_134" data-name="Path 134"
        d="M74.324,1001.4c2.7-.05,4.564,1.754,5.905,3.508,7.627,9.638,17.92,16.8,25.326,26.626a37.234,37.234,0,0,0,7.309,7.015c8.7,6.765,14.874,16.1,23.384,23.016,7.293,5.943,12.659,13.681,19.906,19.693,5.766,4.777,10.761,10.523,15.723,16.186a160.351,160.351,0,0,0,15.814,16.119c1.244,1.052,1.687,1.987.883,3.207a2.341,2.341,0,0,1-1.258.886,2.407,2.407,0,0,1-1.532-.1,8.734,8.734,0,0,1-4.755-2.538c-12.765-15.485-27.048-29.516-41.966-42.879-6-5.378-10.69-12.027-17.461-16.721-3.258-2.255-5.253-6.213-8.069-9.27-8.828-9.555-19.139-17.689-27.145-28.062a26.515,26.515,0,0,0-5.95-5.012,29.914,29.914,0,0,1-7.4-8.018C71.914,1003.3,72.453,1002.069,74.324,1001.4Z"
        transform="translate(-17.179 -903.531)" />
    <path id="Path_143" data-name="Path 143"
        d="M94.583,946.2c5.6-.588,8.668,2.332,11.547,5.175,15.582,15.372,30.9,31,46.6,46.26,14.327,13.926,29.13,27.388,43.476,41.278,5.085,4.927,10.09,9.788,16.508,12.995a8.955,8.955,0,0,1,2.347,1.987c2.985,3.242,3.469,6.347,1.051,8.168-3.444,2.573-5.359-.367-7.018-2.555-3.964-5.212-8.721-9.588-13.542-14.031-6.709-6.13-12.791-12.982-19.165-19.5-8.924-9.12-18.847-17.181-27.729-26.372-13.241-13.689-27.2-26.667-40.766-40.043C103.7,955.45,98.1,952.73,94.583,946.2Z"
        transform="translate(-2.101 -940.589)" />
    <path id="Path_162" data-name="Path 162"
        d="M109.756,944.47a6.418,6.418,0,0,1,5.295,2.693C125.089,959.6,137.121,970.1,148.6,981.18c2.816,2.728,5.924,5.187,8.448,8.166,11.238,13.215,25.531,23.154,37.872,35.185a23.044,23.044,0,0,0,5.905,3.814,16.58,16.58,0,0,1,7.811,7.456c.953,1.98.883,4.117-1.261,5.554s-3.9.985-5.394-1.07c-10.215-14.1-25.017-23.6-36.759-36.231-12.051-12.954-24.99-25.091-37.82-37.306-6.232-5.93-13.1-11.193-19.666-16.769-1.13-.955-3-1.7-2.039-3.621C106.42,944.811,108.166,944.637,109.756,944.47Z"
        transform="translate(5.29 -941.694)" />
    <path id="Path_174" data-name="Path 174"
        d="M42.7,1009.08a10.073,10.073,0,0,1,2.5,1.369c2.278,2.138,4.979,4.092,6.515,6.7,6.365,10.774,17.4,16.425,26.351,24.322.756.668,2.286.768,2.648,1.536,4.414,9.222,13.692,13.982,20.145,21.33,1.571,1.754,3.063,4.461,6.392,3.624a1.332,1.332,0,0,1,.573-.067,1.557,1.557,0,0,1,.553.15,1.6,1.6,0,0,1,.445.368,1.488,1.488,0,0,1,.266.517c2.918,8.469,10.523,13.046,16.332,19.075,6.108,6.331,11.185,13.7,18.538,18.859a2.606,2.606,0,0,1,.706.684,2.556,2.556,0,0,1,.385.918,2.519,2.519,0,0,1-.377,1.905c-1.1,1.837-2.9,1.353-4.051.35a95.942,95.942,0,0,1-10.77-10.089c-6.938-8.185-15.227-15.034-22.432-22.884-7.945-8.653-16.857-16.186-25.229-24.338q-15.7-15.259-31.886-30c-2.136-1.955-2.384-6.063-7.063-5.7-1.588.134-3.134-3.207-3.081-5.746a2.83,2.83,0,0,1,2.542-2.888Z"
        transform="translate(-39.186 -898.381)" />
    <path id="Path_240" data-name="Path 240"
        d="M121.875,1101.194c-.292,1.888-1.386,1.987-2.384,1.687a11.744,11.744,0,0,1-6.692-5.178,39.053,39.053,0,0,0-9.322-9.989c-4.838-3.875-9-8.57-13.392-12.979-14.7-14.716-29.537-29.3-46.221-41.843-3.425-2.573-3.637-6.08-4.264-9.554a3.1,3.1,0,0,1,2.593-3.424c1.642-.417,2.366.864,2.9,2.038a11.682,11.682,0,0,1,1.527,6.532c-.4,3.776,3.84-.351,5.187,2.1a24.712,24.712,0,0,0,4.582,5.261c2.428,2.339,4.935,4.661,7.592,6.765,10.99,8.687,19.951,19.495,30.553,28.682,9.464,8.2,16.957,18.759,26.218,27.477a7.066,7.066,0,0,1,1.118,2.422Z"
        transform="translate(-39.579 -891.173)" />
    <path id="Path_264" data-name="Path 264"
        d="M198.4,1017.087c.124,1.333.054,2.63-1.138,3.507a3.419,3.419,0,0,1-4.36-.4c-2.365-2.053-4.98-4.088-6.55-6.692-1.945-3.235-4.582-5.632-7.194-8.165-13.831-13.427-27.614-26.915-41.494-40.288-4.14-3.982-8.58-7.647-12.888-11.463-1.563-1.386-3.134-2.763-4.68-4.174s-2.692-3.016-1.119-4.71,3.919-1.5,5.71,0a28.787,28.787,0,0,1,3.683,4.052c9.251,11.4,20.091,21.205,30.659,31.337,6.771,6.5,13.744,12.786,20.4,19.381a59.516,59.516,0,0,0,14.556,10.524C197.913,1012.057,198.443,1012.864,198.4,1017.087Z"
        transform="translate(14.01 -942.342)" />
    <path id="Path_328" data-name="Path 328"
        d="M191.839,1003.076c-.216,1.114,0,2.7-1.439,3.183a3.232,3.232,0,0,1-3.858-2c-2.648-7.78-9.455-12.12-14.575-17.794A265.085,265.085,0,0,0,140.8,957.157c-3.653-2.927-7.062-6.191-10.512-9.358-.937-.877-1.96-1.972-1.024-3.35,1.081-1.587,2.648-1.57,4.121-.605a33.331,33.331,0,0,1,4.989,3.77c8.561,8.394,16.922,16.988,25.6,25.275A157.92,157.92,0,0,0,180.53,987.22c2.534,1.837,4.847,3.956,7.274,5.937C190.886,995.71,191.566,999.253,191.839,1003.076Z"
        transform="translate(21.283 -942.561)" />
    <path id="Path_374" data-name="Path 374"
        d="M88.631,1014.735a8.4,8.4,0,0,1-1.175,2.253c-.688.648-1.554.115-2.136-.333-2.286-1.754-4.873-3.254-6.665-5.413-9.411-11.277-19.845-21.327-32.548-28.939-3.646-2.2-6.18-5.588-5.791-10.331.115-1.368.477-2.63,1.96-3.026a2.787,2.787,0,0,1,2.746,1.1,2.444,2.444,0,0,1,.512.588c2.136,4.911,6.383,7.709,10.249,11.137,5.022,4.447,9.71,9.374,14.681,13.918,4.052,3.674,7.945,7.541,11.873,11.33A31.835,31.835,0,0,1,88.631,1014.735Z"
        transform="translate(-39.104 -925.314)" />
    <path id="Path_509" data-name="Path 509"
        d="M56.125,1051.228c3.84-1.07,6.629.952,8.924,3.458,1.4,1.537,3.072,2.873,4.3,4.442a86.02,86.02,0,0,0,14.62,14.137,11,11,0,0,1,2.534,3.875c.574,1.136,1.033,2.539-.565,3.341a2.6,2.6,0,0,1-1.552.15,2.484,2.484,0,0,1-1.335-.8c-8.581-8.368-17.162-16.721-25.6-25.223-.794-.784-.733-2.405-1.069-3.641Z"
        transform="translate(-28.306 -870.322)" />
    <path id="Path_511" data-name="Path 511"
        d="M42.99,1046.267c2.843,2.038,7.662.417,8.828,6.147.75,3.792,4.37,6.9,7.9,9.354,1.677,1.169,3.531,3.006,1.651,5.212-1.977,2.338-4.034,1.353-6.021-.519-3.991-3.757-8.192-7.3-12.182-11.057-1.95-1.837-3.267-4.106-2.746-7.016C40.633,1046.986,41.313,1046,42.99,1046.267Z"
        transform="translate(-39.084 -873.481)" />
    <path id="Path_515" data-name="Path 515"
        d="M67.468,1062.145c-6.832.1-10.408-5.429-14.522-9.237-3.35-3.107-6.083-7.016-9.763-9.956a10.962,10.962,0,0,1-2.86-3.608,3.43,3.43,0,0,1,.254-3.876,3.3,3.3,0,0,1,1.044-.885,2.74,2.74,0,0,1,3.849,1.671c3.055,7.634,11.061,10.942,15.21,17.539,1.042,1.654,2.516,1.538,3.849,2.172,2.763,1.336,3.646,3.508,2.7,6.448Z"
        transform="translate(-39.401 -881.507)" />
    <path id="Path_565" data-name="Path 565"
        d="M148.533,947.977c8.767,6.84,16.492,14.524,25.028,21.294,1.342,1.061,1.959,2.534.66,4.042-1.059,1.228-2.418.79-3.531,0-1.279-.877-3.054-1.755-3.531-3.017-2.1-5.885-7.512-8.286-11.864-11.813C151.924,955.765,148.693,952.9,148.533,947.977Z"
        transform="translate(34.663 -939.344)" />
    <path id="Path_574" data-name="Path 574"
        d="M175.763,962.756a3.549,3.549,0,0,1-.614,1.818,3.586,3.586,0,0,1-1.47,1.243,2.429,2.429,0,0,1-2.843-.658c-.176-.192-.432-.359-.511-.587-2.843-7.895-9.517-12.006-15.992-16.375-1.325-.876-2.154-2.366-.883-4.007a1.992,1.992,0,0,1,2.806-.421c7.645,4.8,13.692,11.27,19.234,18.262A2.877,2.877,0,0,1,175.763,962.756Z"
        transform="translate(37.581 -942.431)" />
    <path id="Path_623" data-name="Path 623"
        d="M42.336,1057.97c.459.15,1.386.167,1.854.634,4.715,4.728,9.807,9.137,12.977,15.151.648,1.237.618,2.539-.944,3.157a1.727,1.727,0,0,1-.766.133,1.984,1.984,0,0,1-.756-.166,1.947,1.947,0,0,1-.623-.468,2.046,2.046,0,0,1-.385-.668c-.451-6.214-6.339-6.564-9.985-9.155-2.41-1.754-3.6-3.591-3.478-6.375a2.285,2.285,0,0,1,2.11-2.238Z"
        transform="translate(-39.146 -865.606)" />
    <path id="Path_681" data-name="Path 681"
        d="M165.839,943.116c2.833.245,4,2.069,4.237,4.595.2,2.183-.362,4.455-2.86,4.646-3.242.256-4.308-2.464-4.811-5.007S163.517,943.615,165.839,943.116Z"
        transform="translate(44.052 -942.603)" />
    <path id="Path_776" data-name="Path 776"
        d="M65.27,1071.07c-3.4-1.353-5.95-1.754-7.707-3.775-.821-.973-1.633-2.188-.6-3.424a2.512,2.512,0,0,1,1.707-.865,2.571,2.571,0,0,1,1.824.585C62.661,1065.074,64.166,1067.145,65.27,1071.07Z"
        transform="translate(-28.066 -862.236)" />
    <path id="Path_813" data-name="Path 813"
        d="M173.557,1038.61c0,1.37-.3,2.79-1.96,2.506a3.4,3.4,0,0,1-2.648-3.274,2.131,2.131,0,0,1,2.181-2.539C172.85,1035.453,173.557,1036.906,173.557,1038.61Z"
        transform="translate(48.562 -880.805)" />
</svg>
  