<svg xmlns="http://www.w3.org/2000/svg" version="1.1" xmlns:xlink="http://www.w3.org/1999/xlink" xmlns:svgjs="http://svgjs.com/svgjs" width="512" height="512" x="0" y="0" viewBox="0 0 32 32" style="enable-background:new 0 0 512 512" xml:space="preserve" class=""><g><path d="M26,31a1,1,0,0,1-.573-.181L16,24.221l-9.427,6.6A1,1,0,0,1,5,30V5.8A4.805,4.805,0,0,1,9.8,1H22.2A4.805,4.805,0,0,1,27,5.8V30a1,1,0,0,1-1,1ZM16,22a1,1,0,0,1,.573.181L25,28.079V5.8A2.8,2.8,0,0,0,22.2,3H9.8A2.8,2.8,0,0,0,7,5.8V28.079l8.427-5.9A1,1,0,0,1,16,22Z" fill="#000000" data-original="#000000" class=""></path></g></svg>