<svg id="Layer_1" enable-background="new 0 0 128 128" height="512" viewBox="0 0 128 128" width="512" xmlns="http://www.w3.org/2000/svg"><path id="Equalizer_1_" d="m112 24h-48.568c-1.789-6.881-7.999-12-15.432-12s-13.643 5.119-15.432 12h-16.568c-2.209 0-4 1.791-4 4s1.791 4 4 4h16.568c1.789 6.881 7.999 12 15.432 12s13.643-5.119 15.432-12h48.568c2.209 0 4-1.791 4-4s-1.791-4-4-4zm-64 12c-4.412 0-8-3.588-8-8s3.588-8 8-8 8 3.588 8 8-3.588 8-8 8zm64 24h-16.568c-1.789-6.881-7.999-12-15.432-12s-13.643 5.119-15.432 12h-48.568c-2.209 0-4 1.791-4 4s1.791 4 4 4h48.568c1.789 6.881 7.999 12 15.432 12s13.643-5.119 15.432-12h16.568c2.209 0 4-1.791 4-4s-1.791-4-4-4zm-32 12c-4.412 0-8-3.588-8-8s3.588-8 8-8 8 3.588 8 8-3.588 8-8 8zm32 24h-48.568c-1.789-6.881-7.999-12-15.432-12s-13.643 5.119-15.432 12h-16.568c-2.209 0-4 1.791-4 4s1.791 4 4 4h16.568c1.789 6.881 7.999 12 15.432 12s13.643-5.119 15.432-12h48.568c2.209 0 4-1.791 4-4s-1.791-4-4-4zm-64 12c-4.412 0-8-3.588-8-8s3.588-8 8-8 8 3.588 8 8-3.588 8-8 8z"/></svg>