<svg fill="none" height="512" viewBox="0 0 32 32" width="512" xmlns="http://www.w3.org/2000/svg"><path d="m16 3c-.625 0-1.2461.21094-1.7812.59375l-1.6563 1.15625-1.9063.25h-.0312l-.0312.03125c-1.27349.28516-2.27739 1.28906-2.56255 2.5625l-.03125.03125v.03125l-.25 1.9375-1.15625 1.50005-.03125.0312v.0312c-.69922 1.1172-.73047 2.5586.03125 3.625l1.1875 1.6563.3125 1.7187-3.21875 4.9063-1.03125 1.5313h4.78125l1.15625 2.6874.71875 1.7188 1.0312-1.5625 3.1563-4.75c.8477.3477 1.8047.3789 2.625 0l3.1563 4.75 1.0312 1.5625.7188-1.7188 1.1562-2.6874h4.7812l-1.0312-1.5313-3.125-4.75.25-1.875 1.1562-1.6563.0313-.0312v-.0312c.6992-1.1172.7305-2.5274-.0313-3.5938l-1.1562-1.65625-.375-1.875h.0312c-.0039-.02344-.0273-.03906-.0312-.0625-.1797-1.30859-1.2148-2.37109-2.5312-2.53125h-.0313l-1.875-.25-1.6563-1.15625c-.5351-.38281-1.1562-.59375-1.7812-.59375zm0 2.03125c.2305 0 .457.07031.625.1875l1.7812 1.28125.2188.15625.25.03125 2.1875.3125h.0313c.4492.05078.7617.36328.8124.8125v.0625l.4063 2.2188.0313.2187.1562.1875 1.2812 1.7812c.2383.3321.2696.8946-.0312 1.375l-1.4062 1.9688-.0313.25-.3125 2.1875v.0313c-.0195.164-.0742.3164-.1562.4374l-.0626.0313v.0313c-.1445.1718-.3437.2851-.5937.3124h-.0625l-2.2812.4063-.25.0313-.1876.1562-1.7812 1.2812c-.332.2383-.9258.2696-1.4062-.0312l-1.625-1.25-.1876-.1562-.2812-.0313-2.1875-.3125h-.0313c-.3085-.0352-.5468-.1953-.6874-.4375-.0626-.1094-.1094-.2383-.125-.375v-.0625l-.4063-2.2812-.03125-.25-.15625-.1876-1.28125-1.7812c-.23828-.332-.26953-.9258.03125-1.4062l1.25-1.625.15625-.1876.03125-.2812.28125-2.09375c.00391-.01563.02734-.01563.03125-.03125.125-.48828.5117-.875 1-1 .0156-.00391.0156-.02734.0312-.03125l2.0938-.28125.25-.03125.2188-.15625 1.7812-1.28125c.168-.11719.3945-.1875.625-.1875zm6.9062 15.21875 1.5313 2.3438h-2.4063l-.25.625-.6874 1.5937-2.125-3.25.4687-.3437 1.9687-.3438v.0312c.0235-.0039.0391-.0273.0626-.0312.539-.0742 1.0273-.3008 1.4374-.625zm-13.81245.0312c.42578.3829.96875.6485 1.56245.7188h.0313l1.9063.25.4374.3438-2.125 3.2187-.6874-1.5937-.25005-.625h-2.40625z" fill="rgb(0,0,0)"/></svg>