<svg fill="none" height="512" viewBox="0 0 24 24" width="512" xmlns="http://www.w3.org/2000/svg"><path clip-rule="evenodd" d="m11 4c-3.86599 0-7 3.13401-7 7 0 3.866 3.13401 7 7 7 3.866 0 7-3.134 7-7 0-3.86599-3.134-7-7-7zm-9 7c0-4.97056 4.02944-9 9-9 4.9706 0 9 4.02944 9 9 0 2.1242-.7359 4.0765-1.9666 5.6159l3.674 3.6773c.3904.3907.3901 1.0239-.0006 1.4142-.3907.3904-1.0239.3901-1.4142-.0006l-3.6731-3.6764c-1.5399 1.2325-3.4936 1.9696-5.6195 1.9696-4.97056 0-9-4.0294-9-9zm8-5c0-.55228.4477-1 1-1 3.3137 0 6 2.68629 6 6 0 .5523-.4477 1-1 1s-1-.4477-1-1c0-2.20914-1.7909-4-4-4-.5523 0-1-.44772-1-1z" fill="rgb(0,0,0)" fill-rule="evenodd"/></svg>