<svg id="Layer" height="512" viewBox="0 0 24 24" width="512" xmlns="http://www.w3.org/2000/svg"><path id="box" d="m21.287 6.882v-.007l-.009-.013a3.741 3.741 0 0 0 -1.755-1.622l-6-2.667a3.757 3.757 0 0 0 -3.046 0l-6 2.667a3.741 3.741 0 0 0 -1.753 1.622l-.009.013v.007a3.729 3.729 0 0 0 -.465 1.785v6.666a3.752 3.752 0 0 0 2.227 3.427l6 2.667a3.766 3.766 0 0 0 1.515.322h.016a3.766 3.766 0 0 0 1.515-.322l6-2.667a3.752 3.752 0 0 0 2.227-3.427v-6.666a3.729 3.729 0 0 0 -.463-1.785zm-10.2-2.938a2.25 2.25 0 0 1 1.828 0l6 2.667a2.2 2.2 0 0 1 .462.292l-2.734 1.215-7.259-3.418zm-3.514 1.561 7.259 3.418-1.912.849a2.3 2.3 0 0 1 -1.835 0l-6.461-2.872a2.2 2.2 0 0 1 .462-.292zm-2.487 11.884a2.251 2.251 0 0 1 -1.336-2.056v-6.666a2.26 2.26 0 0 1 .07-.48l6.66 2.96a3.773 3.773 0 0 0 .77.24v8.722c-.054-.019-.111-.029-.164-.053zm15.164-2.056a2.251 2.251 0 0 1 -1.336 2.056l-6 2.667c-.053.024-.11.034-.164.053v-8.723a3.75 3.75 0 0 0 .774-.241l2.356-1.045v1.79a.75.75 0 1 0 1.5 0v-2.458l2.8-1.245a2.26 2.26 0 0 1 .07.48z" fill="rgb(0,0,0)"/></svg>