<svg id="line" height="512" viewBox="0 0 24 24" width="512" xmlns="http://www.w3.org/2000/svg">
    <g fill="rgb(0,0,0)">
        <path
            d="m10.293 16.293-2.293 2.2929v-15.5859a1 1 0 0 0 -2 0v15.5859l-2.293-2.2929a1 1 0 0 0 -1.414 1.414l4 4a1.0013 1.0013 0 0 0 1.4141 0l4-4a1 1 0 0 0 -1.4141-1.414z" />
        <path d="m11 6h10a1 1 0 0 0 0-2h-10a1 1 0 0 0 0 2z" />
        <path d="m21 8h-10a1 1 0 0 0 0 2h10a1 1 0 0 0 0-2z" />
        <path d="m18 12h-7a1 1 0 0 0 0 2h7a1 1 0 0 0 0-2z" />
    </g>
</svg>