<svg xmlns="http://www.w3.org/2000/svg" width="570" height="570" viewBox="0 0 570 570">
    <g id="Group_110" data-name="Group 110" transform="translate(-8896 -3124)">
        <rect id="Rectangle_31" data-name="Rectangle 31" width="570" height="570"
            transform="translate(8896 3124)" fill="none" />
        <path id="Path_323" data-name="Path 323"
            d="M7239.074,3547.406s51.17-9.782,148.418-9.062,144.041,14.689,240.572,16.354,146.893-5.658,146.893-5.658,6.947,26.04,8.045,160.4c.465,56.967-14.637,132.434-16.039,202.709-1.875,94.176,12.383,174.325,12.383,174.325s12.637,11.991-122.322,11.844c-63.027-.07-156.822-25.566-241.008-28.464-94.818-3.263-176.508,16.024-176.508,16.024s-16.387-43.146-16.5-178.346c-.055-69.222,16.92-163.1,21.074-238.245,3.9-70.61-5.012-124.286-5.012-124.286"
            transform="translate(1677.988 -408.317)" fill="none" stroke="#43231d"
            stroke-width="14.25" />
    </g>
</svg>  